<svg width="1566" height="1546" xmlns="http://www.w3.org/2000/svg" xmlns:xlink="http://www.w3.org/1999/xlink" xml:space="preserve" overflow="hidden"><g transform="translate(-471 -886)"><path d="M1026.1 1149.94 1054.41 1178.25" stroke="#E95C6C" stroke-width="13.75" stroke-linejoin="round" stroke-miterlimit="10" fill="none" fill-rule="evenodd"/><path d="M1068.57 1192.4 1096.88 1220.71" stroke="#E95C6C" stroke-width="13.75" stroke-linejoin="round" stroke-miterlimit="10" fill="none" fill-rule="evenodd"/><path d="M1096.87 1149.94 1068.57 1178.25" stroke="#002060" stroke-width="13.75" stroke-linejoin="round" stroke-miterlimit="10" fill="none" fill-rule="evenodd"/><path d="M1054.41 1192.4 1026.1 1220.71" stroke="#002060" stroke-width="13.75" stroke-linejoin="round" stroke-miterlimit="10" fill="none" fill-rule="evenodd"/><path d="M1026.1 1245.05 1054.41 1273.36" stroke="#E95C6C" stroke-width="13.75" stroke-linejoin="round" stroke-miterlimit="10" fill="none" fill-rule="evenodd"/><path d="M1068.57 1287.52 1096.88 1315.83" stroke="#E95C6C" stroke-width="13.75" stroke-linejoin="round" stroke-miterlimit="10" fill="none" fill-rule="evenodd"/><path d="M1096.87 1245.05 1068.57 1273.36" stroke="#002060" stroke-width="13.75" stroke-linejoin="round" stroke-miterlimit="10" fill="none" fill-rule="evenodd"/><path d="M1054.41 1287.52 1026.1 1315.83" stroke="#002060" stroke-width="13.75" stroke-linejoin="round" stroke-miterlimit="10" fill="none" fill-rule="evenodd"/><path d="M1026.1 1340.17 1054.41 1368.48" stroke="#E95C6C" stroke-width="13.75" stroke-linejoin="round" stroke-miterlimit="10" fill="none" fill-rule="evenodd"/><path d="M1068.57 1382.63 1096.88 1410.94" stroke="#E95C6C" stroke-width="13.75" stroke-linejoin="round" stroke-miterlimit="10" fill="none" fill-rule="evenodd"/><path d="M1096.87 1340.17 1068.57 1368.48" stroke="#002060" stroke-width="13.75" stroke-linejoin="round" stroke-miterlimit="10" fill="none" fill-rule="evenodd"/><path d="M1054.41 1382.63 1026.1 1410.94" stroke="#002060" stroke-width="13.75" stroke-linejoin="round" stroke-miterlimit="10" fill="none" fill-rule="evenodd"/><path d="M1026.1 1435.28 1054.41 1463.59" stroke="#E95C6C" stroke-width="13.75" stroke-linejoin="round" stroke-miterlimit="10" fill="none" fill-rule="evenodd"/><path d="M1068.57 1477.75 1096.88 1506.06" stroke="#E95C6C" stroke-width="13.75" stroke-linejoin="round" stroke-miterlimit="10" fill="none" fill-rule="evenodd"/><path d="M1096.87 1435.28 1068.57 1463.59" stroke="#002060" stroke-width="13.75" stroke-linejoin="round" stroke-miterlimit="10" fill="none" fill-rule="evenodd"/><path d="M1054.41 1477.75 1026.1 1506.06" stroke="#002060" stroke-width="13.75" stroke-linejoin="round" stroke-miterlimit="10" fill="none" fill-rule="evenodd"/><path d="M1133.7 1149.94 1162.01 1178.25" stroke="#E95C6C" stroke-width="13.75" stroke-linejoin="round" stroke-miterlimit="10" fill="none" fill-rule="evenodd"/><path d="M1176.17 1192.4 1204.48 1220.71" stroke="#E95C6C" stroke-width="13.75" stroke-linejoin="round" stroke-miterlimit="10" fill="none" fill-rule="evenodd"/><path d="M1204.48 1149.94 1176.17 1178.25" stroke="#002060" stroke-width="13.75" stroke-linejoin="round" stroke-miterlimit="10" fill="none" fill-rule="evenodd"/><path d="M1162.01 1192.4 1133.7 1220.71" stroke="#002060" stroke-width="13.75" stroke-linejoin="round" stroke-miterlimit="10" fill="none" fill-rule="evenodd"/><path d="M1133.7 1245.05 1162.01 1273.36" stroke="#E95C6C" stroke-width="13.75" stroke-linejoin="round" stroke-miterlimit="10" fill="none" fill-rule="evenodd"/><path d="M1176.17 1287.52 1204.48 1315.83" stroke="#E95C6C" stroke-width="13.75" stroke-linejoin="round" stroke-miterlimit="10" fill="none" fill-rule="evenodd"/><path d="M1204.48 1245.05 1176.17 1273.36" stroke="#002060" stroke-width="13.75" stroke-linejoin="round" stroke-miterlimit="10" fill="none" fill-rule="evenodd"/><path d="M1162.01 1287.52 1133.7 1315.83" stroke="#002060" stroke-width="13.75" stroke-linejoin="round" stroke-miterlimit="10" fill="none" fill-rule="evenodd"/><path d="M1133.7 1340.17 1162.01 1368.48" stroke="#E95C6C" stroke-width="13.75" stroke-linejoin="round" stroke-miterlimit="10" fill="none" fill-rule="evenodd"/><path d="M1176.17 1382.63 1204.48 1410.94" stroke="#E95C6C" stroke-width="13.75" stroke-linejoin="round" stroke-miterlimit="10" fill="none" fill-rule="evenodd"/><path d="M1204.48 1340.17 1176.17 1368.48" stroke="#002060" stroke-width="13.75" stroke-linejoin="round" stroke-miterlimit="10" fill="none" fill-rule="evenodd"/><path d="M1162.01 1382.63 1133.7 1410.94" stroke="#002060" stroke-width="13.75" stroke-linejoin="round" stroke-miterlimit="10" fill="none" fill-rule="evenodd"/><path d="M1133.7 1435.28 1162.01 1463.59" stroke="#E95C6C" stroke-width="13.75" stroke-linejoin="round" stroke-miterlimit="10" fill="none" fill-rule="evenodd"/><path d="M1176.17 1477.75 1204.48 1506.06" stroke="#E95C6C" stroke-width="13.75" stroke-linejoin="round" stroke-miterlimit="10" fill="none" fill-rule="evenodd"/><path d="M1204.48 1435.28 1176.17 1463.59" stroke="#002060" stroke-width="13.75" stroke-linejoin="round" stroke-miterlimit="10" fill="none" fill-rule="evenodd"/><path d="M1162.01 1477.75 1133.7 1506.06" stroke="#002060" stroke-width="13.75" stroke-linejoin="round" stroke-miterlimit="10" fill="none" fill-rule="evenodd"/><path d="M1240.37 1150.72 1268.68 1179.03" stroke="#E95C6C" stroke-width="13.75" stroke-linejoin="round" stroke-miterlimit="10" fill="none" fill-rule="evenodd"/><path d="M1282.84 1193.18 1311.15 1221.49" stroke="#E95C6C" stroke-width="13.75" stroke-linejoin="round" stroke-miterlimit="10" fill="none" fill-rule="evenodd"/><path d="M1311.15 1150.72 1282.84 1179.03" stroke="#002060" stroke-width="13.75" stroke-linejoin="round" stroke-miterlimit="10" fill="none" fill-rule="evenodd"/><path d="M1268.68 1193.18 1240.37 1221.49" stroke="#002060" stroke-width="13.75" stroke-linejoin="round" stroke-miterlimit="10" fill="none" fill-rule="evenodd"/><path d="M1240.37 1245.83 1268.68 1274.14" stroke="#E95C6C" stroke-width="13.75" stroke-linejoin="round" stroke-miterlimit="10" fill="none" fill-rule="evenodd"/><path d="M1282.84 1288.3 1311.15 1316.61" stroke="#E95C6C" stroke-width="13.75" stroke-linejoin="round" stroke-miterlimit="10" fill="none" fill-rule="evenodd"/><path d="M1311.15 1245.83 1282.84 1274.14" stroke="#002060" stroke-width="13.75" stroke-linejoin="round" stroke-miterlimit="10" fill="none" fill-rule="evenodd"/><path d="M1268.68 1288.3 1240.37 1316.61" stroke="#002060" stroke-width="13.75" stroke-linejoin="round" stroke-miterlimit="10" fill="none" fill-rule="evenodd"/><path d="M1240.37 1340.95 1268.68 1369.26" stroke="#E95C6C" stroke-width="13.75" stroke-linejoin="round" stroke-miterlimit="10" fill="none" fill-rule="evenodd"/><path d="M1282.84 1383.41 1311.15 1411.72" stroke="#E95C6C" stroke-width="13.75" stroke-linejoin="round" stroke-miterlimit="10" fill="none" fill-rule="evenodd"/><path d="M1311.15 1340.95 1282.84 1369.26" stroke="#002060" stroke-width="13.75" stroke-linejoin="round" stroke-miterlimit="10" fill="none" fill-rule="evenodd"/><path d="M1268.68 1383.41 1240.37 1411.72" stroke="#002060" stroke-width="13.75" stroke-linejoin="round" stroke-miterlimit="10" fill="none" fill-rule="evenodd"/><path d="M1240.37 1436.06 1268.68 1464.37" stroke="#E95C6C" stroke-width="13.75" stroke-linejoin="round" stroke-miterlimit="10" fill="none" fill-rule="evenodd"/><path d="M1282.84 1478.53 1311.15 1506.84" stroke="#E95C6C" stroke-width="13.75" stroke-linejoin="round" stroke-miterlimit="10" fill="none" fill-rule="evenodd"/><path d="M1311.15 1436.06 1282.84 1464.37" stroke="#002060" stroke-width="13.75" stroke-linejoin="round" stroke-miterlimit="10" fill="none" fill-rule="evenodd"/><path d="M1268.68 1478.53 1240.37 1506.84" stroke="#002060" stroke-width="13.75" stroke-linejoin="round" stroke-miterlimit="10" fill="none" fill-rule="evenodd"/><path d="M1347.97 1150.72 1376.28 1179.03" stroke="#E95C6C" stroke-width="13.75" stroke-linejoin="round" stroke-miterlimit="10" fill="none" fill-rule="evenodd"/><path d="M1390.44 1193.18 1418.75 1221.49" stroke="#E95C6C" stroke-width="13.75" stroke-linejoin="round" stroke-miterlimit="10" fill="none" fill-rule="evenodd"/><path d="M1418.75 1150.72 1390.44 1179.03" stroke="#002060" stroke-width="13.75" stroke-linejoin="round" stroke-miterlimit="10" fill="none" fill-rule="evenodd"/><path d="M1376.28 1193.18 1347.97 1221.49" stroke="#002060" stroke-width="13.75" stroke-linejoin="round" stroke-miterlimit="10" fill="none" fill-rule="evenodd"/><path d="M1347.97 1245.83 1376.28 1274.14" stroke="#E95C6C" stroke-width="13.75" stroke-linejoin="round" stroke-miterlimit="10" fill="none" fill-rule="evenodd"/><path d="M1390.44 1288.3 1418.75 1316.61" stroke="#E95C6C" stroke-width="13.75" stroke-linejoin="round" stroke-miterlimit="10" fill="none" fill-rule="evenodd"/><path d="M1418.75 1245.83 1390.44 1274.14" stroke="#002060" stroke-width="13.75" stroke-linejoin="round" stroke-miterlimit="10" fill="none" fill-rule="evenodd"/><path d="M1376.28 1288.3 1347.97 1316.61" stroke="#002060" stroke-width="13.75" stroke-linejoin="round" stroke-miterlimit="10" fill="none" fill-rule="evenodd"/><path d="M1347.97 1340.95 1376.28 1369.26" stroke="#E95C6C" stroke-width="13.75" stroke-linejoin="round" stroke-miterlimit="10" fill="none" fill-rule="evenodd"/><path d="M1390.44 1383.41 1418.75 1411.72" stroke="#E95C6C" stroke-width="13.75" stroke-linejoin="round" stroke-miterlimit="10" fill="none" fill-rule="evenodd"/><path d="M1418.75 1340.95 1390.44 1369.26" stroke="#002060" stroke-width="13.75" stroke-linejoin="round" stroke-miterlimit="10" fill="none" fill-rule="evenodd"/><path d="M1376.28 1383.41 1347.97 1411.72" stroke="#002060" stroke-width="13.75" stroke-linejoin="round" stroke-miterlimit="10" fill="none" fill-rule="evenodd"/><path d="M1347.97 1436.06 1376.28 1464.37" stroke="#E95C6C" stroke-width="13.75" stroke-linejoin="round" stroke-miterlimit="10" fill="none" fill-rule="evenodd"/><path d="M1390.44 1478.53 1418.75 1506.84" stroke="#E95C6C" stroke-width="13.75" stroke-linejoin="round" stroke-miterlimit="10" fill="none" fill-rule="evenodd"/><path d="M1418.75 1436.06 1390.44 1464.37" stroke="#002060" stroke-width="13.75" stroke-linejoin="round" stroke-miterlimit="10" fill="none" fill-rule="evenodd"/><path d="M1376.28 1478.53 1347.97 1506.84" stroke="#002060" stroke-width="13.75" stroke-linejoin="round" stroke-miterlimit="10" fill="none" fill-rule="evenodd"/><path d="M1456.2 1149.94 1484.51 1178.25" stroke="#E95C6C" stroke-width="13.75" stroke-linejoin="round" stroke-miterlimit="10" fill="none" fill-rule="evenodd"/><path d="M1498.67 1192.4 1526.98 1220.71" stroke="#E95C6C" stroke-width="13.75" stroke-linejoin="round" stroke-miterlimit="10" fill="none" fill-rule="evenodd"/><path d="M1526.97 1149.94 1498.67 1178.25" stroke="#002060" stroke-width="13.75" stroke-linejoin="round" stroke-miterlimit="10" fill="none" fill-rule="evenodd"/><path d="M1484.51 1192.4 1456.2 1220.71" stroke="#002060" stroke-width="13.75" stroke-linejoin="round" stroke-miterlimit="10" fill="none" fill-rule="evenodd"/><path d="M1456.2 1245.05 1484.51 1273.36" stroke="#E95C6C" stroke-width="13.75" stroke-linejoin="round" stroke-miterlimit="10" fill="none" fill-rule="evenodd"/><path d="M1498.67 1287.52 1526.98 1315.83" stroke="#E95C6C" stroke-width="13.75" stroke-linejoin="round" stroke-miterlimit="10" fill="none" fill-rule="evenodd"/><path d="M1526.97 1245.05 1498.67 1273.36" stroke="#002060" stroke-width="13.75" stroke-linejoin="round" stroke-miterlimit="10" fill="none" fill-rule="evenodd"/><path d="M1484.51 1287.52 1456.2 1315.83" stroke="#002060" stroke-width="13.75" stroke-linejoin="round" stroke-miterlimit="10" fill="none" fill-rule="evenodd"/><path d="M1456.2 1340.17 1484.51 1368.48" stroke="#E95C6C" stroke-width="13.75" stroke-linejoin="round" stroke-miterlimit="10" fill="none" fill-rule="evenodd"/><path d="M1498.67 1382.63 1526.98 1410.94" stroke="#E95C6C" stroke-width="13.75" stroke-linejoin="round" stroke-miterlimit="10" fill="none" fill-rule="evenodd"/><path d="M1526.97 1340.17 1498.67 1368.48" stroke="#002060" stroke-width="13.75" stroke-linejoin="round" stroke-miterlimit="10" fill="none" fill-rule="evenodd"/><path d="M1484.51 1382.63 1456.2 1410.94" stroke="#002060" stroke-width="13.75" stroke-linejoin="round" stroke-miterlimit="10" fill="none" fill-rule="evenodd"/><path d="M1456.2 1435.28 1484.51 1463.59" stroke="#E95C6C" stroke-width="13.75" stroke-linejoin="round" stroke-miterlimit="10" fill="none" fill-rule="evenodd"/><path d="M1498.67 1477.75 1526.98 1506.06" stroke="#E95C6C" stroke-width="13.75" stroke-linejoin="round" stroke-miterlimit="10" fill="none" fill-rule="evenodd"/><path d="M1526.97 1435.28 1498.67 1463.59" stroke="#002060" stroke-width="13.75" stroke-linejoin="round" stroke-miterlimit="10" fill="none" fill-rule="evenodd"/><path d="M1484.51 1477.75 1456.2 1506.06" stroke="#002060" stroke-width="13.75" stroke-linejoin="round" stroke-miterlimit="10" fill="none" fill-rule="evenodd"/><path d="M1563.8 1149.94 1592.11 1178.25" stroke="#E95C6C" stroke-width="13.75" stroke-linejoin="round" stroke-miterlimit="10" fill="none" fill-rule="evenodd"/><path d="M1606.27 1192.4 1634.58 1220.71" stroke="#E95C6C" stroke-width="13.75" stroke-linejoin="round" stroke-miterlimit="10" fill="none" fill-rule="evenodd"/><path d="M1634.58 1149.94 1606.27 1178.25" stroke="#002060" stroke-width="13.75" stroke-linejoin="round" stroke-miterlimit="10" fill="none" fill-rule="evenodd"/><path d="M1592.11 1192.4 1563.8 1220.71" stroke="#002060" stroke-width="13.75" stroke-linejoin="round" stroke-miterlimit="10" fill="none" fill-rule="evenodd"/><path d="M1563.8 1245.05 1592.11 1273.36" stroke="#E95C6C" stroke-width="13.75" stroke-linejoin="round" stroke-miterlimit="10" fill="none" fill-rule="evenodd"/><path d="M1606.27 1287.52 1634.58 1315.83" stroke="#E95C6C" stroke-width="13.75" stroke-linejoin="round" stroke-miterlimit="10" fill="none" fill-rule="evenodd"/><path d="M1634.58 1245.05 1606.27 1273.36" stroke="#002060" stroke-width="13.75" stroke-linejoin="round" stroke-miterlimit="10" fill="none" fill-rule="evenodd"/><path d="M1592.11 1287.52 1563.8 1315.83" stroke="#002060" stroke-width="13.75" stroke-linejoin="round" stroke-miterlimit="10" fill="none" fill-rule="evenodd"/><path d="M1563.8 1340.17 1592.11 1368.48" stroke="#E95C6C" stroke-width="13.75" stroke-linejoin="round" stroke-miterlimit="10" fill="none" fill-rule="evenodd"/><path d="M1606.27 1382.63 1634.58 1410.94" stroke="#E95C6C" stroke-width="13.75" stroke-linejoin="round" stroke-miterlimit="10" fill="none" fill-rule="evenodd"/><path d="M1634.58 1340.17 1606.27 1368.48" stroke="#002060" stroke-width="13.75" stroke-linejoin="round" stroke-miterlimit="10" fill="none" fill-rule="evenodd"/><path d="M1592.11 1382.63 1563.8 1410.94" stroke="#002060" stroke-width="13.75" stroke-linejoin="round" stroke-miterlimit="10" fill="none" fill-rule="evenodd"/><path d="M1563.8 1435.28 1592.11 1463.59" stroke="#E95C6C" stroke-width="13.75" stroke-linejoin="round" stroke-miterlimit="10" fill="none" fill-rule="evenodd"/><path d="M1606.27 1477.75 1634.58 1506.06" stroke="#E95C6C" stroke-width="13.75" stroke-linejoin="round" stroke-miterlimit="10" fill="none" fill-rule="evenodd"/><path d="M1634.58 1435.28 1606.27 1463.59" stroke="#002060" stroke-width="13.75" stroke-linejoin="round" stroke-miterlimit="10" fill="none" fill-rule="evenodd"/><path d="M1592.11 1477.75 1563.8 1506.06" stroke="#002060" stroke-width="13.75" stroke-linejoin="round" stroke-miterlimit="10" fill="none" fill-rule="evenodd"/><path d="M1670.47 1150.72 1698.78 1179.03" stroke="#E95C6C" stroke-width="13.75" stroke-linejoin="round" stroke-miterlimit="10" fill="none" fill-rule="evenodd"/><path d="M1712.94 1193.18 1741.25 1221.49" stroke="#E95C6C" stroke-width="13.75" stroke-linejoin="round" stroke-miterlimit="10" fill="none" fill-rule="evenodd"/><path d="M1741.25 1150.72 1712.94 1179.03" stroke="#002060" stroke-width="13.75" stroke-linejoin="round" stroke-miterlimit="10" fill="none" fill-rule="evenodd"/><path d="M1698.78 1193.18 1670.47 1221.49" stroke="#002060" stroke-width="13.75" stroke-linejoin="round" stroke-miterlimit="10" fill="none" fill-rule="evenodd"/><path d="M1670.47 1245.83 1698.78 1274.14" stroke="#E95C6C" stroke-width="13.75" stroke-linejoin="round" stroke-miterlimit="10" fill="none" fill-rule="evenodd"/><path d="M1712.94 1288.3 1741.25 1316.61" stroke="#E95C6C" stroke-width="13.75" stroke-linejoin="round" stroke-miterlimit="10" fill="none" fill-rule="evenodd"/><path d="M1741.25 1245.83 1712.94 1274.14" stroke="#002060" stroke-width="13.75" stroke-linejoin="round" stroke-miterlimit="10" fill="none" fill-rule="evenodd"/><path d="M1698.78 1288.3 1670.47 1316.61" stroke="#002060" stroke-width="13.75" stroke-linejoin="round" stroke-miterlimit="10" fill="none" fill-rule="evenodd"/><path d="M1670.47 1340.95 1698.78 1369.26" stroke="#E95C6C" stroke-width="13.75" stroke-linejoin="round" stroke-miterlimit="10" fill="none" fill-rule="evenodd"/><path d="M1712.94 1383.41 1741.25 1411.72" stroke="#E95C6C" stroke-width="13.75" stroke-linejoin="round" stroke-miterlimit="10" fill="none" fill-rule="evenodd"/><path d="M1741.25 1340.95 1712.94 1369.26" stroke="#002060" stroke-width="13.75" stroke-linejoin="round" stroke-miterlimit="10" fill="none" fill-rule="evenodd"/><path d="M1698.78 1383.41 1670.47 1411.72" stroke="#002060" stroke-width="13.75" stroke-linejoin="round" stroke-miterlimit="10" fill="none" fill-rule="evenodd"/><path d="M1670.47 1436.06 1698.78 1464.37" stroke="#E95C6C" stroke-width="13.75" stroke-linejoin="round" stroke-miterlimit="10" fill="none" fill-rule="evenodd"/><path d="M1712.94 1478.53 1741.25 1506.84" stroke="#E95C6C" stroke-width="13.75" stroke-linejoin="round" stroke-miterlimit="10" fill="none" fill-rule="evenodd"/><path d="M1741.25 1436.06 1712.94 1464.37" stroke="#002060" stroke-width="13.75" stroke-linejoin="round" stroke-miterlimit="10" fill="none" fill-rule="evenodd"/><path d="M1698.78 1478.53 1670.47 1506.84" stroke="#002060" stroke-width="13.75" stroke-linejoin="round" stroke-miterlimit="10" fill="none" fill-rule="evenodd"/><path d="M1778.07 1150.72 1806.38 1179.03" stroke="#E95C6C" stroke-width="13.75" stroke-linejoin="round" stroke-miterlimit="10" fill="none" fill-rule="evenodd"/><path d="M1820.54 1193.18 1848.85 1221.49" stroke="#E95C6C" stroke-width="13.75" stroke-linejoin="round" stroke-miterlimit="10" fill="none" fill-rule="evenodd"/><path d="M1848.85 1150.72 1820.54 1179.03" stroke="#002060" stroke-width="13.75" stroke-linejoin="round" stroke-miterlimit="10" fill="none" fill-rule="evenodd"/><path d="M1806.38 1193.18 1778.07 1221.49" stroke="#002060" stroke-width="13.75" stroke-linejoin="round" stroke-miterlimit="10" fill="none" fill-rule="evenodd"/><path d="M1778.07 1245.83 1806.38 1274.14" stroke="#E95C6C" stroke-width="13.75" stroke-linejoin="round" stroke-miterlimit="10" fill="none" fill-rule="evenodd"/><path d="M1820.54 1288.3 1848.85 1316.61" stroke="#E95C6C" stroke-width="13.75" stroke-linejoin="round" stroke-miterlimit="10" fill="none" fill-rule="evenodd"/><path d="M1848.85 1245.83 1820.54 1274.14" stroke="#002060" stroke-width="13.75" stroke-linejoin="round" stroke-miterlimit="10" fill="none" fill-rule="evenodd"/><path d="M1806.38 1288.3 1778.07 1316.61" stroke="#002060" stroke-width="13.75" stroke-linejoin="round" stroke-miterlimit="10" fill="none" fill-rule="evenodd"/><path d="M1778.07 1340.95 1806.38 1369.26" stroke="#E95C6C" stroke-width="13.75" stroke-linejoin="round" stroke-miterlimit="10" fill="none" fill-rule="evenodd"/><path d="M1820.54 1383.41 1848.85 1411.72" stroke="#E95C6C" stroke-width="13.75" stroke-linejoin="round" stroke-miterlimit="10" fill="none" fill-rule="evenodd"/><path d="M1848.85 1340.95 1820.54 1369.26" stroke="#002060" stroke-width="13.75" stroke-linejoin="round" stroke-miterlimit="10" fill="none" fill-rule="evenodd"/><path d="M1806.38 1383.41 1778.07 1411.72" stroke="#002060" stroke-width="13.75" stroke-linejoin="round" stroke-miterlimit="10" fill="none" fill-rule="evenodd"/><path d="M1778.07 1436.06 1806.38 1464.37" stroke="#E95C6C" stroke-width="13.75" stroke-linejoin="round" stroke-miterlimit="10" fill="none" fill-rule="evenodd"/><path d="M1820.54 1478.53 1848.85 1506.84" stroke="#E95C6C" stroke-width="13.75" stroke-linejoin="round" stroke-miterlimit="10" fill="none" fill-rule="evenodd"/><path d="M1848.85 1436.06 1820.54 1464.37" stroke="#002060" stroke-width="13.75" stroke-linejoin="round" stroke-miterlimit="10" fill="none" fill-rule="evenodd"/><path d="M1806.38 1478.53 1778.07 1506.84" stroke="#002060" stroke-width="13.75" stroke-linejoin="round" stroke-miterlimit="10" fill="none" fill-rule="evenodd"/><rect x="990.5" y="1106.5" width="895" height="444" stroke="#0070C0" stroke-width="9.16667" stroke-linejoin="round" stroke-miterlimit="10" fill="none"/><path d="M1024.5 1840C1024.5 1822.05 1039.05 1807.5 1057 1807.5 1074.95 1807.5 1089.5 1822.05 1089.5 1840 1089.5 1857.95 1074.95 1872.5 1057 1872.5 1039.05 1872.5 1024.5 1857.95 1024.5 1840Z" stroke="#000000" stroke-width="4.58333" stroke-linejoin="round" stroke-miterlimit="10" fill="#E95C6C" fill-rule="evenodd"/><path d="M1133.5 1840C1133.5 1822.05 1148.05 1807.5 1166 1807.5 1183.95 1807.5 1198.5 1822.05 1198.5 1840 1198.5 1857.95 1183.95 1872.5 1166 1872.5 1148.05 1872.5 1133.5 1857.95 1133.5 1840Z" stroke="#000000" stroke-width="4.58333" stroke-linejoin="round" stroke-miterlimit="10" fill="#E95C6C" fill-rule="evenodd"/><path d="M1242.5 1840C1242.5 1822.05 1257.05 1807.5 1275 1807.5 1292.95 1807.5 1307.5 1822.05 1307.5 1840 1307.5 1857.95 1292.95 1872.5 1275 1872.5 1257.05 1872.5 1242.5 1857.95 1242.5 1840Z" stroke="#000000" stroke-width="4.58333" stroke-linejoin="round" stroke-miterlimit="10" fill="#E95C6C" fill-rule="evenodd"/><path d="M1350.5 1840C1350.5 1822.05 1365.05 1807.5 1383 1807.5 1400.95 1807.5 1415.5 1822.05 1415.5 1840 1415.5 1857.95 1400.95 1872.5 1383 1872.5 1365.05 1872.5 1350.5 1857.95 1350.5 1840Z" stroke="#000000" stroke-width="4.58333" stroke-linejoin="round" stroke-miterlimit="10" fill="#E95C6C" fill-rule="evenodd"/><path d="M1459.5 1840C1459.5 1822.05 1474.05 1807.5 1492 1807.5 1509.95 1807.5 1524.5 1822.05 1524.5 1840 1524.5 1857.95 1509.95 1872.5 1492 1872.5 1474.05 1872.5 1459.5 1857.95 1459.5 1840Z" stroke="#000000" stroke-width="4.58333" stroke-linejoin="round" stroke-miterlimit="10" fill="#E95C6C" fill-rule="evenodd"/><path d="M1568.5 1840C1568.5 1822.05 1583.05 1807.5 1601 1807.5 1618.95 1807.5 1633.5 1822.05 1633.5 1840 1633.5 1857.95 1618.95 1872.5 1601 1872.5 1583.05 1872.5 1568.5 1857.95 1568.5 1840Z" stroke="#000000" stroke-width="4.58333" stroke-linejoin="round" stroke-miterlimit="10" fill="#E95C6C" fill-rule="evenodd"/><path d="M1677.5 1840C1677.5 1822.05 1692.05 1807.5 1710 1807.5 1727.95 1807.5 1742.5 1822.05 1742.5 1840 1742.5 1857.95 1727.95 1872.5 1710 1872.5 1692.05 1872.5 1677.5 1857.95 1677.5 1840Z" stroke="#000000" stroke-width="4.58333" stroke-linejoin="round" stroke-miterlimit="10" fill="#E95C6C" fill-rule="evenodd"/><path d="M1785.5 1840C1785.5 1822.05 1800.05 1807.5 1818 1807.5 1835.95 1807.5 1850.5 1822.05 1850.5 1840 1850.5 1857.95 1835.95 1872.5 1818 1872.5 1800.05 1872.5 1785.5 1857.95 1785.5 1840Z" stroke="#000000" stroke-width="4.58333" stroke-linejoin="round" stroke-miterlimit="10" fill="#E95C6C" fill-rule="evenodd"/><path d="M1024.5 1936C1024.5 1918.05 1039.05 1903.5 1057 1903.5 1074.95 1903.5 1089.5 1918.05 1089.5 1936 1089.5 1953.95 1074.95 1968.5 1057 1968.5 1039.05 1968.5 1024.5 1953.95 1024.5 1936Z" stroke="#000000" stroke-width="4.58333" stroke-linejoin="round" stroke-miterlimit="10" fill="#E95C6C" fill-rule="evenodd"/><path d="M1133.5 1936C1133.5 1918.05 1148.05 1903.5 1166 1903.5 1183.95 1903.5 1198.5 1918.05 1198.5 1936 1198.5 1953.95 1183.95 1968.5 1166 1968.5 1148.05 1968.5 1133.5 1953.95 1133.5 1936Z" stroke="#000000" stroke-width="4.58333" stroke-linejoin="round" stroke-miterlimit="10" fill="#E95C6C" fill-rule="evenodd"/><path d="M1242.5 1936C1242.5 1918.05 1257.05 1903.5 1275 1903.5 1292.95 1903.5 1307.5 1918.05 1307.5 1936 1307.5 1953.95 1292.95 1968.5 1275 1968.5 1257.05 1968.5 1242.5 1953.95 1242.5 1936Z" stroke="#000000" stroke-width="4.58333" stroke-linejoin="round" stroke-miterlimit="10" fill="#E95C6C" fill-rule="evenodd"/><path d="M1350.5 1936C1350.5 1918.05 1365.05 1903.5 1383 1903.5 1400.95 1903.5 1415.5 1918.05 1415.5 1936 1415.5 1953.95 1400.95 1968.5 1383 1968.5 1365.05 1968.5 1350.5 1953.95 1350.5 1936Z" stroke="#000000" stroke-width="4.58333" stroke-linejoin="round" stroke-miterlimit="10" fill="#E95C6C" fill-rule="evenodd"/><path d="M1459.5 1936C1459.5 1918.05 1474.05 1903.5 1492 1903.5 1509.95 1903.5 1524.5 1918.05 1524.5 1936 1524.5 1953.95 1509.95 1968.5 1492 1968.5 1474.05 1968.5 1459.5 1953.95 1459.5 1936Z" stroke="#000000" stroke-width="4.58333" stroke-linejoin="round" stroke-miterlimit="10" fill="#E95C6C" fill-rule="evenodd"/><path d="M1568.5 1936C1568.5 1918.05 1583.05 1903.5 1601 1903.5 1618.95 1903.5 1633.5 1918.05 1633.5 1936 1633.5 1953.95 1618.95 1968.5 1601 1968.5 1583.05 1968.5 1568.5 1953.95 1568.5 1936Z" stroke="#000000" stroke-width="4.58333" stroke-linejoin="round" stroke-miterlimit="10" fill="#E95C6C" fill-rule="evenodd"/><path d="M1677.5 1936C1677.5 1918.05 1692.05 1903.5 1710 1903.5 1727.95 1903.5 1742.5 1918.05 1742.5 1936 1742.5 1953.95 1727.95 1968.5 1710 1968.5 1692.05 1968.5 1677.5 1953.95 1677.5 1936Z" stroke="#000000" stroke-width="4.58333" stroke-linejoin="round" stroke-miterlimit="10" fill="#E95C6C" fill-rule="evenodd"/><path d="M1785.5 1936C1785.5 1918.05 1800.05 1903.5 1818 1903.5 1835.95 1903.5 1850.5 1918.05 1850.5 1936 1850.5 1953.95 1835.95 1968.5 1818 1968.5 1800.05 1968.5 1785.5 1953.95 1785.5 1936Z" stroke="#000000" stroke-width="4.58333" stroke-linejoin="round" stroke-miterlimit="10" fill="#E95C6C" fill-rule="evenodd"/><path d="M1024.5 2032C1024.5 2014.05 1039.05 1999.5 1057 1999.5 1074.95 1999.5 1089.5 2014.05 1089.5 2032 1089.5 2049.95 1074.95 2064.5 1057 2064.5 1039.05 2064.5 1024.5 2049.95 1024.5 2032Z" stroke="#000000" stroke-width="4.58333" stroke-linejoin="round" stroke-miterlimit="10" fill="#E95C6C" fill-rule="evenodd"/><path d="M1133.5 2032C1133.5 2014.05 1148.05 1999.5 1166 1999.5 1183.95 1999.5 1198.5 2014.05 1198.5 2032 1198.5 2049.95 1183.95 2064.5 1166 2064.5 1148.05 2064.5 1133.5 2049.95 1133.5 2032Z" stroke="#000000" stroke-width="4.58333" stroke-linejoin="round" stroke-miterlimit="10" fill="#E95C6C" fill-rule="evenodd"/><path d="M1242.5 2032C1242.5 2014.05 1257.05 1999.5 1275 1999.5 1292.95 1999.5 1307.5 2014.05 1307.5 2032 1307.5 2049.95 1292.95 2064.5 1275 2064.5 1257.05 2064.5 1242.5 2049.95 1242.5 2032Z" stroke="#000000" stroke-width="4.58333" stroke-linejoin="round" stroke-miterlimit="10" fill="#E95C6C" fill-rule="evenodd"/><path d="M1350.5 2032C1350.5 2014.05 1365.05 1999.5 1383 1999.5 1400.95 1999.5 1415.5 2014.05 1415.5 2032 1415.5 2049.95 1400.95 2064.5 1383 2064.5 1365.05 2064.5 1350.5 2049.95 1350.5 2032Z" stroke="#000000" stroke-width="4.58333" stroke-linejoin="round" stroke-miterlimit="10" fill="#E95C6C" fill-rule="evenodd"/><path d="M1459.5 2032C1459.5 2014.05 1474.05 1999.5 1492 1999.5 1509.95 1999.5 1524.5 2014.05 1524.5 2032 1524.5 2049.95 1509.95 2064.5 1492 2064.5 1474.05 2064.5 1459.5 2049.95 1459.5 2032Z" stroke="#000000" stroke-width="4.58333" stroke-linejoin="round" stroke-miterlimit="10" fill="#E95C6C" fill-rule="evenodd"/><path d="M1568.5 2032C1568.5 2014.05 1583.05 1999.5 1601 1999.5 1618.95 1999.5 1633.5 2014.05 1633.5 2032 1633.5 2049.95 1618.95 2064.5 1601 2064.5 1583.05 2064.5 1568.5 2049.95 1568.5 2032Z" stroke="#000000" stroke-width="4.58333" stroke-linejoin="round" stroke-miterlimit="10" fill="#E95C6C" fill-rule="evenodd"/><path d="M1677.5 2032C1677.5 2014.05 1692.05 1999.5 1710 1999.5 1727.95 1999.5 1742.5 2014.05 1742.5 2032 1742.5 2049.95 1727.95 2064.5 1710 2064.5 1692.05 2064.5 1677.5 2049.95 1677.5 2032Z" stroke="#000000" stroke-width="4.58333" stroke-linejoin="round" stroke-miterlimit="10" fill="#E95C6C" fill-rule="evenodd"/><path d="M1785.5 2032C1785.5 2014.05 1800.05 1999.5 1818 1999.5 1835.95 1999.5 1850.5 2014.05 1850.5 2032 1850.5 2049.95 1835.95 2064.5 1818 2064.5 1800.05 2064.5 1785.5 2049.95 1785.5 2032Z" stroke="#000000" stroke-width="4.58333" stroke-linejoin="round" stroke-miterlimit="10" fill="#E95C6C" fill-rule="evenodd"/><path d="M1024.5 2128C1024.5 2110.05 1039.05 2095.5 1057 2095.5 1074.95 2095.5 1089.5 2110.05 1089.5 2128 1089.5 2145.95 1074.95 2160.5 1057 2160.5 1039.05 2160.5 1024.5 2145.95 1024.5 2128Z" stroke="#000000" stroke-width="4.58333" stroke-linejoin="round" stroke-miterlimit="10" fill="#E95C6C" fill-rule="evenodd"/><path d="M1133.5 2128C1133.5 2110.05 1148.05 2095.5 1166 2095.5 1183.95 2095.5 1198.5 2110.05 1198.5 2128 1198.5 2145.95 1183.95 2160.5 1166 2160.5 1148.05 2160.5 1133.5 2145.95 1133.5 2128Z" stroke="#000000" stroke-width="4.58333" stroke-linejoin="round" stroke-miterlimit="10" fill="#E95C6C" fill-rule="evenodd"/><path d="M1242.5 2128C1242.5 2110.05 1257.05 2095.5 1275 2095.5 1292.95 2095.5 1307.5 2110.05 1307.5 2128 1307.5 2145.95 1292.95 2160.5 1275 2160.5 1257.05 2160.5 1242.5 2145.95 1242.5 2128Z" stroke="#000000" stroke-width="4.58333" stroke-linejoin="round" stroke-miterlimit="10" fill="#E95C6C" fill-rule="evenodd"/><path d="M1350.5 2128C1350.5 2110.05 1365.05 2095.5 1383 2095.5 1400.95 2095.5 1415.5 2110.05 1415.5 2128 1415.5 2145.95 1400.95 2160.5 1383 2160.5 1365.05 2160.5 1350.5 2145.95 1350.5 2128Z" stroke="#000000" stroke-width="4.58333" stroke-linejoin="round" stroke-miterlimit="10" fill="#E95C6C" fill-rule="evenodd"/><path d="M1459.5 2128C1459.5 2110.05 1474.05 2095.5 1492 2095.5 1509.95 2095.5 1524.5 2110.05 1524.5 2128 1524.5 2145.95 1509.95 2160.5 1492 2160.5 1474.05 2160.5 1459.5 2145.95 1459.5 2128Z" stroke="#000000" stroke-width="4.58333" stroke-linejoin="round" stroke-miterlimit="10" fill="#E95C6C" fill-rule="evenodd"/><path d="M1568.5 2128C1568.5 2110.05 1583.05 2095.5 1601 2095.5 1618.95 2095.5 1633.5 2110.05 1633.5 2128 1633.5 2145.95 1618.95 2160.5 1601 2160.5 1583.05 2160.5 1568.5 2145.95 1568.5 2128Z" stroke="#000000" stroke-width="4.58333" stroke-linejoin="round" stroke-miterlimit="10" fill="#E95C6C" fill-rule="evenodd"/><path d="M1677.5 2128C1677.5 2110.05 1692.05 2095.5 1710 2095.5 1727.95 2095.5 1742.5 2110.05 1742.5 2128 1742.5 2145.95 1727.95 2160.5 1710 2160.5 1692.05 2160.5 1677.5 2145.95 1677.5 2128Z" stroke="#000000" stroke-width="4.58333" stroke-linejoin="round" stroke-miterlimit="10" fill="#E95C6C" fill-rule="evenodd"/><path d="M1785.5 2128C1785.5 2110.05 1800.05 2095.5 1818 2095.5 1835.95 2095.5 1850.5 2110.05 1850.5 2128 1850.5 2145.95 1835.95 2160.5 1818 2160.5 1800.05 2160.5 1785.5 2145.95 1785.5 2128Z" stroke="#000000" stroke-width="4.58333" stroke-linejoin="round" stroke-miterlimit="10" fill="#E95C6C" fill-rule="evenodd"/><rect x="990.5" y="1762.5" width="895" height="444" stroke="#0070C0" stroke-width="9.16667" stroke-linejoin="round" stroke-miterlimit="10" fill="none"/><path d="M1828.5 1185.5 2010.39 1185.5" stroke="#4A66AC" stroke-width="3.4375" stroke-linejoin="round" stroke-miterlimit="10" fill="none" fill-rule="evenodd"/><path d="M1828.5 1280.5 2010.39 1280.5" stroke="#4A66AC" stroke-width="3.4375" stroke-linejoin="round" stroke-miterlimit="10" fill="none" fill-rule="evenodd"/><path d="M1921.4 1225.62C1919.57 1225.62 1917.93 1226.44 1916.5 1228.08 1914.6 1230.25 1913.65 1233.42 1913.65 1237.58 1913.65 1241.79 1914.57 1245.02 1916.4 1247.26 1918.24 1249.5 1920.28 1250.62 1922.53 1250.62 1924.42 1250.62 1926.26 1249.67 1928.03 1247.77L1928.03 1233.02C1927.9 1231.61 1927.53 1230.31 1926.9 1229.15 1926.28 1227.98 1925.45 1227.1 1924.42 1226.51 1923.39 1225.91 1922.38 1225.62 1921.4 1225.62ZM1931.78 1208.74 1933.18 1208.74 1933.18 1241.83C1933.18 1245.19 1933.26 1247.24 1933.42 1247.98 1933.57 1248.71 1933.82 1249.23 1934.17 1249.52 1934.51 1249.81 1934.91 1249.96 1935.37 1249.96 1935.93 1249.96 1936.68 1249.78 1937.62 1249.43L1937.96 1250.52 1929.46 1254.05 1928.03 1254.05 1928.03 1249.96C1926.63 1251.42 1925.27 1252.46 1923.93 1253.1 1922.6 1253.74 1921.16 1254.05 1919.62 1254.05 1916.5 1254.05 1913.77 1252.75 1911.43 1250.13 1909.1 1247.52 1907.93 1244.16 1907.93 1240.05 1907.93 1235.95 1909.22 1232.19 1911.81 1228.79 1914.39 1225.38 1917.71 1223.68 1921.78 1223.68 1924.3 1223.68 1926.38 1224.48 1928.03 1226.08L1928.03 1220.8C1928.03 1217.53 1927.95 1215.52 1927.79 1214.77 1927.64 1214.02 1927.39 1213.51 1927.06 1213.24 1926.72 1212.97 1926.31 1212.83 1925.81 1212.83 1925.27 1212.83 1924.55 1213 1923.65 1213.33L1923.25 1212.24Z" fill-rule="evenodd"/><text fill="#000000" fill-opacity="0" font-family="Arial,Arial_MSFontService,sans-serif" font-size="45.3125" x="1907.93" y="1248.39">d</text><path d="M1938.42 1237.64 1951.89 1237.64 1951.89 1238.8 1951.02 1238.8C1950.2 1238.8 1949.58 1238.99 1949.16 1239.39 1948.73 1239.78 1948.52 1240.32 1948.52 1240.98 1948.52 1241.71 1948.74 1242.58 1949.17 1243.58L1955.83 1259.39 1962.52 1242.98C1963 1241.82 1963.24 1240.93 1963.24 1240.33 1963.24 1240.03 1963.15 1239.8 1962.99 1239.61 1962.76 1239.3 1962.46 1239.08 1962.11 1238.97 1961.76 1238.85 1961.04 1238.8 1959.95 1238.8L1959.95 1237.64 1969.3 1237.64 1969.3 1238.8C1968.21 1238.88 1967.46 1239.1 1967.05 1239.45 1966.32 1240.08 1965.66 1241.12 1965.08 1242.58L1954.92 1267.14 1953.64 1267.14 1943.42 1242.98C1942.96 1241.86 1942.53 1241.05 1942.11 1240.56 1941.69 1240.07 1941.16 1239.66 1940.52 1239.33 1940.16 1239.14 1939.46 1238.96 1938.42 1238.8Z" fill-rule="evenodd"/><text fill="#000000" fill-opacity="0" font-family="Arial,Arial_MSFontService,sans-serif" font-size="29.5" x="1938.42" y="1263.45">v</text><path d="M1813.5 1483.5 1813.5 1678.38" stroke="#4A66AC" stroke-width="3.4375" stroke-linejoin="round" stroke-miterlimit="10" fill="none" fill-rule="evenodd"/><path d="M1706.5 1483.5 1706.5 1678.38" stroke="#4A66AC" stroke-width="3.4375" stroke-linejoin="round" stroke-miterlimit="10" fill="none" fill-rule="evenodd"/><path d="M1742.06 1610.48C1740.23 1610.48 1738.59 1611.3 1737.15 1612.95 1735.26 1615.11 1734.31 1618.28 1734.31 1622.45 1734.31 1626.65 1735.23 1629.88 1737.06 1632.12 1738.89 1634.36 1740.93 1635.48 1743.18 1635.48 1745.08 1635.48 1746.91 1634.53 1748.68 1632.63L1748.68 1617.88C1748.56 1616.47 1748.18 1615.17 1747.56 1614.01 1746.93 1612.84 1746.11 1611.96 1745.07 1611.37 1744.04 1610.77 1743.04 1610.48 1742.06 1610.48ZM1752.43 1593.6 1753.84 1593.6 1753.84 1626.7C1753.84 1630.05 1753.92 1632.1 1754.07 1632.84 1754.23 1633.58 1754.48 1634.09 1754.82 1634.38 1755.17 1634.67 1755.57 1634.82 1756.03 1634.82 1756.59 1634.82 1757.34 1634.64 1758.28 1634.29L1758.62 1635.38 1750.12 1638.91 1748.68 1638.91 1748.68 1634.82C1747.29 1636.28 1745.92 1637.33 1744.59 1637.96 1743.26 1638.6 1741.82 1638.91 1740.28 1638.91 1737.15 1638.91 1734.42 1637.61 1732.09 1634.99 1729.76 1632.38 1728.59 1629.02 1728.59 1624.91 1728.59 1620.81 1729.88 1617.05 1732.47 1613.65 1735.05 1610.24 1738.37 1608.54 1742.43 1608.54 1744.96 1608.54 1747.04 1609.34 1748.68 1610.95L1748.68 1605.66C1748.68 1602.39 1748.61 1600.38 1748.45 1599.63 1748.29 1598.88 1748.05 1598.37 1747.72 1598.1 1747.38 1597.83 1746.97 1597.7 1746.47 1597.7 1745.92 1597.7 1745.21 1597.86 1744.31 1598.2L1743.9 1597.1Z" fill-rule="evenodd"/><text fill="#000000" fill-opacity="0" font-family="Arial,Arial_MSFontService,sans-serif" font-size="45.3125" x="1728.59" y="1633.25">d</text><path d="M1767.52 1614.34 1768.95 1614.34 1768.95 1635.28C1771.27 1632.74 1773.1 1631.11 1774.45 1630.39 1775.81 1629.67 1777.16 1629.31 1778.52 1629.31 1780.14 1629.31 1781.54 1629.76 1782.7 1630.65 1783.87 1631.55 1784.74 1632.96 1785.3 1634.87 1785.69 1636.21 1785.89 1638.64 1785.89 1642.19L1785.89 1652.31C1785.89 1654.12 1786.04 1655.36 1786.33 1656.03 1786.54 1656.53 1786.89 1656.92 1787.39 1657.22 1787.89 1657.51 1788.81 1657.65 1790.14 1657.65L1790.14 1658.78 1776.08 1658.78 1776.08 1657.65 1776.74 1657.65C1778.07 1657.65 1779 1657.45 1779.52 1657.04 1780.04 1656.64 1780.4 1656.04 1780.61 1655.25 1780.67 1654.91 1780.7 1653.94 1780.7 1652.31L1780.7 1642.19C1780.7 1639.06 1780.54 1637.01 1780.22 1636.03 1779.9 1635.05 1779.38 1634.32 1778.67 1633.83 1777.97 1633.34 1777.11 1633.09 1776.11 1633.09 1775.09 1633.09 1774.03 1633.36 1772.92 1633.9 1771.82 1634.45 1770.5 1635.54 1768.95 1637.19L1768.95 1652.31C1768.95 1654.27 1769.06 1655.49 1769.28 1655.97 1769.5 1656.45 1769.91 1656.85 1770.5 1657.17 1771.1 1657.49 1772.12 1657.65 1773.58 1657.65L1773.58 1658.78 1759.39 1658.78 1759.39 1657.65C1760.66 1657.65 1761.66 1657.46 1762.39 1657.06 1762.81 1656.85 1763.14 1656.46 1763.39 1655.87 1763.64 1655.29 1763.77 1654.1 1763.77 1652.31L1763.77 1626.4C1763.77 1623.13 1763.69 1621.12 1763.53 1620.37 1763.38 1619.62 1763.14 1619.11 1762.81 1618.84 1762.49 1618.57 1762.06 1618.44 1761.52 1618.44 1761.08 1618.44 1760.37 1618.6 1759.39 1618.94L1758.95 1617.84Z" fill-rule="evenodd"/><text fill="#000000" fill-opacity="0" font-family="Arial,Arial_MSFontService,sans-serif" font-size="44.4375" x="1758.95" y="1653.22">h</text><text font-family="Times New Roman,Times New Roman_MSFontService,sans-serif" font-weight="400" font-size="48" transform="matrix(1 0 0 1 1004.59 1006)">Single</text><text font-family="Times New Roman,Times New Roman_MSFontService,sans-serif" font-weight="400" font-size="48" transform="matrix(1 0 0 1 1155.61 1006)">Panel</text><text font-family="Times New Roman,Times New Roman_MSFontService,sans-serif" font-weight="400" font-size="48" transform="matrix(1 0 0 1 1290.59 1006)">(</text><text font-family="Times New Roman,Times New Roman_MSFontService,sans-serif" font-weight="400" font-size="48" transform="matrix(1 0 0 1 1306.63 1006)">8</text><text font-family="Cambria Math,Cambria Math_MSFontService,sans-serif" font-weight="400" font-size="48" transform="matrix(1 0 0 1 1335.03 1006)">×</text><text font-family="Times New Roman,Times New Roman_MSFontService,sans-serif" font-weight="400" font-size="48" transform="matrix(1 0 0 1 1373.73 1006)">4</text><text font-family="Times New Roman,Times New Roman_MSFontService,sans-serif" font-weight="400" font-size="48" transform="matrix(1 0 0 1 1397.79 1006)">)</text><text font-family="Times New Roman,Times New Roman_MSFontService,sans-serif" font-weight="400" font-size="48" transform="matrix(1 0 0 1 1442.23 1006)">Antenna</text><text font-family="Times New Roman,Times New Roman_MSFontService,sans-serif" font-weight="400" font-size="48" transform="matrix(1 0 0 1 1633.33 1006)">Array</text><text font-family="Times New Roman,Times New Roman_MSFontService,sans-serif" font-weight="400" font-size="48" transform="matrix(1 0 0 1 1774.02 1006)">with</text><text font-family="Times New Roman,Times New Roman_MSFontService,sans-serif" font-weight="400" font-size="48" transform="matrix(1 0 0 1 1004.59 1064)">Dual</text><text font-family="Times New Roman,Times New Roman_MSFontService,sans-serif" font-weight="400" font-size="48" transform="matrix(1 0 0 1 1110.01 1064)">Polarized</text><text font-family="Times New Roman,Times New Roman_MSFontService,sans-serif" font-weight="400" font-size="48" transform="matrix(1 0 0 1 1303.08 1064)">Antenna</text><text font-family="Times New Roman,Times New Roman_MSFontService,sans-serif" font-weight="400" font-size="48" transform="matrix(1 0 0 1 1477.82 1064)">(P=</text><text font-family="Times New Roman,Times New Roman_MSFontService,sans-serif" font-weight="400" font-size="48" transform="matrix(1 0 0 1 1547.71 1064)">2</text><text font-family="Times New Roman,Times New Roman_MSFontService,sans-serif" font-weight="400" font-size="48" transform="matrix(1 0 0 1 1571.78 1064)">)</text><text font-family="Times New Roman,Times New Roman_MSFontService,sans-serif" font-weight="400" font-size="48" transform="matrix(1 0 0 1 1587.82 1064)">.</text><text font-family="Times New Roman,Times New Roman_MSFontService,sans-serif" font-weight="400" font-size="50" transform="matrix(1 0 0 1 1122.16 1631)">Array Structure = [1,1,8,4,2]</text><text font-family="Times New Roman,Times New Roman_MSFontService,sans-serif" font-weight="400" font-size="50" transform="matrix(1 0 0 1 1131.75 2280)">Array Structure = [</text><text font-family="Times New Roman,Times New Roman_MSFontService,sans-serif" font-weight="400" font-size="50" transform="matrix(1 0 0 1 1516.18 2280)">1,1,8,4,1]</text><text font-family="Times New Roman,Times New Roman_MSFontService,sans-serif" font-weight="700" font-size="64" transform="matrix(1 0 0 1 1425.95 1717)">(a)</text><text font-family="Times New Roman,Times New Roman_MSFontService,sans-serif" font-weight="700" font-size="64" transform="matrix(1 0 0 1 1423.11 2378)">(b)</text><path d="M575.163 1484.28 588.28 1484.28 617.829 1520.53 617.829 1492.66C617.829 1489.69 617.497 1487.83 616.831 1487.1 615.952 1486.1 614.562 1485.6 612.661 1485.6L610.986 1485.6 610.986 1484.28 627.81 1484.28 627.81 1485.6 626.099 1485.6C624.055 1485.6 622.606 1486.22 621.75 1487.45 621.228 1488.21 620.966 1489.95 620.966 1492.66L620.966 1533.4 619.683 1533.4 587.817 1494.47 587.817 1524.24C587.817 1527.21 588.138 1529.06 588.779 1529.8 589.682 1530.8 591.072 1531.3 592.95 1531.3L594.66 1531.3 594.66 1532.61 577.836 1532.61 577.836 1531.3 579.512 1531.3C581.579 1531.3 583.04 1530.68 583.896 1529.44 584.419 1528.68 584.68 1526.95 584.68 1524.24L584.68 1490.63C583.278 1488.99 582.215 1487.9 581.49 1487.38 580.765 1486.86 579.702 1486.37 578.3 1485.92 577.61 1485.71 576.565 1485.6 575.163 1485.6Z" fill="#002060" fill-rule="evenodd"/><text fill="#000000" fill-opacity="0" font-family="Arial,Arial_MSFontService,sans-serif" font-size="49.1182" x="575.163" y="1527.26">N</text><path d="M629.796 1514.93 645.159 1514.93 645.159 1516.25C644.185 1516.25 643.501 1516.41 643.109 1516.75 642.717 1517.08 642.521 1517.52 642.521 1518.07 642.521 1518.64 642.937 1519.52 643.769 1520.7 644.03 1521.08 644.422 1521.68 644.945 1522.49L647.262 1526.19 649.935 1522.49C651.646 1520.13 652.502 1518.65 652.502 1518.03 652.502 1517.53 652.3 1517.11 651.896 1516.76 651.492 1516.42 650.838 1516.25 649.935 1516.25L649.935 1514.93 660.985 1514.93 660.985 1516.25C659.821 1516.32 658.811 1516.64 657.955 1517.21 656.791 1518.02 655.199 1519.78 653.179 1522.49L648.723 1528.44 656.85 1540.13C658.846 1543 660.272 1544.73 661.128 1545.32 661.983 1545.9 663.088 1546.22 664.443 1546.3L664.443 1547.58 649.044 1547.58 649.044 1546.3C650.113 1546.3 650.945 1546.06 651.539 1545.58 651.991 1545.25 652.216 1544.81 652.216 1544.26 652.216 1543.72 651.456 1542.34 649.935 1540.13L645.159 1533.14 639.919 1540.13C638.303 1542.29 637.495 1543.58 637.495 1543.98 637.495 1544.55 637.763 1545.07 638.297 1545.53 638.832 1545.99 639.634 1546.25 640.703 1546.3L640.703 1547.58 630.046 1547.58 630.046 1546.3C630.901 1546.18 631.65 1545.88 632.291 1545.4 633.194 1544.72 634.715 1542.96 636.854 1540.13L643.697 1531.04 637.495 1522.06C635.737 1519.49 634.376 1517.88 633.414 1517.23 632.452 1516.57 631.246 1516.25 629.796 1516.25Z" fill="#002060" fill-rule="evenodd"/><text fill="#000000" fill-opacity="0" font-family="Arial,Arial_MSFontService,sans-serif" font-size="32.6504" x="629.796" y="1543.5">x</text><path d="M694.232 1516.79 738.146 1516.79 738.146 1521.53 694.232 1521.53ZM694.232 1502 738.146 1502 738.146 1506.74 694.232 1506.74Z" fill="#002060" fill-rule="evenodd"/><text fill="#000000" fill-opacity="0" font-family="Arial,Arial_MSFontService,sans-serif" font-size="19.5332" x="694.232" y="1519.09">=</text><path d="M779.978 1509.62C778.005 1511.29 776.544 1513.1 775.593 1515.06 774.643 1517.02 774.168 1519.14 774.168 1521.42 774.168 1524.49 775.005 1526.94 776.681 1528.78 778.356 1530.62 780.489 1531.55 783.079 1531.55 785.645 1531.55 787.701 1530.82 789.245 1529.37 790.79 1527.92 791.562 1526.16 791.562 1524.1 791.562 1522.38 791.111 1520.85 790.208 1519.5 788.52 1516.98 785.11 1513.69 779.978 1509.62ZM782.615 1485.35C780.192 1485.35 778.219 1486.05 776.698 1487.45 775.178 1488.85 774.417 1490.49 774.417 1492.37 774.417 1493.61 774.732 1494.84 775.362 1496.08 775.991 1497.31 776.888 1498.49 778.053 1499.61L783.899 1504.46C786.75 1501.89 788.556 1499.86 789.317 1498.38 790.077 1496.89 790.457 1495.21 790.457 1493.33 790.457 1490.84 789.756 1488.88 788.354 1487.47 786.952 1486.06 785.039 1485.35 782.615 1485.35ZM782.544 1483.28C786.441 1483.28 789.578 1484.34 791.954 1486.45 794.331 1488.57 795.519 1490.98 795.519 1493.69 795.519 1495.5 794.877 1497.34 793.594 1499.22 792.311 1501.09 789.637 1503.3 785.574 1505.85 789.756 1509.08 792.525 1511.62 793.879 1513.47 795.685 1515.9 796.588 1518.45 796.588 1521.14 796.588 1524.54 795.293 1527.44 792.703 1529.85 790.113 1532.26 786.714 1533.47 782.508 1533.47 777.922 1533.47 774.346 1532.03 771.779 1529.16 769.736 1526.85 768.714 1524.33 768.714 1521.6 768.714 1519.46 769.433 1517.34 770.87 1515.24 772.308 1513.13 774.785 1510.81 778.302 1508.27 774.477 1505.13 772.011 1502.61 770.906 1500.71 769.801 1498.81 769.249 1496.84 769.249 1494.8 769.249 1491.66 770.461 1488.96 772.884 1486.69 775.308 1484.42 778.528 1483.28 782.544 1483.28Z" fill="#002060" fill-rule="evenodd"/><text fill="#000000" fill-opacity="0" font-family="Arial,Arial_MSFontService,sans-serif" font-size="50.1875" x="768.714" y="1527.2">8</text><path d="M575.163 1627.34 588.28 1627.34 617.829 1663.59 617.829 1635.72C617.829 1632.75 617.497 1630.9 616.831 1630.16 615.952 1629.16 614.562 1628.66 612.661 1628.66L610.986 1628.66 610.986 1627.34 627.81 1627.34 627.81 1628.66 626.099 1628.66C624.055 1628.66 622.606 1629.28 621.75 1630.52 621.228 1631.28 620.966 1633.01 620.966 1635.72L620.966 1676.46 619.683 1676.46 587.817 1637.54 587.817 1667.3C587.817 1670.27 588.138 1672.12 588.779 1672.86 589.682 1673.86 591.072 1674.36 592.95 1674.36L594.66 1674.36 594.66 1675.68 577.836 1675.68 577.836 1674.36 579.512 1674.36C581.579 1674.36 583.04 1673.74 583.896 1672.5 584.419 1671.74 584.68 1670.01 584.68 1667.3L584.68 1633.69C583.278 1632.05 582.215 1630.97 581.49 1630.44 580.765 1629.92 579.702 1629.43 578.3 1628.98 577.61 1628.77 576.565 1628.66 575.163 1628.66Z" fill="#002060" fill-rule="evenodd"/><text fill="#000000" fill-opacity="0" font-family="Arial,Arial_MSFontService,sans-serif" font-size="49.1182" x="575.163" y="1670.32">N</text><path d="M629.261 1657.99 644.482 1657.99 644.482 1659.31 643.733 1659.31C642.664 1659.31 641.862 1659.54 641.327 1660.01 640.792 1660.47 640.525 1661.04 640.525 1661.73 640.525 1662.66 640.917 1663.94 641.701 1665.58L649.65 1682.05 656.957 1664.02C657.361 1663.04 657.563 1662.08 657.563 1661.13 657.563 1660.7 657.48 1660.38 657.314 1660.17 657.124 1659.9 656.827 1659.7 656.423 1659.54 656.019 1659.39 655.306 1659.31 654.284 1659.31L654.284 1657.99 664.906 1657.99 664.906 1659.31C664.027 1659.41 663.349 1659.6 662.874 1659.88 662.399 1660.17 661.876 1660.7 661.306 1661.48 661.092 1661.82 660.688 1662.73 660.094 1664.23L646.799 1696.81C645.515 1699.97 643.834 1702.36 641.755 1703.97 639.676 1705.59 637.674 1706.4 635.749 1706.4 634.347 1706.4 633.194 1705.99 632.291 1705.18 631.388 1704.38 630.937 1703.45 630.937 1702.4 630.937 1701.41 631.263 1700.6 631.917 1700 632.57 1699.39 633.467 1699.09 634.608 1699.09 635.392 1699.09 636.462 1699.35 637.816 1699.87 638.767 1700.23 639.361 1700.41 639.598 1700.41 640.311 1700.41 641.089 1700.04 641.933 1699.3 642.777 1698.57 643.626 1697.14 644.482 1695.03L646.799 1689.36 635.071 1664.73C634.715 1663.99 634.145 1663.08 633.361 1661.98 632.766 1661.15 632.279 1660.59 631.899 1660.31 631.353 1659.93 630.473 1659.6 629.261 1659.31Z" fill="#002060" fill-rule="evenodd"/><text fill="#000000" fill-opacity="0" font-family="Arial,Arial_MSFontService,sans-serif" font-size="48.4053" x="629.261" y="1700.35">y</text><path d="M694.232 1659.85 738.146 1659.85 738.146 1664.59 694.232 1664.59ZM694.232 1645.06 738.146 1645.06 738.146 1649.8 694.232 1649.8Z" fill="#002060" fill-rule="evenodd"/><text fill="#000000" fill-opacity="0" font-family="Arial,Arial_MSFontService,sans-serif" font-size="19.5332" x="694.232" y="1662.15">=</text><path d="M785.895 1633.87 768.928 1657.85 785.895 1657.85ZM787.855 1626.34 791.776 1626.34 791.776 1657.85 798.263 1657.85 798.263 1662.92 791.776 1662.92 791.776 1675.68 785.895 1675.68 785.895 1662.92 765.435 1662.92 765.435 1658.35Z" fill="#002060" fill-rule="evenodd"/><text fill="#000000" fill-opacity="0" font-family="Arial,Arial_MSFontService,sans-serif" font-size="49.332" x="765.435" y="1669.51">4</text><rect x="513.5" y="1403.5" width="351" height="351" stroke="#EC143C" stroke-width="9.16667" stroke-linejoin="round" stroke-miterlimit="10" fill="none"/></g></svg>