<?xml version="1.0" encoding="utf-8" standalone="no"?>
<!DOCTYPE svg PUBLIC "-//W3C//DTD SVG 1.1//EN"
  "http://www.w3.org/Graphics/SVG/1.1/DTD/svg11.dtd">
<svg xmlns:xlink="http://www.w3.org/1999/xlink" width="460.8pt" height="345.6pt" viewBox="0 0 460.8 345.6" xmlns="http://www.w3.org/2000/svg" version="1.1">
 <metadata>
  <rdf:RDF xmlns:dc="http://purl.org/dc/elements/1.1/" xmlns:cc="http://creativecommons.org/ns#" xmlns:rdf="http://www.w3.org/1999/02/22-rdf-syntax-ns#">
   <cc:Work>
    <dc:type rdf:resource="http://purl.org/dc/dcmitype/StillImage"/>
    <dc:date>2023-06-28T15:31:15.779487</dc:date>
    <dc:format>image/svg+xml</dc:format>
    <dc:creator>
     <cc:Agent>
      <dc:title>Matplotlib v3.7.1, https://matplotlib.org/</dc:title>
     </cc:Agent>
    </dc:creator>
   </cc:Work>
  </rdf:RDF>
 </metadata>
 <defs>
  <style type="text/css">*{stroke-linejoin: round; stroke-linecap: butt}</style>
 </defs>
 <g id="figure_1">
  <g id="patch_1">
   <path d="M 0 345.6 
L 460.8 345.6 
L 460.8 0 
L 0 0 
z
" style="fill: #ffffff"/>
  </g>
  <g id="axes_1">
   <g id="patch_2">
    <path d="M 57.6 307.584 
L 414.72 307.584 
L 414.72 41.472 
L 57.6 41.472 
z
" style="fill: #ffffff"/>
   </g>
   <g id="matplotlib.axis_1">
    <g id="xtick_1">
     <g id="line2d_1">
      <path d="M 72.528894 307.584 
L 72.528894 41.472 
" clip-path="url(#pc355480e11)" style="fill: none; stroke: #b0b0b0; stroke-width: 0.8; stroke-linecap: square"/>
     </g>
     <g id="line2d_2">
      <defs>
       <path id="m9d162f939c" d="M 0 0 
L 0 3.5 
" style="stroke: #000000; stroke-width: 0.8"/>
      </defs>
      <g>
       <use xlink:href="#m9d162f939c" x="72.528894" y="307.584" style="stroke: #000000; stroke-width: 0.8"/>
      </g>
     </g>
     <g id="text_1">
      <!-- 0.0 -->
      <g transform="translate(64.577331 322.182437) scale(0.1 -0.1)">
       <defs>
        <path id="DejaVuSans-30" d="M 2034 4250 
Q 1547 4250 1301 3770 
Q 1056 3291 1056 2328 
Q 1056 1369 1301 889 
Q 1547 409 2034 409 
Q 2525 409 2770 889 
Q 3016 1369 3016 2328 
Q 3016 3291 2770 3770 
Q 2525 4250 2034 4250 
z
M 2034 4750 
Q 2819 4750 3233 4129 
Q 3647 3509 3647 2328 
Q 3647 1150 3233 529 
Q 2819 -91 2034 -91 
Q 1250 -91 836 529 
Q 422 1150 422 2328 
Q 422 3509 836 4129 
Q 1250 4750 2034 4750 
z
" transform="scale(0.015625)"/>
        <path id="DejaVuSans-2e" d="M 684 794 
L 1344 794 
L 1344 0 
L 684 0 
L 684 794 
z
" transform="scale(0.015625)"/>
       </defs>
       <use xlink:href="#DejaVuSans-30"/>
       <use xlink:href="#DejaVuSans-2e" x="63.623047"/>
       <use xlink:href="#DejaVuSans-30" x="95.410156"/>
      </g>
     </g>
    </g>
    <g id="xtick_2">
     <g id="line2d_3">
      <path d="M 137.720571 307.584 
L 137.720571 41.472 
" clip-path="url(#pc355480e11)" style="fill: none; stroke: #b0b0b0; stroke-width: 0.8; stroke-linecap: square"/>
     </g>
     <g id="line2d_4">
      <g>
       <use xlink:href="#m9d162f939c" x="137.720571" y="307.584" style="stroke: #000000; stroke-width: 0.8"/>
      </g>
     </g>
     <g id="text_2">
      <!-- 0.5 -->
      <g transform="translate(129.769009 322.182437) scale(0.1 -0.1)">
       <defs>
        <path id="DejaVuSans-35" d="M 691 4666 
L 3169 4666 
L 3169 4134 
L 1269 4134 
L 1269 2991 
Q 1406 3038 1543 3061 
Q 1681 3084 1819 3084 
Q 2600 3084 3056 2656 
Q 3513 2228 3513 1497 
Q 3513 744 3044 326 
Q 2575 -91 1722 -91 
Q 1428 -91 1123 -41 
Q 819 9 494 109 
L 494 744 
Q 775 591 1075 516 
Q 1375 441 1709 441 
Q 2250 441 2565 725 
Q 2881 1009 2881 1497 
Q 2881 1984 2565 2268 
Q 2250 2553 1709 2553 
Q 1456 2553 1204 2497 
Q 953 2441 691 2322 
L 691 4666 
z
" transform="scale(0.015625)"/>
       </defs>
       <use xlink:href="#DejaVuSans-30"/>
       <use xlink:href="#DejaVuSans-2e" x="63.623047"/>
       <use xlink:href="#DejaVuSans-35" x="95.410156"/>
      </g>
     </g>
    </g>
    <g id="xtick_3">
     <g id="line2d_5">
      <path d="M 202.912249 307.584 
L 202.912249 41.472 
" clip-path="url(#pc355480e11)" style="fill: none; stroke: #b0b0b0; stroke-width: 0.8; stroke-linecap: square"/>
     </g>
     <g id="line2d_6">
      <g>
       <use xlink:href="#m9d162f939c" x="202.912249" y="307.584" style="stroke: #000000; stroke-width: 0.8"/>
      </g>
     </g>
     <g id="text_3">
      <!-- 1.0 -->
      <g transform="translate(194.960686 322.182437) scale(0.1 -0.1)">
       <defs>
        <path id="DejaVuSans-31" d="M 794 531 
L 1825 531 
L 1825 4091 
L 703 3866 
L 703 4441 
L 1819 4666 
L 2450 4666 
L 2450 531 
L 3481 531 
L 3481 0 
L 794 0 
L 794 531 
z
" transform="scale(0.015625)"/>
       </defs>
       <use xlink:href="#DejaVuSans-31"/>
       <use xlink:href="#DejaVuSans-2e" x="63.623047"/>
       <use xlink:href="#DejaVuSans-30" x="95.410156"/>
      </g>
     </g>
    </g>
    <g id="xtick_4">
     <g id="line2d_7">
      <path d="M 268.103926 307.584 
L 268.103926 41.472 
" clip-path="url(#pc355480e11)" style="fill: none; stroke: #b0b0b0; stroke-width: 0.8; stroke-linecap: square"/>
     </g>
     <g id="line2d_8">
      <g>
       <use xlink:href="#m9d162f939c" x="268.103926" y="307.584" style="stroke: #000000; stroke-width: 0.8"/>
      </g>
     </g>
     <g id="text_4">
      <!-- 1.5 -->
      <g transform="translate(260.152364 322.182437) scale(0.1 -0.1)">
       <use xlink:href="#DejaVuSans-31"/>
       <use xlink:href="#DejaVuSans-2e" x="63.623047"/>
       <use xlink:href="#DejaVuSans-35" x="95.410156"/>
      </g>
     </g>
    </g>
    <g id="xtick_5">
     <g id="line2d_9">
      <path d="M 333.295604 307.584 
L 333.295604 41.472 
" clip-path="url(#pc355480e11)" style="fill: none; stroke: #b0b0b0; stroke-width: 0.8; stroke-linecap: square"/>
     </g>
     <g id="line2d_10">
      <g>
       <use xlink:href="#m9d162f939c" x="333.295604" y="307.584" style="stroke: #000000; stroke-width: 0.8"/>
      </g>
     </g>
     <g id="text_5">
      <!-- 2.0 -->
      <g transform="translate(325.344041 322.182437) scale(0.1 -0.1)">
       <defs>
        <path id="DejaVuSans-32" d="M 1228 531 
L 3431 531 
L 3431 0 
L 469 0 
L 469 531 
Q 828 903 1448 1529 
Q 2069 2156 2228 2338 
Q 2531 2678 2651 2914 
Q 2772 3150 2772 3378 
Q 2772 3750 2511 3984 
Q 2250 4219 1831 4219 
Q 1534 4219 1204 4116 
Q 875 4013 500 3803 
L 500 4441 
Q 881 4594 1212 4672 
Q 1544 4750 1819 4750 
Q 2544 4750 2975 4387 
Q 3406 4025 3406 3419 
Q 3406 3131 3298 2873 
Q 3191 2616 2906 2266 
Q 2828 2175 2409 1742 
Q 1991 1309 1228 531 
z
" transform="scale(0.015625)"/>
       </defs>
       <use xlink:href="#DejaVuSans-32"/>
       <use xlink:href="#DejaVuSans-2e" x="63.623047"/>
       <use xlink:href="#DejaVuSans-30" x="95.410156"/>
      </g>
     </g>
    </g>
    <g id="xtick_6">
     <g id="line2d_11">
      <path d="M 398.487281 307.584 
L 398.487281 41.472 
" clip-path="url(#pc355480e11)" style="fill: none; stroke: #b0b0b0; stroke-width: 0.8; stroke-linecap: square"/>
     </g>
     <g id="line2d_12">
      <g>
       <use xlink:href="#m9d162f939c" x="398.487281" y="307.584" style="stroke: #000000; stroke-width: 0.8"/>
      </g>
     </g>
     <g id="text_6">
      <!-- 2.5 -->
      <g transform="translate(390.535718 322.182437) scale(0.1 -0.1)">
       <use xlink:href="#DejaVuSans-32"/>
       <use xlink:href="#DejaVuSans-2e" x="63.623047"/>
       <use xlink:href="#DejaVuSans-35" x="95.410156"/>
      </g>
     </g>
    </g>
    <g id="text_7">
     <!-- Delay (s) -->
     <g transform="translate(213.725625 335.860562) scale(0.1 -0.1)">
      <defs>
       <path id="DejaVuSans-44" d="M 1259 4147 
L 1259 519 
L 2022 519 
Q 2988 519 3436 956 
Q 3884 1394 3884 2338 
Q 3884 3275 3436 3711 
Q 2988 4147 2022 4147 
L 1259 4147 
z
M 628 4666 
L 1925 4666 
Q 3281 4666 3915 4102 
Q 4550 3538 4550 2338 
Q 4550 1131 3912 565 
Q 3275 0 1925 0 
L 628 0 
L 628 4666 
z
" transform="scale(0.015625)"/>
       <path id="DejaVuSans-65" d="M 3597 1894 
L 3597 1613 
L 953 1613 
Q 991 1019 1311 708 
Q 1631 397 2203 397 
Q 2534 397 2845 478 
Q 3156 559 3463 722 
L 3463 178 
Q 3153 47 2828 -22 
Q 2503 -91 2169 -91 
Q 1331 -91 842 396 
Q 353 884 353 1716 
Q 353 2575 817 3079 
Q 1281 3584 2069 3584 
Q 2775 3584 3186 3129 
Q 3597 2675 3597 1894 
z
M 3022 2063 
Q 3016 2534 2758 2815 
Q 2500 3097 2075 3097 
Q 1594 3097 1305 2825 
Q 1016 2553 972 2059 
L 3022 2063 
z
" transform="scale(0.015625)"/>
       <path id="DejaVuSans-6c" d="M 603 4863 
L 1178 4863 
L 1178 0 
L 603 0 
L 603 4863 
z
" transform="scale(0.015625)"/>
       <path id="DejaVuSans-61" d="M 2194 1759 
Q 1497 1759 1228 1600 
Q 959 1441 959 1056 
Q 959 750 1161 570 
Q 1363 391 1709 391 
Q 2188 391 2477 730 
Q 2766 1069 2766 1631 
L 2766 1759 
L 2194 1759 
z
M 3341 1997 
L 3341 0 
L 2766 0 
L 2766 531 
Q 2569 213 2275 61 
Q 1981 -91 1556 -91 
Q 1019 -91 701 211 
Q 384 513 384 1019 
Q 384 1609 779 1909 
Q 1175 2209 1959 2209 
L 2766 2209 
L 2766 2266 
Q 2766 2663 2505 2880 
Q 2244 3097 1772 3097 
Q 1472 3097 1187 3025 
Q 903 2953 641 2809 
L 641 3341 
Q 956 3463 1253 3523 
Q 1550 3584 1831 3584 
Q 2591 3584 2966 3190 
Q 3341 2797 3341 1997 
z
" transform="scale(0.015625)"/>
       <path id="DejaVuSans-79" d="M 2059 -325 
Q 1816 -950 1584 -1140 
Q 1353 -1331 966 -1331 
L 506 -1331 
L 506 -850 
L 844 -850 
Q 1081 -850 1212 -737 
Q 1344 -625 1503 -206 
L 1606 56 
L 191 3500 
L 800 3500 
L 1894 763 
L 2988 3500 
L 3597 3500 
L 2059 -325 
z
" transform="scale(0.015625)"/>
       <path id="DejaVuSans-20" transform="scale(0.015625)"/>
       <path id="DejaVuSans-28" d="M 1984 4856 
Q 1566 4138 1362 3434 
Q 1159 2731 1159 2009 
Q 1159 1288 1364 580 
Q 1569 -128 1984 -844 
L 1484 -844 
Q 1016 -109 783 600 
Q 550 1309 550 2009 
Q 550 2706 781 3412 
Q 1013 4119 1484 4856 
L 1984 4856 
z
" transform="scale(0.015625)"/>
       <path id="DejaVuSans-73" d="M 2834 3397 
L 2834 2853 
Q 2591 2978 2328 3040 
Q 2066 3103 1784 3103 
Q 1356 3103 1142 2972 
Q 928 2841 928 2578 
Q 928 2378 1081 2264 
Q 1234 2150 1697 2047 
L 1894 2003 
Q 2506 1872 2764 1633 
Q 3022 1394 3022 966 
Q 3022 478 2636 193 
Q 2250 -91 1575 -91 
Q 1294 -91 989 -36 
Q 684 19 347 128 
L 347 722 
Q 666 556 975 473 
Q 1284 391 1588 391 
Q 1994 391 2212 530 
Q 2431 669 2431 922 
Q 2431 1156 2273 1281 
Q 2116 1406 1581 1522 
L 1381 1569 
Q 847 1681 609 1914 
Q 372 2147 372 2553 
Q 372 3047 722 3315 
Q 1072 3584 1716 3584 
Q 2034 3584 2315 3537 
Q 2597 3491 2834 3397 
z
" transform="scale(0.015625)"/>
       <path id="DejaVuSans-29" d="M 513 4856 
L 1013 4856 
Q 1481 4119 1714 3412 
Q 1947 2706 1947 2009 
Q 1947 1309 1714 600 
Q 1481 -109 1013 -844 
L 513 -844 
Q 928 -128 1133 580 
Q 1338 1288 1338 2009 
Q 1338 2731 1133 3434 
Q 928 4138 513 4856 
z
" transform="scale(0.015625)"/>
      </defs>
      <use xlink:href="#DejaVuSans-44"/>
      <use xlink:href="#DejaVuSans-65" x="77.001953"/>
      <use xlink:href="#DejaVuSans-6c" x="138.525391"/>
      <use xlink:href="#DejaVuSans-61" x="166.308594"/>
      <use xlink:href="#DejaVuSans-79" x="227.587891"/>
      <use xlink:href="#DejaVuSans-20" x="286.767578"/>
      <use xlink:href="#DejaVuSans-28" x="318.554688"/>
      <use xlink:href="#DejaVuSans-73" x="357.568359"/>
      <use xlink:href="#DejaVuSans-29" x="409.667969"/>
     </g>
    </g>
    <g id="text_8">
     <!-- 1e−6 -->
     <g transform="translate(387.462188 334.860562) scale(0.1 -0.1)">
      <defs>
       <path id="DejaVuSans-2212" d="M 678 2272 
L 4684 2272 
L 4684 1741 
L 678 1741 
L 678 2272 
z
" transform="scale(0.015625)"/>
       <path id="DejaVuSans-36" d="M 2113 2584 
Q 1688 2584 1439 2293 
Q 1191 2003 1191 1497 
Q 1191 994 1439 701 
Q 1688 409 2113 409 
Q 2538 409 2786 701 
Q 3034 994 3034 1497 
Q 3034 2003 2786 2293 
Q 2538 2584 2113 2584 
z
M 3366 4563 
L 3366 3988 
Q 3128 4100 2886 4159 
Q 2644 4219 2406 4219 
Q 1781 4219 1451 3797 
Q 1122 3375 1075 2522 
Q 1259 2794 1537 2939 
Q 1816 3084 2150 3084 
Q 2853 3084 3261 2657 
Q 3669 2231 3669 1497 
Q 3669 778 3244 343 
Q 2819 -91 2113 -91 
Q 1303 -91 875 529 
Q 447 1150 447 2328 
Q 447 3434 972 4092 
Q 1497 4750 2381 4750 
Q 2619 4750 2861 4703 
Q 3103 4656 3366 4563 
z
" transform="scale(0.015625)"/>
      </defs>
      <use xlink:href="#DejaVuSans-31"/>
      <use xlink:href="#DejaVuSans-65" x="63.623047"/>
      <use xlink:href="#DejaVuSans-2212" x="125.146484"/>
      <use xlink:href="#DejaVuSans-36" x="208.935547"/>
     </g>
    </g>
   </g>
   <g id="matplotlib.axis_2">
    <g id="ytick_1">
     <g id="line2d_13">
      <path d="M 57.6 295.488 
L 414.72 295.488 
" clip-path="url(#pc355480e11)" style="fill: none; stroke: #b0b0b0; stroke-width: 0.8; stroke-linecap: square"/>
     </g>
     <g id="line2d_14">
      <defs>
       <path id="mf40b91661c" d="M 0 0 
L -3.5 0 
" style="stroke: #000000; stroke-width: 0.8"/>
      </defs>
      <g>
       <use xlink:href="#mf40b91661c" x="57.6" y="295.488" style="stroke: #000000; stroke-width: 0.8"/>
      </g>
     </g>
     <g id="text_9">
      <!-- 0.0 -->
      <g transform="translate(34.696875 299.287219) scale(0.1 -0.1)">
       <use xlink:href="#DejaVuSans-30"/>
       <use xlink:href="#DejaVuSans-2e" x="63.623047"/>
       <use xlink:href="#DejaVuSans-30" x="95.410156"/>
      </g>
     </g>
    </g>
    <g id="ytick_2">
     <g id="line2d_15">
      <path d="M 57.6 247.104 
L 414.72 247.104 
" clip-path="url(#pc355480e11)" style="fill: none; stroke: #b0b0b0; stroke-width: 0.8; stroke-linecap: square"/>
     </g>
     <g id="line2d_16">
      <g>
       <use xlink:href="#mf40b91661c" x="57.6" y="247.104" style="stroke: #000000; stroke-width: 0.8"/>
      </g>
     </g>
     <g id="text_10">
      <!-- 0.2 -->
      <g transform="translate(34.696875 250.903219) scale(0.1 -0.1)">
       <use xlink:href="#DejaVuSans-30"/>
       <use xlink:href="#DejaVuSans-2e" x="63.623047"/>
       <use xlink:href="#DejaVuSans-32" x="95.410156"/>
      </g>
     </g>
    </g>
    <g id="ytick_3">
     <g id="line2d_17">
      <path d="M 57.6 198.72 
L 414.72 198.72 
" clip-path="url(#pc355480e11)" style="fill: none; stroke: #b0b0b0; stroke-width: 0.8; stroke-linecap: square"/>
     </g>
     <g id="line2d_18">
      <g>
       <use xlink:href="#mf40b91661c" x="57.6" y="198.72" style="stroke: #000000; stroke-width: 0.8"/>
      </g>
     </g>
     <g id="text_11">
      <!-- 0.4 -->
      <g transform="translate(34.696875 202.519219) scale(0.1 -0.1)">
       <defs>
        <path id="DejaVuSans-34" d="M 2419 4116 
L 825 1625 
L 2419 1625 
L 2419 4116 
z
M 2253 4666 
L 3047 4666 
L 3047 1625 
L 3713 1625 
L 3713 1100 
L 3047 1100 
L 3047 0 
L 2419 0 
L 2419 1100 
L 313 1100 
L 313 1709 
L 2253 4666 
z
" transform="scale(0.015625)"/>
       </defs>
       <use xlink:href="#DejaVuSans-30"/>
       <use xlink:href="#DejaVuSans-2e" x="63.623047"/>
       <use xlink:href="#DejaVuSans-34" x="95.410156"/>
      </g>
     </g>
    </g>
    <g id="ytick_4">
     <g id="line2d_19">
      <path d="M 57.6 150.336 
L 414.72 150.336 
" clip-path="url(#pc355480e11)" style="fill: none; stroke: #b0b0b0; stroke-width: 0.8; stroke-linecap: square"/>
     </g>
     <g id="line2d_20">
      <g>
       <use xlink:href="#mf40b91661c" x="57.6" y="150.336" style="stroke: #000000; stroke-width: 0.8"/>
      </g>
     </g>
     <g id="text_12">
      <!-- 0.6 -->
      <g transform="translate(34.696875 154.135219) scale(0.1 -0.1)">
       <use xlink:href="#DejaVuSans-30"/>
       <use xlink:href="#DejaVuSans-2e" x="63.623047"/>
       <use xlink:href="#DejaVuSans-36" x="95.410156"/>
      </g>
     </g>
    </g>
    <g id="ytick_5">
     <g id="line2d_21">
      <path d="M 57.6 101.952 
L 414.72 101.952 
" clip-path="url(#pc355480e11)" style="fill: none; stroke: #b0b0b0; stroke-width: 0.8; stroke-linecap: square"/>
     </g>
     <g id="line2d_22">
      <g>
       <use xlink:href="#mf40b91661c" x="57.6" y="101.952" style="stroke: #000000; stroke-width: 0.8"/>
      </g>
     </g>
     <g id="text_13">
      <!-- 0.8 -->
      <g transform="translate(34.696875 105.751219) scale(0.1 -0.1)">
       <defs>
        <path id="DejaVuSans-38" d="M 2034 2216 
Q 1584 2216 1326 1975 
Q 1069 1734 1069 1313 
Q 1069 891 1326 650 
Q 1584 409 2034 409 
Q 2484 409 2743 651 
Q 3003 894 3003 1313 
Q 3003 1734 2745 1975 
Q 2488 2216 2034 2216 
z
M 1403 2484 
Q 997 2584 770 2862 
Q 544 3141 544 3541 
Q 544 4100 942 4425 
Q 1341 4750 2034 4750 
Q 2731 4750 3128 4425 
Q 3525 4100 3525 3541 
Q 3525 3141 3298 2862 
Q 3072 2584 2669 2484 
Q 3125 2378 3379 2068 
Q 3634 1759 3634 1313 
Q 3634 634 3220 271 
Q 2806 -91 2034 -91 
Q 1263 -91 848 271 
Q 434 634 434 1313 
Q 434 1759 690 2068 
Q 947 2378 1403 2484 
z
M 1172 3481 
Q 1172 3119 1398 2916 
Q 1625 2713 2034 2713 
Q 2441 2713 2670 2916 
Q 2900 3119 2900 3481 
Q 2900 3844 2670 4047 
Q 2441 4250 2034 4250 
Q 1625 4250 1398 4047 
Q 1172 3844 1172 3481 
z
" transform="scale(0.015625)"/>
       </defs>
       <use xlink:href="#DejaVuSans-30"/>
       <use xlink:href="#DejaVuSans-2e" x="63.623047"/>
       <use xlink:href="#DejaVuSans-38" x="95.410156"/>
      </g>
     </g>
    </g>
    <g id="ytick_6">
     <g id="line2d_23">
      <path d="M 57.6 53.568 
L 414.72 53.568 
" clip-path="url(#pc355480e11)" style="fill: none; stroke: #b0b0b0; stroke-width: 0.8; stroke-linecap: square"/>
     </g>
     <g id="line2d_24">
      <g>
       <use xlink:href="#mf40b91661c" x="57.6" y="53.568" style="stroke: #000000; stroke-width: 0.8"/>
      </g>
     </g>
     <g id="text_14">
      <!-- 1.0 -->
      <g transform="translate(34.696875 57.367219) scale(0.1 -0.1)">
       <use xlink:href="#DejaVuSans-31"/>
       <use xlink:href="#DejaVuSans-2e" x="63.623047"/>
       <use xlink:href="#DejaVuSans-30" x="95.410156"/>
      </g>
     </g>
    </g>
    <g id="text_15">
     <!-- Magnitude of MUSIC Sprectrum -->
     <g transform="translate(28.617187 252.8905) rotate(-90) scale(0.1 -0.1)">
      <defs>
       <path id="DejaVuSans-4d" d="M 628 4666 
L 1569 4666 
L 2759 1491 
L 3956 4666 
L 4897 4666 
L 4897 0 
L 4281 0 
L 4281 4097 
L 3078 897 
L 2444 897 
L 1241 4097 
L 1241 0 
L 628 0 
L 628 4666 
z
" transform="scale(0.015625)"/>
       <path id="DejaVuSans-67" d="M 2906 1791 
Q 2906 2416 2648 2759 
Q 2391 3103 1925 3103 
Q 1463 3103 1205 2759 
Q 947 2416 947 1791 
Q 947 1169 1205 825 
Q 1463 481 1925 481 
Q 2391 481 2648 825 
Q 2906 1169 2906 1791 
z
M 3481 434 
Q 3481 -459 3084 -895 
Q 2688 -1331 1869 -1331 
Q 1566 -1331 1297 -1286 
Q 1028 -1241 775 -1147 
L 775 -588 
Q 1028 -725 1275 -790 
Q 1522 -856 1778 -856 
Q 2344 -856 2625 -561 
Q 2906 -266 2906 331 
L 2906 616 
Q 2728 306 2450 153 
Q 2172 0 1784 0 
Q 1141 0 747 490 
Q 353 981 353 1791 
Q 353 2603 747 3093 
Q 1141 3584 1784 3584 
Q 2172 3584 2450 3431 
Q 2728 3278 2906 2969 
L 2906 3500 
L 3481 3500 
L 3481 434 
z
" transform="scale(0.015625)"/>
       <path id="DejaVuSans-6e" d="M 3513 2113 
L 3513 0 
L 2938 0 
L 2938 2094 
Q 2938 2591 2744 2837 
Q 2550 3084 2163 3084 
Q 1697 3084 1428 2787 
Q 1159 2491 1159 1978 
L 1159 0 
L 581 0 
L 581 3500 
L 1159 3500 
L 1159 2956 
Q 1366 3272 1645 3428 
Q 1925 3584 2291 3584 
Q 2894 3584 3203 3211 
Q 3513 2838 3513 2113 
z
" transform="scale(0.015625)"/>
       <path id="DejaVuSans-69" d="M 603 3500 
L 1178 3500 
L 1178 0 
L 603 0 
L 603 3500 
z
M 603 4863 
L 1178 4863 
L 1178 4134 
L 603 4134 
L 603 4863 
z
" transform="scale(0.015625)"/>
       <path id="DejaVuSans-74" d="M 1172 4494 
L 1172 3500 
L 2356 3500 
L 2356 3053 
L 1172 3053 
L 1172 1153 
Q 1172 725 1289 603 
Q 1406 481 1766 481 
L 2356 481 
L 2356 0 
L 1766 0 
Q 1100 0 847 248 
Q 594 497 594 1153 
L 594 3053 
L 172 3053 
L 172 3500 
L 594 3500 
L 594 4494 
L 1172 4494 
z
" transform="scale(0.015625)"/>
       <path id="DejaVuSans-75" d="M 544 1381 
L 544 3500 
L 1119 3500 
L 1119 1403 
Q 1119 906 1312 657 
Q 1506 409 1894 409 
Q 2359 409 2629 706 
Q 2900 1003 2900 1516 
L 2900 3500 
L 3475 3500 
L 3475 0 
L 2900 0 
L 2900 538 
Q 2691 219 2414 64 
Q 2138 -91 1772 -91 
Q 1169 -91 856 284 
Q 544 659 544 1381 
z
M 1991 3584 
L 1991 3584 
z
" transform="scale(0.015625)"/>
       <path id="DejaVuSans-64" d="M 2906 2969 
L 2906 4863 
L 3481 4863 
L 3481 0 
L 2906 0 
L 2906 525 
Q 2725 213 2448 61 
Q 2172 -91 1784 -91 
Q 1150 -91 751 415 
Q 353 922 353 1747 
Q 353 2572 751 3078 
Q 1150 3584 1784 3584 
Q 2172 3584 2448 3432 
Q 2725 3281 2906 2969 
z
M 947 1747 
Q 947 1113 1208 752 
Q 1469 391 1925 391 
Q 2381 391 2643 752 
Q 2906 1113 2906 1747 
Q 2906 2381 2643 2742 
Q 2381 3103 1925 3103 
Q 1469 3103 1208 2742 
Q 947 2381 947 1747 
z
" transform="scale(0.015625)"/>
       <path id="DejaVuSans-6f" d="M 1959 3097 
Q 1497 3097 1228 2736 
Q 959 2375 959 1747 
Q 959 1119 1226 758 
Q 1494 397 1959 397 
Q 2419 397 2687 759 
Q 2956 1122 2956 1747 
Q 2956 2369 2687 2733 
Q 2419 3097 1959 3097 
z
M 1959 3584 
Q 2709 3584 3137 3096 
Q 3566 2609 3566 1747 
Q 3566 888 3137 398 
Q 2709 -91 1959 -91 
Q 1206 -91 779 398 
Q 353 888 353 1747 
Q 353 2609 779 3096 
Q 1206 3584 1959 3584 
z
" transform="scale(0.015625)"/>
       <path id="DejaVuSans-66" d="M 2375 4863 
L 2375 4384 
L 1825 4384 
Q 1516 4384 1395 4259 
Q 1275 4134 1275 3809 
L 1275 3500 
L 2222 3500 
L 2222 3053 
L 1275 3053 
L 1275 0 
L 697 0 
L 697 3053 
L 147 3053 
L 147 3500 
L 697 3500 
L 697 3744 
Q 697 4328 969 4595 
Q 1241 4863 1831 4863 
L 2375 4863 
z
" transform="scale(0.015625)"/>
       <path id="DejaVuSans-55" d="M 556 4666 
L 1191 4666 
L 1191 1831 
Q 1191 1081 1462 751 
Q 1734 422 2344 422 
Q 2950 422 3222 751 
Q 3494 1081 3494 1831 
L 3494 4666 
L 4128 4666 
L 4128 1753 
Q 4128 841 3676 375 
Q 3225 -91 2344 -91 
Q 1459 -91 1007 375 
Q 556 841 556 1753 
L 556 4666 
z
" transform="scale(0.015625)"/>
       <path id="DejaVuSans-53" d="M 3425 4513 
L 3425 3897 
Q 3066 4069 2747 4153 
Q 2428 4238 2131 4238 
Q 1616 4238 1336 4038 
Q 1056 3838 1056 3469 
Q 1056 3159 1242 3001 
Q 1428 2844 1947 2747 
L 2328 2669 
Q 3034 2534 3370 2195 
Q 3706 1856 3706 1288 
Q 3706 609 3251 259 
Q 2797 -91 1919 -91 
Q 1588 -91 1214 -16 
Q 841 59 441 206 
L 441 856 
Q 825 641 1194 531 
Q 1563 422 1919 422 
Q 2459 422 2753 634 
Q 3047 847 3047 1241 
Q 3047 1584 2836 1778 
Q 2625 1972 2144 2069 
L 1759 2144 
Q 1053 2284 737 2584 
Q 422 2884 422 3419 
Q 422 4038 858 4394 
Q 1294 4750 2059 4750 
Q 2388 4750 2728 4690 
Q 3069 4631 3425 4513 
z
" transform="scale(0.015625)"/>
       <path id="DejaVuSans-49" d="M 628 4666 
L 1259 4666 
L 1259 0 
L 628 0 
L 628 4666 
z
" transform="scale(0.015625)"/>
       <path id="DejaVuSans-43" d="M 4122 4306 
L 4122 3641 
Q 3803 3938 3442 4084 
Q 3081 4231 2675 4231 
Q 1875 4231 1450 3742 
Q 1025 3253 1025 2328 
Q 1025 1406 1450 917 
Q 1875 428 2675 428 
Q 3081 428 3442 575 
Q 3803 722 4122 1019 
L 4122 359 
Q 3791 134 3420 21 
Q 3050 -91 2638 -91 
Q 1578 -91 968 557 
Q 359 1206 359 2328 
Q 359 3453 968 4101 
Q 1578 4750 2638 4750 
Q 3056 4750 3426 4639 
Q 3797 4528 4122 4306 
z
" transform="scale(0.015625)"/>
       <path id="DejaVuSans-70" d="M 1159 525 
L 1159 -1331 
L 581 -1331 
L 581 3500 
L 1159 3500 
L 1159 2969 
Q 1341 3281 1617 3432 
Q 1894 3584 2278 3584 
Q 2916 3584 3314 3078 
Q 3713 2572 3713 1747 
Q 3713 922 3314 415 
Q 2916 -91 2278 -91 
Q 1894 -91 1617 61 
Q 1341 213 1159 525 
z
M 3116 1747 
Q 3116 2381 2855 2742 
Q 2594 3103 2138 3103 
Q 1681 3103 1420 2742 
Q 1159 2381 1159 1747 
Q 1159 1113 1420 752 
Q 1681 391 2138 391 
Q 2594 391 2855 752 
Q 3116 1113 3116 1747 
z
" transform="scale(0.015625)"/>
       <path id="DejaVuSans-72" d="M 2631 2963 
Q 2534 3019 2420 3045 
Q 2306 3072 2169 3072 
Q 1681 3072 1420 2755 
Q 1159 2438 1159 1844 
L 1159 0 
L 581 0 
L 581 3500 
L 1159 3500 
L 1159 2956 
Q 1341 3275 1631 3429 
Q 1922 3584 2338 3584 
Q 2397 3584 2469 3576 
Q 2541 3569 2628 3553 
L 2631 2963 
z
" transform="scale(0.015625)"/>
       <path id="DejaVuSans-63" d="M 3122 3366 
L 3122 2828 
Q 2878 2963 2633 3030 
Q 2388 3097 2138 3097 
Q 1578 3097 1268 2742 
Q 959 2388 959 1747 
Q 959 1106 1268 751 
Q 1578 397 2138 397 
Q 2388 397 2633 464 
Q 2878 531 3122 666 
L 3122 134 
Q 2881 22 2623 -34 
Q 2366 -91 2075 -91 
Q 1284 -91 818 406 
Q 353 903 353 1747 
Q 353 2603 823 3093 
Q 1294 3584 2113 3584 
Q 2378 3584 2631 3529 
Q 2884 3475 3122 3366 
z
" transform="scale(0.015625)"/>
       <path id="DejaVuSans-6d" d="M 3328 2828 
Q 3544 3216 3844 3400 
Q 4144 3584 4550 3584 
Q 5097 3584 5394 3201 
Q 5691 2819 5691 2113 
L 5691 0 
L 5113 0 
L 5113 2094 
Q 5113 2597 4934 2840 
Q 4756 3084 4391 3084 
Q 3944 3084 3684 2787 
Q 3425 2491 3425 1978 
L 3425 0 
L 2847 0 
L 2847 2094 
Q 2847 2600 2669 2842 
Q 2491 3084 2119 3084 
Q 1678 3084 1418 2786 
Q 1159 2488 1159 1978 
L 1159 0 
L 581 0 
L 581 3500 
L 1159 3500 
L 1159 2956 
Q 1356 3278 1631 3431 
Q 1906 3584 2284 3584 
Q 2666 3584 2933 3390 
Q 3200 3197 3328 2828 
z
" transform="scale(0.015625)"/>
      </defs>
      <use xlink:href="#DejaVuSans-4d"/>
      <use xlink:href="#DejaVuSans-61" x="86.279297"/>
      <use xlink:href="#DejaVuSans-67" x="147.558594"/>
      <use xlink:href="#DejaVuSans-6e" x="211.035156"/>
      <use xlink:href="#DejaVuSans-69" x="274.414062"/>
      <use xlink:href="#DejaVuSans-74" x="302.197266"/>
      <use xlink:href="#DejaVuSans-75" x="341.40625"/>
      <use xlink:href="#DejaVuSans-64" x="404.785156"/>
      <use xlink:href="#DejaVuSans-65" x="468.261719"/>
      <use xlink:href="#DejaVuSans-20" x="529.785156"/>
      <use xlink:href="#DejaVuSans-6f" x="561.572266"/>
      <use xlink:href="#DejaVuSans-66" x="622.753906"/>
      <use xlink:href="#DejaVuSans-20" x="657.958984"/>
      <use xlink:href="#DejaVuSans-4d" x="689.746094"/>
      <use xlink:href="#DejaVuSans-55" x="776.025391"/>
      <use xlink:href="#DejaVuSans-53" x="849.21875"/>
      <use xlink:href="#DejaVuSans-49" x="912.695312"/>
      <use xlink:href="#DejaVuSans-43" x="942.1875"/>
      <use xlink:href="#DejaVuSans-20" x="1012.011719"/>
      <use xlink:href="#DejaVuSans-53" x="1043.798828"/>
      <use xlink:href="#DejaVuSans-70" x="1107.275391"/>
      <use xlink:href="#DejaVuSans-72" x="1170.751953"/>
      <use xlink:href="#DejaVuSans-65" x="1209.615234"/>
      <use xlink:href="#DejaVuSans-63" x="1271.138672"/>
      <use xlink:href="#DejaVuSans-74" x="1326.119141"/>
      <use xlink:href="#DejaVuSans-72" x="1365.328125"/>
      <use xlink:href="#DejaVuSans-75" x="1406.441406"/>
      <use xlink:href="#DejaVuSans-6d" x="1469.820312"/>
     </g>
    </g>
   </g>
   <g id="line2d_25">
    <path d="M 73.832727 295.178373 
L 76.107584 295.271419 
L 76.757543 295.364811 
L 77.407502 295.235439 
L 78.057461 295.346978 
L 79.357379 295.128898 
L 80.007338 295.196691 
L 80.982277 294.989398 
L 81.632236 295.323409 
L 82.282195 295.467671 
L 82.932155 295.272974 
L 83.582113 295.12005 
L 84.882031 295.080983 
L 87.481867 295.290658 
L 88.131826 295.295615 
L 89.106765 294.916578 
L 89.756724 295.125584 
L 90.406683 295.308243 
L 91.381622 295.287502 
L 92.031581 295.286603 
L 92.68154 295.14511 
L 94.631418 295.226764 
L 95.606355 295.012191 
L 96.906275 295.271136 
L 97.881212 295.068669 
L 98.856151 295.226043 
L 99.50611 295.38955 
L 100.481049 295.122174 
L 100.806028 295.24213 
L 102.755906 295.151768 
L 103.080884 295.259412 
L 104.055825 295.102528 
L 104.380802 294.453692 
L 104.705782 290.977677 
L 105.030763 231.287924 
L 105.355743 292.156361 
L 105.68072 294.62607 
L 106.0057 295.154437 
L 106.33068 295.16755 
L 106.980641 294.814419 
L 107.305618 294.832357 
L 107.955578 295.266356 
L 108.605539 295.21956 
L 109.580476 295.106647 
L 111.205374 295.217513 
L 111.530355 295.130467 
L 111.855331 294.350057 
L 112.180312 290.502978 
L 112.505292 248.971881 
L 112.830272 292.330495 
L 113.155249 294.673853 
L 113.480229 295.1309 
L 116.405045 295.107043 
L 117.055006 295.317991 
L 117.704963 295.148615 
L 118.679904 295.277411 
L 120.304802 295.205364 
L 120.954758 295.320984 
L 121.604719 295.148417 
L 122.254676 294.9106 
L 122.904637 295.166615 
L 123.229617 294.828988 
L 123.554597 292.833307 
L 123.879574 268.264685 
L 124.204554 289.87518 
L 124.529535 294.265336 
L 124.854515 295.047616 
L 125.504472 295.055143 
L 126.154433 295.308559 
L 127.12937 295.215693 
L 131.029127 295.191555 
L 131.679084 295.209464 
L 132.329044 294.995237 
L 133.953942 295.146912 
L 136.228797 295.381221 
L 137.528719 295.027451 
L 139.478593 295.252273 
L 140.128554 295.166603 
L 140.778515 295.331916 
L 141.428468 295.121884 
L 141.753452 295.181787 
L 142.078428 294.85261 
L 142.403405 292.882826 
L 142.728389 266.819279 
L 143.053366 290.326634 
L 143.37835 294.471118 
L 143.703326 295.22971 
L 144.678264 295.332 
L 145.003248 295.406245 
L 145.653201 295.274876 
L 146.303162 295.26159 
L 146.953122 294.945125 
L 147.278099 294.919706 
L 148.253044 295.280476 
L 148.902997 295.087315 
L 149.227981 295.196935 
L 149.552958 295.022476 
L 149.877942 293.636928 
L 150.202918 283.549833 
L 150.527895 286.592875 
L 150.852879 293.857253 
L 151.177856 295.024562 
L 151.502832 295.184345 
L 152.152793 295.166669 
L 153.452714 295.241454 
L 154.752628 295.303963 
L 155.402589 295.164909 
L 155.727573 295.177507 
L 156.377526 294.935028 
L 156.70251 295.044834 
L 157.027487 295.005151 
L 157.352471 293.955979 
L 158.002424 282.009039 
L 158.327408 293.34366 
L 158.652385 294.796443 
L 158.977361 295.056139 
L 159.952306 295.185021 
L 160.602259 295.074937 
L 160.927244 294.256066 
L 161.25222 289.689944 
L 161.577204 272.76378 
L 161.902181 293.087431 
L 162.227157 294.888125 
L 162.552141 295.129332 
L 162.877118 294.982535 
L 163.202102 295.023917 
L 163.527079 295.190367 
L 164.177039 295.149699 
L 165.476953 295.039314 
L 166.451891 295.146025 
L 167.426835 295.064058 
L 168.076789 294.951472 
L 170.351647 295.2043 
L 170.676631 294.61948 
L 171.001608 291.827095 
L 171.326585 53.568 
L 171.651569 291.626945 
L 171.976545 294.689928 
L 172.301529 295.295849 
L 173.601443 295.239294 
L 174.251404 295.030239 
L 175.226341 294.980812 
L 175.876302 295.336408 
L 176.201279 295.280744 
L 176.851239 294.968158 
L 178.801114 295.211258 
L 179.126098 294.829857 
L 179.451075 292.821656 
L 179.776059 269.307537 
L 180.101035 289.558362 
L 180.426012 294.149574 
L 180.750996 295.002066 
L 182.05091 295.319307 
L 183.350831 295.201879 
L 184.325768 295.242551 
L 185.950666 295.093917 
L 186.925604 295.257451 
L 187.575564 295.119432 
L 189.200462 295.183863 
L 189.525439 295.319096 
L 189.850423 295.31313 
L 190.500376 295.097161 
L 191.800298 295.22424 
L 192.450258 295.291179 
L 193.100219 295.123077 
L 193.750172 295.32658 
L 194.400133 295.174325 
L 195.050094 295.067353 
L 195.700054 295.09843 
L 196.674992 295.249316 
L 197.649936 295.177609 
L 198.624866 295.243313 
L 199.599811 295.22152 
L 200.249764 295.292691 
L 200.899717 295.107369 
L 201.224709 295.120779 
L 201.549685 294.681497 
L 201.874662 292.414965 
L 202.199639 255.178947 
L 202.524615 290.472036 
L 202.849607 294.431689 
L 203.174583 295.179695 
L 204.474505 294.957559 
L 204.799481 293.528618 
L 205.124458 282.200744 
L 205.774411 294.088151 
L 206.099403 295.166727 
L 206.424379 295.301223 
L 207.074333 295.30829 
L 207.399309 295.320049 
L 208.049277 295.079845 
L 209.024207 295.147199 
L 209.999152 294.896359 
L 210.974097 295.450732 
L 211.949027 295.242804 
L 212.274003 295.384639 
L 212.923971 295.284517 
L 213.573925 295.18894 
L 213.898901 295.021018 
L 214.223893 294.98201 
L 214.873846 295.379983 
L 215.848791 295.208437 
L 216.173767 295.370571 
L 216.498744 295.40621 
L 217.148697 295.234533 
L 218.448619 295.198709 
L 219.74854 295.190452 
L 220.398493 295.254861 
L 221.048461 295.329324 
L 221.698414 295.467401 
L 222.673359 295.371009 
L 223.323312 295.331709 
L 224.298257 295.051061 
L 224.94821 295.059642 
L 225.598164 295.199755 
L 226.898085 295.050302 
L 227.87303 295.21385 
L 228.198006 295.329805 
L 230.797849 295.208125 
L 232.422732 295.294952 
L 233.397677 295.199731 
L 234.372622 295.154997 
L 235.022575 294.893744 
L 235.672528 294.98397 
L 235.99752 294.900734 
L 236.322496 294.952789 
L 236.97245 295.307092 
L 237.622418 295.207392 
L 238.272371 295.076131 
L 239.247316 295.219689 
L 239.897269 295.126983 
L 240.547222 295.221782 
L 241.19719 295.141521 
L 241.847143 295.257772 
L 243.147065 295.21884 
L 244.446986 295.267295 
L 247.046814 295.181306 
L 248.021759 295.375972 
L 248.996689 295.186943 
L 249.646657 295.178769 
L 250.29661 295.119356 
L 250.946578 295.220244 
L 251.921508 295.049319 
L 252.571476 295.311448 
L 254.196374 295.22463 
L 254.846327 295.166106 
L 255.821272 295.258457 
L 257.121178 295.167437 
L 257.771147 295.205754 
L 259.071068 295.035979 
L 260.695966 295.117305 
L 261.345919 295.054495 
L 264.920692 295.294041 
L 265.570645 295.078746 
L 265.895636 294.974715 
L 266.870566 295.138505 
L 267.520534 295.035934 
L 269.145432 295.143115 
L 269.470409 295.075019 
L 270.77033 295.369244 
L 271.420284 295.137865 
L 272.070237 295.28109 
L 272.720205 295.304793 
L 273.695135 295.263179 
L 274.67008 295.352311 
L 275.970001 295.123762 
L 276.619954 295.162218 
L 277.269922 295.238493 
L 278.244852 295.096997 
L 279.219797 295.328677 
L 281.169671 295.051658 
L 282.794569 295.304801 
L 283.769499 295.225487 
L 285.394397 294.93983 
L 286.369342 295.083216 
L 287.019295 295.36457 
L 287.99424 295.171029 
L 288.644193 295.163537 
L 289.619138 295.137315 
L 289.944115 294.916813 
L 290.269091 294.857536 
L 290.919059 295.165848 
L 291.893989 295.348898 
L 292.543957 295.062585 
L 293.518887 295.183863 
L 294.168855 294.995198 
L 298.393581 295.280265 
L 299.043549 295.102803 
L 300.668447 295.267219 
L 301.643377 295.05007 
L 302.618322 295.261013 
L 305.21815 295.168692 
L 306.518071 295.090389 
L 307.168039 295.123502 
L 307.493016 295.046166 
L 308.467946 295.271068 
L 309.117914 294.915603 
L 309.44289 295.036217 
L 309.767867 295.282863 
L 310.092844 295.375942 
L 311.067788 295.16061 
L 311.392765 295.233746 
L 312.36771 295.143765 
L 313.017663 295.227884 
L 313.34264 295.201415 
L 313.992608 295.378093 
L 314.642561 295.180898 
L 315.292514 295.085696 
L 317.56738 295.249237 
L 318.217333 295.177152 
L 318.867302 295.247898 
L 319.517255 295.112268 
L 320.167208 295.424029 
L 321.142153 295.160646 
L 321.792106 295.282649 
L 322.442059 295.09057 
L 323.741995 295.074204 
L 324.066972 295.036628 
L 324.716925 295.227966 
L 325.366879 294.950237 
L 325.691855 295.025011 
L 326.016832 295.2139 
L 326.341838 295.207507 
L 326.991791 294.896909 
L 327.641745 295.2712 
L 328.291698 295.174795 
L 328.941651 295.107198 
L 329.591634 295.416423 
L 329.916611 295.38404 
L 330.241587 295.235494 
L 330.891541 295.479229 
L 331.216517 295.183356 
L 331.541494 293.37342 
L 331.866471 274.329664 
L 332.191447 289.671358 
L 332.516424 294.318529 
L 332.8414 295.176459 
L 333.166407 295.229273 
L 333.491383 295.127428 
L 334.141337 295.202531 
L 334.79129 294.937378 
L 336.091196 295.060685 
L 337.066156 295.12565 
L 337.716109 295.19982 
L 338.366062 295.200555 
L 339.016016 295.256247 
L 339.665999 295.008162 
L 340.315952 295.126517 
L 340.640929 295.094483 
L 341.615858 295.419152 
L 342.265812 295.159064 
L 343.240771 295.275091 
L 345.515608 295.04705 
L 346.165591 295.090534 
L 346.815544 295.174576 
L 347.790474 295.239151 
L 348.440427 295.303792 
L 350.06534 295.081851 
L 351.365246 295.244156 
L 352.340176 295.016771 
L 354.290066 295.202498 
L 354.615042 295.336181 
L 355.264995 295.238911 
L 355.589972 295.195772 
L 356.239955 295.332931 
L 357.539862 295.109201 
L 360.139704 295.295715 
L 360.789657 295.213401 
L 361.764587 295.132639 
L 362.739547 295.052025 
L 364.689407 295.174668 
L 367.289249 295.064208 
L 367.939203 295.128334 
L 368.589156 295.118094 
L 368.914133 295.221152 
L 370.864022 295.153004 
L 372.488905 295.397555 
L 374.763771 295.089117 
L 375.738701 295.141485 
L 376.713661 295.124766 
L 377.363614 295.144702 
L 378.013567 295.265381 
L 378.988497 295.077744 
L 380.288433 295.153725 
L 381.263363 295.073092 
L 381.913316 295.132049 
L 382.888276 295.17767 
L 383.863206 295.271048 
L 384.513159 295.157108 
L 385.488089 295.219657 
L 386.138072 295.488 
L 386.788025 295.374775 
L 388.087932 295.20436 
L 389.062862 295.14353 
L 389.712844 295.364806 
L 391.662704 295.149163 
L 392.312657 295.374638 
L 392.96264 295.299611 
L 393.93757 295.131134 
L 394.587524 295.145941 
L 395.237477 294.939683 
L 395.88743 295.244324 
L 398.487273 295.163479 
L 398.487273 295.163479 
" clip-path="url(#pc355480e11)" style="fill: none; stroke: #1f77b4; stroke-width: 1.5; stroke-linecap: square"/>
   </g>
   <g id="LineCollection_1">
    <path d="M 171.326585 295.488 
L 171.326585 53.568 
" clip-path="url(#pc355480e11)" style="fill: none; stroke: #ff0000; stroke-width: 1.5"/>
    <path d="M 105.030763 295.488 
L 105.030763 231.287924 
" clip-path="url(#pc355480e11)" style="fill: none; stroke: #ff0000; stroke-width: 1.5"/>
    <path d="M 112.505292 295.488 
L 112.505292 248.971881 
" clip-path="url(#pc355480e11)" style="fill: none; stroke: #ff0000; stroke-width: 1.5"/>
    <path d="M 202.199639 295.488 
L 202.199639 255.178947 
" clip-path="url(#pc355480e11)" style="fill: none; stroke: #ff0000; stroke-width: 1.5"/>
    <path d="M 142.728389 295.488 
L 142.728389 266.819279 
" clip-path="url(#pc355480e11)" style="fill: none; stroke: #ff0000; stroke-width: 1.5"/>
    <path d="M 123.879574 295.488 
L 123.879574 268.264685 
" clip-path="url(#pc355480e11)" style="fill: none; stroke: #ff0000; stroke-width: 1.5"/>
    <path d="M 179.776059 295.488 
L 179.776059 269.307537 
" clip-path="url(#pc355480e11)" style="fill: none; stroke: #ff0000; stroke-width: 1.5"/>
    <path d="M 161.577204 295.488 
L 161.577204 272.76378 
" clip-path="url(#pc355480e11)" style="fill: none; stroke: #ff0000; stroke-width: 1.5"/>
    <path d="M 331.866471 295.488 
L 331.866471 274.329664 
" clip-path="url(#pc355480e11)" style="fill: none; stroke: #ff0000; stroke-width: 1.5"/>
    <path d="M 158.002424 295.488 
L 158.002424 282.009039 
" clip-path="url(#pc355480e11)" style="fill: none; stroke: #ff0000; stroke-width: 1.5"/>
    <path d="M 205.124458 295.488 
L 205.124458 282.200744 
" clip-path="url(#pc355480e11)" style="fill: none; stroke: #ff0000; stroke-width: 1.5"/>
   </g>
   <g id="patch_3">
    <path d="M 57.6 307.584 
L 57.6 41.472 
" style="fill: none; stroke: #000000; stroke-width: 0.8; stroke-linejoin: miter; stroke-linecap: square"/>
   </g>
   <g id="patch_4">
    <path d="M 414.72 307.584 
L 414.72 41.472 
" style="fill: none; stroke: #000000; stroke-width: 0.8; stroke-linejoin: miter; stroke-linecap: square"/>
   </g>
   <g id="patch_5">
    <path d="M 57.6 307.584 
L 414.72 307.584 
" style="fill: none; stroke: #000000; stroke-width: 0.8; stroke-linejoin: miter; stroke-linecap: square"/>
   </g>
   <g id="patch_6">
    <path d="M 57.6 41.472 
L 414.72 41.472 
" style="fill: none; stroke: #000000; stroke-width: 0.8; stroke-linejoin: miter; stroke-linecap: square"/>
   </g>
   <g id="text_16">
    <!-- Magnitude vs delay plot of MUSIC Sprectrum -->
    <g transform="translate(101.832188 35.472) scale(0.12 -0.12)">
     <defs>
      <path id="DejaVuSans-76" d="M 191 3500 
L 800 3500 
L 1894 563 
L 2988 3500 
L 3597 3500 
L 2284 0 
L 1503 0 
L 191 3500 
z
" transform="scale(0.015625)"/>
     </defs>
     <use xlink:href="#DejaVuSans-4d"/>
     <use xlink:href="#DejaVuSans-61" x="86.279297"/>
     <use xlink:href="#DejaVuSans-67" x="147.558594"/>
     <use xlink:href="#DejaVuSans-6e" x="211.035156"/>
     <use xlink:href="#DejaVuSans-69" x="274.414062"/>
     <use xlink:href="#DejaVuSans-74" x="302.197266"/>
     <use xlink:href="#DejaVuSans-75" x="341.40625"/>
     <use xlink:href="#DejaVuSans-64" x="404.785156"/>
     <use xlink:href="#DejaVuSans-65" x="468.261719"/>
     <use xlink:href="#DejaVuSans-20" x="529.785156"/>
     <use xlink:href="#DejaVuSans-76" x="561.572266"/>
     <use xlink:href="#DejaVuSans-73" x="620.751953"/>
     <use xlink:href="#DejaVuSans-20" x="672.851562"/>
     <use xlink:href="#DejaVuSans-64" x="704.638672"/>
     <use xlink:href="#DejaVuSans-65" x="768.115234"/>
     <use xlink:href="#DejaVuSans-6c" x="829.638672"/>
     <use xlink:href="#DejaVuSans-61" x="857.421875"/>
     <use xlink:href="#DejaVuSans-79" x="918.701172"/>
     <use xlink:href="#DejaVuSans-20" x="977.880859"/>
     <use xlink:href="#DejaVuSans-70" x="1009.667969"/>
     <use xlink:href="#DejaVuSans-6c" x="1073.144531"/>
     <use xlink:href="#DejaVuSans-6f" x="1100.927734"/>
     <use xlink:href="#DejaVuSans-74" x="1162.109375"/>
     <use xlink:href="#DejaVuSans-20" x="1201.318359"/>
     <use xlink:href="#DejaVuSans-6f" x="1233.105469"/>
     <use xlink:href="#DejaVuSans-66" x="1294.287109"/>
     <use xlink:href="#DejaVuSans-20" x="1329.492188"/>
     <use xlink:href="#DejaVuSans-4d" x="1361.279297"/>
     <use xlink:href="#DejaVuSans-55" x="1447.558594"/>
     <use xlink:href="#DejaVuSans-53" x="1520.751953"/>
     <use xlink:href="#DejaVuSans-49" x="1584.228516"/>
     <use xlink:href="#DejaVuSans-43" x="1613.720703"/>
     <use xlink:href="#DejaVuSans-20" x="1683.544922"/>
     <use xlink:href="#DejaVuSans-53" x="1715.332031"/>
     <use xlink:href="#DejaVuSans-70" x="1778.808594"/>
     <use xlink:href="#DejaVuSans-72" x="1842.285156"/>
     <use xlink:href="#DejaVuSans-65" x="1881.148438"/>
     <use xlink:href="#DejaVuSans-63" x="1942.671875"/>
     <use xlink:href="#DejaVuSans-74" x="1997.652344"/>
     <use xlink:href="#DejaVuSans-72" x="2036.861328"/>
     <use xlink:href="#DejaVuSans-75" x="2077.974609"/>
     <use xlink:href="#DejaVuSans-6d" x="2141.353516"/>
    </g>
   </g>
   <g id="legend_1">
    <g id="patch_7">
     <path d="M 291.855938 78.82825 
L 407.72 78.82825 
Q 409.72 78.82825 409.72 76.82825 
L 409.72 48.472 
Q 409.72 46.472 407.72 46.472 
L 291.855938 46.472 
Q 289.855938 46.472 289.855938 48.472 
L 289.855938 76.82825 
Q 289.855938 78.82825 291.855938 78.82825 
z
" style="fill: #ffffff; opacity: 0.8; stroke: #cccccc; stroke-linejoin: miter"/>
    </g>
    <g id="line2d_26">
     <path d="M 293.855938 54.570437 
L 303.855938 54.570437 
L 313.855938 54.570437 
" style="fill: none; stroke: #1f77b4; stroke-width: 1.5; stroke-linecap: square"/>
    </g>
    <g id="text_17">
     <!-- MUSIC Spectrum -->
     <g transform="translate(321.855938 58.070437) scale(0.1 -0.1)">
      <use xlink:href="#DejaVuSans-4d"/>
      <use xlink:href="#DejaVuSans-55" x="86.279297"/>
      <use xlink:href="#DejaVuSans-53" x="159.472656"/>
      <use xlink:href="#DejaVuSans-49" x="222.949219"/>
      <use xlink:href="#DejaVuSans-43" x="252.441406"/>
      <use xlink:href="#DejaVuSans-20" x="322.265625"/>
      <use xlink:href="#DejaVuSans-53" x="354.052734"/>
      <use xlink:href="#DejaVuSans-70" x="417.529297"/>
      <use xlink:href="#DejaVuSans-65" x="481.005859"/>
      <use xlink:href="#DejaVuSans-63" x="542.529297"/>
      <use xlink:href="#DejaVuSans-74" x="597.509766"/>
      <use xlink:href="#DejaVuSans-72" x="636.71875"/>
      <use xlink:href="#DejaVuSans-75" x="677.832031"/>
      <use xlink:href="#DejaVuSans-6d" x="741.210938"/>
     </g>
    </g>
    <g id="line2d_27">
     <path d="M 293.855938 69.248562 
L 313.855938 69.248562 
" style="fill: none; stroke: #ff0000; stroke-width: 1.5"/>
    </g>
    <g id="text_18">
     <!-- Estimate Delays -->
     <g transform="translate(321.855938 72.748562) scale(0.1 -0.1)">
      <defs>
       <path id="DejaVuSans-45" d="M 628 4666 
L 3578 4666 
L 3578 4134 
L 1259 4134 
L 1259 2753 
L 3481 2753 
L 3481 2222 
L 1259 2222 
L 1259 531 
L 3634 531 
L 3634 0 
L 628 0 
L 628 4666 
z
" transform="scale(0.015625)"/>
      </defs>
      <use xlink:href="#DejaVuSans-45"/>
      <use xlink:href="#DejaVuSans-73" x="63.183594"/>
      <use xlink:href="#DejaVuSans-74" x="115.283203"/>
      <use xlink:href="#DejaVuSans-69" x="154.492188"/>
      <use xlink:href="#DejaVuSans-6d" x="182.275391"/>
      <use xlink:href="#DejaVuSans-61" x="279.6875"/>
      <use xlink:href="#DejaVuSans-74" x="340.966797"/>
      <use xlink:href="#DejaVuSans-65" x="380.175781"/>
      <use xlink:href="#DejaVuSans-20" x="441.699219"/>
      <use xlink:href="#DejaVuSans-44" x="473.486328"/>
      <use xlink:href="#DejaVuSans-65" x="550.488281"/>
      <use xlink:href="#DejaVuSans-6c" x="612.011719"/>
      <use xlink:href="#DejaVuSans-61" x="639.794922"/>
      <use xlink:href="#DejaVuSans-79" x="701.074219"/>
      <use xlink:href="#DejaVuSans-73" x="760.253906"/>
     </g>
    </g>
   </g>
  </g>
 </g>
 <defs>
  <clipPath id="pc355480e11">
   <rect x="57.6" y="41.472" width="357.12" height="266.112"/>
  </clipPath>
 </defs>
</svg>
