<svg width="3040" height="1681" xmlns="http://www.w3.org/2000/svg" xmlns:xlink="http://www.w3.org/1999/xlink" xml:space="preserve" overflow="hidden"><defs><clipPath id="clip0"><rect x="0" y="564" width="3040" height="1681"/></clipPath></defs><g clip-path="url(#clip0)" transform="matrix(1 0 0 1 0 -564)"><path d="M490.5 752.5 490.5 1471.5" stroke="#0070C0" stroke-width="3.4375" stroke-linejoin="round" stroke-miterlimit="10" fill="none" fill-rule="evenodd"/><path d="M533.5 752.5 533.5 1471.5" stroke="#0070C0" stroke-width="3.4375" stroke-linejoin="round" stroke-miterlimit="10" fill="none" fill-rule="evenodd"/><path d="M575.5 752.5 575.5 1471.5" stroke="#0070C0" stroke-width="3.4375" stroke-linejoin="round" stroke-miterlimit="10" fill="none" fill-rule="evenodd"/><path d="M618.5 752.5 618.5 1471.5" stroke="#0070C0" stroke-width="3.4375" stroke-linejoin="round" stroke-miterlimit="10" fill="none" fill-rule="evenodd"/><path d="M660.5 752.5 660.5 1471.5" stroke="#0070C0" stroke-width="3.4375" stroke-linejoin="round" stroke-miterlimit="10" fill="none" fill-rule="evenodd"/><path d="M703.5 752.5 703.5 1471.5" stroke="#0070C0" stroke-width="3.4375" stroke-linejoin="round" stroke-miterlimit="10" fill="none" fill-rule="evenodd"/><path d="M745.5 752.5 745.5 1471.5" stroke="#0070C0" stroke-width="3.4375" stroke-linejoin="round" stroke-miterlimit="10" fill="none" fill-rule="evenodd"/><path d="M788.5 752.5 788.5 1471.5" stroke="#0070C0" stroke-width="3.4375" stroke-linejoin="round" stroke-miterlimit="10" fill="none" fill-rule="evenodd"/><path d="M830.5 752.5 830.5 1471.5" stroke="#0070C0" stroke-width="3.4375" stroke-linejoin="round" stroke-miterlimit="10" fill="none" fill-rule="evenodd"/><path d="M447.5 798.5 874.5 798.5" stroke="#0070C0" stroke-width="3.4375" stroke-linejoin="round" stroke-miterlimit="10" fill="none" fill-rule="evenodd"/><path d="M447.5 843.5 874.5 843.5" stroke="#0070C0" stroke-width="3.4375" stroke-linejoin="round" stroke-miterlimit="10" fill="none" fill-rule="evenodd"/><path d="M447.5 888.5 874.5 888.5" stroke="#0070C0" stroke-width="3.4375" stroke-linejoin="round" stroke-miterlimit="10" fill="none" fill-rule="evenodd"/><path d="M447.5 932.5 874.5 932.5" stroke="#0070C0" stroke-width="3.4375" stroke-linejoin="round" stroke-miterlimit="10" fill="none" fill-rule="evenodd"/><path d="M447.5 977.5 874.5 977.5" stroke="#0070C0" stroke-width="3.4375" stroke-linejoin="round" stroke-miterlimit="10" fill="none" fill-rule="evenodd"/><path d="M447.5 1022.5 874.5 1022.5" stroke="#0070C0" stroke-width="3.4375" stroke-linejoin="round" stroke-miterlimit="10" fill="none" fill-rule="evenodd"/><path d="M447.5 1067.5 874.5 1067.5" stroke="#0070C0" stroke-width="3.4375" stroke-linejoin="round" stroke-miterlimit="10" fill="none" fill-rule="evenodd"/><path d="M447.5 1112.5 874.5 1112.5" stroke="#0070C0" stroke-width="3.4375" stroke-linejoin="round" stroke-miterlimit="10" fill="none" fill-rule="evenodd"/><path d="M447.5 1157.5 874.5 1157.5" stroke="#0070C0" stroke-width="3.4375" stroke-linejoin="round" stroke-miterlimit="10" fill="none" fill-rule="evenodd"/><path d="M447.5 1201.5 874.5 1201.5" stroke="#0070C0" stroke-width="3.4375" stroke-linejoin="round" stroke-miterlimit="10" fill="none" fill-rule="evenodd"/><path d="M447.5 1246.5 874.5 1246.5" stroke="#0070C0" stroke-width="3.4375" stroke-linejoin="round" stroke-miterlimit="10" fill="none" fill-rule="evenodd"/><path d="M447.5 1291.5 874.5 1291.5" stroke="#0070C0" stroke-width="3.4375" stroke-linejoin="round" stroke-miterlimit="10" fill="none" fill-rule="evenodd"/><path d="M447.5 1336.5 874.5 1336.5" stroke="#0070C0" stroke-width="3.4375" stroke-linejoin="round" stroke-miterlimit="10" fill="none" fill-rule="evenodd"/><path d="M447.5 1381.5 874.5 1381.5" stroke="#0070C0" stroke-width="3.4375" stroke-linejoin="round" stroke-miterlimit="10" fill="none" fill-rule="evenodd"/><path d="M447.5 1425.5 874.5 1425.5" stroke="#0070C0" stroke-width="3.4375" stroke-linejoin="round" stroke-miterlimit="10" fill="none" fill-rule="evenodd"/><path d="M448.5 752.5 448.5 1471.5" stroke="#0070C0" stroke-width="3.4375" stroke-linejoin="round" stroke-miterlimit="10" fill="none" fill-rule="evenodd"/><path d="M873.5 752.5 873.5 1471.5" stroke="#0070C0" stroke-width="3.4375" stroke-linejoin="round" stroke-miterlimit="10" fill="none" fill-rule="evenodd"/><path d="M447.5 753.5 874.5 753.5" stroke="#0070C0" stroke-width="3.4375" stroke-linejoin="round" stroke-miterlimit="10" fill="none" fill-rule="evenodd"/><path d="M447.5 1470.5 874.5 1470.5" stroke="#0070C0" stroke-width="3.4375" stroke-linejoin="round" stroke-miterlimit="10" fill="none" fill-rule="evenodd"/><path d="M915.5 753.5 915.5 1471.5" stroke="#0070C0" stroke-width="3.4375" stroke-linejoin="round" stroke-miterlimit="10" fill="none" fill-rule="evenodd"/><path d="M958.5 753.5 958.5 1471.5" stroke="#0070C0" stroke-width="3.4375" stroke-linejoin="round" stroke-miterlimit="10" fill="none" fill-rule="evenodd"/><path d="M1000.5 753.5 1000.5 1471.5" stroke="#0070C0" stroke-width="3.4375" stroke-linejoin="round" stroke-miterlimit="10" fill="none" fill-rule="evenodd"/><path d="M1043.5 753.5 1043.5 1471.5" stroke="#0070C0" stroke-width="3.4375" stroke-linejoin="round" stroke-miterlimit="10" fill="none" fill-rule="evenodd"/><path d="M0 0 170 0" stroke="#0070C0" stroke-width="3.4375" stroke-linejoin="round" stroke-miterlimit="10" fill="none" fill-rule="evenodd" transform="matrix(1 0 0 -1 872.5 798.5)"/><path d="M0 0 170 0" stroke="#0070C0" stroke-width="3.4375" stroke-linejoin="round" stroke-miterlimit="10" fill="none" fill-rule="evenodd" transform="matrix(1 0 0 -1 872.5 843.5)"/><path d="M0 0 170 0" stroke="#0070C0" stroke-width="3.4375" stroke-linejoin="round" stroke-miterlimit="10" fill="none" fill-rule="evenodd" transform="matrix(1 0 0 -1 872.5 888.5)"/><path d="M0 0 170 0" stroke="#0070C0" stroke-width="3.4375" stroke-linejoin="round" stroke-miterlimit="10" fill="none" fill-rule="evenodd" transform="matrix(1 0 0 -1 872.5 933.5)"/><path d="M0 0 170 0" stroke="#0070C0" stroke-width="3.4375" stroke-linejoin="round" stroke-miterlimit="10" fill="none" fill-rule="evenodd" transform="matrix(1 0 0 -1 872.5 977.5)"/><path d="M0 0 170 0" stroke="#0070C0" stroke-width="3.4375" stroke-linejoin="round" stroke-miterlimit="10" fill="none" fill-rule="evenodd" transform="matrix(1 0 0 -1 872.5 1022.5)"/><path d="M0 0 170 0" stroke="#0070C0" stroke-width="3.4375" stroke-linejoin="round" stroke-miterlimit="10" fill="none" fill-rule="evenodd" transform="matrix(1 0 0 -1 872.5 1067.5)"/><path d="M0 0 170 0" stroke="#0070C0" stroke-width="3.4375" stroke-linejoin="round" stroke-miterlimit="10" fill="none" fill-rule="evenodd" transform="matrix(1 0 0 -1 872.5 1112.5)"/><path d="M0 0 170 0" stroke="#0070C0" stroke-width="3.4375" stroke-linejoin="round" stroke-miterlimit="10" fill="none" fill-rule="evenodd" transform="matrix(1 0 0 -1 872.5 1157.5)"/><path d="M0 0 170 0" stroke="#0070C0" stroke-width="3.4375" stroke-linejoin="round" stroke-miterlimit="10" fill="none" fill-rule="evenodd" transform="matrix(1 0 0 -1 872.5 1201.5)"/><path d="M0 0 170 0" stroke="#0070C0" stroke-width="3.4375" stroke-linejoin="round" stroke-miterlimit="10" fill="none" fill-rule="evenodd" transform="matrix(1 0 0 -1 872.5 1246.5)"/><path d="M0 0 170 0" stroke="#0070C0" stroke-width="3.4375" stroke-linejoin="round" stroke-miterlimit="10" fill="none" fill-rule="evenodd" transform="matrix(1 0 0 -1 872.5 1291.5)"/><path d="M0 0 170 0" stroke="#0070C0" stroke-width="3.4375" stroke-linejoin="round" stroke-miterlimit="10" fill="none" fill-rule="evenodd" transform="matrix(1 0 0 -1 872.5 1336.5)"/><path d="M0 0 170 0" stroke="#0070C0" stroke-width="3.4375" stroke-linejoin="round" stroke-miterlimit="10" fill="none" fill-rule="evenodd" transform="matrix(1 0 0 -1 872.5 1381.5)"/><path d="M0 0 170 0" stroke="#0070C0" stroke-width="3.4375" stroke-linejoin="round" stroke-miterlimit="10" fill="none" fill-rule="evenodd" transform="matrix(1 0 0 -1 872.5 1426.5)"/><path d="M0 0 170 0" stroke="#0070C0" stroke-width="3.4375" stroke-linejoin="round" stroke-miterlimit="10" fill="none" fill-rule="evenodd" transform="matrix(1 0 0 -1 872.5 753.5)"/><path d="M0 0 170 0" stroke="#0070C0" stroke-width="3.4375" stroke-linejoin="round" stroke-miterlimit="10" fill="none" fill-rule="evenodd" transform="matrix(1 0 0 -1 872.5 1470.5)"/><path d="M873.5 753.5 873.5 1471.5" stroke="#0070C0" stroke-width="3.4375" stroke-linejoin="round" stroke-miterlimit="10" fill="none" fill-rule="evenodd"/><path d="M1068 1656 1398 1656 1398 1986 1068 1986Z" stroke="#34497D" stroke-width="5.72917" stroke-linejoin="round" stroke-miterlimit="10" fill="none" fill-rule="evenodd"/><text fill="#002060" font-family="Times New Roman,Times New Roman_MSFontService,sans-serif" font-weight="400" font-size="64" transform="matrix(1 0 0 1 1167.29 1806)">IFFT </text><text fill="#002060" font-family="Times New Roman,Times New Roman_MSFontService,sans-serif" font-weight="400" font-size="64" transform="matrix(1 0 0 1 1175.88 1883)">shift</text><path d="M1464 1656 1794 1656 1794 1986 1464 1986Z" stroke="#34497D" stroke-width="5.72917" stroke-linejoin="round" stroke-miterlimit="10" fill="none" fill-rule="evenodd"/><text fill="#002060" font-family="Times New Roman,Times New Roman_MSFontService,sans-serif" font-weight="400" font-size="64" transform="matrix(1 0 0 1 1562.92 1844)">IFFT</text><path d="M1873 1656 2203 1656 2203 1986 1873 1986Z" stroke="#34497D" stroke-width="5.72917" stroke-linejoin="round" stroke-miterlimit="10" fill="none" fill-rule="evenodd"/><text fill="#002060" font-family="Times New Roman,Times New Roman_MSFontService,sans-serif" font-weight="400" font-size="64" transform="matrix(1 0 0 1 1951.93 1806)">Attach </text><text fill="#002060" font-family="Times New Roman,Times New Roman_MSFontService,sans-serif" font-weight="400" font-size="64" transform="matrix(1 0 0 1 1998.34 1883)">CP</text><rect x="1044.5" y="1635.5" width="1181" height="371" stroke="#34497D" stroke-width="3.4375" stroke-linejoin="round" stroke-miterlimit="10" stroke-dasharray="3.4375 3.4375" fill="none"/><path d="M0-2.86458 351.233-2.86458C352.815-2.86458 354.098-1.58189 354.098 0.000290364L354.071 259.463 348.342 259.463 348.369-0.000290364 351.233 2.86458 0 2.86458ZM364.983 254.959 351.075 282.379 337.483 254.801Z" fill="#4A66AC" transform="matrix(1.83697e-16 1 1 -1.83697e-16 469 1472)"/><path d="M782.5 1639.5 782.5 2006.5" stroke="#0070C0" stroke-width="3.4375" stroke-linejoin="round" stroke-miterlimit="10" fill="none" fill-rule="evenodd"/><path d="M0 0 22 0" stroke="#0070C0" stroke-width="3.4375" stroke-linejoin="round" stroke-miterlimit="10" fill="none" fill-rule="evenodd" transform="matrix(1 0 0 -1 760.5 1662.5)"/><path d="M0 0 22 0" stroke="#0070C0" stroke-width="3.4375" stroke-linejoin="round" stroke-miterlimit="10" fill="none" fill-rule="evenodd" transform="matrix(1 0 0 -1 760.5 1685.5)"/><path d="M0 0 22 0" stroke="#0070C0" stroke-width="3.4375" stroke-linejoin="round" stroke-miterlimit="10" fill="none" fill-rule="evenodd" transform="matrix(1 0 0 -1 760.5 1708.5)"/><path d="M0 0 22 0" stroke="#0070C0" stroke-width="3.4375" stroke-linejoin="round" stroke-miterlimit="10" fill="none" fill-rule="evenodd" transform="matrix(1 0 0 -1 760.5 1731.5)"/><path d="M0 0 22 0" stroke="#0070C0" stroke-width="3.4375" stroke-linejoin="round" stroke-miterlimit="10" fill="none" fill-rule="evenodd" transform="matrix(1 0 0 -1 760.5 1754.5)"/><path d="M0 0 22 0" stroke="#0070C0" stroke-width="3.4375" stroke-linejoin="round" stroke-miterlimit="10" fill="none" fill-rule="evenodd" transform="matrix(1 0 0 -1 760.5 1777.5)"/><path d="M0 0 22 0" stroke="#0070C0" stroke-width="3.4375" stroke-linejoin="round" stroke-miterlimit="10" fill="none" fill-rule="evenodd" transform="matrix(1 0 0 -1 760.5 1800.5)"/><path d="M0 0 22 0" stroke="#0070C0" stroke-width="3.4375" stroke-linejoin="round" stroke-miterlimit="10" fill="none" fill-rule="evenodd" transform="matrix(1 0 0 -1 760.5 1822.5)"/><path d="M0 0 22 0" stroke="#0070C0" stroke-width="3.4375" stroke-linejoin="round" stroke-miterlimit="10" fill="none" fill-rule="evenodd" transform="matrix(1 0 0 -1 760.5 1845.5)"/><path d="M0 0 22 0" stroke="#0070C0" stroke-width="3.4375" stroke-linejoin="round" stroke-miterlimit="10" fill="none" fill-rule="evenodd" transform="matrix(1 0 0 -1 760.5 1868.5)"/><path d="M0 0 22 0" stroke="#0070C0" stroke-width="3.4375" stroke-linejoin="round" stroke-miterlimit="10" fill="none" fill-rule="evenodd" transform="matrix(1 0 0 -1 760.5 1891.5)"/><path d="M0 0 22 0" stroke="#0070C0" stroke-width="3.4375" stroke-linejoin="round" stroke-miterlimit="10" fill="none" fill-rule="evenodd" transform="matrix(1 0 0 -1 760.5 1914.5)"/><path d="M0 0 22 0" stroke="#0070C0" stroke-width="3.4375" stroke-linejoin="round" stroke-miterlimit="10" fill="none" fill-rule="evenodd" transform="matrix(1 0 0 -1 760.5 1937.5)"/><path d="M0 0 22 0" stroke="#0070C0" stroke-width="3.4375" stroke-linejoin="round" stroke-miterlimit="10" fill="none" fill-rule="evenodd" transform="matrix(1 0 0 -1 760.5 1960.5)"/><path d="M0 0 22 0" stroke="#0070C0" stroke-width="3.4375" stroke-linejoin="round" stroke-miterlimit="10" fill="none" fill-rule="evenodd" transform="matrix(1 0 0 -1 760.5 1982.5)"/><path d="M0 0 22 0" stroke="#0070C0" stroke-width="3.4375" stroke-linejoin="round" stroke-miterlimit="10" fill="none" fill-rule="evenodd" transform="matrix(1 0 0 -1 760.5 1639.5)"/><path d="M0 0 22 0" stroke="#0070C0" stroke-width="3.4375" stroke-linejoin="round" stroke-miterlimit="10" fill="none" fill-rule="evenodd" transform="matrix(1 0 0 -1 760.5 2005.5)"/><path d="M761.5 1639.5 761.5 2006.5" stroke="#0070C0" stroke-width="3.4375" stroke-linejoin="round" stroke-miterlimit="10" fill="none" fill-rule="evenodd"/><path d="M0.0198406-3.43744 262.721-1.92116 262.681 4.95373-0.0198406 3.43744ZM258.197-12.2599 285.617 1.64856 258.039 15.2396Z" fill="#4A66AC" transform="matrix(1 0 0 -1 782.5 1823.15)"/><path d="M1429.5 1636.5 1429.5 2003.5" stroke="#0070C0" stroke-width="3.4375" stroke-linejoin="round" stroke-miterlimit="10" fill="none" fill-rule="evenodd"/><path d="M0 0 22 0" stroke="#0070C0" stroke-width="3.4375" stroke-linejoin="round" stroke-miterlimit="10" fill="none" fill-rule="evenodd" transform="matrix(1 0 0 -1 1407.5 1660.5)"/><path d="M0 0 22 0" stroke="#0070C0" stroke-width="3.4375" stroke-linejoin="round" stroke-miterlimit="10" fill="none" fill-rule="evenodd" transform="matrix(1 0 0 -1 1407.5 1683.5)"/><path d="M0 0 22 0" stroke="#0070C0" stroke-width="3.4375" stroke-linejoin="round" stroke-miterlimit="10" fill="none" fill-rule="evenodd" transform="matrix(1 0 0 -1 1407.5 1705.5)"/><path d="M0 0 22 0" stroke="#0070C0" stroke-width="3.4375" stroke-linejoin="round" stroke-miterlimit="10" fill="none" fill-rule="evenodd" transform="matrix(1 0 0 -1 1407.5 1728.5)"/><path d="M0 0 22 0" stroke="#0070C0" stroke-width="3.4375" stroke-linejoin="round" stroke-miterlimit="10" fill="none" fill-rule="evenodd" transform="matrix(1 0 0 -1 1407.5 1751.5)"/><path d="M0 0 22 0" stroke="#0070C0" stroke-width="3.4375" stroke-linejoin="round" stroke-miterlimit="10" fill="none" fill-rule="evenodd" transform="matrix(1 0 0 -1 1407.5 1774.5)"/><path d="M0 0 22 0" stroke="#0070C0" stroke-width="3.4375" stroke-linejoin="round" stroke-miterlimit="10" fill="none" fill-rule="evenodd" transform="matrix(1 0 0 -1 1407.5 1797.5)"/><path d="M0 0 22 0" stroke="#0070C0" stroke-width="3.4375" stroke-linejoin="round" stroke-miterlimit="10" fill="none" fill-rule="evenodd" transform="matrix(1 0 0 -1 1407.5 1820.5)"/><path d="M0 0 22 0" stroke="#0070C0" stroke-width="3.4375" stroke-linejoin="round" stroke-miterlimit="10" fill="none" fill-rule="evenodd" transform="matrix(1 0 0 -1 1407.5 1843.5)"/><path d="M0 0 22 0" stroke="#0070C0" stroke-width="3.4375" stroke-linejoin="round" stroke-miterlimit="10" fill="none" fill-rule="evenodd" transform="matrix(1 0 0 -1 1407.5 1865.5)"/><path d="M0 0 22 0" stroke="#0070C0" stroke-width="3.4375" stroke-linejoin="round" stroke-miterlimit="10" fill="none" fill-rule="evenodd" transform="matrix(1 0 0 -1 1407.5 1888.5)"/><path d="M0 0 22 0" stroke="#0070C0" stroke-width="3.4375" stroke-linejoin="round" stroke-miterlimit="10" fill="none" fill-rule="evenodd" transform="matrix(1 0 0 -1 1407.5 1911.5)"/><path d="M0 0 22 0" stroke="#0070C0" stroke-width="3.4375" stroke-linejoin="round" stroke-miterlimit="10" fill="none" fill-rule="evenodd" transform="matrix(1 0 0 -1 1407.5 1934.5)"/><path d="M0 0 22 0" stroke="#0070C0" stroke-width="3.4375" stroke-linejoin="round" stroke-miterlimit="10" fill="none" fill-rule="evenodd" transform="matrix(1 0 0 -1 1407.5 1957.5)"/><path d="M0 0 22 0" stroke="#0070C0" stroke-width="3.4375" stroke-linejoin="round" stroke-miterlimit="10" fill="none" fill-rule="evenodd" transform="matrix(1 0 0 -1 1407.5 1980.5)"/><path d="M0 0 22 0" stroke="#0070C0" stroke-width="3.4375" stroke-linejoin="round" stroke-miterlimit="10" fill="none" fill-rule="evenodd" transform="matrix(1 0 0 -1 1407.5 1637.5)"/><path d="M0 0 22 0" stroke="#0070C0" stroke-width="3.4375" stroke-linejoin="round" stroke-miterlimit="10" fill="none" fill-rule="evenodd" transform="matrix(1 0 0 -1 1407.5 2003.5)"/><path d="M1408.5 1636.5 1408.5 2003.5" stroke="#0070C0" stroke-width="3.4375" stroke-linejoin="round" stroke-miterlimit="10" fill="none" fill-rule="evenodd"/><path d="M1832.5 1638.5 1832.5 2004.5" stroke="#0070C0" stroke-width="3.4375" stroke-linejoin="round" stroke-miterlimit="10" fill="none" fill-rule="evenodd"/><path d="M0 0 22 0" stroke="#0070C0" stroke-width="3.4375" stroke-linejoin="round" stroke-miterlimit="10" fill="none" fill-rule="evenodd" transform="matrix(1 0 0 -1 1810.5 1661.5)"/><path d="M0 0 22 0" stroke="#0070C0" stroke-width="3.4375" stroke-linejoin="round" stroke-miterlimit="10" fill="none" fill-rule="evenodd" transform="matrix(1 0 0 -1 1810.5 1684.5)"/><path d="M0 0 22 0" stroke="#0070C0" stroke-width="3.4375" stroke-linejoin="round" stroke-miterlimit="10" fill="none" fill-rule="evenodd" transform="matrix(1 0 0 -1 1810.5 1707.5)"/><path d="M0 0 22 0" stroke="#0070C0" stroke-width="3.4375" stroke-linejoin="round" stroke-miterlimit="10" fill="none" fill-rule="evenodd" transform="matrix(1 0 0 -1 1810.5 1729.5)"/><path d="M0 0 22 0" stroke="#0070C0" stroke-width="3.4375" stroke-linejoin="round" stroke-miterlimit="10" fill="none" fill-rule="evenodd" transform="matrix(1 0 0 -1 1810.5 1752.5)"/><path d="M0 0 22 0" stroke="#0070C0" stroke-width="3.4375" stroke-linejoin="round" stroke-miterlimit="10" fill="none" fill-rule="evenodd" transform="matrix(1 0 0 -1 1810.5 1775.5)"/><path d="M0 0 22 0" stroke="#0070C0" stroke-width="3.4375" stroke-linejoin="round" stroke-miterlimit="10" fill="none" fill-rule="evenodd" transform="matrix(1 0 0 -1 1810.5 1798.5)"/><path d="M0 0 22 0" stroke="#0070C0" stroke-width="3.4375" stroke-linejoin="round" stroke-miterlimit="10" fill="none" fill-rule="evenodd" transform="matrix(1 0 0 -1 1810.5 1821.5)"/><path d="M0 0 22 0" stroke="#0070C0" stroke-width="3.4375" stroke-linejoin="round" stroke-miterlimit="10" fill="none" fill-rule="evenodd" transform="matrix(1 0 0 -1 1810.5 1844.5)"/><path d="M0 0 22 0" stroke="#0070C0" stroke-width="3.4375" stroke-linejoin="round" stroke-miterlimit="10" fill="none" fill-rule="evenodd" transform="matrix(1 0 0 -1 1810.5 1867.5)"/><path d="M0 0 22 0" stroke="#0070C0" stroke-width="3.4375" stroke-linejoin="round" stroke-miterlimit="10" fill="none" fill-rule="evenodd" transform="matrix(1 0 0 -1 1810.5 1890.5)"/><path d="M0 0 22 0" stroke="#0070C0" stroke-width="3.4375" stroke-linejoin="round" stroke-miterlimit="10" fill="none" fill-rule="evenodd" transform="matrix(1 0 0 -1 1810.5 1912.5)"/><path d="M0 0 22 0" stroke="#0070C0" stroke-width="3.4375" stroke-linejoin="round" stroke-miterlimit="10" fill="none" fill-rule="evenodd" transform="matrix(1 0 0 -1 1810.5 1935.5)"/><path d="M0 0 22 0" stroke="#0070C0" stroke-width="3.4375" stroke-linejoin="round" stroke-miterlimit="10" fill="none" fill-rule="evenodd" transform="matrix(1 0 0 -1 1810.5 1958.5)"/><path d="M0 0 22 0" stroke="#0070C0" stroke-width="3.4375" stroke-linejoin="round" stroke-miterlimit="10" fill="none" fill-rule="evenodd" transform="matrix(1 0 0 -1 1810.5 1981.5)"/><path d="M0 0 22 0" stroke="#0070C0" stroke-width="3.4375" stroke-linejoin="round" stroke-miterlimit="10" fill="none" fill-rule="evenodd" transform="matrix(1 0 0 -1 1810.5 1638.5)"/><path d="M0 0 22 0" stroke="#0070C0" stroke-width="3.4375" stroke-linejoin="round" stroke-miterlimit="10" fill="none" fill-rule="evenodd" transform="matrix(1 0 0 -1 1810.5 2004.5)"/><path d="M1810.5 1638.5 1810.5 2004.5" stroke="#0070C0" stroke-width="3.4375" stroke-linejoin="round" stroke-miterlimit="10" fill="none" fill-rule="evenodd"/><path d="M2716.5 1832.5 2349.5 1832.5" stroke="#0070C0" stroke-width="3.4375" stroke-linejoin="round" stroke-miterlimit="10" fill="none" fill-rule="evenodd"/><path d="M0 0 22 0" stroke="#0070C0" stroke-width="3.4375" stroke-linejoin="round" stroke-miterlimit="10" fill="none" fill-rule="evenodd" transform="matrix(6.12323e-17 1 1 -6.12323e-17 2692.5 1810.5)"/><path d="M0 0 22 0" stroke="#0070C0" stroke-width="3.4375" stroke-linejoin="round" stroke-miterlimit="10" fill="none" fill-rule="evenodd" transform="matrix(6.12323e-17 1 1 -6.12323e-17 2669.5 1810.5)"/><path d="M0 0 22 0" stroke="#0070C0" stroke-width="3.4375" stroke-linejoin="round" stroke-miterlimit="10" fill="none" fill-rule="evenodd" transform="matrix(6.12323e-17 1 1 -6.12323e-17 2647.5 1810.5)"/><path d="M0 0 22 0" stroke="#0070C0" stroke-width="3.4375" stroke-linejoin="round" stroke-miterlimit="10" fill="none" fill-rule="evenodd" transform="matrix(6.12323e-17 1 1 -6.12323e-17 2624.5 1810.5)"/><path d="M0 0 22 0" stroke="#0070C0" stroke-width="3.4375" stroke-linejoin="round" stroke-miterlimit="10" fill="none" fill-rule="evenodd" transform="matrix(6.12323e-17 1 1 -6.12323e-17 2601.5 1810.5)"/><path d="M0 0 22 0" stroke="#0070C0" stroke-width="3.4375" stroke-linejoin="round" stroke-miterlimit="10" fill="none" fill-rule="evenodd" transform="matrix(6.12323e-17 1 1 -6.12323e-17 2578.5 1810.5)"/><path d="M0 0 22 0" stroke="#0070C0" stroke-width="3.4375" stroke-linejoin="round" stroke-miterlimit="10" fill="none" fill-rule="evenodd" transform="matrix(6.12323e-17 1 1 -6.12323e-17 2555.5 1810.5)"/><path d="M0 0 22 0" stroke="#0070C0" stroke-width="3.4375" stroke-linejoin="round" stroke-miterlimit="10" fill="none" fill-rule="evenodd" transform="matrix(6.12323e-17 1 1 -6.12323e-17 2532.5 1810.5)"/><path d="M0 0 22 0" stroke="#0070C0" stroke-width="3.4375" stroke-linejoin="round" stroke-miterlimit="10" fill="none" fill-rule="evenodd" transform="matrix(6.12323e-17 1 1 -6.12323e-17 2509.5 1810.5)"/><path d="M0 0 22 0" stroke="#0070C0" stroke-width="3.4375" stroke-linejoin="round" stroke-miterlimit="10" fill="none" fill-rule="evenodd" transform="matrix(6.12323e-17 1 1 -6.12323e-17 2487.5 1810.5)"/><path d="M0 0 22 0" stroke="#0070C0" stroke-width="3.4375" stroke-linejoin="round" stroke-miterlimit="10" fill="none" fill-rule="evenodd" transform="matrix(6.12323e-17 1 1 -6.12323e-17 2464.5 1810.5)"/><path d="M0 0 22 0" stroke="#0070C0" stroke-width="3.4375" stroke-linejoin="round" stroke-miterlimit="10" fill="none" fill-rule="evenodd" transform="matrix(6.12323e-17 1 1 -6.12323e-17 2441.5 1810.5)"/><path d="M0 0 22 0" stroke="#0070C0" stroke-width="3.4375" stroke-linejoin="round" stroke-miterlimit="10" fill="none" fill-rule="evenodd" transform="matrix(6.12323e-17 1 1 -6.12323e-17 2418.5 1810.5)"/><path d="M0 0 22 0" stroke="#0070C0" stroke-width="3.4375" stroke-linejoin="round" stroke-miterlimit="10" fill="none" fill-rule="evenodd" transform="matrix(6.12323e-17 1 1 -6.12323e-17 2395.5 1810.5)"/><path d="M0 0 22 0" stroke="#0070C0" stroke-width="3.4375" stroke-linejoin="round" stroke-miterlimit="10" fill="none" fill-rule="evenodd" transform="matrix(6.12323e-17 1 1 -6.12323e-17 2372.5 1810.5)"/><path d="M0 0 22 0" stroke="#0070C0" stroke-width="3.4375" stroke-linejoin="round" stroke-miterlimit="10" fill="none" fill-rule="evenodd" transform="matrix(6.12323e-17 1 1 -6.12323e-17 2715.5 1810.5)"/><path d="M0 0 22 0" stroke="#0070C0" stroke-width="3.4375" stroke-linejoin="round" stroke-miterlimit="10" fill="none" fill-rule="evenodd" transform="matrix(6.12323e-17 1 1 -6.12323e-17 2349.5 1810.5)"/><path d="M2716.5 1811.5 2349.5 1811.5" stroke="#0070C0" stroke-width="3.4375" stroke-linejoin="round" stroke-miterlimit="10" fill="none" fill-rule="evenodd"/><path d="M0 0 22 0" stroke="#00B050" stroke-width="3.4375" stroke-linejoin="round" stroke-miterlimit="10" fill="none" fill-rule="evenodd" transform="matrix(6.12323e-17 1 1 -6.12323e-17 2350.5 1810.5)"/><path d="M2349.5 1832.5 2280.5 1832.5" stroke="#00B050" stroke-width="3.4375" stroke-linejoin="round" stroke-miterlimit="10" fill="none" fill-rule="evenodd"/><path d="M0 0 22 0" stroke="#00B050" stroke-width="3.4375" stroke-linejoin="round" stroke-miterlimit="10" fill="none" fill-rule="evenodd" transform="matrix(6.12323e-17 1 1 -6.12323e-17 2326.5 1811.5)"/><path d="M0 0 22 0" stroke="#00B050" stroke-width="3.4375" stroke-linejoin="round" stroke-miterlimit="10" fill="none" fill-rule="evenodd" transform="matrix(6.12323e-17 1 1 -6.12323e-17 2303.5 1811.5)"/><path d="M0 0 22 0" stroke="#00B050" stroke-width="3.4375" stroke-linejoin="round" stroke-miterlimit="10" fill="none" fill-rule="evenodd" transform="matrix(6.12323e-17 1 1 -6.12323e-17 2280.5 1811.5)"/><path d="M2349.5 1811.5 2280.5 1811.5" stroke="#00B050" stroke-width="3.4375" stroke-linejoin="round" stroke-miterlimit="10" fill="none" fill-rule="evenodd"/><path d="M1398.5 1818.06 1441.22 1818.06 1441.22 1824.94 1398.5 1824.94ZM1436.63 1807.75 1464.13 1821.5 1436.63 1835.25Z" fill="#4A66AC"/><path d="M1794.5 1818.06 1850.65 1818.06 1850.65 1824.94 1794.5 1824.94ZM1846.06 1807.75 1873.56 1821.5 1846.06 1835.25Z" fill="#4A66AC"/><path d="M2203.5 1818.06 2249.81 1818.06 2249.81 1824.94 2203.5 1824.94ZM2245.23 1807.75 2272.73 1821.5 2245.23 1835.25Z" fill="#4A66AC"/></g></svg>