<svg width="4400" height="1171" xmlns="http://www.w3.org/2000/svg" xmlns:xlink="http://www.w3.org/1999/xlink" xml:space="preserve" overflow="hidden"><defs><clipPath id="clip0"><rect x="0" y="1006" width="4400" height="1171"/></clipPath></defs><g clip-path="url(#clip0)" transform="matrix(1 0 0 1 0 -1006)"><rect x="2401.5" y="1127.5" width="1582" height="929" stroke="#34497D" stroke-width="3.4375" stroke-linejoin="round" stroke-miterlimit="10" stroke-dasharray="3.4375 3.4375" fill="#E95C6C" fill-opacity="0.0196078"/><rect x="431.5" y="1127.5" width="1662" height="929" stroke="#34497D" stroke-width="3.4375" stroke-linejoin="round" stroke-miterlimit="10" stroke-dasharray="3.4375 3.4375" fill="#E95C6C" fill-opacity="0.0196078"/><rect x="2443.5" y="1424.5" width="259" height="330" stroke="#002060" stroke-width="9.16667" stroke-miterlimit="8" fill="#FFFFFF"/><text fill="#FF5B60" font-family="Times New Roman,Times New Roman_MSFontService,sans-serif" font-weight="400" font-size="64" transform="matrix(1 0 0 1 2504.5 1613)">DAC</text><path d="M0.0505353-4.58305 49.8273-4.03419 49.7262 5.13192-0.0505353 4.58305ZM45.3453-13.2508 72.692 0.801542 45.0421 14.2475Z" fill="#05D7A0" transform="matrix(1 0 0 -1 2063.5 1589.3)"/><rect x="481.5" y="1206.5" width="703" height="767" stroke="#34497D" stroke-width="3.4375" stroke-linejoin="round" stroke-miterlimit="10" stroke-dasharray="3.4375 3.4375" fill="#E95C6C" fill-opacity="0.0509804"/><rect x="478.5" y="1206.5" width="330" height="355" stroke="#FF5B60" stroke-width="9.16667" stroke-linejoin="round" stroke-miterlimit="10" fill="#FFFFFF"/><text fill="#002060" font-family="Times New Roman,Times New Roman_MSFontService,sans-serif" font-weight="400" font-size="64" transform="matrix(1 0 0 1 551.534 1407)">DMRS</text><rect x="478.5" y="1617.5" width="330" height="356" stroke="#FF5B60" stroke-width="9.16667" stroke-linejoin="round" stroke-miterlimit="10" fill="#FFFFFF"/><text fill="#002060" font-family="Times New Roman,Times New Roman_MSFontService,sans-serif" font-weight="400" font-size="64" transform="matrix(1 0 0 1 558.696 1819)">PBCH</text><rect x="1745.5" y="1424.5" width="318" height="330" stroke="#FF5B60" stroke-width="9.16667" stroke-miterlimit="8" fill="#FFFFFF"/><text fill="#002060" font-family="Times New Roman,Times New Roman_MSFontService,sans-serif" font-weight="400" font-size="64" transform="matrix(1 0 0 1 1811.24 1613)">OFDM</text><rect x="1252.5" y="1424.5" width="421" height="330" stroke="#FF5B60" stroke-width="9.16667" stroke-miterlimit="8" fill="#FFFFFF"/><text fill="#002060" font-family="Times New Roman,Times New Roman_MSFontService,sans-serif" font-weight="400" font-size="64" transform="matrix(1 0 0 1 1289.55 1574)">Transmission </text><text fill="#002060" font-family="Times New Roman,Times New Roman_MSFontService,sans-serif" font-weight="400" font-size="64" transform="matrix(1 0 0 1 1403.83 1651)">Grid</text><rect x="912.5" y="1206.5" width="269" height="147" stroke="#FF5B60" stroke-width="9.16667" stroke-linejoin="round" stroke-miterlimit="10" fill="#FFFFFF"/><text fill="#002060" font-family="Times New Roman,Times New Roman_MSFontService,sans-serif" font-weight="400" font-size="64" transform="matrix(1 0 0 1 992.788 1303)">PSS</text><rect x="912.5" y="1424.5" width="269" height="330" stroke="#FF5B60" stroke-width="9.16667" stroke-linejoin="round" stroke-miterlimit="10" fill="#FFFFFF"/><text fill="#002060" font-family="Times New Roman,Times New Roman_MSFontService,sans-serif" font-weight="400" font-size="64" transform="matrix(1 0 0 1 989.064 1574)">SSB </text><text fill="#002060" font-family="Times New Roman,Times New Roman_MSFontService,sans-serif" font-weight="400" font-size="64" transform="matrix(1 0 0 1 987.345 1651)">Grid</text><rect x="912.5" y="1825.5" width="269" height="148" stroke="#FF5B60" stroke-width="9.16667" stroke-linejoin="round" stroke-miterlimit="10" fill="#FFFFFF"/><text fill="#002060" font-family="Times New Roman,Times New Roman_MSFontService,sans-serif" font-weight="400" font-size="64" transform="matrix(1 0 0 1 992.788 1923)">SSS</text><path d="M1051.08 1353.5 1051.08 1401.7 1041.92 1401.7 1041.92 1353.5ZM1060.25 1397.12 1046.5 1424.62 1032.75 1397.12Z" fill="#05D7A0"/><path d="M4.58333-2.32586e-05 4.58358 48.2008-4.58309 48.2008-4.58333 2.32586e-05ZM13.7502 43.6174 0.000360892 71.1175-13.7498 43.6175Z" fill="#05D7A0" transform="matrix(1 0 0 -1 1046.5 1825.62)"/><path d="M808.5 1378.92 860.502 1378.92C863.034 1378.92 865.086 1380.97 865.086 1383.5L865.086 1589.3 860.502 1584.71 889.588 1584.71 889.588 1593.88 860.502 1593.88C857.971 1593.88 855.919 1591.83 855.919 1589.3L855.919 1383.5 860.502 1388.08 808.5 1388.08ZM885.005 1575.55 912.505 1589.3 885.005 1603.05Z" fill="#05D7A0"/><path d="M0-4.58333 52.0024-4.58333C54.5337-4.58333 56.5858-2.53131 56.5858 0L56.5858 205.796 52.0024 201.212 81.0882 201.212 81.0882 210.379 52.0024 210.379C49.4711 210.379 47.4191 208.327 47.4191 205.796L47.4191 0 52.0024 4.58333 0 4.58333ZM76.5049 192.046 104.005 205.796 76.5049 219.546Z" fill="#05D7A0" transform="matrix(1 0 0 -1 808.5 1795.3)"/><path d="M1184.5 1584.92 1229.65 1584.92 1229.65 1594.08 1184.5 1594.08ZM1225.07 1575.75 1252.57 1589.5 1225.07 1603.25Z" fill="#05D7A0"/><path d="M1673.5 1584.92 1722.5 1584.92 1722.5 1594.08 1673.5 1594.08ZM1717.92 1575.75 1745.42 1589.5 1717.92 1603.25Z" fill="#05D7A0"/><path d="M399.5 1790.92 455.035 1790.92 455.035 1800.08 399.5 1800.08ZM450.452 1781.75 477.952 1795.5 450.452 1809.25Z" fill="#05D7A0"/><rect x="229.5" y="1617.5" width="170" height="356" stroke="#05D7A0" stroke-width="9.16667" stroke-linejoin="round" stroke-miterlimit="10" fill="#FFFFFF"/><text fill="#002060" font-family="Times New Roman,Times New Roman_MSFontService,sans-serif" font-weight="400" font-size="55" transform="matrix(1 0 0 1 262.465 1749)">MIB</text><text fill="#002060" font-family="Times New Roman,Times New Roman_MSFontService,sans-serif" font-weight="400" font-size="55" transform="matrix(1 0 0 1 298.834 1815)">+ </text><text fill="#002060" font-family="Times New Roman,Times New Roman_MSFontService,sans-serif" font-weight="400" font-size="55" transform="matrix(1 0 0 1 271.517 1880)">ATI</text><path d="M1574.24 1857.82C1580.24 1860.87 1585 1866.45 1588.54 1874.58 1592.08 1882.71 1593.84 1892.23 1593.84 1903.15 1593.84 1914 1592.08 1923.53 1588.54 1931.73 1585 1939.93 1580.24 1945.53 1574.24 1948.54L1573.38 1946.39C1578.18 1943.28 1581.93 1937.92 1584.65 1930.33 1587.36 1922.74 1588.71 1913.7 1588.71 1903.21 1588.71 1892.52 1587.35 1883.42 1584.62 1875.91 1581.89 1868.4 1578.14 1863.09 1573.38 1859.97ZM1348.94 1857.82 1349.82 1859.97C1345.06 1863.09 1341.32 1868.4 1338.59 1875.91 1335.86 1883.42 1334.49 1892.52 1334.49 1903.21 1334.49 1913.7 1335.84 1922.74 1338.55 1930.33 1341.25 1937.92 1345.01 1943.28 1349.82 1946.39L1348.94 1948.54C1342.96 1945.53 1338.2 1939.93 1334.66 1931.73 1331.13 1923.53 1329.36 1914 1329.36 1903.15 1329.36 1892.23 1331.13 1882.71 1334.66 1874.58 1338.2 1866.45 1342.96 1860.87 1348.94 1857.82Z" fill="#002060" fill-rule="evenodd"/><path d="M1350.88 1882.48 1360.77 1882.48 1383.03 1909.79 1383.03 1888.79C1383.03 1886.55 1382.78 1885.16 1382.28 1884.6 1381.61 1883.85 1380.57 1883.47 1379.13 1883.47L1377.87 1883.47 1377.87 1882.48 1390.55 1882.48 1390.55 1883.47 1389.26 1883.47C1387.72 1883.47 1386.63 1883.94 1385.98 1884.87 1385.59 1885.44 1385.39 1886.75 1385.39 1888.79L1385.39 1919.49 1384.42 1919.49 1360.42 1890.16 1360.42 1912.58C1360.42 1914.82 1360.66 1916.22 1361.14 1916.77 1361.82 1917.53 1362.87 1917.9 1364.28 1917.9L1365.57 1917.9 1365.57 1918.89 1352.9 1918.89 1352.9 1917.9 1354.16 1917.9C1355.72 1917.9 1356.82 1917.44 1357.46 1916.5 1357.86 1915.93 1358.05 1914.62 1358.05 1912.58L1358.05 1887.26C1357 1886.02 1356.2 1885.21 1355.65 1884.82 1355.1 1884.42 1354.3 1884.05 1353.25 1883.71 1352.73 1883.55 1351.94 1883.47 1350.88 1883.47Z" fill="#002060" fill-rule="evenodd"/><text fill="#000000" fill-opacity="0" font-family="Arial,Arial_MSFontService,sans-serif" font-size="37.0068" x="1350.88" y="1914.86">N</text><path d="M1425.98 1904.71C1424.37 1904.71 1422.53 1904.97 1420.47 1905.49L1420.47 1936.45C1422.75 1936.95 1424.65 1937.2 1426.19 1937.2 1430.35 1937.2 1433.79 1935.75 1436.53 1932.83 1439.27 1929.91 1440.64 1925.95 1440.64 1920.96 1440.64 1915.93 1439.27 1911.96 1436.53 1909.06 1433.79 1906.16 1430.27 1904.71 1425.98 1904.71ZM1410.08 1902.67 1424.9 1902.67C1430.35 1902.67 1434.49 1903.29 1437.32 1904.52 1440.16 1905.76 1442.44 1907.82 1444.17 1910.7 1445.9 1913.58 1446.76 1916.91 1446.76 1920.69 1446.76 1925.76 1445.22 1929.99 1442.14 1933.39 1438.69 1937.19 1433.42 1939.08 1426.35 1939.08L1410.08 1939.08 1410.08 1938.09 1411.45 1938.09C1412.99 1938.09 1414.08 1937.6 1414.72 1936.61 1415.12 1936.02 1415.32 1934.7 1415.32 1932.64L1415.32 1909.11C1415.32 1906.84 1415.06 1905.42 1414.56 1904.84 1413.87 1904.06 1412.83 1903.66 1411.45 1903.66L1410.08 1903.66ZM1392.51 1902.67 1408.11 1902.67 1408.11 1903.66 1406.8 1903.66C1405.31 1903.66 1404.23 1904.1 1403.55 1904.98 1403.1 1905.55 1402.87 1906.93 1402.87 1909.11L1402.87 1932.64C1402.87 1934.48 1402.99 1935.7 1403.22 1936.29 1403.4 1936.74 1403.78 1937.12 1404.35 1937.45 1405.12 1937.88 1405.94 1938.09 1406.8 1938.09L1408.11 1938.09 1408.11 1939.08 1392.51 1939.08 1392.51 1938.09 1393.8 1938.09C1395.3 1938.09 1396.39 1937.65 1397.07 1936.77 1397.5 1936.2 1397.72 1934.82 1397.72 1932.64L1397.72 1909.11C1397.72 1907.27 1397.6 1906.05 1397.37 1905.46 1397.19 1905.01 1396.82 1904.63 1396.27 1904.31 1395.48 1903.88 1394.66 1903.66 1393.8 1903.66L1392.51 1903.66Z" fill="#002060" fill-rule="evenodd"/><text fill="#000000" fill-opacity="0" font-family="Arial,Arial_MSFontService,sans-serif" font-size="36.416" x="1392.51" y="1934.53">ID</text><path d="M1406.45 1857.41 1407.33 1857.41 1407.33 1888.16C1407.33 1890.2 1407.42 1891.47 1407.59 1891.98 1407.76 1892.48 1408.11 1892.86 1408.65 1893.13 1409.19 1893.4 1410.28 1893.55 1411.92 1893.59L1411.92 1894.58 1398.23 1894.58 1398.23 1893.59C1399.95 1893.55 1401.06 1893.4 1401.56 1893.14 1402.06 1892.88 1402.41 1892.53 1402.61 1892.1 1402.8 1891.66 1402.9 1890.35 1402.9 1888.16L1402.9 1868.5C1402.9 1865.85 1402.81 1864.15 1402.63 1863.4 1402.51 1862.83 1402.28 1862.41 1401.95 1862.14 1401.62 1861.87 1401.22 1861.74 1400.75 1861.74 1400.09 1861.74 1399.17 1862.01 1397.99 1862.57L1397.58 1861.74Z" fill="#002060" fill-rule="evenodd"/><text fill="#000000" fill-opacity="0" font-family="Arial,Arial_MSFontService,sans-serif" font-size="37.168" x="1397.58" y="1889.93">1</text><path d="M1454.89 1912.66 1459.59 1912.66C1459.84 1913.92 1459.97 1915.15 1459.97 1916.37 1459.97 1917.62 1459.75 1918.77 1459.32 1919.81 1458.89 1920.85 1458.21 1921.88 1457.27 1922.91 1456.33 1923.94 1455.04 1925.07 1453.39 1926.31L1451.94 1924.67C1452.85 1923.81 1453.51 1923.04 1453.93 1922.35 1454.34 1921.66 1454.63 1920.87 1454.81 1920 1454.99 1919.12 1455.08 1918.02 1455.08 1916.69 1455.08 1915.33 1455.02 1913.99 1454.89 1912.66Z" fill="#002060" fill-rule="evenodd"/><text fill="#000000" fill-opacity="0" font-family="Arial,Arial_MSFontService,sans-serif" font-size="13.6426" x="1451.94" y="1924.6">,</text><path d="M1471.19 1882.48 1481.08 1882.48 1503.34 1909.79 1503.34 1888.79C1503.34 1886.55 1503.09 1885.16 1502.59 1884.6 1501.93 1883.85 1500.88 1883.47 1499.45 1883.47L1498.18 1883.47 1498.18 1882.48 1510.86 1882.48 1510.86 1883.47 1509.57 1883.47C1508.03 1883.47 1506.94 1883.94 1506.29 1884.87 1505.9 1885.44 1505.7 1886.75 1505.7 1888.79L1505.7 1919.49 1504.74 1919.49 1480.73 1890.16 1480.73 1912.58C1480.73 1914.82 1480.97 1916.22 1481.45 1916.77 1482.13 1917.53 1483.18 1917.9 1484.6 1917.9L1485.88 1917.9 1485.88 1918.89 1473.21 1918.89 1473.21 1917.9 1474.47 1917.9C1476.03 1917.9 1477.13 1917.44 1477.77 1916.5 1478.17 1915.93 1478.36 1914.62 1478.36 1912.58L1478.36 1887.26C1477.31 1886.02 1476.51 1885.21 1475.96 1884.82 1475.42 1884.42 1474.61 1884.05 1473.56 1883.71 1473.04 1883.55 1472.25 1883.47 1471.19 1883.47Z" fill="#002060" fill-rule="evenodd"/><text fill="#000000" fill-opacity="0" font-family="Arial,Arial_MSFontService,sans-serif" font-size="37.0068" x="1471.19" y="1914.86">N</text><path d="M1546.29 1904.71C1544.68 1904.71 1542.84 1904.97 1540.78 1905.49L1540.78 1936.45C1543.06 1936.95 1544.96 1937.2 1546.5 1937.2 1550.66 1937.2 1554.1 1935.75 1556.84 1932.83 1559.58 1929.91 1560.95 1925.95 1560.95 1920.96 1560.95 1915.93 1559.58 1911.96 1556.84 1909.06 1554.1 1906.16 1550.59 1904.71 1546.29 1904.71ZM1530.39 1902.67 1545.22 1902.67C1550.66 1902.67 1554.8 1903.29 1557.64 1904.52 1560.47 1905.76 1562.76 1907.82 1564.48 1910.7 1566.21 1913.58 1567.08 1916.91 1567.08 1920.69 1567.08 1925.76 1565.54 1929.99 1562.46 1933.39 1559 1937.19 1553.74 1939.08 1546.67 1939.08L1530.39 1939.08 1530.39 1938.09 1531.76 1938.09C1533.3 1938.09 1534.39 1937.6 1535.04 1936.61 1535.43 1936.02 1535.63 1934.7 1535.63 1932.64L1535.63 1909.11C1535.63 1906.84 1535.38 1905.42 1534.88 1904.84 1534.18 1904.06 1533.14 1903.66 1531.76 1903.66L1530.39 1903.66ZM1512.82 1902.67 1528.42 1902.67 1528.42 1903.66 1527.11 1903.66C1525.62 1903.66 1524.54 1904.1 1523.86 1904.98 1523.41 1905.55 1523.19 1906.93 1523.19 1909.11L1523.19 1932.64C1523.19 1934.48 1523.3 1935.7 1523.54 1936.29 1523.71 1936.74 1524.09 1937.12 1524.66 1937.45 1525.43 1937.88 1526.25 1938.09 1527.11 1938.09L1528.42 1938.09 1528.42 1939.08 1512.82 1939.08 1512.82 1938.09 1514.11 1938.09C1515.61 1938.09 1516.71 1937.65 1517.39 1936.77 1517.82 1936.2 1518.03 1934.82 1518.03 1932.64L1518.03 1909.11C1518.03 1907.27 1517.91 1906.05 1517.68 1905.46 1517.5 1905.01 1517.14 1904.63 1516.58 1904.31 1515.79 1903.88 1514.97 1903.66 1514.11 1903.66L1512.82 1903.66Z" fill="#002060" fill-rule="evenodd"/><text fill="#000000" fill-opacity="0" font-family="Arial,Arial_MSFontService,sans-serif" font-size="36.416" x="1512.82" y="1934.53">ID</text><path d="M1524.07 1857.41C1527.03 1857.41 1529.49 1858.36 1531.47 1860.26 1533.45 1862.16 1534.44 1864.39 1534.44 1866.97 1534.44 1868.82 1534.01 1870.66 1533.15 1872.51 1531.83 1875.41 1529.68 1878.48 1526.7 1881.72 1522.25 1886.59 1519.46 1889.52 1518.35 1890.53L1527.86 1890.53C1529.79 1890.53 1531.15 1890.45 1531.93 1890.31 1532.71 1890.17 1533.41 1889.88 1534.04 1889.44 1534.66 1889 1535.21 1888.38 1535.67 1887.57L1536.67 1887.57 1534.12 1894.58 1512.63 1894.58 1512.63 1893.59C1518.95 1887.82 1523.4 1883.11 1525.98 1879.46 1528.56 1875.81 1529.85 1872.47 1529.85 1869.44 1529.85 1867.13 1529.14 1865.24 1527.73 1863.75 1526.31 1862.26 1524.62 1861.52 1522.65 1861.52 1520.86 1861.52 1519.25 1862.04 1517.83 1863.09 1516.41 1864.14 1515.35 1865.67 1514.67 1867.7L1513.68 1867.7C1514.13 1864.39 1515.28 1861.84 1517.13 1860.07 1518.98 1858.3 1521.3 1857.41 1524.07 1857.41Z" fill="#002060" fill-rule="evenodd"/><text fill="#000000" fill-opacity="0" font-family="Arial,Arial_MSFontService,sans-serif" font-size="37.168" x="1512.63" y="1889.93">2</text><path d="M1328.08 1255.61 1337.96 1255.61 1360.23 1282.92 1360.23 1261.92C1360.23 1259.68 1359.98 1258.28 1359.47 1257.73 1358.81 1256.98 1357.76 1256.6 1356.33 1256.6L1355.07 1256.6 1355.07 1255.61 1367.75 1255.61 1367.75 1256.6 1366.46 1256.6C1364.92 1256.6 1363.82 1257.07 1363.18 1258 1362.79 1258.57 1362.59 1259.88 1362.59 1261.92L1362.59 1292.61 1361.62 1292.61 1337.61 1263.29 1337.61 1285.71C1337.61 1287.95 1337.86 1289.35 1338.34 1289.9 1339.02 1290.65 1340.07 1291.03 1341.48 1291.03L1342.77 1291.03 1342.77 1292.02 1330.09 1292.02 1330.09 1291.03 1331.36 1291.03C1332.91 1291.03 1334.02 1290.56 1334.66 1289.63 1335.05 1289.06 1335.25 1287.75 1335.25 1285.71L1335.25 1260.39C1334.19 1259.15 1333.39 1258.34 1332.85 1257.94 1332.3 1257.55 1331.5 1257.18 1330.44 1256.84 1329.92 1256.68 1329.14 1256.6 1328.08 1256.6Z" fill="#002060" fill-rule="evenodd"/><text fill="#000000" fill-opacity="0" font-family="Arial,Arial_MSFontService,sans-serif" font-size="37.0068" x="1328.08" y="1287.99">N</text><path d="M1403.17 1277.84C1401.56 1277.84 1399.73 1278.1 1397.67 1278.62L1397.67 1309.58C1399.94 1310.08 1401.85 1310.33 1403.39 1310.33 1407.54 1310.33 1410.99 1308.87 1413.73 1305.95 1416.47 1303.04 1417.84 1299.08 1417.84 1294.08 1417.84 1289.05 1416.47 1285.09 1413.73 1282.19 1410.99 1279.29 1407.47 1277.84 1403.17 1277.84ZM1387.28 1275.8 1402.1 1275.8C1407.54 1275.8 1411.68 1276.41 1414.52 1277.65 1417.36 1278.88 1419.64 1280.94 1421.37 1283.83 1423.1 1286.71 1423.96 1290.04 1423.96 1293.82 1423.96 1298.88 1422.42 1303.12 1419.34 1306.52 1415.89 1310.31 1410.62 1312.21 1403.55 1312.21L1387.28 1312.21 1387.28 1311.22 1388.65 1311.22C1390.19 1311.22 1391.28 1310.73 1391.92 1309.74 1392.32 1309.15 1392.51 1307.83 1392.51 1305.77L1392.51 1282.24C1392.51 1279.97 1392.26 1278.54 1391.76 1277.97 1391.06 1277.18 1390.02 1276.79 1388.65 1276.79L1387.28 1276.79ZM1369.71 1275.8 1385.31 1275.8 1385.31 1276.79 1383.99 1276.79C1382.51 1276.79 1381.42 1277.23 1380.74 1278.11 1380.3 1278.68 1380.07 1280.06 1380.07 1282.24L1380.07 1305.77C1380.07 1307.61 1380.19 1308.83 1380.42 1309.42 1380.6 1309.87 1380.98 1310.25 1381.55 1310.57 1382.32 1311 1383.13 1311.22 1383.99 1311.22L1385.31 1311.22 1385.31 1312.21 1369.71 1312.21 1369.71 1311.22 1371 1311.22C1372.5 1311.22 1373.59 1310.78 1374.27 1309.9 1374.7 1309.33 1374.92 1307.95 1374.92 1305.77L1374.92 1282.24C1374.92 1280.4 1374.8 1279.18 1374.57 1278.59 1374.39 1278.14 1374.02 1277.76 1373.47 1277.43 1372.68 1277 1371.85 1276.79 1371 1276.79L1369.71 1276.79Z" fill="#002060" fill-rule="evenodd"/><text fill="#000000" fill-opacity="0" font-family="Arial,Arial_MSFontService,sans-serif" font-size="36.416" x="1369.71" y="1307.66">ID</text><path d="M1380.96 1230.54C1383.91 1230.54 1386.38 1231.49 1388.36 1233.39 1390.34 1235.28 1391.32 1237.52 1391.32 1240.1 1391.32 1241.94 1390.9 1243.79 1390.04 1245.63 1388.71 1248.53 1386.56 1251.6 1383.59 1254.84 1379.13 1259.71 1376.35 1262.65 1375.24 1263.65L1384.75 1263.65C1386.68 1263.65 1388.04 1263.58 1388.81 1263.44 1389.59 1263.29 1390.3 1263 1390.92 1262.56 1391.55 1262.13 1392.09 1261.5 1392.56 1260.7L1393.55 1260.7 1391 1267.71 1369.52 1267.71 1369.52 1266.71C1375.84 1260.95 1380.29 1256.24 1382.87 1252.59 1385.44 1248.94 1386.73 1245.6 1386.73 1242.57 1386.73 1240.26 1386.03 1238.36 1384.61 1236.88 1383.2 1235.39 1381.5 1234.65 1379.54 1234.65 1377.74 1234.65 1376.14 1235.17 1374.71 1236.22 1373.29 1237.27 1372.24 1238.8 1371.56 1240.83L1370.57 1240.83C1371.01 1237.51 1372.16 1234.97 1374.02 1233.2 1375.87 1231.43 1378.18 1230.54 1380.96 1230.54Z" fill="#002060" fill-rule="evenodd"/><text fill="#000000" fill-opacity="0" font-family="Arial,Arial_MSFontService,sans-serif" font-size="37.168" x="1369.52" y="1263.06">2</text><path d="M1.26567e-05-4.58333 107.772-4.58304 107.772 4.58363-1.26567e-05 4.58333ZM103.189-13.7497 130.689 0.000360892 103.189 13.7503Z" fill="#05D7A0" transform="matrix(-1 0 0 1 1312.19 1899.5)"/><path d="M1.23822e-05-4.58333 110.67-4.58303 110.67 4.58363-1.23822e-05 4.58333ZM106.087-13.7497 133.586 0.000360892 106.086 13.7503Z" fill="#05D7A0" transform="matrix(-1 0 0 1 1315.09 1279.5)"/><path d="M249.467 1230.21 259.35 1230.21 281.613 1257.52 281.613 1236.52C281.613 1234.28 281.362 1232.88 280.861 1232.33 280.198 1231.58 279.151 1231.2 277.719 1231.2L276.457 1231.2 276.457 1230.21 289.132 1230.21 289.132 1231.2 287.843 1231.2C286.304 1231.2 285.211 1231.67 284.567 1232.6 284.173 1233.17 283.976 1234.48 283.976 1236.52L283.976 1267.21 283.009 1267.21 259 1237.89 259 1260.31C259 1262.55 259.242 1263.95 259.726 1264.5 260.406 1265.25 261.453 1265.63 262.868 1265.63L264.157 1265.63 264.157 1266.62 251.481 1266.62 251.481 1265.63 252.743 1265.63C254.301 1265.63 255.402 1265.17 256.046 1264.23 256.44 1263.66 256.637 1262.35 256.637 1260.31L256.637 1234.99C255.581 1233.75 254.78 1232.94 254.234 1232.54 253.688 1232.15 252.886 1231.78 251.83 1231.44 251.311 1231.28 250.523 1231.2 249.467 1231.2Z" fill="#002060" fill-rule="evenodd"/><text fill="#000000" fill-opacity="0" font-family="Arial,Arial_MSFontService,sans-serif" font-size="37.0068" x="249.467" y="1262.59">N</text><path d="M318.124 1260.7C316.548 1260.7 315.143 1261.41 313.908 1262.82 312.278 1264.68 311.464 1267.4 311.464 1270.98 311.464 1274.6 312.252 1277.37 313.827 1279.3 315.403 1281.22 317.157 1282.18 319.091 1282.18 320.72 1282.18 322.296 1281.37 323.817 1279.74L323.817 1267.06C323.71 1265.85 323.388 1264.74 322.851 1263.73 322.313 1262.73 321.602 1261.97 320.716 1261.46 319.829 1260.95 318.965 1260.7 318.124 1260.7ZM298.747 1259.06 299.928 1259.06 299.928 1278.83C299.928 1280.37 300.04 1281.39 300.264 1281.9 300.488 1282.41 300.819 1282.79 301.258 1283.04 301.696 1283.29 302.497 1283.42 303.661 1283.42L303.661 1284.38 291.71 1284.38 291.71 1283.42C292.91 1283.42 293.716 1283.3 294.127 1283.07 294.539 1282.84 294.866 1282.45 295.108 1281.91 295.349 1281.38 295.47 1280.35 295.47 1278.83L295.47 1269.35C295.47 1266.68 295.39 1264.95 295.229 1264.16 295.103 1263.59 294.906 1263.19 294.638 1262.97 294.369 1262.74 294.002 1262.63 293.537 1262.63 293.035 1262.63 292.427 1262.77 291.71 1263.03L291.334 1262.07ZM327.04 1246.2 328.249 1246.2 328.249 1274.64C328.249 1277.52 328.316 1279.28 328.45 1279.91 328.584 1280.55 328.799 1280.99 329.094 1281.24 329.39 1281.49 329.735 1281.62 330.128 1281.62 330.612 1281.62 331.256 1281.47 332.062 1281.16L332.357 1282.1 325.053 1285.14 323.817 1285.14 323.817 1281.62C322.618 1282.87 321.445 1283.77 320.299 1284.32 319.153 1284.86 317.918 1285.14 316.593 1285.14 313.908 1285.14 311.562 1284.01 309.557 1281.77 307.552 1279.52 306.549 1276.63 306.549 1273.11 306.549 1269.58 307.659 1266.35 309.879 1263.42 312.099 1260.5 314.955 1259.03 318.446 1259.03 320.613 1259.03 322.403 1259.72 323.817 1261.1L323.817 1256.56C323.817 1253.75 323.75 1252.02 323.616 1251.38 323.482 1250.73 323.271 1250.3 322.985 1250.06 322.698 1249.83 322.34 1249.71 321.911 1249.71 321.445 1249.71 320.827 1249.86 320.058 1250.14L319.708 1249.2ZM297.699 1246.2C298.451 1246.2 299.091 1246.46 299.619 1246.99 300.148 1247.52 300.412 1248.16 300.412 1248.91 300.412 1249.66 300.148 1250.3 299.619 1250.84 299.091 1251.38 298.451 1251.65 297.699 1251.65 296.947 1251.65 296.303 1251.38 295.766 1250.84 295.229 1250.3 294.96 1249.66 294.96 1248.91 294.96 1248.16 295.224 1247.52 295.752 1246.99 296.28 1246.46 296.929 1246.2 297.699 1246.2Z" fill="#002060" fill-rule="evenodd"/><text fill="#000000" fill-opacity="0" font-family="Arial,Arial_MSFontService,sans-serif" font-size="38.9404" x="291.334" y="1280.27">id</text><path d="M250.478 1503.75 251.633 1503.75 251.633 1508.96C254.516 1505.48 257.264 1503.75 259.878 1503.75 261.221 1503.75 262.375 1504.08 263.342 1504.76 264.309 1505.43 265.079 1506.53 265.652 1508.07 266.046 1509.15 266.242 1510.79 266.242 1513.01L266.242 1523.51C266.242 1525.07 266.368 1526.13 266.618 1526.68 266.815 1527.13 267.133 1527.48 267.572 1527.73 268.01 1527.98 268.821 1528.11 270.002 1528.11L270.002 1529.07 257.837 1529.07 257.837 1528.11 258.347 1528.11C259.493 1528.11 260.294 1527.93 260.751 1527.58 261.207 1527.23 261.525 1526.72 261.704 1526.04 261.776 1525.77 261.811 1524.93 261.811 1523.51L261.811 1513.44C261.811 1511.21 261.52 1509.58 260.939 1508.57 260.357 1507.56 259.376 1507.05 257.998 1507.05 255.867 1507.05 253.746 1508.22 251.633 1510.54L251.633 1523.51C251.633 1525.18 251.732 1526.21 251.929 1526.6 252.179 1527.12 252.524 1527.5 252.962 1527.74 253.401 1527.99 254.292 1528.11 255.635 1528.11L255.635 1529.07 243.469 1529.07 243.469 1528.11 244.006 1528.11C245.259 1528.11 246.105 1527.79 246.544 1527.15 246.983 1526.52 247.202 1525.3 247.202 1523.51L247.202 1514.38C247.202 1511.43 247.135 1509.63 247.001 1508.99 246.866 1508.34 246.66 1507.9 246.383 1507.67 246.105 1507.44 245.734 1507.32 245.268 1507.32 244.767 1507.32 244.167 1507.45 243.469 1507.72L243.066 1506.76Z" fill="#002060" fill-rule="evenodd"/><text fill="#000000" fill-opacity="0" font-family="Arial,Arial_MSFontService,sans-serif" font-size="25.3247" x="243.066" y="1525.91">n</text><path d="M311.13 1508.65 338.227 1508.65 338.576 1516.66 337.637 1516.66C337.171 1514.95 336.629 1513.71 336.012 1512.91 335.394 1512.11 334.633 1511.54 333.729 1511.18 332.825 1510.82 331.424 1510.64 329.526 1510.64L321.496 1510.64 321.496 1524.95 328.13 1524.95C329.652 1524.95 330.766 1524.62 331.473 1523.95 332.18 1523.28 332.65 1521.95 332.883 1519.96L333.877 1519.96 333.877 1532.29 332.883 1532.29C332.865 1530.87 332.682 1529.83 332.333 1529.17 331.983 1528.51 331.5 1528.01 330.882 1527.68 330.265 1527.35 329.347 1527.18 328.13 1527.18L321.496 1527.18 321.496 1538.62C321.496 1540.47 321.613 1541.69 321.846 1542.28 322.025 1542.72 322.401 1543.11 322.973 1543.43 323.761 1543.86 324.585 1544.08 325.444 1544.08L326.76 1544.08 326.76 1545.07 311.13 1545.07 311.13 1544.08 312.419 1544.08C313.923 1544.08 315.015 1543.64 315.696 1542.76 316.125 1542.19 316.34 1540.81 316.34 1538.62L316.34 1515.1C316.34 1513.25 316.224 1512.04 315.991 1511.45 315.812 1511 315.445 1510.61 314.89 1510.29 314.12 1509.86 313.297 1509.65 312.419 1509.65L311.13 1509.65ZM271.184 1508.65 286.787 1508.65 286.787 1509.65 285.471 1509.65C284.612 1509.65 283.797 1509.85 283.027 1510.26 282.472 1510.55 282.087 1510.98 281.872 1511.57 281.658 1512.15 281.55 1513.33 281.55 1515.12L281.55 1525.54 298.469 1525.54 298.469 1515.12C298.469 1513.26 298.353 1512.04 298.12 1511.45 297.941 1511 297.565 1510.61 296.992 1510.29 296.222 1509.86 295.408 1509.65 294.548 1509.65L293.259 1509.65 293.259 1508.65 308.835 1508.65 308.835 1509.65 307.546 1509.65C306.687 1509.65 305.872 1509.85 305.102 1510.26 304.529 1510.55 304.14 1510.98 303.934 1511.57 303.728 1512.15 303.625 1513.33 303.625 1515.12L303.625 1538.62C303.625 1540.47 303.742 1541.69 303.974 1542.28 304.153 1542.72 304.52 1543.11 305.076 1543.43 305.863 1543.86 306.687 1544.08 307.546 1544.08L308.835 1544.08 308.835 1545.07 293.259 1545.07 293.259 1544.08 294.548 1544.08C296.034 1544.08 297.117 1543.64 297.798 1542.76 298.245 1542.19 298.469 1540.81 298.469 1538.62L298.469 1527.53 281.55 1527.53 281.55 1538.62C281.55 1540.47 281.666 1541.69 281.899 1542.28 282.078 1542.72 282.454 1543.11 283.027 1543.43 283.797 1543.86 284.612 1544.08 285.471 1544.08L286.787 1544.08 286.787 1545.07 271.184 1545.07 271.184 1544.08 272.473 1544.08C273.977 1544.08 275.069 1543.64 275.749 1542.76 276.179 1542.19 276.394 1540.81 276.394 1538.62L276.394 1515.12C276.394 1513.26 276.277 1512.04 276.045 1511.45 275.866 1511 275.499 1510.61 274.944 1510.29 274.156 1509.86 273.332 1509.65 272.473 1509.65L271.184 1509.65Z" fill="#002060" fill-rule="evenodd"/><text fill="#000000" fill-opacity="0" font-family="Arial,Arial_MSFontService,sans-serif" font-size="36.416" x="271.184" y="1540.52">HF</text><path d="M257.794 1336.41 258.976 1336.41 258.976 1356.18C258.976 1357.72 259.088 1358.74 259.312 1359.25 259.536 1359.76 259.867 1360.14 260.305 1360.39 260.744 1360.64 261.545 1360.77 262.709 1360.77L262.709 1361.74 250.758 1361.74 250.758 1360.77C251.958 1360.77 252.764 1360.65 253.175 1360.42 253.587 1360.19 253.914 1359.8 254.156 1359.26 254.397 1358.73 254.518 1357.7 254.518 1356.18L254.518 1346.7C254.518 1344.03 254.438 1342.3 254.276 1341.51 254.151 1340.94 253.954 1340.54 253.686 1340.32 253.417 1340.09 253.05 1339.98 252.585 1339.98 252.083 1339.98 251.474 1340.12 250.758 1340.39L250.382 1339.42ZM256.747 1323.55C257.499 1323.55 258.139 1323.81 258.667 1324.34 259.195 1324.87 259.46 1325.51 259.46 1326.26 259.46 1327.01 259.195 1327.66 258.667 1328.19 258.139 1328.73 257.499 1329 256.747 1329 255.995 1329 255.351 1328.73 254.814 1328.19 254.276 1327.66 254.008 1327.01 254.008 1326.26 254.008 1325.51 254.272 1324.87 254.8 1324.34 255.328 1323.81 255.977 1323.55 256.747 1323.55Z" fill="#002060" fill-rule="evenodd"/><text fill="#000000" fill-opacity="0" font-family="Arial,Arial_MSFontService,sans-serif" font-size="38.1885" x="250.382" y="1356.96">i</text><path d="M320.285 1357.98C319.336 1357.98 318.387 1358.23 317.439 1358.71 316.722 1359.07 315.809 1359.78 314.699 1360.86L314.699 1375.58C315.612 1376.47 316.557 1377.15 317.533 1377.6 318.508 1378.06 319.506 1378.29 320.527 1378.29 322.156 1378.29 323.673 1377.39 325.079 1375.6 326.484 1373.81 327.187 1371.21 327.187 1367.79 327.187 1364.64 326.484 1362.21 325.079 1360.52 323.673 1358.83 322.076 1357.98 320.285 1357.98ZM295.391 1354.17C296.358 1354.17 297.531 1354.38 298.909 1354.79 299.822 1355.06 300.431 1355.19 300.735 1355.19 301.022 1355.19 301.246 1355.13 301.407 1355 301.568 1354.88 301.756 1354.6 301.971 1354.17L302.857 1354.17 302.857 1362.55 301.971 1362.55C301.29 1359.92 300.418 1358.13 299.352 1357.18 298.287 1356.23 296.931 1355.76 295.284 1355.76 294.03 1355.76 293.019 1356.09 292.249 1356.75 291.479 1357.41 291.094 1358.15 291.094 1358.95 291.094 1359.95 291.381 1360.81 291.954 1361.53 292.509 1362.26 293.637 1363.04 295.337 1363.87L299.258 1365.77C302.893 1367.55 304.71 1369.88 304.71 1372.78 304.71 1375.02 303.864 1376.82 302.172 1378.19 300.48 1379.56 298.587 1380.25 296.492 1380.25 294.988 1380.25 293.27 1379.98 291.336 1379.44 290.745 1379.26 290.262 1379.17 289.886 1379.17 289.474 1379.17 289.152 1379.41 288.919 1379.87L288.033 1379.87 288.033 1371.09 288.919 1371.09C289.42 1373.6 290.378 1375.49 291.793 1376.76 293.207 1378.03 294.791 1378.66 296.546 1378.66 297.781 1378.66 298.788 1378.3 299.567 1377.58 300.346 1376.85 300.735 1375.98 300.735 1374.96 300.735 1373.72 300.301 1372.68 299.433 1371.84 298.565 1371 296.832 1369.94 294.236 1368.65 291.64 1367.36 289.94 1366.19 289.134 1365.16 288.328 1364.13 287.925 1362.85 287.925 1361.29 287.925 1359.26 288.619 1357.57 290.007 1356.21 291.394 1354.85 293.189 1354.17 295.391 1354.17ZM274.391 1354.17C275.358 1354.17 276.531 1354.38 277.909 1354.79 278.822 1355.06 279.431 1355.19 279.735 1355.19 280.022 1355.19 280.246 1355.13 280.407 1355 280.568 1354.88 280.756 1354.6 280.971 1354.17L281.857 1354.17 281.857 1362.55 280.971 1362.55C280.29 1359.92 279.418 1358.13 278.352 1357.18 277.287 1356.23 275.931 1355.76 274.284 1355.76 273.03 1355.76 272.019 1356.09 271.249 1356.75 270.479 1357.41 270.094 1358.15 270.094 1358.95 270.094 1359.95 270.381 1360.81 270.954 1361.53 271.509 1362.26 272.637 1363.04 274.337 1363.87L278.258 1365.77C281.893 1367.55 283.71 1369.88 283.71 1372.78 283.71 1375.02 282.864 1376.82 281.172 1378.19 279.48 1379.56 277.587 1380.25 275.492 1380.25 273.988 1380.25 272.27 1379.98 270.336 1379.44 269.745 1379.26 269.262 1379.17 268.886 1379.17 268.474 1379.17 268.152 1379.41 267.919 1379.87L267.033 1379.87 267.033 1371.09 267.919 1371.09C268.42 1373.6 269.378 1375.49 270.793 1376.76 272.207 1378.03 273.791 1378.66 275.546 1378.66 276.781 1378.66 277.788 1378.3 278.567 1377.58 279.346 1376.85 279.735 1375.98 279.735 1374.96 279.735 1373.72 279.301 1372.68 278.433 1371.84 277.565 1371 275.832 1369.94 273.236 1368.65 270.64 1367.36 268.94 1366.19 268.134 1365.16 267.328 1364.13 266.925 1362.85 266.925 1361.29 266.925 1359.26 267.619 1357.57 269.007 1356.21 270.394 1354.85 272.189 1354.17 274.391 1354.17ZM313.491 1341.31 314.699 1341.31 314.699 1359.14C317.08 1355.83 319.65 1354.17 322.407 1354.17 324.931 1354.17 327.133 1355.25 329.013 1357.41 330.893 1359.56 331.833 1362.51 331.833 1366.26 331.833 1370.62 330.383 1374.14 327.482 1376.81 324.994 1379.1 322.219 1380.25 319.157 1380.25 317.725 1380.25 316.27 1379.99 314.793 1379.47 313.316 1378.95 311.808 1378.17 310.268 1377.13L310.268 1351.65C310.268 1348.85 310.201 1347.14 310.067 1346.49 309.932 1345.85 309.722 1345.41 309.436 1345.17 309.149 1344.94 308.791 1344.83 308.361 1344.83 307.86 1344.83 307.233 1344.97 306.482 1345.26L306.106 1344.32Z" fill="#002060" fill-rule="evenodd"/><text fill="#000000" fill-opacity="0" font-family="Arial,Arial_MSFontService,sans-serif" font-size="38.9404" x="266.925" y="1375.38">ssb</text><path d="M241.851 1404.96 258.341 1404.96 258.341 1405.96C256.407 1405.94 255.051 1406.12 254.272 1406.49 253.493 1406.87 252.96 1407.34 252.674 1407.92 252.388 1408.49 252.244 1409.86 252.244 1412.03L252.244 1434.91C252.244 1436.39 252.388 1437.41 252.674 1437.97 252.889 1438.34 253.22 1438.62 253.668 1438.8 254.115 1438.98 255.512 1439.07 257.857 1439.07L260.516 1439.07C263.309 1439.07 265.269 1438.86 266.397 1438.45 267.525 1438.04 268.555 1437.31 269.486 1436.26 270.417 1435.22 271.348 1433.56 272.279 1431.31L273.165 1431.5 270.05 1441.38 241.851 1441.38 241.851 1440.39 243.221 1440.39C244.761 1440.39 245.862 1439.88 246.524 1438.88 246.9 1438.31 247.088 1436.98 247.088 1434.91L247.088 1411.41C247.088 1409.13 246.837 1407.71 246.336 1407.14 245.638 1406.35 244.6 1405.96 243.221 1405.96L241.851 1405.96Z" fill="#002060" fill-rule="evenodd"/><text fill="#000000" fill-opacity="0" font-family="Arial,Arial_MSFontService,sans-serif" font-size="36.416" x="241.851" y="1436.83">L</text><path d="M333.209 1437.95C330.506 1439.02 328.76 1439.78 327.972 1440.23 326.558 1441.02 325.546 1441.84 324.938 1442.7 324.329 1443.56 324.024 1444.5 324.024 1445.52 324.024 1446.81 324.409 1447.88 325.179 1448.73 325.949 1449.58 326.835 1450 327.838 1450 329.199 1450 330.989 1449.11 333.209 1447.32ZM343.277 1428.01 354.852 1428.01 354.852 1429C354.118 1429 353.603 1429.13 353.308 1429.38 353.013 1429.63 352.865 1429.96 352.865 1430.37 352.865 1430.8 353.178 1431.46 353.805 1432.36 354.002 1432.65 354.297 1433.09 354.691 1433.7L356.437 1436.5 358.451 1433.7C359.74 1431.93 360.384 1430.81 360.384 1430.35 360.384 1429.97 360.232 1429.65 359.928 1429.39 359.623 1429.13 359.131 1429 358.451 1429L358.451 1428.01 366.776 1428.01 366.776 1429C365.899 1429.06 365.138 1429.3 364.493 1429.73 363.616 1430.34 362.416 1431.66 360.895 1433.7L357.538 1438.19 363.661 1447C365.165 1449.16 366.239 1450.46 366.883 1450.9 367.528 1451.34 368.36 1451.59 369.381 1451.64L369.381 1452.61 357.779 1452.61 357.779 1451.64C358.585 1451.64 359.212 1451.46 359.659 1451.1 359.999 1450.85 360.169 1450.52 360.169 1450.11 360.169 1449.7 359.597 1448.66 358.451 1447L354.852 1441.73 350.904 1447C349.687 1448.62 349.078 1449.59 349.078 1449.9 349.078 1450.33 349.28 1450.72 349.682 1451.06 350.085 1451.41 350.69 1451.61 351.495 1451.64L351.495 1452.61 343.465 1452.61 343.465 1451.64C344.11 1451.55 344.674 1451.33 345.157 1450.97 345.838 1450.45 346.983 1449.13 348.595 1447L353.751 1440.15 349.078 1433.38C347.753 1431.45 346.728 1430.23 346.003 1429.74 345.278 1429.25 344.37 1429 343.277 1429ZM329.449 1427.28C331.634 1427.28 333.424 1427.65 334.82 1428.38 335.877 1428.94 336.655 1429.81 337.157 1430.99 337.479 1431.76 337.64 1433.34 337.64 1435.72L337.64 1444.07C337.64 1446.41 337.685 1447.85 337.774 1448.38 337.864 1448.91 338.012 1449.26 338.218 1449.44 338.423 1449.62 338.661 1449.71 338.929 1449.71 339.216 1449.71 339.466 1449.65 339.681 1449.52 340.057 1449.29 340.782 1448.63 341.857 1447.56L341.857 1449.06C339.851 1451.75 337.936 1453.09 336.109 1453.09 335.232 1453.09 334.534 1452.79 334.015 1452.18 333.495 1451.57 333.227 1450.53 333.209 1449.06 330.685 1451.02 329.1 1452.14 328.456 1452.45 327.489 1452.9 326.459 1453.12 325.367 1453.12 323.666 1453.12 322.265 1452.54 321.164 1451.37 320.063 1450.21 319.513 1448.68 319.513 1446.78 319.513 1445.58 319.781 1444.54 320.318 1443.67 321.052 1442.45 322.328 1441.3 324.145 1440.23 325.963 1439.15 328.984 1437.85 333.209 1436.31L333.209 1435.34C333.209 1432.89 332.82 1431.2 332.041 1430.29 331.262 1429.38 330.13 1428.92 328.644 1428.92 327.516 1428.92 326.62 1429.23 325.958 1429.84 325.278 1430.44 324.938 1431.14 324.938 1431.93L324.991 1433.49C324.991 1434.31 324.781 1434.95 324.36 1435.39 323.939 1435.84 323.389 1436.07 322.709 1436.07 322.046 1436.07 321.505 1435.83 321.084 1435.37 320.663 1434.9 320.453 1434.27 320.453 1433.46 320.453 1431.92 321.24 1430.51 322.816 1429.22 324.391 1427.93 326.603 1427.28 329.449 1427.28ZM282.421 1427.28 283.576 1427.28 283.576 1432.52C285.366 1430.73 286.422 1429.7 286.745 1429.43 287.55 1428.75 288.419 1428.22 289.35 1427.85 290.281 1427.47 291.203 1427.28 292.116 1427.28 293.655 1427.28 294.98 1427.73 296.09 1428.63 297.2 1429.52 297.943 1430.82 298.319 1432.52 300.163 1430.37 301.721 1428.96 302.992 1428.29 304.263 1427.62 305.57 1427.28 306.913 1427.28 308.22 1427.28 309.379 1427.62 310.391 1428.29 311.402 1428.96 312.204 1430.06 312.794 1431.58 313.188 1432.62 313.385 1434.25 313.385 1436.47L313.385 1447.05C313.385 1448.59 313.502 1449.65 313.734 1450.22 313.913 1450.61 314.245 1450.95 314.728 1451.23 315.211 1451.5 315.999 1451.64 317.091 1451.64L317.091 1452.61 304.953 1452.61 304.953 1451.64 305.463 1451.64C306.519 1451.64 307.343 1451.44 307.934 1451.02 308.345 1450.74 308.641 1450.28 308.82 1449.65 308.891 1449.35 308.927 1448.48 308.927 1447.05L308.927 1436.47C308.927 1434.46 308.686 1433.05 308.202 1432.23 307.504 1431.08 306.385 1430.51 304.845 1430.51 303.896 1430.51 302.943 1430.74 301.985 1431.22 301.027 1431.69 299.868 1432.57 298.507 1433.86L298.454 1434.16 298.507 1435.31 298.507 1447.05C298.507 1448.73 298.601 1449.78 298.789 1450.19 298.977 1450.6 299.331 1450.95 299.85 1451.23 300.369 1451.5 301.256 1451.64 302.509 1451.64L302.509 1452.61 290.075 1452.61 290.075 1451.64C291.435 1451.64 292.371 1451.48 292.881 1451.16 293.391 1450.84 293.745 1450.35 293.942 1449.71 294.031 1449.4 294.076 1448.52 294.076 1447.05L294.076 1436.47C294.076 1434.46 293.781 1433.02 293.19 1432.14 292.402 1431 291.301 1430.43 289.887 1430.43 288.92 1430.43 287.962 1430.69 287.013 1431.2 285.527 1431.99 284.381 1432.88 283.576 1433.86L283.576 1447.05C283.576 1448.66 283.688 1449.71 283.911 1450.19 284.135 1450.67 284.466 1451.04 284.905 1451.28 285.344 1451.52 286.234 1451.64 287.577 1451.64L287.577 1452.61 275.412 1452.61 275.412 1451.64C276.54 1451.64 277.327 1451.52 277.775 1451.28 278.223 1451.04 278.563 1450.65 278.795 1450.12 279.028 1449.6 279.145 1448.57 279.145 1447.05L279.145 1437.65C279.145 1434.95 279.064 1433.2 278.903 1432.41 278.778 1431.82 278.581 1431.42 278.312 1431.19 278.044 1430.97 277.676 1430.86 277.211 1430.86 276.71 1430.86 276.11 1430.99 275.412 1431.26L275.009 1430.29Z" fill="#002060" fill-rule="evenodd"/><text fill="#000000" fill-opacity="0" font-family="Arial,Arial_MSFontService,sans-serif" font-size="25.835" x="275.009" y="1449.89">max</text><path d="M399.5 1237.92 453.105 1237.92 453.105 1247.08 399.5 1247.08ZM448.522 1228.75 476.022 1242.5 448.522 1256.25Z" fill="#05D7A0"/><path d="M399.5 1523.92 453.105 1523.92 453.105 1533.08 399.5 1533.08ZM448.522 1514.75 476.022 1528.5 448.522 1542.25Z" fill="#05D7A0"/><path d="M399.5 1342.92 453.105 1342.92 453.105 1352.08 399.5 1352.08ZM448.522 1333.75 476.022 1347.5 448.522 1361.25Z" fill="#05D7A0"/><path d="M399.5 1435.92 453.105 1435.92 453.105 1445.08 399.5 1445.08ZM448.522 1426.75 476.022 1440.5 448.522 1454.25Z" fill="#05D7A0"/><path d="M2364.55 1583.92 2420.94 1584.49 2420.84 1593.65 2364.45 1593.08ZM2416.45 1575.27 2443.81 1589.3 2416.17 1602.77Z" fill="#05D7A0"/><text fill="#05D7A0" font-family="Times New Roman,Times New Roman_MSFontService,sans-serif" font-weight="400" font-size="64" transform="matrix(1 0 0 1 1532.24 2021)">Baseband Processor</text><path d="M2784.5 1424.5 3114.5 1424.5 3114.5 1754.5 2784.5 1754.5Z" stroke="#002060" stroke-width="9.16667" stroke-miterlimit="8" fill="#FFFFFF" fill-rule="evenodd"/><text fill="#FF5B60" font-family="Times New Roman,Times New Roman_MSFontService,sans-serif" font-weight="400" font-size="64" transform="matrix(1 0 0 1 2909.61 1577)">Up </text><text fill="#FF5B60" font-family="Times New Roman,Times New Roman_MSFontService,sans-serif" font-weight="400" font-size="60" transform="matrix(1 0 0 1 2818.24 1650)">conversion</text><path d="M3196.5 1424.5 3526.5 1424.5 3526.5 1754.5 3196.5 1754.5Z" stroke="#002060" stroke-width="9.16667" stroke-miterlimit="8" fill="#FFFFFF" fill-rule="evenodd"/><text fill="#FF5B60" font-family="Times New Roman,Times New Roman_MSFontService,sans-serif" font-weight="400" font-size="64" transform="matrix(1 0 0 1 3279.11 1574)">Power </text><text fill="#FF5B60" font-family="Times New Roman,Times New Roman_MSFontService,sans-serif" font-weight="400" font-size="64" transform="matrix(1 0 0 1 3234.7 1651)">Amplifier</text><path d="M3608.5 1424.5 3938.5 1424.5 3938.5 1754.5 3608.5 1754.5Z" stroke="#002060" stroke-width="9.16667" stroke-miterlimit="8" fill="#FFFFFF" fill-rule="evenodd"/><text fill="#FF5B60" font-family="Times New Roman,Times New Roman_MSFontService,sans-serif" font-weight="400" font-size="64" transform="matrix(1 0 0 1 3714.46 1536)">Low </text><text fill="#FF5B60" font-family="Times New Roman,Times New Roman_MSFontService,sans-serif" font-weight="400" font-size="64" transform="matrix(1 0 0 1 3698.14 1613)">Noise </text><text fill="#FF5B60" font-family="Times New Roman,Times New Roman_MSFontService,sans-serif" font-weight="400" font-size="64" transform="matrix(1 0 0 1 3646.86 1690)">Amplifier</text><path d="M0 0 157.814 0 157.814 110.652" stroke="#000000" stroke-width="11.4583" stroke-linejoin="round" stroke-miterlimit="10" fill="none" fill-rule="evenodd" transform="matrix(1 0 0 -1 3938.5 1590.15)"/><path d="M4066.67 1492 4076 1482.28C4071.33 1477.08 4068.33 1470.14 4068.33 1462.5 4068.33 1454.86 4071.33 1447.92 4076 1442.72L4066.67 1433C4059.33 1440.64 4055 1451.05 4055 1462.5 4055 1473.95 4059.33 1484.36 4066.67 1492Z" fill-rule="evenodd"/><path d="M4047.34 1511 4057 1501.37C4047 1491.39 4040.79 1477.64 4040.79 1462.5 4040.79 1447.37 4047 1433.61 4057 1423.63L4047.34 1414C4034.59 1426.38 4027 1443.58 4027 1462.5 4027 1481.42 4034.59 1498.62 4047.34 1511Z" fill-rule="evenodd"/><path d="M4038 1520.38C4023.15 1505.62 4013.82 1485.01 4013.82 1462 4013.82 1438.99 4023.15 1418.73 4038 1403.62L4028.33 1394C4010.71 1411.52 4000 1435.56 4000 1462 4000 1488.44 4010.71 1512.48 4028.33 1530L4038 1520.38Z" fill-rule="evenodd"/><path d="M4125.33 1492C4132.67 1484.36 4137 1473.95 4137 1462.5 4137 1451.05 4132.67 1440.64 4125.33 1433L4116 1442.72C4120.67 1447.58 4123.67 1454.52 4123.67 1462.5 4123.67 1470.48 4120.67 1477.08 4116 1482.28L4125.33 1492Z" fill-rule="evenodd"/><path d="M4135 1501.37 4144.66 1511C4157.41 1498.62 4165 1481.42 4165 1462.5 4165 1443.58 4157.41 1426.38 4144.66 1414L4135 1423.63C4145 1433.61 4151.21 1447.37 4151.21 1462.5 4151.21 1477.64 4145 1491.39 4135 1501.37Z" fill-rule="evenodd"/><path d="M4154 1520.38 4163.67 1530C4181.29 1512.48 4192 1488.44 4192 1462 4192 1435.56 4181.29 1411.52 4163.67 1394L4154 1403.62C4168.85 1418.38 4178.18 1438.99 4178.18 1462 4178.18 1485.01 4168.85 1505.27 4154 1520.38Z" fill-rule="evenodd"/><path d="M4080 1462.5C4080 1453.39 4087.16 1446 4096 1446 4104.84 1446 4112 1453.39 4112 1462.5 4112 1471.61 4104.84 1479 4096 1479 4087.16 1479 4080 1471.61 4080 1462.5Z" stroke="#000000" stroke-width="5.72917" stroke-linejoin="round" stroke-miterlimit="10" fill-rule="evenodd"/><text fill="#05D7A0" font-family="Times New Roman,Times New Roman_MSFontService,sans-serif" font-weight="400" font-size="64" transform="matrix(1 0 0 1 2436.03 2021)">Software Defined Radio</text><path d="M2702.5 1584.92 2761.74 1584.92 2761.74 1594.08 2702.5 1594.08ZM2757.16 1575.75 2784.66 1589.5 2757.16 1603.25Z" fill="#05D7A0"/><path d="M3114.5 1584.92 3173.74 1584.92 3173.74 1594.08 3114.5 1594.08ZM3169.16 1575.75 3196.66 1589.5 3169.16 1603.25Z" fill="#05D7A0"/><path d="M3526.5 1584.92 3585.74 1584.92 3585.74 1594.08 3526.5 1594.08ZM3581.16 1575.75 3608.66 1589.5 3581.16 1603.25Z" fill="#05D7A0"/><path d="M2136.5 1461.5C2136.5 1440.51 2153.51 1423.5 2174.5 1423.5L2326.5 1423.5C2347.49 1423.5 2364.5 1440.51 2364.5 1461.5L2364.5 1715.5C2364.5 1736.49 2347.49 1753.5 2326.5 1753.5L2174.5 1753.5C2153.51 1753.5 2136.5 1736.49 2136.5 1715.5Z" stroke="#34497D" stroke-width="9.16667" stroke-linejoin="round" stroke-miterlimit="10" fill="#FF5B60" fill-rule="evenodd"/><text fill="#FFFFFF" font-family="Times New Roman,Times New Roman_MSFontService,sans-serif" font-weight="400" font-size="83" transform="matrix(1 0 0 1 2183.51 1617)">API</text></g></svg>