<svg width="4519" height="1604" xmlns="http://www.w3.org/2000/svg" xmlns:xlink="http://www.w3.org/1999/xlink" xml:space="preserve" overflow="hidden"><g transform="translate(119 -752)"><rect x="2075.5" y="1489.5" width="626" height="330" stroke="#FF5B60" stroke-width="9.16667" stroke-miterlimit="8" fill="none"/><text fill="#002060" font-family="Times New Roman,Times New Roman_MSFontService,sans-serif" font-weight="400" font-size="73" transform="matrix(1 0 0 1 2310.16 1637)">Time </text><text fill="#002060" font-family="Times New Roman,Times New Roman_MSFontService,sans-serif" font-weight="400" font-size="73" transform="matrix(1 0 0 1 2146.88 1725)">Synchronization</text><rect x="1555.5" y="1489.5" width="437" height="330" stroke="#FF5B60" stroke-width="9.16667" stroke-miterlimit="8" fill="none"/><text fill="#002060" font-family="Times New Roman,Times New Roman_MSFontService,sans-serif" font-weight="400" font-size="73" transform="matrix(1 0 0 1 1636.82 1637)">Resource </text><text fill="#002060" font-family="Times New Roman,Times New Roman_MSFontService,sans-serif" font-weight="400" font-size="73" transform="matrix(1 0 0 1 1706.14 1725)">Grid</text><rect x="1068.5" y="1490.5" width="438" height="329" stroke="#002060" stroke-width="9.16667" stroke-linejoin="round" stroke-miterlimit="10" fill="#FFFFFF"/><text fill="#002060" font-family="Times New Roman,Times New Roman_MSFontService,sans-serif" font-weight="400" font-size="73" transform="matrix(1 0 0 1 1183.19 1593)">DMRS </text><text fill="#002060" font-family="Times New Roman,Times New Roman_MSFontService,sans-serif" font-weight="400" font-size="73" transform="matrix(1 0 0 1 1137.63 1681)">Parameter </text><text fill="#002060" font-family="Times New Roman,Times New Roman_MSFontService,sans-serif" font-weight="400" font-size="73" transform="matrix(1 0 0 1 1127.32 1769)">Estimation</text><rect x="2777.5" y="1490.5" width="553" height="330" stroke="#FF5B60" stroke-width="9.16667" stroke-miterlimit="8" fill="none"/><text fill="#002060" font-family="Times New Roman,Times New Roman_MSFontService,sans-serif" font-weight="400" font-size="73" transform="matrix(1 0 0 1 2836.67 1682)">Rx Combining</text><path d="M22.9304-4.51406 82.6539-4.33357 82.6262 4.83305 22.9027 4.65257ZM27.4583 13.833 0 0 27.5414-13.6668Z" fill="#05D7A0" transform="matrix(1 0 0 -1 1992.5 1654.75)"/><path d="M2724.47 1650.22 2778.08 1650.92 2777.96 1660.08 2724.35 1659.38ZM2728.82 1668.61 2701.5 1654.5 2729.18 1641.11Z" fill="#05D7A0"/><path d="M3973.42 1597.56C3967.18 1597.56 3961.71 1598.37 3955.47 1600.01 3957.03 1594.29 3957.81 1587.75 3957.81 1581.22 3957.81 1536.28 3922.67 1499.52 3879.73 1499.52 3861.77 1499.52 3844.6 1506.05 3831.32 1516.68 3825.08 1479.09 3793.07 1450.5 3754.81 1450.5 3718.89 1450.5 3688.44 1476.64 3679.07 1511.77 3665.02 1489.72 3641.6 1475.01 3614.27 1475.01 3571.33 1475.01 3536.19 1511.77 3536.19 1556.71 3536.19 1563.24 3536.97 1568.96 3538.53 1575.5 3532.29 1573.86 3526.82 1573.05 3520.58 1573.05 3477.64 1573.05 3442.5 1609.81 3442.5 1654.75 3442.5 1699.68 3477.64 1736.44 3520.58 1736.44 3520.58 1736.44 3520.58 1736.44 3521.36 1736.44 3525.26 1778.11 3558.84 1809.97 3598.65 1809.97 3616.61 1809.97 3633.01 1803.44 3646.28 1792.82 3646.28 1795.27 3645.5 1798.53 3645.5 1801.8 3645.5 1846.74 3680.64 1883.5 3723.58 1883.5 3764.18 1883.5 3797.75 1850.82 3801.65 1809.16 3815.71 1829.58 3838.35 1842.65 3864.12 1842.65 3907.06 1842.65 3942.19 1805.89 3942.19 1760.95 3942.19 1758.5 3942.19 1756.05 3942.19 1753.6 3951.56 1757.68 3962.49 1760.95 3973.42 1760.95 4016.37 1760.95 4051.5 1724.19 4051.5 1679.25 4051.5 1634.32 4016.37 1597.56 3973.42 1597.56Z" stroke="#FF5B60" stroke-width="9.16667" stroke-miterlimit="8" fill="none" fill-rule="evenodd"/><path d="M1.82175-2.21067 80.2731 62.4391 76.6296 66.8605-1.82175 2.21067ZM83.6587 51.1238 96.1367 79.2238 66.1699 72.3462Z" fill="#05D7A0" transform="matrix(1 0 0 -1 3442 1654.22)"/><path d="M1.48016-2.45254 218.686 128.636 215.726 133.541-1.48016 2.45254ZM220.387 116.948 236.826 142.93 206.177 140.493Z" fill="#05D7A0" transform="matrix(1 0 0 -1 3442 1654.93)"/><path d="M0.957407-2.69985 368.597 127.67 366.682 133.07-0.957407 2.69985ZM367.915 115.879 389.238 138.029 358.724 141.798Z" fill="#05D7A0" transform="matrix(1 0 0 -1 3442 1654.03)"/><path d="M0.716838-2.77344 461.572 116.342 460.139 121.889-0.716838 2.77344ZM459.859 104.656 483.044 124.85 452.978 131.281Z" fill="#05D7A0" transform="matrix(1 0 0 -1 3442 1654.85)"/><path d="M3443.61 1651.63 3628.62 1776.82 3625.41 1781.56 3440.39 1656.37ZM3630.93 1765.23 3646 1792.03 3615.52 1788.01Z" fill="#05D7A0"/><path d="M0.404105-2.83594 493.574 67.4381 492.766 73.1099-0.404105 2.83594ZM490.573 56.015 515.858 73.5069 486.693 83.24Z" fill="#05D7A0" transform="matrix(1 0 0 -1 3442 1654.51)"/><path d="M3442.64 1651.07 4029.39 1674.65 4029.12 1681.52 3442.36 1657.93ZM4025.23 1664.16 4052.15 1679 4024.12 1691.64Z" fill="#05D7A0"/><path d="M3442.56 1651.19 3920.3 1745.57 3919.19 1751.2 3441.44 1656.81ZM3917.91 1734.01 3942.23 1752.83 3912.58 1760.99Z" fill="#05D7A0"/><path d="M3443.16 1651.38 3844.29 1829.92 3841.96 1835.15 3440.84 1656.62ZM3844.53 1818.11 3864.07 1841.85 3833.35 1843.23Z" fill="#05D7A0"/><path d="M3444.07 1652.02 3506.39 1717.14 3502.25 1721.1 3439.93 1655.98ZM3511.08 1706.3 3520.16 1735.67 3491.21 1725.31Z" fill="#05D7A0"/><path d="M3539.82 1572.78 3848.02 1825.33 3844.39 1829.77 3536.18 1577.22ZM3851.37 1814.01 3863.93 1842.08 3833.94 1835.28Z" fill="#05D7A0"/><path d="M3680.85 1509.81 3958.01 1744.12 3954.31 1748.5 3677.15 1514.19ZM3961.54 1732.85 3973.66 1761.11 3943.79 1753.85Z" fill="#05D7A0"/><path d="M3833.54 1513.73 4035.51 1662.66 4031.43 1668.2 3829.46 1519.27ZM4037.94 1651.64 4051.91 1679.03 4021.62 1673.78Z" fill="#05D7A0"/><path d="M3929.86 1521.82 3943.29 1737.33 3937.57 1737.68 3924.14 1522.18ZM3953.86 1732.08 3941.85 1760.38 3926.42 1733.79Z" fill="#05D7A0"/><path d="M1.65256-2.33985 294.012 204.144 290.707 208.824-1.65256 2.33985ZM296.548 192.608 311.078 219.704 280.683 215.071Z" fill="#05D7A0" transform="matrix(1 0 0 -1 3520 1735.7)"/><path d="M1.5143-2.43161 291.577 178.206 288.549 183.069-1.5143 2.43161ZM293.441 166.543 309.516 192.752 278.904 189.886Z" fill="#05D7A0" transform="matrix(1 0 0 -1 3646 1792.75)"/><path d="M2.68043-1.0105 86.0444 220.119 80.6835 222.14-2.68043 1.0105ZM94.6132 211.991 91.448 242.573 68.8811 221.691Z" fill="#05D7A0" transform="matrix(1 0 0 -1 3864 1842.57)"/><path d="M0.368185-3.41773 508.292 51.3 507.556 58.1354-0.368185 3.41773ZM504.839 40.5558 530.708 57.1722 501.894 67.8976Z" fill="#05D7A0" transform="matrix(1 0 0 -1 3521.5 1736.67)"/><path d="M3540.45 1573.52 3713.88 1861.8 3708.97 1864.75 3535.55 1576.48ZM3720.85 1852.26 3723.24 1882.91 3697.28 1866.44Z" fill="#05D7A0"/><path d="M3681.5 1510.6 3855.54 1821.39 3850.54 1824.19 3676.5 1513.4ZM3862.8 1812.07 3864.24 1842.78 3838.81 1825.51Z" fill="#05D7A0"/><path d="M3833.85 1515.71 3864.38 1818.79 3858.68 1819.37 3828.15 1516.29ZM3874.75 1813.14 3863.83 1841.88 3847.39 1815.9Z" fill="#05D7A0"/><path d="M2.50294-1.39324 192.242 339.472 187.236 342.258-2.50294 1.39324ZM199.524 330.173 200.885 360.889 175.496 343.548Z" fill="#05D7A0" transform="matrix(-1 0 0 1 3923.89 1522)"/><path d="M3324.58 1645.58C3325.77 1641.69 3466.73 1627.1 3462.54 1647.37 3458.34 1667.64 3324.15 1649.49 3324.58 1645.58" stroke="#000000" stroke-width="4.58333" stroke-miterlimit="8" fill="none" fill-rule="evenodd"/><text fill="#002060" font-family="Times New Roman,Times New Roman_MSFontService,sans-serif" font-weight="400" font-size="55" transform="matrix(1 0 0 1 3517.69 1407)">Wireless Channel</text><rect x="2075.5" y="1870.5" width="626" height="147" stroke="#FF5B60" stroke-width="9.16667" stroke-linejoin="round" stroke-miterlimit="10" fill="none"/><text fill="#002060" font-family="Times New Roman,Times New Roman_MSFontService,sans-serif" font-weight="400" font-size="73" transform="matrix(1 0 0 1 2326.78 1971)">PSS</text><path d="M4.58333-3.24948e-05 4.58353 27.9864-4.58314 27.9865-4.58333 3.24948e-05ZM13.7502 23.4031 0.000360892 50.9031-13.7498 23.4032Z" fill="#05D7A0" transform="matrix(1 0 0 -1 2388.5 1870.4)"/><rect x="1551.5" y="1291.5" width="441" height="148" stroke="#002060" stroke-width="9.16667" stroke-linejoin="round" stroke-miterlimit="10" fill="none"/><path d="M1703.45 1351.02 1714.95 1351.02 1740.85 1382.8 1740.85 1358.36C1740.85 1355.76 1740.56 1354.13 1739.98 1353.49 1739.21 1352.61 1737.99 1352.18 1736.32 1352.18L1734.85 1352.18 1734.85 1351.02 1749.6 1351.02 1749.6 1352.18 1748.1 1352.18C1746.31 1352.18 1745.04 1352.72 1744.29 1353.8 1743.83 1354.47 1743.6 1355.99 1743.6 1358.36L1743.6 1394.08 1742.48 1394.08 1714.54 1359.96 1714.54 1386.05C1714.54 1388.65 1714.82 1390.28 1715.38 1390.93 1716.18 1391.8 1717.39 1392.24 1719.04 1392.24L1720.54 1392.24 1720.54 1393.39 1705.79 1393.39 1705.79 1392.24 1707.26 1392.24C1709.07 1392.24 1710.35 1391.7 1711.1 1390.61 1711.56 1389.95 1711.79 1388.43 1711.79 1386.05L1711.79 1356.58C1710.56 1355.14 1709.63 1354.2 1708.99 1353.74 1708.36 1353.28 1707.43 1352.85 1706.2 1352.46 1705.59 1352.27 1704.68 1352.18 1703.45 1352.18Z" fill="#002060" fill-rule="evenodd"/><text fill="#000000" fill-opacity="0" font-family="Arial,Arial_MSFontService,sans-serif" font-size="43.0625" x="1703.45" y="1388.7">N</text><path d="M1791.29 1376.95C1789.42 1376.95 1787.28 1377.25 1784.88 1377.86L1784.88 1413.89C1787.53 1414.47 1789.75 1414.77 1791.54 1414.77 1796.37 1414.77 1800.38 1413.07 1803.57 1409.67 1806.76 1406.28 1808.35 1401.67 1808.35 1395.86 1808.35 1390 1806.76 1385.39 1803.57 1382.02 1800.38 1378.64 1796.29 1376.95 1791.29 1376.95ZM1772.79 1374.58 1790.04 1374.58C1796.37 1374.58 1801.19 1375.3 1804.49 1376.73 1807.8 1378.17 1810.45 1380.57 1812.46 1383.92 1814.47 1387.28 1815.48 1391.15 1815.48 1395.55 1815.48 1401.44 1813.69 1406.37 1810.1 1410.33 1806.08 1414.74 1799.96 1416.95 1791.73 1416.95L1772.79 1416.95 1772.79 1415.8 1774.38 1415.8C1776.18 1415.8 1777.45 1415.22 1778.2 1414.08 1778.66 1413.39 1778.88 1411.85 1778.88 1409.45L1778.88 1382.08C1778.88 1379.43 1778.59 1377.78 1778.01 1377.11 1777.2 1376.19 1775.99 1375.73 1774.38 1375.73L1772.79 1375.73ZM1752.29 1374.58 1770.45 1374.58 1770.45 1375.73 1768.92 1375.73C1767.19 1375.73 1765.93 1376.24 1765.13 1377.27 1764.61 1377.93 1764.35 1379.54 1764.35 1382.08L1764.35 1409.45C1764.35 1411.6 1764.49 1413.02 1764.76 1413.7 1764.97 1414.22 1765.41 1414.67 1766.07 1415.05 1766.97 1415.55 1767.92 1415.8 1768.92 1415.8L1770.45 1415.8 1770.45 1416.95 1752.29 1416.95 1752.29 1415.8 1753.79 1415.8C1755.54 1415.8 1756.81 1415.29 1757.6 1414.27 1758.1 1413.6 1758.35 1411.99 1758.35 1409.45L1758.35 1382.08C1758.35 1379.93 1758.22 1378.52 1757.95 1377.83 1757.74 1377.31 1757.31 1376.86 1756.67 1376.48 1755.75 1375.98 1754.79 1375.73 1753.79 1375.73L1752.29 1375.73Z" fill="#002060" fill-rule="evenodd"/><text fill="#000000" fill-opacity="0" font-family="Arial,Arial_MSFontService,sans-serif" font-size="42.375" x="1752.29" y="1411.66">ID</text><path d="M1768.51 1321.8 1769.54 1321.8 1769.54 1357.58C1769.54 1359.95 1769.64 1361.43 1769.84 1362.02 1770.04 1362.6 1770.45 1363.05 1771.07 1363.36 1771.7 1363.67 1772.97 1363.85 1774.88 1363.89L1774.88 1365.05 1758.95 1365.05 1758.95 1363.89C1760.95 1363.85 1762.24 1363.68 1762.82 1363.37 1763.41 1363.07 1763.81 1362.67 1764.04 1362.16 1764.27 1361.65 1764.38 1360.12 1764.38 1357.58L1764.38 1334.7C1764.38 1331.62 1764.28 1329.64 1764.07 1328.77 1763.93 1328.1 1763.66 1327.61 1763.27 1327.3 1762.89 1326.98 1762.43 1326.83 1761.88 1326.83 1761.11 1326.83 1760.04 1327.15 1758.67 1327.8L1758.2 1326.83Z" fill="#002060" fill-rule="evenodd"/><text fill="#000000" fill-opacity="0" font-family="Arial,Arial_MSFontService,sans-serif" font-size="43.25" x="1758.2" y="1359.64">1</text><rect x="2075.5" y="1290.5" width="626" height="148" stroke="#FF5B60" stroke-width="9.16667" stroke-linejoin="round" stroke-miterlimit="10" fill="none"/><path d="M2311.11 1349.04 2324.23 1349.04 2353.78 1385.29 2353.78 1357.42C2353.78 1354.45 2353.45 1352.59 2352.78 1351.86 2351.9 1350.86 2350.51 1350.36 2348.61 1350.36L2346.94 1350.36 2346.94 1349.04 2363.76 1349.04 2363.76 1350.36 2362.05 1350.36C2360.01 1350.36 2358.56 1350.98 2357.7 1352.21 2357.18 1352.97 2356.92 1354.71 2356.92 1357.42L2356.92 1398.16 2355.63 1398.16 2323.77 1359.24 2323.77 1389C2323.77 1391.97 2324.09 1393.82 2324.73 1394.56 2325.63 1395.56 2327.02 1396.06 2328.9 1396.06L2330.61 1396.06 2330.61 1397.38 2313.79 1397.38 2313.79 1396.06 2315.46 1396.06C2317.53 1396.06 2318.99 1395.44 2319.85 1394.2 2320.37 1393.44 2320.63 1391.71 2320.63 1389L2320.63 1355.39C2319.23 1353.75 2318.17 1352.67 2317.44 1352.14 2316.72 1351.62 2315.65 1351.13 2314.25 1350.68 2313.56 1350.47 2312.52 1350.36 2311.11 1350.36Z" fill="#002060" fill-rule="evenodd"/><text fill="#000000" fill-opacity="0" font-family="Arial,Arial_MSFontService,sans-serif" font-size="49.1182" x="2311.11" y="1392.02">N</text><path d="M2412.13 1378.68C2410 1378.68 2407.56 1379.02 2404.83 1379.71L2404.83 1420.81C2407.84 1421.47 2410.38 1421.81 2412.42 1421.81 2417.93 1421.81 2422.51 1419.87 2426.14 1416 2429.78 1412.12 2431.6 1406.87 2431.6 1400.24 2431.6 1393.57 2429.78 1388.3 2426.14 1384.45 2422.51 1380.6 2417.84 1378.68 2412.13 1378.68ZM2391.03 1375.97 2410.71 1375.97C2417.93 1375.97 2423.43 1376.79 2427.19 1378.43 2430.96 1380.07 2433.99 1382.8 2436.28 1386.63 2438.58 1390.45 2439.72 1394.87 2439.72 1399.89 2439.72 1406.61 2437.68 1412.23 2433.59 1416.75 2429.01 1421.78 2422.02 1424.3 2412.63 1424.3L2391.03 1424.3 2391.03 1422.98 2392.85 1422.98C2394.89 1422.98 2396.34 1422.33 2397.2 1421.02 2397.72 1420.24 2397.98 1418.48 2397.98 1415.75L2397.98 1384.52C2397.98 1381.51 2397.65 1379.62 2396.98 1378.86 2396.06 1377.81 2394.68 1377.29 2392.85 1377.29L2391.03 1377.29ZM2366.6 1375.97 2387.31 1375.97 2387.31 1377.29 2385.57 1377.29C2383.59 1377.29 2382.16 1377.87 2381.25 1379.03 2380.66 1379.79 2380.36 1381.62 2380.36 1384.52L2380.36 1415.75C2380.36 1418.2 2380.52 1419.81 2380.82 1420.6 2381.06 1421.19 2381.56 1421.7 2382.32 1422.13 2383.34 1422.7 2384.42 1422.98 2385.57 1422.98L2387.31 1422.98 2387.31 1424.3 2366.6 1424.3 2366.6 1422.98 2368.31 1422.98C2370.31 1422.98 2371.76 1422.4 2372.66 1421.24 2373.23 1420.48 2373.52 1418.65 2373.52 1415.75L2373.52 1384.52C2373.52 1382.08 2373.36 1380.46 2373.05 1379.68 2372.82 1379.08 2372.33 1378.57 2371.59 1378.14 2370.55 1377.57 2369.45 1377.29 2368.31 1377.29L2366.6 1377.29Z" fill="#002060" fill-rule="evenodd"/><text fill="#000000" fill-opacity="0" font-family="Arial,Arial_MSFontService,sans-serif" font-size="48.334" x="2366.6" y="1418.26">ID</text><path d="M2381.54 1315.62C2385.46 1315.62 2388.73 1316.88 2391.36 1319.39 2393.98 1321.91 2395.3 1324.88 2395.3 1328.31 2395.3 1330.75 2394.73 1333.2 2393.59 1335.65 2391.83 1339.5 2388.98 1343.57 2385.03 1347.87 2379.11 1354.34 2375.42 1358.24 2373.95 1359.57L2386.56 1359.57C2389.13 1359.57 2390.93 1359.47 2391.96 1359.28 2393 1359.09 2393.93 1358.7 2394.76 1358.12 2395.59 1357.54 2396.32 1356.71 2396.94 1355.65L2398.25 1355.65 2394.87 1364.95 2366.35 1364.95 2366.35 1363.63C2374.74 1355.98 2380.65 1349.73 2384.07 1344.88 2387.49 1340.03 2389.2 1335.6 2389.2 1331.59 2389.2 1328.52 2388.26 1326 2386.39 1324.03 2384.51 1322.06 2382.26 1321.07 2379.65 1321.07 2377.27 1321.07 2375.14 1321.77 2373.25 1323.16 2371.36 1324.55 2369.97 1326.58 2369.06 1329.27L2367.74 1329.27C2368.34 1324.87 2369.86 1321.5 2372.32 1319.15 2374.78 1316.79 2377.85 1315.62 2381.54 1315.62Z" fill="#002060" fill-rule="evenodd"/><text fill="#000000" fill-opacity="0" font-family="Arial,Arial_MSFontService,sans-serif" font-size="49.332" x="2366.35" y="1358.78">2</text><path d="M2393.08 1461.42 2393.08 1489.4 2383.92 1489.4 2383.92 1461.42ZM2374.75 1466 2388.5 1438.5 2402.25 1466Z" fill="#05D7A0"/><rect x="2075.5" y="1092.5" width="626" height="148" stroke="#FF5B60" stroke-width="9.16667" stroke-linejoin="round" stroke-miterlimit="10" fill="#FFFFFF"/><text fill="#002060" font-family="Times New Roman,Times New Roman_MSFontService,sans-serif" font-weight="400" font-size="73" transform="matrix(1 0 0 1 2326.78 1193)">SSS</text><path d="M0-4.58333 21.9086-4.58333C24.4399-4.58333 26.492-2.53131 26.492 0L26.492 198.993 21.9086 194.41 59.723 194.41 59.723 203.577 21.9086 203.577C19.3773 203.577 17.3253 201.524 17.3253 198.993L17.3253 0 21.9086 4.58333 0 4.58333ZM55.1397 185.243 82.6397 198.993 55.1397 212.743Z" fill="#05D7A0" transform="matrix(-1 1.22465e-16 1.22465e-16 1 2075.14 1166.5)"/><path d="M1777.96 1462.22 1779.03 1489.98 1769.87 1490.33 1768.8 1462.58ZM1759.82 1467.51 1772.5 1439.5 1787.3 1466.45Z" fill="#05D7A0"/><path d="M2393.08 1263.42 2393.08 1291.4 2383.92 1291.4 2383.92 1263.42ZM2374.75 1268 2388.5 1240.5 2402.25 1268Z" fill="#05D7A0"/><path d="M1529.42 1649.92 1555.51 1649.92 1555.51 1659.08 1529.42 1659.08ZM1534 1668.25 1506.5 1654.5 1534 1640.75Z" fill="#05D7A0"/><rect x="513.5" y="1487.5" width="441" height="329" stroke="#FF5B60" stroke-width="9.16667" stroke-linejoin="round" stroke-miterlimit="10" fill="#FFFFFF"/><text fill="#002060" font-family="Times New Roman,Times New Roman_MSFontService,sans-serif" font-weight="400" font-size="73" transform="matrix(1 0 0 1 629.907 1679)">DMRS</text><rect x="513.5" y="1870.5" width="1479" height="147" stroke="#FF5B60" stroke-width="9.16667" stroke-linejoin="round" stroke-miterlimit="10" fill="#FFFFFF"/><text fill="#002060" font-family="Times New Roman,Times New Roman_MSFontService,sans-serif" font-weight="400" font-size="73" transform="matrix(1 0 0 1 1005.34 1971)">PBCH Decoding</text><path d="M1067.15 1715.57 976.311 1713.58 976.512 1704.42 1067.35 1706.41ZM980.692 1722.85 953.5 1708.5 981.295 1695.36Z" fill="#05D7A0"/><path d="M0-4.58333 267.792-4.58333C270.323-4.58333 272.375-2.53131 272.375 0L272.375 302.002 263.209 302.002 263.209 0 267.792 4.58333 0 4.58333ZM281.542 297.419 267.792 324.919 254.042 297.419Z" fill="#05D7A0" transform="matrix(-1 1.22465e-16 1.22465e-16 1 1555.29 1165.5)"/><rect x="1555.5" y="1091.5" width="441" height="147" stroke="#002060" stroke-width="9.16667" stroke-linejoin="round" stroke-miterlimit="10" fill="none"/><path d="M1708.21 1143.42 1719.71 1143.42 1745.62 1175.2 1745.62 1150.76C1745.62 1148.16 1745.32 1146.53 1744.74 1145.89 1743.97 1145.01 1742.75 1144.57 1741.09 1144.57L1739.62 1144.57 1739.62 1143.42 1754.37 1143.42 1754.37 1144.57 1752.87 1144.57C1751.07 1144.57 1749.8 1145.12 1749.05 1146.2 1748.6 1146.87 1748.37 1148.39 1748.37 1150.76L1748.37 1186.48 1747.24 1186.48 1719.3 1152.36 1719.3 1178.45C1719.3 1181.05 1719.59 1182.68 1720.15 1183.32 1720.94 1184.2 1722.16 1184.64 1723.8 1184.64L1725.3 1184.64 1725.3 1185.79 1710.55 1185.79 1710.55 1184.64 1712.02 1184.64C1713.84 1184.64 1715.12 1184.1 1715.87 1183.01 1716.32 1182.35 1716.55 1180.82 1716.55 1178.45L1716.55 1148.98C1715.32 1147.54 1714.39 1146.6 1713.76 1146.14 1713.12 1145.68 1712.19 1145.25 1710.96 1144.86 1710.36 1144.67 1709.44 1144.57 1708.21 1144.57Z" fill="#002060" fill-rule="evenodd"/><text fill="#000000" fill-opacity="0" font-family="Arial,Arial_MSFontService,sans-serif" font-size="43.0625" x="1708.21" y="1181.1">N</text><path d="M1796.05 1164.47C1794.18 1164.47 1792.04 1164.77 1789.65 1165.38L1789.65 1201.41C1792.29 1201.99 1794.51 1202.28 1796.3 1202.28 1801.14 1202.28 1805.15 1200.59 1808.34 1197.19 1811.52 1193.79 1813.12 1189.19 1813.12 1183.38 1813.12 1177.52 1811.52 1172.91 1808.34 1169.53 1805.15 1166.16 1801.05 1164.47 1796.05 1164.47ZM1777.55 1162.1 1794.8 1162.1C1801.14 1162.1 1805.95 1162.81 1809.26 1164.25 1812.56 1165.69 1815.22 1168.09 1817.23 1171.44 1819.24 1174.79 1820.24 1178.67 1820.24 1183.06 1820.24 1188.96 1818.45 1193.89 1814.87 1197.85 1810.85 1202.26 1804.72 1204.47 1796.49 1204.47L1777.55 1204.47 1777.55 1203.31 1779.15 1203.31C1780.94 1203.31 1782.21 1202.74 1782.96 1201.6 1783.42 1200.91 1783.65 1199.37 1783.65 1196.97L1783.65 1169.6C1783.65 1166.95 1783.36 1165.29 1782.77 1164.63 1781.96 1163.71 1780.75 1163.25 1779.15 1163.25L1777.55 1163.25ZM1757.05 1162.1 1775.21 1162.1 1775.21 1163.25 1773.68 1163.25C1771.95 1163.25 1770.69 1163.76 1769.9 1164.78 1769.38 1165.45 1769.12 1167.05 1769.12 1169.6L1769.12 1196.97C1769.12 1199.12 1769.25 1200.53 1769.52 1201.22 1769.73 1201.74 1770.17 1202.19 1770.84 1202.56 1771.73 1203.06 1772.68 1203.31 1773.68 1203.31L1775.21 1203.31 1775.21 1204.47 1757.05 1204.47 1757.05 1203.31 1758.55 1203.31C1760.3 1203.31 1761.57 1202.8 1762.37 1201.78 1762.87 1201.12 1763.12 1199.51 1763.12 1196.97L1763.12 1169.6C1763.12 1167.45 1762.98 1166.03 1762.71 1165.35 1762.5 1164.82 1762.07 1164.38 1761.43 1164 1760.51 1163.5 1759.55 1163.25 1758.55 1163.25L1757.05 1163.25Z" fill="#002060" fill-rule="evenodd"/><text fill="#000000" fill-opacity="0" font-family="Arial,Arial_MSFontService,sans-serif" font-size="42.375" x="1757.05" y="1199.17">ID</text><path d="M6.27006 22.5137 8.47485 52.1646-0.666581 52.8443-2.87136 23.1934ZM-11.6729 28.4439 0 0 15.7514 26.4047Z" fill="#05D7A0" transform="matrix(-1 0 0 1 1776.4 1238.5)"/><path d="M2075.24 1369.68 2035.87 1369.68C2033.34 1369.68 2031.28 1367.63 2031.28 1365.1L2031.28 1165.5 2035.87 1170.08 2019.42 1170.08 2019.42 1160.92 2035.87 1160.92C2038.4 1160.92 2040.45 1162.97 2040.45 1165.5L2040.45 1365.1 2035.87 1360.51 2075.24 1360.51ZM2024 1179.25 1996.5 1165.5 2024 1151.75Z" fill="#002060"/><text fill="#002060" font-family="Times New Roman,Times New Roman_MSFontService,sans-serif" font-weight="400" font-size="50" transform="matrix(1 0 0 1 966.247 1494)">N</text><text fill="#002060" font-family="Times New Roman,Times New Roman_MSFontService,sans-serif" font-weight="400" font-size="50" transform="matrix(1 0 0 1 1002.91 1509)">ID</text><text fill="#002060" font-family="Times New Roman,Times New Roman_MSFontService,sans-serif" font-weight="400" font-size="50" transform="matrix(1 0 0 1 969.109 1758)">n</text><text fill="#002060" font-family="Times New Roman,Times New Roman_MSFontService,sans-serif" font-weight="400" font-size="50" transform="matrix(1 0 0 1 994.318 1772)">HF</text><path d="M1067.15 1535.57 976.311 1533.58 976.512 1524.42 1067.35 1526.41ZM980.692 1542.85 953.5 1528.5 981.295 1515.36Z" fill="#05D7A0"/><path d="M1068.15 1791.57 977.311 1789.58 977.512 1780.42 1068.35 1782.41ZM981.692 1798.85 954.5 1784.5 982.295 1771.36Z" fill="#05D7A0"/><text fill="#002060" font-family="Times New Roman,Times New Roman_MSFontService,sans-serif" font-weight="400" font-size="50" transform="matrix(1 0 0 1 966.016 1589)">i</text><text fill="#002060" font-family="Times New Roman,Times New Roman_MSFontService,sans-serif" font-weight="400" font-size="50" transform="matrix(1 0 0 1 979.766 1605)">SSB</text><path d="M1.36377e-05-4.58333 98.3713-4.58304 98.3713 4.58363-1.36377e-05 4.58333ZM93.788-13.7497 121.288 0.000360892 93.7879 13.7503Z" fill="#05D7A0" transform="matrix(-1 0 0 1 1069.79 1618.5)"/><text fill="#002060" font-family="Times New Roman,Times New Roman_MSFontService,sans-serif" font-weight="400" font-size="50" transform="matrix(1 0 0 1 936.742 1669)">L</text><text fill="#002060" font-family="Times New Roman,Times New Roman_MSFontService,sans-serif" font-weight="400" font-size="50" transform="matrix(1 0 0 1 967.679 1684)">MAX</text><path d="M5.4156 22.7344 6.53235 53.3518-2.62822 53.686-3.74497 23.0685ZM-12.7385 27.9829 0 0 14.7432 26.9805Z" fill="#05D7A0" transform="matrix(1 0 0 -1 1772.5 1873.02)"/><path d="M5.4156 22.7344 6.53235 53.3518-2.62822 53.686-3.74497 23.0685ZM-12.7385 27.9829 0 0 14.7432 26.9805Z" fill="#05D7A0" transform="matrix(1 0 0 -1 733.5 1870.02)"/><path d="M2.59595e-05-4.58333 40.8014-4.5831 40.8014 4.58356-2.59595e-05 4.58333ZM36.2182-13.7498 63.7181 0.000360892 36.218 13.7502Z" fill="#05D7A0" transform="matrix(-1 0 0 1 513.218 1944.5)"/><rect x="229.5" y="1490.5" width="216" height="527" stroke="#002060" stroke-width="9.16667" stroke-linejoin="round" stroke-miterlimit="10" fill="none"/><text fill="#002060" font-family="Times New Roman,Times New Roman_MSFontService,sans-serif" font-weight="400" font-size="64" transform="matrix(1 0 0 1 276.709 1700)">MIB </text><text fill="#002060" font-family="Times New Roman,Times New Roman_MSFontService,sans-serif" font-weight="400" font-size="64" transform="matrix(1 0 0 1 319.38 1777)">+ </text><text fill="#002060" font-family="Times New Roman,Times New Roman_MSFontService,sans-serif" font-weight="400" font-size="64" transform="matrix(1 0 0 1 284.157 1854)">ATI</text></g></svg>