<svg width="2112" height="3014" xmlns="http://www.w3.org/2000/svg" xmlns:xlink="http://www.w3.org/1999/xlink" xml:space="preserve" overflow="hidden"><g transform="translate(-2357 310)"><rect x="2680.5" y="565.5" width="438" height="91.0001" stroke="#000000" stroke-width="9.16667" stroke-linejoin="round" stroke-miterlimit="10" fill="none"/><text fill="#002060" font-family="Times New Roman,Times New Roman_MSFontService,sans-serif" font-weight="400" font-size="46" transform="matrix(1 0 0 1 2758.04 627)">1</text><text fill="#002060" font-family="Times New Roman,Times New Roman_MSFontService,sans-serif" font-weight="400" font-size="31" transform="matrix(1 0 0 1 2780.95 613)">ST</text><text fill="#002060" font-family="Times New Roman,Times New Roman_MSFontService,sans-serif" font-weight="400" font-size="46" transform="matrix(1 0 0 1 2828.51 627)">Scrambling</text><rect x="2680.5" y="749.5" width="278" height="91.0001" stroke="#000000" stroke-width="9.16667" stroke-linejoin="round" stroke-miterlimit="10" fill="none"/><text fill="#002060" font-family="Times New Roman,Times New Roman_MSFontService,sans-serif" font-weight="400" font-size="46" transform="matrix(1 0 0 1 2745.39 811)">Payload</text><rect x="2958.5" y="749.5" width="160" height="91.0001" stroke="#000000" stroke-width="9.16667" stroke-linejoin="round" stroke-miterlimit="10" fill="#FF5A5F"/><text fill="#FFFFFF" font-family="Times New Roman,Times New Roman_MSFontService,sans-serif" font-weight="400" font-size="46" transform="matrix(1 0 0 1 2992.49 811)">CRC</text><rect x="2680.5" y="934.5" width="438" height="90.9997" stroke="#000000" stroke-width="9.16667" stroke-linejoin="round" stroke-miterlimit="10" fill="none"/><text fill="#002060" font-family="Times New Roman,Times New Roman_MSFontService,sans-serif" font-weight="400" font-size="44" transform="matrix(1 0 0 1 2721.37 995)">Input Bit </text><text fill="#002060" font-family="Times New Roman,Times New Roman_MSFontService,sans-serif" font-weight="400" font-size="44" transform="matrix(1 0 0 1 2888.09 995)">Interleaver</text><rect x="2680.5" y="1118.5" width="438" height="91.9998" stroke="#000000" stroke-width="9.16667" stroke-linejoin="round" stroke-miterlimit="10" fill="none"/><text fill="#002060" font-family="Times New Roman,Times New Roman_MSFontService,sans-serif" font-weight="400" font-size="48" transform="matrix(1 0 0 1 2788.97 1181)">Polar coder</text><rect x="2680.5" y="1303.5" width="438" height="91.0001" stroke="#000000" stroke-width="9.16667" stroke-linejoin="round" stroke-miterlimit="10" fill="none"/><text fill="#002060" font-family="Times New Roman,Times New Roman_MSFontService,sans-serif" font-weight="400" font-size="46" transform="matrix(1 0 0 1 2765.77 1365)">Rate matching</text><rect x="2680.5" y="1672.5" width="438" height="92.0001" stroke="#000000" stroke-width="9.16667" stroke-linejoin="round" stroke-miterlimit="10" fill="none"/><text fill="#002060" font-family="Times New Roman,Times New Roman_MSFontService,sans-serif" font-weight="400" font-size="46" transform="matrix(1 0 0 1 2737.98 1734)">QPSK Modulator</text><rect x="2680.5" y="2045.5" width="438" height="91.9999" stroke="#000000" stroke-width="9.16667" stroke-linejoin="round" stroke-miterlimit="10" fill="none"/><text fill="#002060" font-family="Times New Roman,Times New Roman_MSFontService,sans-serif" font-weight="400" font-size="46" transform="matrix(1 0 0 1 2724.81 2107)">Resource Mapping</text><path d="M2904.87 840.898 2905.73 898.277 2891.98 898.482 2891.13 841.103ZM2919.38 891.198 2899.37 932.751 2878.13 891.813Z" fill="#FFC000"/><path d="M2905.87 1026 2905.88 1083.38 2892.12 1083.38 2892.12 1026ZM2919.62 1076.5 2899 1117.75 2878.38 1076.5Z" fill="#FFC000"/><path d="M2905.87 1210 2905.88 1267.38 2892.12 1267.38 2892.12 1210ZM2919.62 1260.5 2899 1301.75 2878.38 1260.5Z" fill="#FFC000"/><path d="M2905.87 1580 2905.88 1637.38 2892.12 1637.38 2892.12 1580ZM2919.62 1630.5 2899 1671.75 2878.38 1630.5Z" fill="#FFC000"/><path d="M2784.87 1764 2784.88 2005.11 2771.12 2005.11 2771.12 1764ZM2798.62 1998.24 2778 2039.49 2757.38 1998.24Z" fill="#FFC000"/><path d="M2905.87 472 2905.88 529.376 2892.12 529.376 2892.12 472ZM2919.62 522.501 2899 563.751 2878.38 522.501Z" fill="#FFC000"/><text fill="#002060" font-family="Times New Roman,Times New Roman_MSFontService,sans-serif" font-weight="400" font-size="28" transform="matrix(1 0 0 1 2695.66 346)">(32 Bits)</text><text fill="#002060" font-family="Times New Roman,Times New Roman_MSFontService,sans-serif" font-weight="400" font-size="28" transform="matrix(1 0 0 1 2682.08 899)">56 Bits</text><text fill="#002060" font-family="Times New Roman,Times New Roman_MSFontService,sans-serif" font-weight="400" font-size="28" transform="matrix(1 0 0 1 2958.37 716)">24 Bit CRC</text><text fill="#002060" font-family="Times New Roman,Times New Roman_MSFontService,sans-serif" font-weight="400" font-size="28" transform="matrix(1 0 0 1 2682.89 530)">32 Bits</text><text fill="#002060" font-family="Times New Roman,Times New Roman_MSFontService,sans-serif" font-weight="400" font-size="28" transform="matrix(1 0 0 1 2681.15 1083)">56 Bits</text><text fill="#002060" font-family="Times New Roman,Times New Roman_MSFontService,sans-serif" font-weight="400" font-size="28" transform="matrix(1 0 0 1 2681.05 1266)">512 Bits</text><text fill="#002060" font-family="Times New Roman,Times New Roman_MSFontService,sans-serif" font-weight="400" font-size="28" transform="matrix(1 0 0 1 2682.25 1451)">864 Bits</text><text fill="#002060" font-family="Times New Roman,Times New Roman_MSFontService,sans-serif" font-weight="400" font-size="28" transform="matrix(1 0 0 1 2683.11 1839)">432 symbols</text><rect x="2680.5" y="380.5" width="438" height="92.0001" stroke="#000000" stroke-width="9.16667" stroke-linejoin="round" stroke-miterlimit="10" fill="none"/><text fill="#002060" font-family="Times New Roman,Times New Roman_MSFontService,sans-serif" font-weight="400" font-size="46" transform="matrix(1 0 0 1 2733.69 442)">PBCH </text><text fill="#002060" font-family="Times New Roman,Times New Roman_MSFontService,sans-serif" font-weight="400" font-size="46" transform="matrix(1 0 0 1 2864.31 442)">Interleaver</text><path d="M6.87423-0.10264 7.73098 57.2769-6.01749 57.4822-6.87423 0.10264ZM21.3768 50.1974 1.36995 91.7508-19.8686 50.8133Z" fill="#FFC000" transform="matrix(-1 0 0 1 2899.37 657)"/><rect x="2680.5" y="196.5" width="438" height="90.9997" stroke="#000000" stroke-width="9.16667" stroke-linejoin="round" stroke-miterlimit="10" fill="none"/><text fill="#002060" font-family="Times New Roman,Times New Roman_MSFontService,sans-serif" font-weight="400" font-size="46" transform="matrix(1 0 0 1 2759.76 258)">PBCH Payload</text><path d="M2905.87 288 2905.88 345.376 2892.12 345.376 2892.12 288ZM2919.62 338.501 2899 379.751 2878.38 338.501Z" fill="#FFC000"/><rect x="2680.5" y="1487.5" width="438" height="92.0001" stroke="#000000" stroke-width="9.16667" stroke-linejoin="round" stroke-miterlimit="10" fill="none"/><text fill="#002060" font-family="Times New Roman,Times New Roman_MSFontService,sans-serif" font-weight="400" font-size="46" transform="matrix(1 0 0 1 2793.27 1550)">Scrambling</text><path d="M2905.87 1395 2905.88 1452.38 2892.12 1452.38 2892.12 1395ZM2919.62 1445.5 2899 1486.75 2878.38 1445.5Z" fill="#FFC000"/><text fill="#002060" font-family="Times New Roman,Times New Roman_MSFontService,sans-serif" font-weight="400" font-size="28" transform="matrix(1 0 0 1 2682.24 714)">32 Bits</text><text fill="#002060" font-family="Times New Roman,Times New Roman_MSFontService,sans-serif" font-weight="400" font-size="28" transform="matrix(1 0 0 1 2682.14 1636)">864 Bits</text><path d="M3007.88 1966 3007.88 2005.45 2994.13 2005.45 2994.12 1966ZM3021.63 1998.57 3001 2039.82 2980.38 1998.57Z" fill="#FFC000"/><rect x="2884.5" y="1842.5" width="234" height="124" stroke="#000000" stroke-width="9.16667" stroke-linejoin="round" stroke-miterlimit="10" fill="none"/><text fill="#002060" font-family="Times New Roman,Times New Roman_MSFontService,sans-serif" font-weight="400" font-size="41" transform="matrix(1 0 0 1 2942.36 1895)">DMRS </text><text fill="#002060" font-family="Times New Roman,Times New Roman_MSFontService,sans-serif" font-weight="400" font-size="41" transform="matrix(1 0 0 1 2918.29 1944)">Generator</text><text fill="#002060" font-family="Times New Roman,Times New Roman_MSFontService,sans-serif" font-weight="400" font-size="32" transform="matrix(1 0 0 1 3167.53 273)">TS 38.212 Clause 7.1.1</text><text fill="#002060" font-family="Times New Roman,Times New Roman_MSFontService,sans-serif" font-weight="400" font-size="32" transform="matrix(1 0 0 1 3167.53 455)">TS 38.212 Clause 7.1.1</text><text fill="#002060" font-family="Times New Roman,Times New Roman_MSFontService,sans-serif" font-weight="400" font-size="32" transform="matrix(1 0 0 1 3167.53 642)">TS 38.212 Clause 7.1.2</text><text fill="#002060" font-family="Times New Roman,Times New Roman_MSFontService,sans-serif" font-weight="400" font-size="32" transform="matrix(1 0 0 1 3167.53 823)">TS 38.212 Clause 7.1.3, 5.1</text><text fill="#002060" font-family="Times New Roman,Times New Roman_MSFontService,sans-serif" font-weight="400" font-size="32" transform="matrix(1 0 0 1 3167.53 1009)">TS 38.212 Clause 7.1.4, 5.3.1.1</text><text fill="#002060" font-family="Times New Roman,Times New Roman_MSFontService,sans-serif" font-weight="400" font-size="32" transform="matrix(1 0 0 1 3167.53 1193)">TS 38.212 Clause 7.1.1, 5.3.1.2</text><text fill="#002060" font-family="Times New Roman,Times New Roman_MSFontService,sans-serif" font-weight="400" font-size="32" transform="matrix(1 0 0 1 3167.53 1380)">TS 38.212 Clause 7.1.1, 5.4.1</text><text fill="#002060" font-family="Times New Roman,Times New Roman_MSFontService,sans-serif" font-weight="400" font-size="32" transform="matrix(1 0 0 1 3167.53 1562)">TS 38.211 Clause 7.3.3.1</text><text fill="#002060" font-family="Times New Roman,Times New Roman_MSFontService,sans-serif" font-weight="400" font-size="32" transform="matrix(1 0 0 1 3167.53 1748)">TS 38.211 Clause 7.3.3.2, 5.4</text><text fill="#002060" font-family="Times New Roman,Times New Roman_MSFontService,sans-serif" font-weight="400" font-size="32" transform="matrix(1 0 0 1 3167.53 1931)">TS 38.211 Clause 7.4.1.4</text><text fill="#002060" font-family="Times New Roman,Times New Roman_MSFontService,sans-serif" font-weight="400" font-size="32" transform="matrix(1 0 0 1 3167.53 2121)">TS 38.211 Clause 7.4.3.1</text><path d="M3039.5 335.5 3633.7 335.5" stroke="#4A66AC" stroke-width="3.4375" stroke-linecap="round" stroke-linejoin="round" stroke-miterlimit="10" stroke-dasharray="0 6.875" fill="none" fill-rule="evenodd"/><path d="M3039.5 517.5 3633.7 517.5" stroke="#4A66AC" stroke-width="3.4375" stroke-linecap="round" stroke-linejoin="round" stroke-miterlimit="10" stroke-dasharray="0 6.875" fill="none" fill-rule="evenodd"/><path d="M3039.5 706.5 3633.7 706.5" stroke="#4A66AC" stroke-width="3.4375" stroke-linecap="round" stroke-linejoin="round" stroke-miterlimit="10" stroke-dasharray="0 6.875" fill="none" fill-rule="evenodd"/><path d="M3039.5 888.5 3633.7 888.5" stroke="#4A66AC" stroke-width="3.4375" stroke-linecap="round" stroke-linejoin="round" stroke-miterlimit="10" stroke-dasharray="0 6.875" fill="none" fill-rule="evenodd"/><path d="M3039.5 1074.5 3633.7 1074.5" stroke="#4A66AC" stroke-width="3.4375" stroke-linecap="round" stroke-linejoin="round" stroke-miterlimit="10" stroke-dasharray="0 6.875" fill="none" fill-rule="evenodd"/><path d="M3039.5 1256.5 3633.7 1256.5" stroke="#4A66AC" stroke-width="3.4375" stroke-linecap="round" stroke-linejoin="round" stroke-miterlimit="10" stroke-dasharray="0 6.875" fill="none" fill-rule="evenodd"/><path d="M3039.5 1445.5 3633.7 1445.5" stroke="#4A66AC" stroke-width="3.4375" stroke-linecap="round" stroke-linejoin="round" stroke-miterlimit="10" stroke-dasharray="0 6.875" fill="none" fill-rule="evenodd"/><path d="M3039.5 1627.5 3633.7 1627.5" stroke="#4A66AC" stroke-width="3.4375" stroke-linecap="round" stroke-linejoin="round" stroke-miterlimit="10" stroke-dasharray="0 6.875" fill="none" fill-rule="evenodd"/><path d="M3039.5 1807.5 3633.7 1807.5" stroke="#4A66AC" stroke-width="3.4375" stroke-linecap="round" stroke-linejoin="round" stroke-miterlimit="10" stroke-dasharray="0 6.875" fill="none" fill-rule="evenodd"/><path d="M3039.5 2005.5 3633.7 2005.5" stroke="#4A66AC" stroke-width="3.4375" stroke-linecap="round" stroke-linejoin="round" stroke-miterlimit="10" stroke-dasharray="0 6.875" fill="none" fill-rule="evenodd"/><rect x="3685.5" y="565.5" width="454" height="92.0001" stroke="#000000" stroke-width="9.16667" stroke-linejoin="round" stroke-miterlimit="10" fill="none"/><text fill="#002060" font-family="Times New Roman,Times New Roman_MSFontService,sans-serif" font-weight="400" font-size="46" transform="matrix(1 0 0 1 3739.93 628)">1</text><text fill="#002060" font-family="Times New Roman,Times New Roman_MSFontService,sans-serif" font-weight="400" font-size="31" transform="matrix(1 0 0 1 3762.84 614)">ST</text><text fill="#002060" font-family="Times New Roman,Times New Roman_MSFontService,sans-serif" font-weight="400" font-size="46" transform="matrix(1 0 0 1 3810.39 628)">De</text><text fill="#002060" font-family="Times New Roman,Times New Roman_MSFontService,sans-serif" font-weight="400" font-size="46" transform="matrix(1 0 0 1 3864.25 628)">-</text><text fill="#002060" font-family="Times New Roman,Times New Roman_MSFontService,sans-serif" font-weight="400" font-size="46" transform="matrix(1 0 0 1 3879.72 628)">scrambling</text><rect x="3685.5" y="750.5" width="300" height="91.0001" stroke="#000000" stroke-width="9.16667" stroke-linejoin="round" stroke-miterlimit="10" fill="none"/><text fill="#002060" font-family="Times New Roman,Times New Roman_MSFontService,sans-serif" font-weight="400" font-size="41" transform="matrix(1 0 0 1 3718.4 811)">CRC Decoder</text><rect x="3995.5" y="750.5" width="144" height="91.0001" stroke="#000000" stroke-width="9.16667" stroke-linejoin="round" stroke-miterlimit="10" fill="#FF5A5F"/><text fill="#FFFFFF" font-family="Times New Roman,Times New Roman_MSFontService,sans-serif" font-weight="400" font-size="28" transform="matrix(1 0 0 1 4032.03 806)">Check</text><rect x="3685.5" y="935.5" width="454" height="92.0002" stroke="#000000" stroke-width="9.16667" stroke-linejoin="round" stroke-miterlimit="10" fill="none"/><text fill="#002060" font-family="Times New Roman,Times New Roman_MSFontService,sans-serif" font-weight="400" font-size="37" transform="matrix(1 0 0 1 3736.2 994)">Input Bit De</text><text fill="#002060" font-family="Times New Roman,Times New Roman_MSFontService,sans-serif" font-weight="400" font-size="37" transform="matrix(1 0 0 1 3919.53 994)">-</text><text fill="#002060" font-family="Times New Roman,Times New Roman_MSFontService,sans-serif" font-weight="400" font-size="37" transform="matrix(1 0 0 1 3931.56 994)">interleaver</text><rect x="3685.5" y="1119.5" width="454" height="91.9998" stroke="#000000" stroke-width="9.16667" stroke-linejoin="round" stroke-miterlimit="10" fill="none"/><text fill="#002060" font-family="Times New Roman,Times New Roman_MSFontService,sans-serif" font-weight="400" font-size="46" transform="matrix(1 0 0 1 3779.45 1182)">Polar Decoder</text><rect x="3685.5" y="1304.5" width="454" height="92.0001" stroke="#000000" stroke-width="9.16667" stroke-linejoin="round" stroke-miterlimit="10" fill="none"/><text fill="#002060" font-family="Times New Roman,Times New Roman_MSFontService,sans-serif" font-weight="400" font-size="46" transform="matrix(1 0 0 1 3784.04 1367)">Bits matching</text><rect x="3685.5" y="1674.5" width="454" height="92.0001" stroke="#000000" stroke-width="9.16667" stroke-linejoin="round" stroke-miterlimit="10" fill="none"/><text fill="#002060" font-family="Times New Roman,Times New Roman_MSFontService,sans-serif" font-weight="400" font-size="46" transform="matrix(1 0 0 1 3718.72 1736)">QPSK De</text><text fill="#002060" font-family="Times New Roman,Times New Roman_MSFontService,sans-serif" font-weight="400" font-size="46" transform="matrix(1 0 0 1 3900.91 1736)">-</text><text fill="#002060" font-family="Times New Roman,Times New Roman_MSFontService,sans-serif" font-weight="400" font-size="46" transform="matrix(1 0 0 1 3916.38 1736)">modulator</text><rect x="3685.5" y="1859.5" width="454" height="92.0001" stroke="#000000" stroke-width="9.16667" stroke-linejoin="round" stroke-miterlimit="10" fill="none"/><text fill="#002060" font-family="Times New Roman,Times New Roman_MSFontService,sans-serif" font-weight="400" font-size="46" transform="matrix(1 0 0 1 3795.78 1921)">Equalization</text><path d="M3920.41 876.264 3921.3 933.766 3907.55 933.979 3906.66 876.477ZM3893.02 883.564 3913 842 3934.26 882.926Z" fill="#FFC000"/><path d="M3919.88 1061.38 3919.88 1118.87 3906.13 1118.87 3906.13 1061.38ZM3892.38 1068.25 3913 1027 3933.63 1068.25Z" fill="#FFC000"/><path d="M3919.88 1246.38 3919.88 1303.87 3906.13 1303.87 3906.13 1246.38ZM3892.38 1253.25 3913 1212 3933.63 1253.25Z" fill="#FFC000"/><path d="M3919.88 1615.37 3919.88 1672.87 3906.13 1672.87 3906.13 1615.37ZM3892.38 1622.25 3913 1581 3933.63 1622.25Z" fill="#FFC000"/><path d="M6.875-2.65716e-05 6.87523 59.0005-6.87477 59.0005-6.875 2.65716e-05ZM20.6252 52.1254 0.000360892 93.3755-20.6248 52.1256Z" fill="#FFC000" transform="matrix(1 0 0 -1 3912 1859.38)"/><path d="M3919.88 507.375 3919.88 564.872 3906.13 564.872 3906.13 507.375ZM3892.38 514.25 3913 473 3933.63 514.25Z" fill="#FFC000"/><text fill="#002060" font-family="Times New Roman,Times New Roman_MSFontService,sans-serif" font-weight="400" font-size="28" transform="matrix(1 0 0 1 3701.78 346)">(32 Bits)</text><text fill="#002060" font-family="Times New Roman,Times New Roman_MSFontService,sans-serif" font-weight="400" font-size="28" transform="matrix(1 0 0 1 3688.2 900)">56 Bits</text><text fill="#002060" font-family="Times New Roman,Times New Roman_MSFontService,sans-serif" font-weight="400" font-size="28" transform="matrix(1 0 0 1 3689.04 531)">32 Bits</text><text fill="#002060" font-family="Times New Roman,Times New Roman_MSFontService,sans-serif" font-weight="400" font-size="28" transform="matrix(1 0 0 1 3687.24 1084)">56 Bits</text><text fill="#002060" font-family="Times New Roman,Times New Roman_MSFontService,sans-serif" font-weight="400" font-size="28" transform="matrix(1 0 0 1 3687.14 1268)">512 Bits</text><text fill="#002060" font-family="Times New Roman,Times New Roman_MSFontService,sans-serif" font-weight="400" font-size="28" transform="matrix(1 0 0 1 3688.38 1453)">864 Bits</text><text fill="#002060" font-family="Times New Roman,Times New Roman_MSFontService,sans-serif" font-weight="400" font-size="28" transform="matrix(1 0 0 1 3689.28 1821)">432 symbols</text><rect x="3685.5" y="380.5" width="454" height="92.0001" stroke="#000000" stroke-width="9.16667" stroke-linejoin="round" stroke-miterlimit="10" fill="none"/><text fill="#002060" font-family="Times New Roman,Times New Roman_MSFontService,sans-serif" font-weight="400" font-size="46" transform="matrix(1 0 0 1 3713.28 443)">PBCH De</text><text fill="#002060" font-family="Times New Roman,Times New Roman_MSFontService,sans-serif" font-weight="400" font-size="46" transform="matrix(1 0 0 1 3897.76 443)">-</text><text fill="#002060" font-family="Times New Roman,Times New Roman_MSFontService,sans-serif" font-weight="400" font-size="46" transform="matrix(1 0 0 1 3913.23 443)">interleaver</text><path d="M7.406 34.2645 8.29573 91.766-5.45262 91.9787-6.34235 34.4773ZM-19.9843 41.5642 0 0 21.2607 40.926Z" fill="#FFC000" transform="matrix(-1 0 0 1 3914.42 658)"/><rect x="3685.5" y="196.5" width="454" height="90.9997" stroke="#000000" stroke-width="9.16667" stroke-linejoin="round" stroke-miterlimit="10" fill="none"/><text fill="#002060" font-family="Times New Roman,Times New Roman_MSFontService,sans-serif" font-weight="400" font-size="41" transform="matrix(1 0 0 1 3707.84 257)">Decoded PBCH Payload</text><path d="M3919.88 322.375 3919.88 379.872 3906.13 379.872 3906.13 322.375ZM3892.38 329.25 3913 288 3933.63 329.25Z" fill="#FFC000"/><rect x="3685.5" y="1489.5" width="454" height="92.0001" stroke="#000000" stroke-width="9.16667" stroke-linejoin="round" stroke-miterlimit="10" fill="none"/><text fill="#002060" font-family="Times New Roman,Times New Roman_MSFontService,sans-serif" font-weight="400" font-size="46" transform="matrix(1 0 0 1 3775.16 1551)">De</text><text fill="#002060" font-family="Times New Roman,Times New Roman_MSFontService,sans-serif" font-weight="400" font-size="46" transform="matrix(1 0 0 1 3829.01 1551)">-</text><text fill="#002060" font-family="Times New Roman,Times New Roman_MSFontService,sans-serif" font-weight="400" font-size="46" transform="matrix(1 0 0 1 3844.48 1551)">scrambling</text><path d="M3919.88 1431.38 3919.88 1488.87 3906.13 1488.87 3906.13 1431.38ZM3892.38 1438.25 3913 1397 3933.63 1438.25Z" fill="#FFC000"/><text fill="#002060" font-family="Times New Roman,Times New Roman_MSFontService,sans-serif" font-weight="400" font-size="28" transform="matrix(1 0 0 1 3688.37 715)">32 Bits</text><text fill="#002060" font-family="Times New Roman,Times New Roman_MSFontService,sans-serif" font-weight="400" font-size="28" transform="matrix(1 0 0 1 3688.27 1638)">864 Bits</text><path d="M3974.88 2182.38 3974.88 2208.1 3961.13 2208.1 3961.13 2182.38ZM3947.38 2189.25 3968 2148 3988.63 2189.25Z" fill="#FFC000"/><rect x="3795.5" y="2022.5" width="346" height="126" stroke="#000000" stroke-width="9.16667" stroke-linejoin="round" stroke-miterlimit="10" fill="none"/><text fill="#002060" font-family="Times New Roman,Times New Roman_MSFontService,sans-serif" font-weight="400" font-size="46" transform="matrix(1 0 0 1 3891.46 2074)">Channel </text><text fill="#002060" font-family="Times New Roman,Times New Roman_MSFontService,sans-serif" font-weight="400" font-size="46" transform="matrix(1 0 0 1 3868.82 2129)">Estimation</text><rect x="3685.5" y="2208.5" width="454" height="91.9998" stroke="#000000" stroke-width="9.16667" stroke-linejoin="round" stroke-miterlimit="10" fill="none"/><text fill="#002060" font-family="Times New Roman,Times New Roman_MSFontService,sans-serif" font-weight="400" font-size="46" transform="matrix(1 0 0 1 3726.17 2270)">Estimated SSB Grid</text><path d="M3974.88 1985.38 3974.88 2022.23 3961.13 2022.23 3961.13 1985.38ZM3947.38 1992.25 3968 1951 3988.63 1992.25Z" fill="#FFC000"/><path d="M3776.88 1985.38 3776.88 2179.9 3763.13 2179.9 3763.12 1985.38ZM3749.38 1992.25 3770 1951 3790.62 1992.25Z" fill="#FFC000"/><rect x="2673" y="70.0001" width="445" height="105" fill="#05D7A0"/><text fill="#FFFFFF" font-family="Times New Roman,Times New Roman_MSFontService,sans-serif" font-weight="400" font-size="60" transform="matrix(1 0 0 1 2748.58 144)">Base</text><text fill="#FFFFFF" font-family="Times New Roman,Times New Roman_MSFontService,sans-serif" font-weight="400" font-size="60" transform="matrix(1 0 0 1 2863.73 144)">-</text><text fill="#FFFFFF" font-family="Times New Roman,Times New Roman_MSFontService,sans-serif" font-weight="400" font-size="60" transform="matrix(1 0 0 1 2883.79 144)">station</text><rect x="3677" y="72.9999" width="469" height="105" fill="#05D7A0"/><text fill="#FFFFFF" font-family="Times New Roman,Times New Roman_MSFontService,sans-serif" font-weight="400" font-size="60" transform="matrix(1 0 0 1 3717.29 147)">User Equipment</text></g></svg>