<?xml version="1.0" encoding="utf-8" standalone="no"?>
<!DOCTYPE svg PUBLIC "-//W3C//DTD SVG 1.1//EN"
  "http://www.w3.org/Graphics/SVG/1.1/DTD/svg11.dtd">
<svg xmlns:xlink="http://www.w3.org/1999/xlink" width="460.8pt" height="345.6pt" viewBox="0 0 460.8 345.6" xmlns="http://www.w3.org/2000/svg" version="1.1">
 <metadata>
  <rdf:RDF xmlns:dc="http://purl.org/dc/elements/1.1/" xmlns:cc="http://creativecommons.org/ns#" xmlns:rdf="http://www.w3.org/1999/02/22-rdf-syntax-ns#">
   <cc:Work>
    <dc:type rdf:resource="http://purl.org/dc/dcmitype/StillImage"/>
    <dc:date>2023-06-28T17:10:38.774150</dc:date>
    <dc:format>image/svg+xml</dc:format>
    <dc:creator>
     <cc:Agent>
      <dc:title>Matplotlib v3.7.1, https://matplotlib.org/</dc:title>
     </cc:Agent>
    </dc:creator>
   </cc:Work>
  </rdf:RDF>
 </metadata>
 <defs>
  <style type="text/css">*{stroke-linejoin: round; stroke-linecap: butt}</style>
 </defs>
 <g id="figure_1">
  <g id="patch_1">
   <path d="M 0 345.6 
L 460.8 345.6 
L 460.8 0 
L 0 0 
z
" style="fill: #ffffff"/>
  </g>
  <g id="axes_1">
   <g id="patch_2">
    <path d="M 57.6 307.584 
L 414.72 307.584 
L 414.72 41.472 
L 57.6 41.472 
z
" style="fill: #ffffff"/>
   </g>
   <g id="matplotlib.axis_1">
    <g id="xtick_1">
     <g id="line2d_1">
      <path d="M 98.275653 307.584 
L 98.275653 41.472 
" clip-path="url(#p8545b78198)" style="fill: none; stroke: #b0b0b0; stroke-width: 0.8; stroke-linecap: square"/>
     </g>
     <g id="line2d_2">
      <defs>
       <path id="m72dc210554" d="M 0 0 
L 0 3.5 
" style="stroke: #000000; stroke-width: 0.8"/>
      </defs>
      <g>
       <use xlink:href="#m72dc210554" x="98.275653" y="307.584" style="stroke: #000000; stroke-width: 0.8"/>
      </g>
     </g>
     <g id="text_1">
      <!-- 0.2 -->
      <g transform="translate(90.32409 322.182437) scale(0.1 -0.1)">
       <defs>
        <path id="DejaVuSans-30" d="M 2034 4250 
Q 1547 4250 1301 3770 
Q 1056 3291 1056 2328 
Q 1056 1369 1301 889 
Q 1547 409 2034 409 
Q 2525 409 2770 889 
Q 3016 1369 3016 2328 
Q 3016 3291 2770 3770 
Q 2525 4250 2034 4250 
z
M 2034 4750 
Q 2819 4750 3233 4129 
Q 3647 3509 3647 2328 
Q 3647 1150 3233 529 
Q 2819 -91 2034 -91 
Q 1250 -91 836 529 
Q 422 1150 422 2328 
Q 422 3509 836 4129 
Q 1250 4750 2034 4750 
z
" transform="scale(0.015625)"/>
        <path id="DejaVuSans-2e" d="M 684 794 
L 1344 794 
L 1344 0 
L 684 0 
L 684 794 
z
" transform="scale(0.015625)"/>
        <path id="DejaVuSans-32" d="M 1228 531 
L 3431 531 
L 3431 0 
L 469 0 
L 469 531 
Q 828 903 1448 1529 
Q 2069 2156 2228 2338 
Q 2531 2678 2651 2914 
Q 2772 3150 2772 3378 
Q 2772 3750 2511 3984 
Q 2250 4219 1831 4219 
Q 1534 4219 1204 4116 
Q 875 4013 500 3803 
L 500 4441 
Q 881 4594 1212 4672 
Q 1544 4750 1819 4750 
Q 2544 4750 2975 4387 
Q 3406 4025 3406 3419 
Q 3406 3131 3298 2873 
Q 3191 2616 2906 2266 
Q 2828 2175 2409 1742 
Q 1991 1309 1228 531 
z
" transform="scale(0.015625)"/>
       </defs>
       <use xlink:href="#DejaVuSans-30"/>
       <use xlink:href="#DejaVuSans-2e" x="63.623047"/>
       <use xlink:href="#DejaVuSans-32" x="95.410156"/>
      </g>
     </g>
    </g>
    <g id="xtick_2">
     <g id="line2d_3">
      <path d="M 157.30268 307.584 
L 157.30268 41.472 
" clip-path="url(#p8545b78198)" style="fill: none; stroke: #b0b0b0; stroke-width: 0.8; stroke-linecap: square"/>
     </g>
     <g id="line2d_4">
      <g>
       <use xlink:href="#m72dc210554" x="157.30268" y="307.584" style="stroke: #000000; stroke-width: 0.8"/>
      </g>
     </g>
     <g id="text_2">
      <!-- 0.4 -->
      <g transform="translate(149.351118 322.182437) scale(0.1 -0.1)">
       <defs>
        <path id="DejaVuSans-34" d="M 2419 4116 
L 825 1625 
L 2419 1625 
L 2419 4116 
z
M 2253 4666 
L 3047 4666 
L 3047 1625 
L 3713 1625 
L 3713 1100 
L 3047 1100 
L 3047 0 
L 2419 0 
L 2419 1100 
L 313 1100 
L 313 1709 
L 2253 4666 
z
" transform="scale(0.015625)"/>
       </defs>
       <use xlink:href="#DejaVuSans-30"/>
       <use xlink:href="#DejaVuSans-2e" x="63.623047"/>
       <use xlink:href="#DejaVuSans-34" x="95.410156"/>
      </g>
     </g>
    </g>
    <g id="xtick_3">
     <g id="line2d_5">
      <path d="M 216.329707 307.584 
L 216.329707 41.472 
" clip-path="url(#p8545b78198)" style="fill: none; stroke: #b0b0b0; stroke-width: 0.8; stroke-linecap: square"/>
     </g>
     <g id="line2d_6">
      <g>
       <use xlink:href="#m72dc210554" x="216.329707" y="307.584" style="stroke: #000000; stroke-width: 0.8"/>
      </g>
     </g>
     <g id="text_3">
      <!-- 0.6 -->
      <g transform="translate(208.378145 322.182437) scale(0.1 -0.1)">
       <defs>
        <path id="DejaVuSans-36" d="M 2113 2584 
Q 1688 2584 1439 2293 
Q 1191 2003 1191 1497 
Q 1191 994 1439 701 
Q 1688 409 2113 409 
Q 2538 409 2786 701 
Q 3034 994 3034 1497 
Q 3034 2003 2786 2293 
Q 2538 2584 2113 2584 
z
M 3366 4563 
L 3366 3988 
Q 3128 4100 2886 4159 
Q 2644 4219 2406 4219 
Q 1781 4219 1451 3797 
Q 1122 3375 1075 2522 
Q 1259 2794 1537 2939 
Q 1816 3084 2150 3084 
Q 2853 3084 3261 2657 
Q 3669 2231 3669 1497 
Q 3669 778 3244 343 
Q 2819 -91 2113 -91 
Q 1303 -91 875 529 
Q 447 1150 447 2328 
Q 447 3434 972 4092 
Q 1497 4750 2381 4750 
Q 2619 4750 2861 4703 
Q 3103 4656 3366 4563 
z
" transform="scale(0.015625)"/>
       </defs>
       <use xlink:href="#DejaVuSans-30"/>
       <use xlink:href="#DejaVuSans-2e" x="63.623047"/>
       <use xlink:href="#DejaVuSans-36" x="95.410156"/>
      </g>
     </g>
    </g>
    <g id="xtick_4">
     <g id="line2d_7">
      <path d="M 275.356735 307.584 
L 275.356735 41.472 
" clip-path="url(#p8545b78198)" style="fill: none; stroke: #b0b0b0; stroke-width: 0.8; stroke-linecap: square"/>
     </g>
     <g id="line2d_8">
      <g>
       <use xlink:href="#m72dc210554" x="275.356735" y="307.584" style="stroke: #000000; stroke-width: 0.8"/>
      </g>
     </g>
     <g id="text_4">
      <!-- 0.8 -->
      <g transform="translate(267.405172 322.182437) scale(0.1 -0.1)">
       <defs>
        <path id="DejaVuSans-38" d="M 2034 2216 
Q 1584 2216 1326 1975 
Q 1069 1734 1069 1313 
Q 1069 891 1326 650 
Q 1584 409 2034 409 
Q 2484 409 2743 651 
Q 3003 894 3003 1313 
Q 3003 1734 2745 1975 
Q 2488 2216 2034 2216 
z
M 1403 2484 
Q 997 2584 770 2862 
Q 544 3141 544 3541 
Q 544 4100 942 4425 
Q 1341 4750 2034 4750 
Q 2731 4750 3128 4425 
Q 3525 4100 3525 3541 
Q 3525 3141 3298 2862 
Q 3072 2584 2669 2484 
Q 3125 2378 3379 2068 
Q 3634 1759 3634 1313 
Q 3634 634 3220 271 
Q 2806 -91 2034 -91 
Q 1263 -91 848 271 
Q 434 634 434 1313 
Q 434 1759 690 2068 
Q 947 2378 1403 2484 
z
M 1172 3481 
Q 1172 3119 1398 2916 
Q 1625 2713 2034 2713 
Q 2441 2713 2670 2916 
Q 2900 3119 2900 3481 
Q 2900 3844 2670 4047 
Q 2441 4250 2034 4250 
Q 1625 4250 1398 4047 
Q 1172 3844 1172 3481 
z
" transform="scale(0.015625)"/>
       </defs>
       <use xlink:href="#DejaVuSans-30"/>
       <use xlink:href="#DejaVuSans-2e" x="63.623047"/>
       <use xlink:href="#DejaVuSans-38" x="95.410156"/>
      </g>
     </g>
    </g>
    <g id="xtick_5">
     <g id="line2d_9">
      <path d="M 334.383762 307.584 
L 334.383762 41.472 
" clip-path="url(#p8545b78198)" style="fill: none; stroke: #b0b0b0; stroke-width: 0.8; stroke-linecap: square"/>
     </g>
     <g id="line2d_10">
      <g>
       <use xlink:href="#m72dc210554" x="334.383762" y="307.584" style="stroke: #000000; stroke-width: 0.8"/>
      </g>
     </g>
     <g id="text_5">
      <!-- 1.0 -->
      <g transform="translate(326.432199 322.182437) scale(0.1 -0.1)">
       <defs>
        <path id="DejaVuSans-31" d="M 794 531 
L 1825 531 
L 1825 4091 
L 703 3866 
L 703 4441 
L 1819 4666 
L 2450 4666 
L 2450 531 
L 3481 531 
L 3481 0 
L 794 0 
L 794 531 
z
" transform="scale(0.015625)"/>
       </defs>
       <use xlink:href="#DejaVuSans-31"/>
       <use xlink:href="#DejaVuSans-2e" x="63.623047"/>
       <use xlink:href="#DejaVuSans-30" x="95.410156"/>
      </g>
     </g>
    </g>
    <g id="xtick_6">
     <g id="line2d_11">
      <path d="M 393.410789 307.584 
L 393.410789 41.472 
" clip-path="url(#p8545b78198)" style="fill: none; stroke: #b0b0b0; stroke-width: 0.8; stroke-linecap: square"/>
     </g>
     <g id="line2d_12">
      <g>
       <use xlink:href="#m72dc210554" x="393.410789" y="307.584" style="stroke: #000000; stroke-width: 0.8"/>
      </g>
     </g>
     <g id="text_6">
      <!-- 1.2 -->
      <g transform="translate(385.459227 322.182437) scale(0.1 -0.1)">
       <use xlink:href="#DejaVuSans-31"/>
       <use xlink:href="#DejaVuSans-2e" x="63.623047"/>
       <use xlink:href="#DejaVuSans-32" x="95.410156"/>
      </g>
     </g>
    </g>
    <g id="text_7">
     <!-- 1e−6 -->
     <g transform="translate(387.462188 334.860562) scale(0.1 -0.1)">
      <defs>
       <path id="DejaVuSans-65" d="M 3597 1894 
L 3597 1613 
L 953 1613 
Q 991 1019 1311 708 
Q 1631 397 2203 397 
Q 2534 397 2845 478 
Q 3156 559 3463 722 
L 3463 178 
Q 3153 47 2828 -22 
Q 2503 -91 2169 -91 
Q 1331 -91 842 396 
Q 353 884 353 1716 
Q 353 2575 817 3079 
Q 1281 3584 2069 3584 
Q 2775 3584 3186 3129 
Q 3597 2675 3597 1894 
z
M 3022 2063 
Q 3016 2534 2758 2815 
Q 2500 3097 2075 3097 
Q 1594 3097 1305 2825 
Q 1016 2553 972 2059 
L 3022 2063 
z
" transform="scale(0.015625)"/>
       <path id="DejaVuSans-2212" d="M 678 2272 
L 4684 2272 
L 4684 1741 
L 678 1741 
L 678 2272 
z
" transform="scale(0.015625)"/>
      </defs>
      <use xlink:href="#DejaVuSans-31"/>
      <use xlink:href="#DejaVuSans-65" x="63.623047"/>
      <use xlink:href="#DejaVuSans-2212" x="125.146484"/>
      <use xlink:href="#DejaVuSans-36" x="208.935547"/>
     </g>
    </g>
   </g>
   <g id="matplotlib.axis_2">
    <g id="ytick_1">
     <g id="line2d_13">
      <path d="M 57.6 295.488 
L 414.72 295.488 
" clip-path="url(#p8545b78198)" style="fill: none; stroke: #b0b0b0; stroke-width: 0.8; stroke-linecap: square"/>
     </g>
     <g id="line2d_14">
      <defs>
       <path id="mb8885f5951" d="M 0 0 
L -3.5 0 
" style="stroke: #000000; stroke-width: 0.8"/>
      </defs>
      <g>
       <use xlink:href="#mb8885f5951" x="57.6" y="295.488" style="stroke: #000000; stroke-width: 0.8"/>
      </g>
     </g>
     <g id="text_8">
      <!-- 0.0 -->
      <g transform="translate(34.696875 299.287219) scale(0.1 -0.1)">
       <use xlink:href="#DejaVuSans-30"/>
       <use xlink:href="#DejaVuSans-2e" x="63.623047"/>
       <use xlink:href="#DejaVuSans-30" x="95.410156"/>
      </g>
     </g>
    </g>
    <g id="ytick_2">
     <g id="line2d_15">
      <path d="M 57.6 247.104 
L 414.72 247.104 
" clip-path="url(#p8545b78198)" style="fill: none; stroke: #b0b0b0; stroke-width: 0.8; stroke-linecap: square"/>
     </g>
     <g id="line2d_16">
      <g>
       <use xlink:href="#mb8885f5951" x="57.6" y="247.104" style="stroke: #000000; stroke-width: 0.8"/>
      </g>
     </g>
     <g id="text_9">
      <!-- 0.2 -->
      <g transform="translate(34.696875 250.903219) scale(0.1 -0.1)">
       <use xlink:href="#DejaVuSans-30"/>
       <use xlink:href="#DejaVuSans-2e" x="63.623047"/>
       <use xlink:href="#DejaVuSans-32" x="95.410156"/>
      </g>
     </g>
    </g>
    <g id="ytick_3">
     <g id="line2d_17">
      <path d="M 57.6 198.72 
L 414.72 198.72 
" clip-path="url(#p8545b78198)" style="fill: none; stroke: #b0b0b0; stroke-width: 0.8; stroke-linecap: square"/>
     </g>
     <g id="line2d_18">
      <g>
       <use xlink:href="#mb8885f5951" x="57.6" y="198.72" style="stroke: #000000; stroke-width: 0.8"/>
      </g>
     </g>
     <g id="text_10">
      <!-- 0.4 -->
      <g transform="translate(34.696875 202.519219) scale(0.1 -0.1)">
       <use xlink:href="#DejaVuSans-30"/>
       <use xlink:href="#DejaVuSans-2e" x="63.623047"/>
       <use xlink:href="#DejaVuSans-34" x="95.410156"/>
      </g>
     </g>
    </g>
    <g id="ytick_4">
     <g id="line2d_19">
      <path d="M 57.6 150.336 
L 414.72 150.336 
" clip-path="url(#p8545b78198)" style="fill: none; stroke: #b0b0b0; stroke-width: 0.8; stroke-linecap: square"/>
     </g>
     <g id="line2d_20">
      <g>
       <use xlink:href="#mb8885f5951" x="57.6" y="150.336" style="stroke: #000000; stroke-width: 0.8"/>
      </g>
     </g>
     <g id="text_11">
      <!-- 0.6 -->
      <g transform="translate(34.696875 154.135219) scale(0.1 -0.1)">
       <use xlink:href="#DejaVuSans-30"/>
       <use xlink:href="#DejaVuSans-2e" x="63.623047"/>
       <use xlink:href="#DejaVuSans-36" x="95.410156"/>
      </g>
     </g>
    </g>
    <g id="ytick_5">
     <g id="line2d_21">
      <path d="M 57.6 101.952 
L 414.72 101.952 
" clip-path="url(#p8545b78198)" style="fill: none; stroke: #b0b0b0; stroke-width: 0.8; stroke-linecap: square"/>
     </g>
     <g id="line2d_22">
      <g>
       <use xlink:href="#mb8885f5951" x="57.6" y="101.952" style="stroke: #000000; stroke-width: 0.8"/>
      </g>
     </g>
     <g id="text_12">
      <!-- 0.8 -->
      <g transform="translate(34.696875 105.751219) scale(0.1 -0.1)">
       <use xlink:href="#DejaVuSans-30"/>
       <use xlink:href="#DejaVuSans-2e" x="63.623047"/>
       <use xlink:href="#DejaVuSans-38" x="95.410156"/>
      </g>
     </g>
    </g>
    <g id="ytick_6">
     <g id="line2d_23">
      <path d="M 57.6 53.568 
L 414.72 53.568 
" clip-path="url(#p8545b78198)" style="fill: none; stroke: #b0b0b0; stroke-width: 0.8; stroke-linecap: square"/>
     </g>
     <g id="line2d_24">
      <g>
       <use xlink:href="#mb8885f5951" x="57.6" y="53.568" style="stroke: #000000; stroke-width: 0.8"/>
      </g>
     </g>
     <g id="text_13">
      <!-- 1.0 -->
      <g transform="translate(34.696875 57.367219) scale(0.1 -0.1)">
       <use xlink:href="#DejaVuSans-31"/>
       <use xlink:href="#DejaVuSans-2e" x="63.623047"/>
       <use xlink:href="#DejaVuSans-30" x="95.410156"/>
      </g>
     </g>
    </g>
   </g>
   <g id="line2d_25">
    <path d="M 57.562472 294.772782 
L 58.313039 292.850589 
L 58.613266 292.623366 
L 58.913493 292.818079 
L 59.21372 293.406118 
L 59.814174 295.03599 
L 60.114401 294.296944 
L 60.714855 292.766138 
L 61.015082 292.525369 
L 61.315309 292.721379 
L 61.615536 293.325729 
L 62.21599 295.028376 
L 62.516217 294.270391 
L 63.116671 292.675693 
L 63.416898 292.420225 
L 63.717125 292.617462 
L 64.017352 293.239179 
L 64.617806 295.020073 
L 64.918033 294.242281 
L 65.518487 292.578567 
L 65.818714 292.307106 
L 65.968827 292.347467 
L 66.269054 292.775202 
L 66.719395 294.117283 
L 67.019622 295.010946 
L 67.169735 294.734134 
L 67.920303 292.473964 
L 68.22053 292.18505 
L 68.370643 292.223529 
L 68.67087 292.661831 
L 69.121211 294.052563 
L 69.421438 295.000828 
L 69.571551 294.723811 
L 70.322119 292.360951 
L 70.622346 292.052927 
L 70.772459 292.089256 
L 71.072686 292.538791 
L 71.523026 293.981987 
L 71.823253 294.989511 
L 71.973367 294.713198 
L 72.723934 292.238428 
L 73.024161 291.909406 
L 73.174275 291.943273 
L 73.474502 292.404781 
L 73.924842 293.904744 
L 74.225069 294.976736 
L 74.375183 294.702281 
L 75.12575 292.105088 
L 75.425977 291.752902 
L 75.576091 291.783944 
L 75.876318 292.258248 
L 76.326658 293.819864 
L 76.626885 294.962177 
L 76.776999 294.691042 
L 77.527566 291.959361 
L 77.827793 291.581508 
L 77.977907 291.609299 
L 78.278134 292.097324 
L 78.728474 293.726182 
L 79.028701 294.945427 
L 79.178815 294.679457 
L 79.929382 291.799345 
L 80.229609 291.392913 
L 80.379723 291.416946 
L 80.67995 291.919736 
L 81.13029 293.622271 
L 81.430517 294.925975 
L 81.580631 294.667499 
L 82.331198 291.622701 
L 82.631425 291.18427 
L 82.781538 291.203939 
L 83.081765 291.722681 
L 83.532106 293.506372 
L 83.832333 294.903173 
L 83.982446 294.655128 
L 84.733014 291.426519 
L 85.033241 290.95203 
L 85.183354 290.9666 
L 85.483581 291.502653 
L 85.933922 293.376279 
L 86.234149 294.8762 
L 86.384262 294.642288 
L 87.13483 291.207107 
L 87.435057 290.691682 
L 87.58517 290.700253 
L 87.885397 291.255185 
L 88.335738 293.229178 
L 88.635965 294.844002 
L 88.786078 294.628895 
L 89.536646 290.95968 
L 89.836873 290.397369 
L 89.986986 290.398816 
L 90.1371 290.593239 
L 90.437327 291.528621 
L 91.037781 294.805204 
L 91.187894 294.614816 
L 91.938462 290.677866 
L 92.238689 290.061266 
L 92.388802 290.054156 
L 92.538916 290.253321 
L 92.839142 291.237903 
L 93.439596 294.757992 
L 93.58971 294.599826 
L 94.340277 290.352856 
L 94.640504 289.672521 
L 94.790618 289.654967 
L 94.940731 289.859082 
L 95.240958 290.899718 
L 95.691299 293.684578 
L 95.841412 294.699904 
L 95.991526 294.583521 
L 96.742093 289.971847 
L 97.04232 289.215281 
L 97.192434 289.184692 
L 97.342547 289.393891 
L 97.642774 290.499312 
L 98.093115 293.503394 
L 98.243228 294.627471 
L 98.393342 294.565126 
L 99.143909 289.514813 
L 99.444136 288.664565 
L 99.59425 288.617138 
L 99.744363 288.831335 
L 100.04459 290.013082 
L 100.494931 293.281508 
L 100.645044 294.535484 
L 100.795158 294.54301 
L 101.545725 288.94677 
L 101.845952 287.976203 
L 101.996066 287.905689 
L 102.146179 288.124101 
L 102.446406 289.398255 
L 102.896747 292.99875 
L 103.04686 294.415182 
L 103.196974 294.513279 
L 104.097654 287.478038 
L 104.397881 286.94979 
L 104.547995 287.168991 
L 104.848222 288.559579 
L 105.298562 292.610212 
L 105.448676 294.248579 
L 105.598789 294.464748 
L 106.49947 286.165174 
L 106.799697 285.440662 
L 106.949811 285.642622 
L 107.250038 287.186806 
L 107.700378 291.966959 
L 107.850492 293.981588 
L 108.000605 294.353448 
L 108.901286 283.031885 
L 109.201513 281.610686 
L 109.351627 281.633484 
L 109.50174 282.193634 
L 109.801967 284.988513 
L 110.402421 293.873213 
L 111.152989 271.566529 
L 111.903556 250.653495 
L 112.353897 243.209743 
L 112.654124 241.287261 
L 112.804237 241.302786 
L 112.954351 241.967538 
L 113.254578 245.162909 
L 113.704918 254.019728 
L 114.455485 275.427085 
L 115.055939 292.853818 
L 115.206053 293.996129 
L 115.806507 282.721313 
L 116.106734 279.885979 
L 116.256847 279.266819 
L 116.406961 279.209838 
L 116.557074 279.723345 
L 116.857301 282.402628 
L 117.307642 289.818496 
L 117.607869 294.468401 
L 118.358436 280.692694 
L 118.658663 277.98108 
L 118.808777 277.563205 
L 118.95889 277.81922 
L 119.259117 280.35449 
L 119.709458 288.559992 
L 120.009685 294.581693 
L 120.910366 275.201295 
L 121.210593 272.98743 
L 121.360706 273.120612 
L 121.51082 274.123328 
L 121.811047 278.676796 
L 122.411501 294.662001 
L 123.312182 267.913209 
L 123.612409 264.289057 
L 123.762522 264.155382 
L 123.912636 265.238199 
L 124.212863 271.101 
L 124.663203 288.132558 
L 124.813317 294.709168 
L 125.864111 246.912207 
L 126.164338 242.613832 
L 126.314451 243.349757 
L 126.464565 246.233265 
L 126.764792 258.804962 
L 127.215132 294.218616 
L 127.665473 244.154116 
L 129.016494 78.798061 
L 129.316721 60.37121 
L 129.616948 53.568 
L 129.767062 54.75872 
L 130.067289 66.183284 
L 130.367516 88.682171 
L 130.96797 158.024126 
L 132.018764 292.144294 
L 132.318991 271.885083 
L 132.769332 248.048977 
L 133.069559 243.346854 
L 133.219672 244.081265 
L 133.519899 250.773032 
L 133.97024 269.997943 
L 134.42058 293.078938 
L 134.570694 290.280638 
L 135.021034 272.90779 
L 135.321261 266.535311 
L 135.471375 265.144561 
L 135.621488 264.948323 
L 135.771602 265.893179 
L 136.071828 270.811736 
L 136.522169 283.546379 
L 136.822396 293.325536 
L 136.972509 292.341094 
L 137.572963 277.504932 
L 137.87319 274.277646 
L 138.023304 273.907114 
L 138.173417 274.352867 
L 138.473644 277.482113 
L 138.923985 286.352295 
L 139.224212 293.392343 
L 139.374325 293.333524 
L 139.974779 282.032678 
L 140.275006 279.334985 
L 140.42512 278.922218 
L 140.575233 279.137425 
L 140.87546 281.323925 
L 141.325801 287.984402 
L 141.626028 293.368998 
L 141.776141 293.762057 
L 142.526709 283.496998 
L 142.826936 282.158542 
L 142.977049 282.243138 
L 143.127163 282.815355 
L 143.42739 285.267492 
L 144.177957 293.721897 
L 145.078638 284.853553 
L 145.228752 284.444591 
L 145.378865 284.448779 
L 145.528979 284.856065 
L 145.829206 286.759399 
L 146.579773 293.282604 
L 146.88 290.961369 
L 147.33034 287.22516 
L 147.630567 286.142134 
L 147.780681 286.107847 
L 147.930794 286.407413 
L 148.231021 287.902396 
L 148.831475 292.44593 
L 148.981589 292.348076 
L 149.281816 290.724601 
L 149.732156 288.053464 
L 150.032383 287.275363 
L 150.182497 287.295571 
L 150.33261 287.585058 
L 150.632837 288.842281 
L 151.083178 291.182162 
L 151.233291 291.075459 
L 151.683632 288.138106 
L 152.133972 285.930122 
L 152.284086 285.760739 
L 152.434199 285.94518 
L 152.734426 287.380806 
L 153.184767 290.319686 
L 153.33488 290.393496 
L 153.484994 288.944753 
L 153.935334 279.006193 
L 154.986129 253.681217 
L 155.436469 247.484087 
L 155.736696 246.041771 
L 155.88681 246.204504 
L 156.036923 246.962662 
L 156.33715 250.208124 
L 156.787491 258.865539 
L 158.138512 291.982823 
L 158.288625 291.037566 
L 158.738966 284.378008 
L 159.039193 282.060712 
L 159.189306 281.636711 
L 159.33942 281.685583 
L 159.489533 282.175666 
L 159.78976 284.284228 
L 160.690441 292.77463 
L 161.591122 286.000319 
L 161.741236 285.732452 
L 161.891349 285.784876 
L 162.191576 286.778654 
L 162.641917 289.847741 
L 163.092257 292.977578 
L 163.242371 292.587589 
L 163.842825 288.493305 
L 164.143052 287.549844 
L 164.293165 287.456835 
L 164.443279 287.616304 
L 164.743506 288.618549 
L 165.644187 292.991363 
L 166.394754 288.990139 
L 166.694981 288.467366 
L 166.845095 288.52906 
L 167.145322 289.254637 
L 167.595662 291.386328 
L 167.895889 292.916472 
L 168.046003 293.127714 
L 169.096797 289.167596 
L 169.24691 289.175144 
L 169.547137 289.72433 
L 169.997478 291.51309 
L 170.447818 293.157313 
L 170.748045 291.993085 
L 171.198386 290.224684 
L 171.498613 289.691951 
L 171.648726 289.668515 
L 171.948953 290.09414 
L 172.399294 291.608211 
L 172.849634 293.099141 
L 173.149861 292.167995 
L 173.600202 290.603327 
L 173.900429 290.102818 
L 174.050542 290.06293 
L 174.350769 290.396461 
L 174.80111 291.674201 
L 175.25145 292.994278 
L 175.551677 292.246118 
L 176.152131 290.600049 
L 176.452358 290.387234 
L 176.752585 290.649305 
L 177.202926 291.711103 
L 177.653266 292.851233 
L 177.80338 292.648107 
L 178.553947 290.842702 
L 178.854174 290.65821 
L 179.154401 290.863594 
L 179.604741 291.716362 
L 180.055082 292.660166 
L 180.205195 292.512163 
L 180.955763 291.0214 
L 181.25599 290.885903 
L 181.556217 291.046255 
L 182.006557 291.683798 
L 182.456898 292.405152 
L 182.607011 292.301389 
L 183.357579 291.136744 
L 183.657806 291.075869 
L 184.108146 291.314189 
L 185.008827 291.993764 
L 185.609281 291.235054 
L 185.909508 291.186457 
L 187.410643 291.540877 
L 187.860984 291.121889 
L 188.161211 291.131306 
L 188.761665 291.436557 
L 189.061892 291.283794 
L 189.662346 290.89559 
L 190.262799 290.665109 
L 190.563026 290.931324 
L 191.013367 291.54436 
L 191.16348 291.510513 
L 191.463707 290.986654 
L 192.064161 289.703384 
L 192.364388 289.502622 
L 192.514502 289.545089 
L 192.814729 289.99364 
L 193.415183 291.641412 
L 193.565296 291.532019 
L 193.865523 290.233136 
L 194.465977 287.105251 
L 194.766204 286.514266 
L 194.916318 286.603031 
L 195.216545 287.627241 
L 195.816999 291.675152 
L 195.967112 291.366803 
L 196.267339 287.296134 
L 197.618361 264.657072 
L 197.918588 262.365405 
L 198.068701 261.827717 
L 198.218815 261.707563 
L 198.368928 262.001346 
L 198.669155 263.768171 
L 199.119496 268.91244 
L 200.770744 292.028619 
L 200.920858 292.240578 
L 201.070971 291.834263 
L 201.521311 289.803657 
L 201.821538 289.204278 
L 202.121765 289.154458 
L 202.421992 289.620484 
L 203.022446 291.440625 
L 203.472787 292.898954 
L 203.6229 292.927236 
L 204.073241 291.045845 
L 204.523581 289.524321 
L 204.673695 289.367197 
L 204.823808 289.39387 
L 205.124035 289.98475 
L 206.024716 293.049243 
L 207.075511 287.758936 
L 207.225624 287.802386 
L 207.375738 288.128428 
L 207.675965 289.562967 
L 208.276419 292.880236 
L 208.426532 292.627035 
L 209.1771 285.791427 
L 209.477327 284.734443 
L 209.62744 284.789297 
L 209.777554 285.261976 
L 210.077781 287.440441 
L 210.678235 292.760149 
L 210.828348 291.380121 
L 211.578916 279.695287 
L 211.879142 277.563857 
L 212.029256 277.437078 
L 212.179369 278.026847 
L 212.479596 281.516527 
L 213.08005 292.207382 
L 213.530391 274.065286 
L 214.731299 223.105717 
L 215.181639 214.159961 
L 215.331753 213.198995 
L 215.481866 213.30503 
L 215.63198 214.474996 
L 215.932207 219.871116 
L 216.382547 234.501302 
L 217.733569 292.171283 
L 217.883682 291.512344 
L 218.334023 281.340331 
L 218.63425 278.106845 
L 218.784363 277.624758 
L 218.934477 277.841445 
L 219.234704 280.09283 
L 219.685044 286.624358 
L 219.985271 291.357782 
L 220.135385 292.272034 
L 220.285498 292.102094 
L 221.186179 284.786381 
L 221.336293 284.756479 
L 221.486406 285.118842 
L 221.786633 286.86405 
L 222.387087 291.615376 
L 222.537201 292.171564 
L 222.687314 292.141681 
L 222.837427 291.590215 
L 223.437881 287.787419 
L 223.738108 287.31031 
L 223.888222 287.491165 
L 224.188449 288.507266 
L 225.08913 292.074127 
L 225.239243 291.732251 
L 226.139924 287.754142 
L 226.440151 287.477221 
L 226.590265 287.658643 
L 226.890492 288.714509 
L 227.490946 291.92906 
L 227.641059 291.674436 
L 227.791173 290.966364 
L 228.691854 283.830942 
L 228.841967 283.337523 
L 228.992081 283.236497 
L 229.142194 283.570578 
L 229.442421 285.643176 
L 230.042875 291.486893 
L 230.192989 289.690745 
L 230.643329 277.785258 
L 231.694124 248.565726 
L 232.144464 241.927702 
L 232.444691 240.740086 
L 232.594805 241.182612 
L 232.895032 244.090861 
L 233.345372 252.904657 
L 234.095939 274.559687 
L 234.696393 290.129665 
L 234.846507 290.9302 
L 234.99662 290.640575 
L 235.597074 284.32807 
L 235.897301 283.587279 
L 236.047415 283.859164 
L 236.347642 285.438158 
L 236.948096 289.748408 
L 237.248323 290.114738 
L 237.54855 290.203121 
L 237.848777 289.362634 
L 238.149004 288.553941 
L 238.299117 288.422745 
L 238.449231 288.477485 
L 238.899571 289.099941 
L 239.049685 288.819084 
L 240.100479 285.032766 
L 240.250593 285.046823 
L 240.55082 285.591811 
L 241.00116 287.336031 
L 241.901841 291.189508 
L 242.051955 291.405889 
L 242.202068 291.373734 
L 242.652409 290.992611 
L 242.952636 291.096305 
L 243.853317 292.070293 
L 244.153544 291.543752 
L 244.603884 290.555053 
L 244.904111 290.383711 
L 245.204338 290.765485 
L 245.954905 292.499985 
L 246.105019 292.493966 
L 246.405246 291.607836 
L 247.0057 289.559918 
L 247.155813 289.40486 
L 247.305927 289.4444 
L 247.606154 290.105559 
L 248.356721 292.967696 
L 248.506835 292.782347 
L 248.957175 290.304604 
L 249.407516 288.377361 
L 249.557629 288.160543 
L 249.707743 288.196091 
L 249.857856 288.489293 
L 250.158083 289.803295 
L 250.758537 293.312761 
L 250.908651 292.975445 
L 251.809332 286.770072 
L 251.959445 286.432883 
L 252.109559 286.417445 
L 252.259672 286.734555 
L 252.559899 288.337621 
L 253.160353 293.537514 
L 253.310467 293.110367 
L 254.211148 284.330145 
L 254.511375 283.642793 
L 254.661488 283.94926 
L 254.961715 285.885669 
L 255.412055 291.546668 
L 255.562169 293.516767 
L 255.712282 293.19688 
L 256.612963 280.070529 
L 256.91319 278.667497 
L 257.063304 278.877067 
L 257.213417 279.735004 
L 257.513644 283.382608 
L 258.114098 293.218846 
L 259.164893 268.396425 
L 259.315006 267.070663 
L 259.46512 266.742169 
L 259.615233 267.513449 
L 259.91546 272.635081 
L 260.215687 282.685076 
L 260.515914 293.047045 
L 261.116368 253.222476 
L 262.167163 181.133714 
L 262.617503 164.471728 
L 262.91773 161.200711 
L 263.067844 162.085222 
L 263.368071 168.801415 
L 263.818411 189.871889 
L 264.568979 242.941752 
L 265.319546 294.091208 
L 266.070113 268.398358 
L 266.37034 265.903985 
L 266.520454 266.374897 
L 266.820681 270.230015 
L 267.271021 281.14559 
L 267.721362 293.968841 
L 267.871475 292.24155 
L 268.321816 282.443464 
L 268.622043 278.794858 
L 268.772156 277.988334 
L 268.92227 277.862103 
L 269.072383 278.387918 
L 269.37261 281.178521 
L 269.822951 288.461985 
L 270.123178 293.953865 
L 270.273291 293.552178 
L 270.873745 285.01243 
L 271.173972 283.06581 
L 271.324086 282.811566 
L 271.474199 283.033264 
L 271.774426 284.791628 
L 272.224767 289.9149 
L 272.524994 293.96729 
L 272.675107 294.153085 
L 273.275561 287.557014 
L 273.575788 285.874468 
L 273.725902 285.584078 
L 273.876015 285.667296 
L 274.176242 286.889354 
L 274.626583 290.792101 
L 275.076923 294.459033 
L 275.827491 288.276008 
L 276.127718 287.380039 
L 276.277831 287.389081 
L 276.427945 287.697328 
L 276.728172 289.12706 
L 277.478739 294.611277 
L 278.37942 288.975077 
L 278.529533 288.687768 
L 278.679647 288.657861 
L 278.82976 288.881308 
L 279.129987 290.02276 
L 279.880555 294.655484 
L 280.180782 292.956221 
L 280.631122 290.527591 
L 280.931349 289.819833 
L 281.081463 289.782589 
L 281.231576 289.947567 
L 281.83203 291.17011 
L 281.982144 291.079773 
L 282.432484 290.219405 
L 283.183052 288.728867 
L 283.333165 288.640573 
L 283.483279 288.743009 
L 283.783506 289.535517 
L 284.233846 291.977901 
L 284.684187 294.755161 
L 284.8343 294.31778 
L 285.434754 290.98041 
L 285.734981 290.194379 
L 285.885095 290.09615 
L 286.035208 290.197958 
L 286.335435 290.966495 
L 286.785776 293.210228 
L 287.086003 294.76156 
L 287.236116 294.507792 
L 287.986683 291.083068 
L 288.28691 290.667151 
L 288.437024 290.727505 
L 288.737251 291.362856 
L 289.187591 293.331358 
L 289.487818 294.757998 
L 289.637932 294.630384 
L 290.388499 291.500899 
L 290.688726 291.080696 
L 290.83884 291.115259 
L 291.139067 291.659146 
L 291.589407 293.426105 
L 291.889634 294.752804 
L 292.039748 294.720862 
L 292.790315 291.832189 
L 293.090542 291.411715 
L 293.240656 291.427079 
L 293.540883 291.899808 
L 293.991223 293.505675 
L 294.29145 294.74752 
L 294.441564 294.789514 
L 295.342245 291.828398 
L 295.642472 291.687503 
L 295.942699 292.102338 
L 296.393039 293.574657 
L 296.693266 294.742673 
L 296.84338 294.841821 
L 297.744061 292.066072 
L 298.044288 291.909687 
L 298.344515 292.276308 
L 298.794855 293.635564 
L 299.095082 294.738437 
L 299.245195 294.88139 
L 300.29599 292.123929 
L 300.446103 292.101957 
L 300.74633 292.427821 
L 301.196671 293.689985 
L 301.647011 294.910657 
L 302.697806 292.300296 
L 302.847919 292.270043 
L 303.148146 292.56109 
L 303.448373 293.268176 
L 304.048827 294.930465 
L 304.499168 293.636397 
L 304.949508 292.60427 
L 305.249735 292.418072 
L 305.549962 292.679154 
L 305.850189 293.339572 
L 306.450643 294.940059 
L 306.75087 294.195655 
L 307.201211 292.991269 
L 307.501438 292.591946 
L 307.801665 292.61423 
L 308.101892 293.051459 
L 308.852459 294.942638 
L 309.152686 294.265035 
L 309.75314 292.862356 
L 310.053367 292.665303 
L 310.353594 292.877974 
L 310.653821 293.46139 
L 311.254275 294.941023 
L 311.554502 294.322868 
L 312.154956 292.968947 
L 312.455183 292.768329 
L 312.75541 292.961487 
L 313.055637 293.513116 
L 313.656091 294.935877 
L 313.956318 294.369586 
L 314.556772 293.062334 
L 314.856999 292.859166 
L 315.157226 293.035437 
L 315.457453 293.559092 
L 316.057907 294.927 
L 316.358134 294.404945 
L 316.958588 293.143038 
L 317.258815 292.938198 
L 317.559042 293.099945 
L 317.859269 293.599128 
L 318.459723 294.913549 
L 318.75995 294.427799 
L 319.360404 293.210789 
L 319.660631 293.004995 
L 319.960858 293.154363 
L 320.261084 293.632398 
L 320.861538 294.893868 
L 321.161765 294.435621 
L 321.762219 293.264135 
L 322.062446 293.057795 
L 322.362673 293.196651 
L 322.6629 293.656794 
L 323.263354 294.864974 
L 323.563581 294.42351 
L 324.164035 293.29945 
L 324.464262 293.092079 
L 324.764489 293.221575 
L 325.064716 293.666985 
L 325.66517 294.821429 
L 325.965397 294.38209 
L 326.715965 293.162143 
L 327.016192 293.112874 
L 327.316419 293.394611 
L 327.766759 294.303025 
L 328.066986 294.75279 
L 328.517327 294.018076 
L 329.117781 293.102171 
L 329.418008 293.019478 
L 329.718235 293.273041 
L 330.168575 294.179878 
L 330.468802 294.636671 
L 330.919142 293.763432 
L 331.969937 291.610753 
L 332.420277 291.304557 
L 332.870618 291.332816 
L 333.471072 291.717037 
L 334.071526 292.252971 
L 334.521866 293.325352 
L 334.972207 294.649435 
L 335.12232 294.505905 
L 336.023001 291.733718 
L 336.323228 291.570213 
L 336.473342 291.710421 
L 336.773569 292.443277 
L 337.374023 294.50496 
L 337.67425 292.358126 
L 339.025271 281.074489 
L 339.325498 279.79214 
L 339.625725 279.288193 
L 339.775839 279.343007 
L 340.076066 280.055603 
L 340.376293 281.505831 
L 340.976747 286.030179 
L 341.877427 293.689766 
L 342.027541 294.320882 
L 342.177654 294.426651 
L 342.477881 293.379364 
L 342.928222 292.155147 
L 343.228449 292.016022 
L 343.528676 292.342995 
L 344.729584 294.580419 
L 345.630265 293.343244 
L 345.930492 293.38986 
L 346.380832 293.768938 
L 347.1314 294.696281 
L 347.281513 294.663723 
L 348.032081 293.858561 
L 348.482421 293.749883 
L 348.932762 293.999605 
L 349.683329 294.809935 
L 350.13367 294.389562 
L 350.734124 293.907173 
L 351.034351 293.878555 
L 351.334578 294.03012 
L 352.235259 294.844682 
L 353.436166 293.925001 
L 353.736393 294.05519 
L 354.186734 294.586021 
L 354.486961 294.928814 
L 354.637074 294.930356 
L 355.087415 294.482318 
L 355.537755 294.052323 
L 355.837982 293.960573 
L 356.138209 294.078129 
L 356.58855 294.595349 
L 356.888777 294.955879 
L 357.03889 294.987794 
L 357.339117 294.731609 
L 357.939571 294.093183 
L 358.239798 293.991449 
L 358.540025 294.099953 
L 358.990366 294.60436 
L 359.290593 294.974242 
L 359.440706 295.028036 
L 359.740933 294.784228 
L 360.341387 294.127284 
L 360.641614 294.019735 
L 360.941841 294.121017 
L 361.392182 294.613164 
L 361.842522 295.056891 
L 362.142749 294.824698 
L 362.743203 294.157651 
L 363.04343 294.046312 
L 363.343657 294.141457 
L 363.793997 294.621804 
L 364.244338 295.077472 
L 364.544565 294.857269 
L 365.145019 294.185603 
L 365.445246 294.071604 
L 365.745473 294.161328 
L 366.195813 294.6303 
L 366.646154 295.093107 
L 366.946381 294.884471 
L 367.546835 294.211797 
L 367.847062 294.09584 
L 368.147289 294.180658 
L 368.597629 294.638659 
L 369.04797 295.105587 
L 369.348197 294.907854 
L 369.948651 294.236603 
L 370.248878 294.119153 
L 370.549105 294.199461 
L 370.999445 294.646885 
L 371.449786 295.115811 
L 371.599899 295.080478 
L 372.650694 294.141632 
L 372.950921 294.217752 
L 373.401261 294.654979 
L 373.851602 295.124345 
L 374.001715 295.096099 
L 375.052509 294.163338 
L 375.352736 294.235542 
L 375.803077 294.662941 
L 376.253417 295.131583 
L 376.403531 295.109677 
L 377.454325 294.184322 
L 377.754552 294.252845 
L 378.204893 294.670772 
L 378.655233 295.137807 
L 378.805347 295.121659 
L 379.856141 294.204623 
L 380.156368 294.269674 
L 380.606709 294.678472 
L 381.057049 295.143227 
L 381.207163 295.13237 
L 382.257957 294.224277 
L 382.558184 294.286043 
L 383.008525 294.686043 
L 383.458865 295.148002 
L 383.608979 295.142037 
L 384.659773 294.243315 
L 384.96 294.301967 
L 385.41034 294.693485 
L 385.860681 295.152256 
L 386.010794 295.150823 
L 387.061589 294.261765 
L 387.361816 294.317461 
L 387.812156 294.700801 
L 388.262497 295.156083 
L 388.41261 295.158844 
L 389.463405 294.279654 
L 389.763632 294.33254 
L 390.213972 294.707991 
L 390.664313 295.159557 
L 390.814426 295.166187 
L 392.015334 294.300428 
L 392.315561 294.435192 
L 393.216242 295.172922 
L 394.41715 294.316286 
L 394.717377 294.447402 
L 395.618058 295.179112 
L 396.818966 294.331705 
L 397.119193 294.459318 
L 398.019874 295.184823 
L 399.220782 294.346702 
L 399.671122 294.588621 
L 400.42169 295.190118 
L 400.87203 294.746576 
L 401.322371 294.402923 
L 401.622598 294.361294 
L 402.072938 294.597729 
L 402.823506 295.195056 
L 403.273846 294.759148 
L 403.724187 294.418159 
L 404.024414 294.375497 
L 404.474754 294.606647 
L 405.225322 295.199686 
L 405.675662 294.771303 
L 406.126003 294.432956 
L 406.42623 294.389326 
L 406.87657 294.61538 
L 407.627137 295.204048 
L 408.077478 294.783061 
L 408.527818 294.447334 
L 408.828045 294.402796 
L 409.278386 294.623933 
L 410.028953 295.208172 
L 410.479294 294.794443 
L 410.929634 294.461311 
L 411.229861 294.41592 
L 411.680202 294.632312 
L 412.430769 295.212084 
L 412.88111 294.805467 
L 413.33145 294.474902 
L 413.631677 294.428712 
L 414.082018 294.640522 
L 414.832585 295.215806 
L 414.832585 295.215806 
" clip-path="url(#p8545b78198)" style="fill: none; stroke: #98fb98; stroke-width: 1.25; stroke-linecap: square"/>
   </g>
   <g id="line2d_26">
    <path d="M 56.061337 292.066146 
L 68.070416 291.433312 
L 77.67768 290.715371 
L 84.883127 289.969121 
L 89.686759 289.313345 
L 94.490391 288.458558 
L 99.294023 287.273912 
L 101.695839 286.467915 
L 104.097654 285.395674 
L 106.49947 283.741502 
L 108.901286 279.793646 
L 111.303102 259.460099 
L 113.704918 243.239145 
L 116.106734 275.829892 
L 118.50855 274.766515 
L 120.910366 269.927322 
L 123.312182 260.744539 
L 125.713997 240.06868 
L 128.115813 154.01566 
L 130.517629 53.568 
L 132.919445 231.397274 
L 135.321261 259.008427 
L 137.723077 270.280396 
L 140.124893 276.450914 
L 142.526709 280.379675 
L 144.928525 283.116208 
L 147.33034 285.077054 
L 149.732156 286.120694 
L 152.133972 283.445343 
L 154.535788 255.228787 
L 156.937604 253.976826 
L 159.33942 278.097343 
L 161.741236 283.196285 
L 164.143052 285.486147 
L 166.544868 286.836773 
L 168.946683 287.751764 
L 171.348499 288.42136 
L 173.750315 288.932469 
L 178.553947 289.635055 
L 183.357579 290.00554 
L 185.759395 290.061007 
L 188.161211 289.998688 
L 190.563026 289.746717 
L 192.964842 289.072562 
L 195.366658 286.734329 
L 197.768474 254.949791 
L 200.17029 283.430641 
L 202.572106 288.581952 
L 204.973922 288.068132 
L 207.375738 286.215146 
L 209.777554 282.603498 
L 212.179369 273.487439 
L 214.581185 210.303111 
L 216.983001 252.388417 
L 219.384817 278.434994 
L 221.786633 284.622065 
L 224.188449 286.692472 
L 226.590265 285.623231 
L 228.992081 280.051451 
L 231.393897 245.27931 
L 233.795712 257.580037 
L 236.197528 281.639915 
L 238.599344 286.918323 
L 241.00116 285.216749 
L 243.402976 290.634094 
L 245.804792 291.497375 
L 248.206608 291.993051 
L 250.608424 292.121099 
L 253.01024 291.727815 
L 255.412055 290.522033 
L 257.813871 287.701186 
L 260.215687 279.356676 
L 262.617503 130.411185 
L 265.019319 270.735143 
L 267.421135 282.901473 
L 269.822951 286.635419 
L 272.224767 288.466051 
L 274.626583 289.571299 
L 277.028398 290.335364 
L 279.430214 290.953537 
L 281.83203 290.04758 
L 284.233846 291.065373 
L 286.635662 291.544072 
L 291.439294 292.028402 
L 298.644741 292.477497 
L 310.653821 292.934528 
L 322.6629 293.180732 
L 327.466532 293.168057 
L 329.868348 293.005231 
L 332.270164 290.291881 
L 334.67198 293.359798 
L 337.073796 293.133608 
L 339.475612 275.266389 
L 341.877427 293.222275 
L 344.279243 293.726093 
L 353.886507 293.858769 
L 411.530088 294.274854 
L 416.33372 294.300058 
L 416.33372 294.300058 
" clip-path="url(#p8545b78198)" style="fill: none; stroke-dasharray: 2.5,4.125; stroke-dashoffset: 0; stroke: #f08080; stroke-width: 2.5"/>
   </g>
   <g id="LineCollection_1">
    <path d="M 112.654124 295.488 
L 112.654124 241.287261 
" clip-path="url(#p8545b78198)" style="fill: none; stroke: #191970; stroke-width: 2.5"/>
    <path d="M 129.616948 295.488 
L 129.616948 53.568 
" clip-path="url(#p8545b78198)" style="fill: none; stroke: #191970; stroke-width: 2.5"/>
    <path d="M 155.736696 295.488 
L 155.736696 246.041771 
" clip-path="url(#p8545b78198)" style="fill: none; stroke: #191970; stroke-width: 2.5"/>
    <path d="M 198.218815 295.488 
L 198.218815 261.707563 
" clip-path="url(#p8545b78198)" style="fill: none; stroke: #191970; stroke-width: 2.5"/>
    <path d="M 215.331753 295.488 
L 215.331753 213.198995 
" clip-path="url(#p8545b78198)" style="fill: none; stroke: #191970; stroke-width: 2.5"/>
    <path d="M 232.444691 295.488 
L 232.444691 240.740086 
" clip-path="url(#p8545b78198)" style="fill: none; stroke: #191970; stroke-width: 2.5"/>
    <path d="M 262.91773 295.488 
L 262.91773 161.200711 
" clip-path="url(#p8545b78198)" style="fill: none; stroke: #191970; stroke-width: 2.5"/>
    <path d="M 332.570391 295.488 
L 332.570391 291.281722 
" clip-path="url(#p8545b78198)" style="fill: none; stroke: #191970; stroke-width: 2.5"/>
    <path d="M 339.625725 295.488 
L 339.625725 279.288193 
" clip-path="url(#p8545b78198)" style="fill: none; stroke: #191970; stroke-width: 2.5"/>
   </g>
   <g id="LineCollection_2">
    <path d="M 39.248625 295.48794 
L 461.8 295.48794 
" clip-path="url(#p8545b78198)" style="fill: none; stroke: #000000; stroke-width: 0.75"/>
    <path d="M 39.248625 295.487926 
L 461.8 295.487926 
" clip-path="url(#p8545b78198)" style="fill: none; stroke: #000000; stroke-width: 0.75"/>
    <path d="M 39.248625 295.487905 
L 461.8 295.487905 
" clip-path="url(#p8545b78198)" style="fill: none; stroke: #000000; stroke-width: 0.75"/>
    <path d="M 39.248625 295.48787 
L 461.8 295.48787 
" clip-path="url(#p8545b78198)" style="fill: none; stroke: #000000; stroke-width: 0.75"/>
    <path d="M 39.248625 295.487856 
L 461.8 295.487856 
" clip-path="url(#p8545b78198)" style="fill: none; stroke: #000000; stroke-width: 0.75"/>
    <path d="M 39.248625 295.487842 
L 461.8 295.487842 
" clip-path="url(#p8545b78198)" style="fill: none; stroke: #000000; stroke-width: 0.75"/>
    <path d="M 39.248625 295.487817 
L 461.8 295.487817 
" clip-path="url(#p8545b78198)" style="fill: none; stroke: #000000; stroke-width: 0.75"/>
    <path d="M 39.248625 295.48776 
L 461.8 295.48776 
" clip-path="url(#p8545b78198)" style="fill: none; stroke: #000000; stroke-width: 0.75"/>
    <path d="M 39.248625 295.487754 
L 461.8 295.487754 
" clip-path="url(#p8545b78198)" style="fill: none; stroke: #000000; stroke-width: 0.75"/>
   </g>
   <g id="patch_3">
    <path d="M 57.6 307.584 
L 57.6 41.472 
" style="fill: none; stroke: #000000; stroke-width: 0.8; stroke-linejoin: miter; stroke-linecap: square"/>
   </g>
   <g id="patch_4">
    <path d="M 414.72 307.584 
L 414.72 41.472 
" style="fill: none; stroke: #000000; stroke-width: 0.8; stroke-linejoin: miter; stroke-linecap: square"/>
   </g>
   <g id="patch_5">
    <path d="M 57.6 307.584 
L 414.72 307.584 
" style="fill: none; stroke: #000000; stroke-width: 0.8; stroke-linejoin: miter; stroke-linecap: square"/>
   </g>
   <g id="patch_6">
    <path d="M 57.6 41.472 
L 414.72 41.472 
" style="fill: none; stroke: #000000; stroke-width: 0.8; stroke-linejoin: miter; stroke-linecap: square"/>
   </g>
   <g id="text_14">
    <!-- Normalized Power Delay Profile -->
    <g transform="translate(142.415625 35.472) scale(0.12 -0.12)">
     <defs>
      <path id="DejaVuSans-4e" d="M 628 4666 
L 1478 4666 
L 3547 763 
L 3547 4666 
L 4159 4666 
L 4159 0 
L 3309 0 
L 1241 3903 
L 1241 0 
L 628 0 
L 628 4666 
z
" transform="scale(0.015625)"/>
      <path id="DejaVuSans-6f" d="M 1959 3097 
Q 1497 3097 1228 2736 
Q 959 2375 959 1747 
Q 959 1119 1226 758 
Q 1494 397 1959 397 
Q 2419 397 2687 759 
Q 2956 1122 2956 1747 
Q 2956 2369 2687 2733 
Q 2419 3097 1959 3097 
z
M 1959 3584 
Q 2709 3584 3137 3096 
Q 3566 2609 3566 1747 
Q 3566 888 3137 398 
Q 2709 -91 1959 -91 
Q 1206 -91 779 398 
Q 353 888 353 1747 
Q 353 2609 779 3096 
Q 1206 3584 1959 3584 
z
" transform="scale(0.015625)"/>
      <path id="DejaVuSans-72" d="M 2631 2963 
Q 2534 3019 2420 3045 
Q 2306 3072 2169 3072 
Q 1681 3072 1420 2755 
Q 1159 2438 1159 1844 
L 1159 0 
L 581 0 
L 581 3500 
L 1159 3500 
L 1159 2956 
Q 1341 3275 1631 3429 
Q 1922 3584 2338 3584 
Q 2397 3584 2469 3576 
Q 2541 3569 2628 3553 
L 2631 2963 
z
" transform="scale(0.015625)"/>
      <path id="DejaVuSans-6d" d="M 3328 2828 
Q 3544 3216 3844 3400 
Q 4144 3584 4550 3584 
Q 5097 3584 5394 3201 
Q 5691 2819 5691 2113 
L 5691 0 
L 5113 0 
L 5113 2094 
Q 5113 2597 4934 2840 
Q 4756 3084 4391 3084 
Q 3944 3084 3684 2787 
Q 3425 2491 3425 1978 
L 3425 0 
L 2847 0 
L 2847 2094 
Q 2847 2600 2669 2842 
Q 2491 3084 2119 3084 
Q 1678 3084 1418 2786 
Q 1159 2488 1159 1978 
L 1159 0 
L 581 0 
L 581 3500 
L 1159 3500 
L 1159 2956 
Q 1356 3278 1631 3431 
Q 1906 3584 2284 3584 
Q 2666 3584 2933 3390 
Q 3200 3197 3328 2828 
z
" transform="scale(0.015625)"/>
      <path id="DejaVuSans-61" d="M 2194 1759 
Q 1497 1759 1228 1600 
Q 959 1441 959 1056 
Q 959 750 1161 570 
Q 1363 391 1709 391 
Q 2188 391 2477 730 
Q 2766 1069 2766 1631 
L 2766 1759 
L 2194 1759 
z
M 3341 1997 
L 3341 0 
L 2766 0 
L 2766 531 
Q 2569 213 2275 61 
Q 1981 -91 1556 -91 
Q 1019 -91 701 211 
Q 384 513 384 1019 
Q 384 1609 779 1909 
Q 1175 2209 1959 2209 
L 2766 2209 
L 2766 2266 
Q 2766 2663 2505 2880 
Q 2244 3097 1772 3097 
Q 1472 3097 1187 3025 
Q 903 2953 641 2809 
L 641 3341 
Q 956 3463 1253 3523 
Q 1550 3584 1831 3584 
Q 2591 3584 2966 3190 
Q 3341 2797 3341 1997 
z
" transform="scale(0.015625)"/>
      <path id="DejaVuSans-6c" d="M 603 4863 
L 1178 4863 
L 1178 0 
L 603 0 
L 603 4863 
z
" transform="scale(0.015625)"/>
      <path id="DejaVuSans-69" d="M 603 3500 
L 1178 3500 
L 1178 0 
L 603 0 
L 603 3500 
z
M 603 4863 
L 1178 4863 
L 1178 4134 
L 603 4134 
L 603 4863 
z
" transform="scale(0.015625)"/>
      <path id="DejaVuSans-7a" d="M 353 3500 
L 3084 3500 
L 3084 2975 
L 922 459 
L 3084 459 
L 3084 0 
L 275 0 
L 275 525 
L 2438 3041 
L 353 3041 
L 353 3500 
z
" transform="scale(0.015625)"/>
      <path id="DejaVuSans-64" d="M 2906 2969 
L 2906 4863 
L 3481 4863 
L 3481 0 
L 2906 0 
L 2906 525 
Q 2725 213 2448 61 
Q 2172 -91 1784 -91 
Q 1150 -91 751 415 
Q 353 922 353 1747 
Q 353 2572 751 3078 
Q 1150 3584 1784 3584 
Q 2172 3584 2448 3432 
Q 2725 3281 2906 2969 
z
M 947 1747 
Q 947 1113 1208 752 
Q 1469 391 1925 391 
Q 2381 391 2643 752 
Q 2906 1113 2906 1747 
Q 2906 2381 2643 2742 
Q 2381 3103 1925 3103 
Q 1469 3103 1208 2742 
Q 947 2381 947 1747 
z
" transform="scale(0.015625)"/>
      <path id="DejaVuSans-20" transform="scale(0.015625)"/>
      <path id="DejaVuSans-50" d="M 1259 4147 
L 1259 2394 
L 2053 2394 
Q 2494 2394 2734 2622 
Q 2975 2850 2975 3272 
Q 2975 3691 2734 3919 
Q 2494 4147 2053 4147 
L 1259 4147 
z
M 628 4666 
L 2053 4666 
Q 2838 4666 3239 4311 
Q 3641 3956 3641 3272 
Q 3641 2581 3239 2228 
Q 2838 1875 2053 1875 
L 1259 1875 
L 1259 0 
L 628 0 
L 628 4666 
z
" transform="scale(0.015625)"/>
      <path id="DejaVuSans-77" d="M 269 3500 
L 844 3500 
L 1563 769 
L 2278 3500 
L 2956 3500 
L 3675 769 
L 4391 3500 
L 4966 3500 
L 4050 0 
L 3372 0 
L 2619 2869 
L 1863 0 
L 1184 0 
L 269 3500 
z
" transform="scale(0.015625)"/>
      <path id="DejaVuSans-44" d="M 1259 4147 
L 1259 519 
L 2022 519 
Q 2988 519 3436 956 
Q 3884 1394 3884 2338 
Q 3884 3275 3436 3711 
Q 2988 4147 2022 4147 
L 1259 4147 
z
M 628 4666 
L 1925 4666 
Q 3281 4666 3915 4102 
Q 4550 3538 4550 2338 
Q 4550 1131 3912 565 
Q 3275 0 1925 0 
L 628 0 
L 628 4666 
z
" transform="scale(0.015625)"/>
      <path id="DejaVuSans-79" d="M 2059 -325 
Q 1816 -950 1584 -1140 
Q 1353 -1331 966 -1331 
L 506 -1331 
L 506 -850 
L 844 -850 
Q 1081 -850 1212 -737 
Q 1344 -625 1503 -206 
L 1606 56 
L 191 3500 
L 800 3500 
L 1894 763 
L 2988 3500 
L 3597 3500 
L 2059 -325 
z
" transform="scale(0.015625)"/>
      <path id="DejaVuSans-66" d="M 2375 4863 
L 2375 4384 
L 1825 4384 
Q 1516 4384 1395 4259 
Q 1275 4134 1275 3809 
L 1275 3500 
L 2222 3500 
L 2222 3053 
L 1275 3053 
L 1275 0 
L 697 0 
L 697 3053 
L 147 3053 
L 147 3500 
L 697 3500 
L 697 3744 
Q 697 4328 969 4595 
Q 1241 4863 1831 4863 
L 2375 4863 
z
" transform="scale(0.015625)"/>
     </defs>
     <use xlink:href="#DejaVuSans-4e"/>
     <use xlink:href="#DejaVuSans-6f" x="74.804688"/>
     <use xlink:href="#DejaVuSans-72" x="135.986328"/>
     <use xlink:href="#DejaVuSans-6d" x="175.349609"/>
     <use xlink:href="#DejaVuSans-61" x="272.761719"/>
     <use xlink:href="#DejaVuSans-6c" x="334.041016"/>
     <use xlink:href="#DejaVuSans-69" x="361.824219"/>
     <use xlink:href="#DejaVuSans-7a" x="389.607422"/>
     <use xlink:href="#DejaVuSans-65" x="442.097656"/>
     <use xlink:href="#DejaVuSans-64" x="503.621094"/>
     <use xlink:href="#DejaVuSans-20" x="567.097656"/>
     <use xlink:href="#DejaVuSans-50" x="598.884766"/>
     <use xlink:href="#DejaVuSans-6f" x="655.5625"/>
     <use xlink:href="#DejaVuSans-77" x="716.744141"/>
     <use xlink:href="#DejaVuSans-65" x="798.53125"/>
     <use xlink:href="#DejaVuSans-72" x="860.054688"/>
     <use xlink:href="#DejaVuSans-20" x="901.167969"/>
     <use xlink:href="#DejaVuSans-44" x="932.955078"/>
     <use xlink:href="#DejaVuSans-65" x="1009.957031"/>
     <use xlink:href="#DejaVuSans-6c" x="1071.480469"/>
     <use xlink:href="#DejaVuSans-61" x="1099.263672"/>
     <use xlink:href="#DejaVuSans-79" x="1160.542969"/>
     <use xlink:href="#DejaVuSans-20" x="1219.722656"/>
     <use xlink:href="#DejaVuSans-50" x="1251.509766"/>
     <use xlink:href="#DejaVuSans-72" x="1310.0625"/>
     <use xlink:href="#DejaVuSans-6f" x="1348.925781"/>
     <use xlink:href="#DejaVuSans-66" x="1410.107422"/>
     <use xlink:href="#DejaVuSans-69" x="1445.3125"/>
     <use xlink:href="#DejaVuSans-6c" x="1473.095703"/>
     <use xlink:href="#DejaVuSans-65" x="1500.878906"/>
    </g>
   </g>
   <g id="legend_1">
    <g id="patch_7">
     <path d="M 190.1575 93.506375 
L 407.72 93.506375 
Q 409.72 93.506375 409.72 91.506375 
L 409.72 48.472 
Q 409.72 46.472 407.72 46.472 
L 190.1575 46.472 
Q 188.1575 46.472 188.1575 48.472 
L 188.1575 91.506375 
Q 188.1575 93.506375 190.1575 93.506375 
z
" style="fill: #ffffff; opacity: 0.8; stroke: #cccccc; stroke-linejoin: miter"/>
    </g>
    <g id="line2d_27">
     <path d="M 192.1575 54.570438 
L 202.1575 54.570438 
L 212.1575 54.570438 
" style="fill: none; stroke: #98fb98; stroke-width: 1.25; stroke-linecap: square"/>
    </g>
    <g id="text_15">
     <!-- Power Delay Profile, Oversampled:16 -->
     <g transform="translate(220.1575 58.070438) scale(0.1 -0.1)">
      <defs>
       <path id="DejaVuSans-2c" d="M 750 794 
L 1409 794 
L 1409 256 
L 897 -744 
L 494 -744 
L 750 256 
L 750 794 
z
" transform="scale(0.015625)"/>
       <path id="DejaVuSans-4f" d="M 2522 4238 
Q 1834 4238 1429 3725 
Q 1025 3213 1025 2328 
Q 1025 1447 1429 934 
Q 1834 422 2522 422 
Q 3209 422 3611 934 
Q 4013 1447 4013 2328 
Q 4013 3213 3611 3725 
Q 3209 4238 2522 4238 
z
M 2522 4750 
Q 3503 4750 4090 4092 
Q 4678 3434 4678 2328 
Q 4678 1225 4090 567 
Q 3503 -91 2522 -91 
Q 1538 -91 948 565 
Q 359 1222 359 2328 
Q 359 3434 948 4092 
Q 1538 4750 2522 4750 
z
" transform="scale(0.015625)"/>
       <path id="DejaVuSans-76" d="M 191 3500 
L 800 3500 
L 1894 563 
L 2988 3500 
L 3597 3500 
L 2284 0 
L 1503 0 
L 191 3500 
z
" transform="scale(0.015625)"/>
       <path id="DejaVuSans-73" d="M 2834 3397 
L 2834 2853 
Q 2591 2978 2328 3040 
Q 2066 3103 1784 3103 
Q 1356 3103 1142 2972 
Q 928 2841 928 2578 
Q 928 2378 1081 2264 
Q 1234 2150 1697 2047 
L 1894 2003 
Q 2506 1872 2764 1633 
Q 3022 1394 3022 966 
Q 3022 478 2636 193 
Q 2250 -91 1575 -91 
Q 1294 -91 989 -36 
Q 684 19 347 128 
L 347 722 
Q 666 556 975 473 
Q 1284 391 1588 391 
Q 1994 391 2212 530 
Q 2431 669 2431 922 
Q 2431 1156 2273 1281 
Q 2116 1406 1581 1522 
L 1381 1569 
Q 847 1681 609 1914 
Q 372 2147 372 2553 
Q 372 3047 722 3315 
Q 1072 3584 1716 3584 
Q 2034 3584 2315 3537 
Q 2597 3491 2834 3397 
z
" transform="scale(0.015625)"/>
       <path id="DejaVuSans-70" d="M 1159 525 
L 1159 -1331 
L 581 -1331 
L 581 3500 
L 1159 3500 
L 1159 2969 
Q 1341 3281 1617 3432 
Q 1894 3584 2278 3584 
Q 2916 3584 3314 3078 
Q 3713 2572 3713 1747 
Q 3713 922 3314 415 
Q 2916 -91 2278 -91 
Q 1894 -91 1617 61 
Q 1341 213 1159 525 
z
M 3116 1747 
Q 3116 2381 2855 2742 
Q 2594 3103 2138 3103 
Q 1681 3103 1420 2742 
Q 1159 2381 1159 1747 
Q 1159 1113 1420 752 
Q 1681 391 2138 391 
Q 2594 391 2855 752 
Q 3116 1113 3116 1747 
z
" transform="scale(0.015625)"/>
       <path id="DejaVuSans-3a" d="M 750 794 
L 1409 794 
L 1409 0 
L 750 0 
L 750 794 
z
M 750 3309 
L 1409 3309 
L 1409 2516 
L 750 2516 
L 750 3309 
z
" transform="scale(0.015625)"/>
      </defs>
      <use xlink:href="#DejaVuSans-50"/>
      <use xlink:href="#DejaVuSans-6f" x="56.677734"/>
      <use xlink:href="#DejaVuSans-77" x="117.859375"/>
      <use xlink:href="#DejaVuSans-65" x="199.646484"/>
      <use xlink:href="#DejaVuSans-72" x="261.169922"/>
      <use xlink:href="#DejaVuSans-20" x="302.283203"/>
      <use xlink:href="#DejaVuSans-44" x="334.070312"/>
      <use xlink:href="#DejaVuSans-65" x="411.072266"/>
      <use xlink:href="#DejaVuSans-6c" x="472.595703"/>
      <use xlink:href="#DejaVuSans-61" x="500.378906"/>
      <use xlink:href="#DejaVuSans-79" x="561.658203"/>
      <use xlink:href="#DejaVuSans-20" x="620.837891"/>
      <use xlink:href="#DejaVuSans-50" x="652.625"/>
      <use xlink:href="#DejaVuSans-72" x="711.177734"/>
      <use xlink:href="#DejaVuSans-6f" x="750.041016"/>
      <use xlink:href="#DejaVuSans-66" x="811.222656"/>
      <use xlink:href="#DejaVuSans-69" x="846.427734"/>
      <use xlink:href="#DejaVuSans-6c" x="874.210938"/>
      <use xlink:href="#DejaVuSans-65" x="901.994141"/>
      <use xlink:href="#DejaVuSans-2c" x="963.517578"/>
      <use xlink:href="#DejaVuSans-20" x="995.304688"/>
      <use xlink:href="#DejaVuSans-4f" x="1027.091797"/>
      <use xlink:href="#DejaVuSans-76" x="1105.802734"/>
      <use xlink:href="#DejaVuSans-65" x="1164.982422"/>
      <use xlink:href="#DejaVuSans-72" x="1226.505859"/>
      <use xlink:href="#DejaVuSans-73" x="1267.619141"/>
      <use xlink:href="#DejaVuSans-61" x="1319.71875"/>
      <use xlink:href="#DejaVuSans-6d" x="1380.998047"/>
      <use xlink:href="#DejaVuSans-70" x="1478.410156"/>
      <use xlink:href="#DejaVuSans-6c" x="1541.886719"/>
      <use xlink:href="#DejaVuSans-65" x="1569.669922"/>
      <use xlink:href="#DejaVuSans-64" x="1631.193359"/>
      <use xlink:href="#DejaVuSans-3a" x="1694.669922"/>
      <use xlink:href="#DejaVuSans-31" x="1728.361328"/>
      <use xlink:href="#DejaVuSans-36" x="1791.984375"/>
     </g>
    </g>
    <g id="line2d_28">
     <path d="M 192.1575 69.248563 
L 202.1575 69.248563 
L 212.1575 69.248563 
" style="fill: none; stroke-dasharray: 2.5,4.125; stroke-dashoffset: 0; stroke: #f08080; stroke-width: 2.5"/>
    </g>
    <g id="text_16">
     <!-- Power Delay Profile -->
     <g transform="translate(220.1575 72.748563) scale(0.1 -0.1)">
      <use xlink:href="#DejaVuSans-50"/>
      <use xlink:href="#DejaVuSans-6f" x="56.677734"/>
      <use xlink:href="#DejaVuSans-77" x="117.859375"/>
      <use xlink:href="#DejaVuSans-65" x="199.646484"/>
      <use xlink:href="#DejaVuSans-72" x="261.169922"/>
      <use xlink:href="#DejaVuSans-20" x="302.283203"/>
      <use xlink:href="#DejaVuSans-44" x="334.070312"/>
      <use xlink:href="#DejaVuSans-65" x="411.072266"/>
      <use xlink:href="#DejaVuSans-6c" x="472.595703"/>
      <use xlink:href="#DejaVuSans-61" x="500.378906"/>
      <use xlink:href="#DejaVuSans-79" x="561.658203"/>
      <use xlink:href="#DejaVuSans-20" x="620.837891"/>
      <use xlink:href="#DejaVuSans-50" x="652.625"/>
      <use xlink:href="#DejaVuSans-72" x="711.177734"/>
      <use xlink:href="#DejaVuSans-6f" x="750.041016"/>
      <use xlink:href="#DejaVuSans-66" x="811.222656"/>
      <use xlink:href="#DejaVuSans-69" x="846.427734"/>
      <use xlink:href="#DejaVuSans-6c" x="874.210938"/>
      <use xlink:href="#DejaVuSans-65" x="901.994141"/>
     </g>
    </g>
    <g id="line2d_29">
     <path d="M 192.1575 83.926688 
L 212.1575 83.926688 
" style="fill: none; stroke: #191970; stroke-width: 2.5"/>
    </g>
    <g id="text_17">
     <!-- Estimated Delays -->
     <g transform="translate(220.1575 87.426688) scale(0.1 -0.1)">
      <defs>
       <path id="DejaVuSans-45" d="M 628 4666 
L 3578 4666 
L 3578 4134 
L 1259 4134 
L 1259 2753 
L 3481 2753 
L 3481 2222 
L 1259 2222 
L 1259 531 
L 3634 531 
L 3634 0 
L 628 0 
L 628 4666 
z
" transform="scale(0.015625)"/>
       <path id="DejaVuSans-74" d="M 1172 4494 
L 1172 3500 
L 2356 3500 
L 2356 3053 
L 1172 3053 
L 1172 1153 
Q 1172 725 1289 603 
Q 1406 481 1766 481 
L 2356 481 
L 2356 0 
L 1766 0 
Q 1100 0 847 248 
Q 594 497 594 1153 
L 594 3053 
L 172 3053 
L 172 3500 
L 594 3500 
L 594 4494 
L 1172 4494 
z
" transform="scale(0.015625)"/>
      </defs>
      <use xlink:href="#DejaVuSans-45"/>
      <use xlink:href="#DejaVuSans-73" x="63.183594"/>
      <use xlink:href="#DejaVuSans-74" x="115.283203"/>
      <use xlink:href="#DejaVuSans-69" x="154.492188"/>
      <use xlink:href="#DejaVuSans-6d" x="182.275391"/>
      <use xlink:href="#DejaVuSans-61" x="279.6875"/>
      <use xlink:href="#DejaVuSans-74" x="340.966797"/>
      <use xlink:href="#DejaVuSans-65" x="380.175781"/>
      <use xlink:href="#DejaVuSans-64" x="441.699219"/>
      <use xlink:href="#DejaVuSans-20" x="505.175781"/>
      <use xlink:href="#DejaVuSans-44" x="536.962891"/>
      <use xlink:href="#DejaVuSans-65" x="613.964844"/>
      <use xlink:href="#DejaVuSans-6c" x="675.488281"/>
      <use xlink:href="#DejaVuSans-61" x="703.271484"/>
      <use xlink:href="#DejaVuSans-79" x="764.550781"/>
      <use xlink:href="#DejaVuSans-73" x="823.730469"/>
     </g>
    </g>
   </g>
  </g>
 </g>
 <defs>
  <clipPath id="p8545b78198">
   <rect x="57.6" y="41.472" width="357.12" height="266.112"/>
  </clipPath>
 </defs>
</svg>
