<svg width="2063" height="2525" xmlns="http://www.w3.org/2000/svg" xmlns:xlink="http://www.w3.org/1999/xlink" xml:space="preserve" overflow="hidden"><defs><clipPath id="clip0"><rect x="205" y="825" width="2063" height="2525"/></clipPath></defs><g clip-path="url(#clip0)" transform="translate(-205 -825)"><rect x="235.5" y="1274.5" width="607" height="111" stroke="#000000" stroke-width="9.16667" stroke-miterlimit="8" fill="none"/><text fill="#002060" font-family="Times New Roman,Times New Roman_MSFontService,sans-serif" font-weight="400" font-size="55" transform="matrix(1 0 0 1 368.996 1350)">1</text><text fill="#002060" font-family="Times New Roman,Times New Roman_MSFontService,sans-serif" font-weight="400" font-size="37" transform="matrix(1 0 0 1 396.496 1333)">ST</text><text fill="#002060" font-family="Times New Roman,Times New Roman_MSFontService,sans-serif" font-weight="400" font-size="55" transform="matrix(1 0 0 1 453.214 1350)">Scrambling</text><rect x="235.5" y="1497.5" width="386" height="109" stroke="#000000" stroke-width="9.16667" stroke-miterlimit="8" fill="none"/><text fill="#002060" font-family="Times New Roman,Times New Roman_MSFontService,sans-serif" font-weight="400" font-size="55" transform="matrix(1 0 0 1 338.869 1572)">Payload</text><rect x="621.5" y="1497.5" width="221" height="109" stroke="#000000" stroke-width="9.16667" stroke-miterlimit="8" fill="#FF5A5F"/><text fill="#002060" font-family="Times New Roman,Times New Roman_MSFontService,sans-serif" font-weight="400" font-size="55" transform="matrix(1 0 0 1 676.376 1572)">CRC</text><rect x="235.5" y="1720.5" width="607" height="110" stroke="#000000" stroke-width="9.16667" stroke-miterlimit="8" fill="none"/><text fill="#002060" font-family="Times New Roman,Times New Roman_MSFontService,sans-serif" font-weight="400" font-size="55" transform="matrix(1 0 0 1 379.595 1795)">2</text><text fill="#002060" font-family="Times New Roman,Times New Roman_MSFontService,sans-serif" font-weight="400" font-size="37" transform="matrix(1 0 0 1 407.095 1778)">nd</text><text fill="#002060" font-family="Times New Roman,Times New Roman_MSFontService,sans-serif" font-weight="400" font-size="55" transform="matrix(1 0 0 1 457.511 1795)">Interleaver</text><rect x="235.5" y="1942.5" width="607" height="111" stroke="#000000" stroke-width="9.16667" stroke-miterlimit="8" fill="none"/><text fill="#002060" font-family="Times New Roman,Times New Roman_MSFontService,sans-serif" font-weight="400" font-size="55" transform="matrix(1 0 0 1 411.964 2018)">Polar coder</text><rect x="235.5" y="2165.5" width="607" height="111" stroke="#000000" stroke-width="9.16667" stroke-miterlimit="8" fill="none"/><text fill="#002060" font-family="Times New Roman,Times New Roman_MSFontService,sans-serif" font-weight="400" font-size="55" transform="matrix(1 0 0 1 377.876 2240)">Rate matching</text><rect x="235.5" y="2610.5" width="607" height="111" stroke="#000000" stroke-width="9.16667" stroke-miterlimit="8" fill="none"/><text fill="#002060" font-family="Times New Roman,Times New Roman_MSFontService,sans-serif" font-weight="400" font-size="55" transform="matrix(1 0 0 1 345.22 2686)">QPSK Modulator</text><rect x="235.5" y="3061.5" width="607" height="111" stroke="#000000" stroke-width="9.16667" stroke-miterlimit="8" fill="none"/><text fill="#002060" font-family="Times New Roman,Times New Roman_MSFontService,sans-serif" font-weight="400" font-size="55" transform="matrix(1 0 0 1 329.464 3136)">Resource Mapping</text><path d="M543.874 1607.88 545.186 1684.25 531.438 1684.49 530.126 1608.12ZM558.816 1677.14 538.902 1718.74 517.572 1677.85Z" fill="#FFC000"/><path d="M544.875 1831 544.875 1907.36 531.125 1907.36 531.125 1831ZM558.625 1900.49 538 1941.74 517.375 1900.49Z" fill="#FFC000"/><path d="M544.875 2054 544.875 2130.36 531.125 2130.36 531.125 2054ZM558.625 2123.49 538 2164.74 517.375 2123.49Z" fill="#FFC000"/><path d="M544.875 2499 544.875 2575.36 531.125 2575.36 531.125 2499ZM558.625 2568.49 538 2609.74 517.375 2568.49Z" fill="#FFC000"/><path d="M377.875 2721 377.875 3019.12 364.125 3019.12 364.125 2721ZM391.625 3012.25 371 3053.5 350.375 3012.25Z" fill="#FFC000"/><path d="M544.875 1163 544.875 1239.36 531.125 1239.36 531.125 1163ZM558.625 1232.49 538 1273.74 517.375 1232.49Z" fill="#FFC000"/><text fill="#002060" font-family="Times New Roman,Times New Roman_MSFontService,sans-serif" font-weight="400" font-size="50" transform="matrix(1 0 0 1 236.917 1016)">MIB  (32 Bits)</text><text fill="#002060" font-family="Times New Roman,Times New Roman_MSFontService,sans-serif" font-weight="400" font-size="50" transform="matrix(1 0 0 1 237.149 1684)">56 Bits</text><text fill="#002060" font-family="Times New Roman,Times New Roman_MSFontService,sans-serif" font-weight="400" font-size="50" transform="matrix(1 0 0 1 620.754 1462)">24 Bit CRC</text><text fill="#002060" font-family="Times New Roman,Times New Roman_MSFontService,sans-serif" font-weight="400" font-size="50" transform="matrix(1 0 0 1 238.274 1239)">32 Bits</text><text fill="#002060" font-family="Times New Roman,Times New Roman_MSFontService,sans-serif" font-weight="400" font-size="50" transform="matrix(1 0 0 1 235.859 1906)">56 Bits</text><text fill="#002060" font-family="Times New Roman,Times New Roman_MSFontService,sans-serif" font-weight="400" font-size="50" transform="matrix(1 0 0 1 235.722 2127)">512 Bits</text><text fill="#002060" font-family="Times New Roman,Times New Roman_MSFontService,sans-serif" font-weight="400" font-size="50" transform="matrix(1 0 0 1 237.39 2350)">864 Bits</text><text fill="#002060" font-family="Times New Roman,Times New Roman_MSFontService,sans-serif" font-weight="400" font-size="50" transform="matrix(1 0 0 1 238.587 2818)">432 symbols</text><rect x="235.5" y="1051.5" width="607" height="111" stroke="#000000" stroke-width="9.16667" stroke-miterlimit="8" fill="none"/><text fill="#002060" font-family="Times New Roman,Times New Roman_MSFontService,sans-serif" font-weight="400" font-size="55" transform="matrix(1 0 0 1 385.61 1127)">1</text><text fill="#002060" font-family="Times New Roman,Times New Roman_MSFontService,sans-serif" font-weight="400" font-size="37" transform="matrix(1 0 0 1 413.11 1110)">st</text><text fill="#002060" font-family="Times New Roman,Times New Roman_MSFontService,sans-serif" font-weight="400" font-size="55" transform="matrix(1 0 0 1 451.496 1127)">Interleaver</text><path d="M6.87399-0.118081 8.18585 76.2511-5.56212 76.4873-6.87399 0.118081ZM21.8157 69.1409 1.90226 110.739-19.4282 69.8494Z" fill="#FFC000" transform="matrix(-1 0 0 1 538.902 1386)"/><rect x="235.5" y="829.5" width="607" height="110" stroke="#000000" stroke-width="9.16667" stroke-miterlimit="8" fill="none"/><text fill="#002060" font-family="Times New Roman,Times New Roman_MSFontService,sans-serif" font-weight="400" font-size="55" transform="matrix(1 0 0 1 371.001 904)">PBCH Payload</text><path d="M544.875 940 544.875 1016.36 531.125 1016.36 531.125 940ZM558.625 1009.49 538 1050.74 517.375 1009.49Z" fill="#FFC000"/><rect x="235.5" y="2388.5" width="607" height="110" stroke="#000000" stroke-width="9.16667" stroke-miterlimit="8" fill="none"/><text fill="#002060" font-family="Times New Roman,Times New Roman_MSFontService,sans-serif" font-weight="400" font-size="55" transform="matrix(1 0 0 1 372.147 2463)">2</text><text fill="#002060" font-family="Times New Roman,Times New Roman_MSFontService,sans-serif" font-weight="400" font-size="37" transform="matrix(1 0 0 1 399.647 2446)">nd</text><text fill="#002060" font-family="Times New Roman,Times New Roman_MSFontService,sans-serif" font-weight="400" font-size="55" transform="matrix(1 0 0 1 450.063 2463)">Scrambling</text><path d="M544.875 2276 544.875 2352.36 531.125 2352.36 531.125 2276ZM558.625 2345.49 538 2386.74 517.375 2345.49Z" fill="#FFC000"/><text fill="#002060" font-family="Times New Roman,Times New Roman_MSFontService,sans-serif" font-weight="400" font-size="50" transform="matrix(1 0 0 1 237.374 1460)">32 Bits</text><text fill="#002060" font-family="Times New Roman,Times New Roman_MSFontService,sans-serif" font-weight="400" font-size="50" transform="matrix(1 0 0 1 237.237 2573)">864 Bits</text><path d="M686.875 2966 686.875 3020.72 673.125 3020.72 673.125 2966ZM700.625 3013.85 680 3055.1 659.375 3013.85Z" fill="#FFC000"/><rect x="517.5" y="2816.5" width="325" height="150" stroke="#000000" stroke-width="9.16667" stroke-miterlimit="8" fill="none"/><text fill="#002060" font-family="Times New Roman,Times New Roman_MSFontService,sans-serif" font-weight="400" font-size="55" transform="matrix(1 0 0 1 602.032 2878)">DMRS </text><text fill="#002060" font-family="Times New Roman,Times New Roman_MSFontService,sans-serif" font-weight="400" font-size="55" transform="matrix(1 0 0 1 569.376 2944)">Generator</text><text fill="#002060" font-family="Times New Roman,Times New Roman_MSFontService,sans-serif" font-weight="400" font-size="55" transform="matrix(1 0 0 1 911.162 928)">TS 38.212 Clause 7.1.1</text><text fill="#002060" font-family="Times New Roman,Times New Roman_MSFontService,sans-serif" font-weight="400" font-size="55" transform="matrix(1 0 0 1 911.162 1148)">TS 38.212 Clause 7.1.1</text><text fill="#002060" font-family="Times New Roman,Times New Roman_MSFontService,sans-serif" font-weight="400" font-size="55" transform="matrix(1 0 0 1 911.162 1374)">TS 38.212 Clause 7.1.2</text><text fill="#002060" font-family="Times New Roman,Times New Roman_MSFontService,sans-serif" font-weight="400" font-size="55" transform="matrix(1 0 0 1 911.162 1592)">TS 38.212 Clause 7.1.3, 5.1</text><text fill="#002060" font-family="Times New Roman,Times New Roman_MSFontService,sans-serif" font-weight="400" font-size="55" transform="matrix(1 0 0 1 911.162 1816)">TS 38.212 Clause 7.1.4, 5.3.1.1</text><text fill="#002060" font-family="Times New Roman,Times New Roman_MSFontService,sans-serif" font-weight="400" font-size="55" transform="matrix(1 0 0 1 911.162 2038)">TS 38.212 Clause 7.1.1, 5.3.1.2</text><text fill="#002060" font-family="Times New Roman,Times New Roman_MSFontService,sans-serif" font-weight="400" font-size="55" transform="matrix(1 0 0 1 911.162 2264)">TS 38.212 Clause 7.1.1, 5.4.1</text><text fill="#002060" font-family="Times New Roman,Times New Roman_MSFontService,sans-serif" font-weight="400" font-size="55" transform="matrix(1 0 0 1 911.162 2484)">TS 38.211 Clause 7.3.3.1</text><text fill="#002060" font-family="Times New Roman,Times New Roman_MSFontService,sans-serif" font-weight="400" font-size="55" transform="matrix(1 0 0 1 911.162 2708)">TS 38.211 Clause 7.3.3.2, 5.4</text><text fill="#002060" font-family="Times New Roman,Times New Roman_MSFontService,sans-serif" font-weight="400" font-size="55" transform="matrix(1 0 0 1 911.162 2929)">TS 38.211 Clause 7.4.1.4</text><text fill="#002060" font-family="Times New Roman,Times New Roman_MSFontService,sans-serif" font-weight="400" font-size="55" transform="matrix(1 0 0 1 911.162 3159)">TS 38.211 Clause 7.4.3.1</text><path d="M733 997 1558 997" stroke="#4472C4" stroke-width="2.29167" stroke-linecap="round" stroke-miterlimit="8" stroke-dasharray="0 4.58333" fill="none" fill-rule="evenodd"/><path d="M733 1217 1558 1217" stroke="#4472C4" stroke-width="2.29167" stroke-linecap="round" stroke-miterlimit="8" stroke-dasharray="0 4.58333" fill="none" fill-rule="evenodd"/><path d="M733 1445 1558 1445" stroke="#4472C4" stroke-width="2.29167" stroke-linecap="round" stroke-miterlimit="8" stroke-dasharray="0 4.58333" fill="none" fill-rule="evenodd"/><path d="M733 1665 1558 1665" stroke="#4472C4" stroke-width="2.29167" stroke-linecap="round" stroke-miterlimit="8" stroke-dasharray="0 4.58333" fill="none" fill-rule="evenodd"/><path d="M733 1889 1558 1889" stroke="#4472C4" stroke-width="2.29167" stroke-linecap="round" stroke-miterlimit="8" stroke-dasharray="0 4.58333" fill="none" fill-rule="evenodd"/><path d="M733 2109 1558 2109" stroke="#4472C4" stroke-width="2.29167" stroke-linecap="round" stroke-miterlimit="8" stroke-dasharray="0 4.58333" fill="none" fill-rule="evenodd"/><path d="M733 2337 1558 2337" stroke="#4472C4" stroke-width="2.29167" stroke-linecap="round" stroke-miterlimit="8" stroke-dasharray="0 4.58333" fill="none" fill-rule="evenodd"/><path d="M733 2557 1558 2557" stroke="#4472C4" stroke-width="2.29167" stroke-linecap="round" stroke-miterlimit="8" stroke-dasharray="0 4.58333" fill="none" fill-rule="evenodd"/><path d="M733 2774 1558 2774" stroke="#4472C4" stroke-width="2.29167" stroke-linecap="round" stroke-miterlimit="8" stroke-dasharray="0 4.58333" fill="none" fill-rule="evenodd"/><path d="M733 3012 1558 3012" stroke="#4472C4" stroke-width="2.29167" stroke-linecap="round" stroke-miterlimit="8" stroke-dasharray="0 4.58333" fill="none" fill-rule="evenodd"/><rect x="1629.5" y="1275.5" width="631" height="111" stroke="#000000" stroke-width="9.16667" stroke-miterlimit="8" fill="none"/><text fill="#002060" font-family="Times New Roman,Times New Roman_MSFontService,sans-serif" font-weight="400" font-size="55" transform="matrix(1 0 0 1 1738.56 1350)">1</text><text fill="#002060" font-family="Times New Roman,Times New Roman_MSFontService,sans-serif" font-weight="400" font-size="37" transform="matrix(1 0 0 1 1766.06 1333)">ST</text><text fill="#002060" font-family="Times New Roman,Times New Roman_MSFontService,sans-serif" font-weight="400" font-size="55" transform="matrix(1 0 0 1 1822.78 1350)">De</text><text fill="#002060" font-family="Times New Roman,Times New Roman_MSFontService,sans-serif" font-weight="400" font-size="55" transform="matrix(1 0 0 1 1886.95 1350)">-</text><text fill="#002060" font-family="Times New Roman,Times New Roman_MSFontService,sans-serif" font-weight="400" font-size="55" transform="matrix(1 0 0 1 1905.28 1350)">scrambling</text><rect x="1629.5" y="1498.5" width="382" height="110" stroke="#000000" stroke-width="9.16667" stroke-miterlimit="8" fill="none"/><text fill="#002060" font-family="Times New Roman,Times New Roman_MSFontService,sans-serif" font-weight="400" font-size="55" transform="matrix(1 0 0 1 1665.02 1573)">CRC Decoder</text><rect x="2060.5" y="1498.5" width="200" height="110" stroke="#000000" stroke-width="9.16667" stroke-miterlimit="8" fill="#FF5A5F"/><text fill="#002060" font-family="Times New Roman,Times New Roman_MSFontService,sans-serif" font-weight="400" font-size="50" transform="matrix(1 0 0 1 2095.52 1571)">Check</text><rect x="1629.5" y="1721.5" width="631" height="111" stroke="#000000" stroke-width="9.16667" stroke-miterlimit="8" fill="none"/><text fill="#002060" font-family="Times New Roman,Times New Roman_MSFontService,sans-serif" font-weight="400" font-size="55" transform="matrix(1 0 0 1 1746.01 1796)">2</text><text fill="#002060" font-family="Times New Roman,Times New Roman_MSFontService,sans-serif" font-weight="400" font-size="37" transform="matrix(1 0 0 1 1773.51 1779)">nd</text><text fill="#002060" font-family="Times New Roman,Times New Roman_MSFontService,sans-serif" font-weight="400" font-size="55" transform="matrix(1 0 0 1 1823.92 1796)">De</text><text fill="#002060" font-family="Times New Roman,Times New Roman_MSFontService,sans-serif" font-weight="400" font-size="55" transform="matrix(1 0 0 1 1888.09 1796)">-</text><text fill="#002060" font-family="Times New Roman,Times New Roman_MSFontService,sans-serif" font-weight="400" font-size="55" transform="matrix(1 0 0 1 1906.42 1796)">interleaver</text><rect x="1629.5" y="1944.5" width="631" height="111" stroke="#000000" stroke-width="9.16667" stroke-miterlimit="8" fill="none"/><text fill="#002060" font-family="Times New Roman,Times New Roman_MSFontService,sans-serif" font-weight="400" font-size="55" transform="matrix(1 0 0 1 1786.11 2019)">Polar Decoder</text><rect x="1629.5" y="2167.5" width="631" height="111" stroke="#000000" stroke-width="9.16667" stroke-miterlimit="8" fill="none"/><text fill="#002060" font-family="Times New Roman,Times New Roman_MSFontService,sans-serif" font-weight="400" font-size="55" transform="matrix(1 0 0 1 1790.41 2242)">Bits matching</text><rect x="1629.5" y="2613.5" width="631" height="111" stroke="#000000" stroke-width="9.16667" stroke-miterlimit="8" fill="none"/><text fill="#002060" font-family="Times New Roman,Times New Roman_MSFontService,sans-serif" font-weight="400" font-size="55" transform="matrix(1 0 0 1 1713.06 2688)">QPSK De</text><text fill="#002060" font-family="Times New Roman,Times New Roman_MSFontService,sans-serif" font-weight="400" font-size="55" transform="matrix(1 0 0 1 1930.77 2688)">-</text><text fill="#002060" font-family="Times New Roman,Times New Roman_MSFontService,sans-serif" font-weight="400" font-size="55" transform="matrix(1 0 0 1 1949.1 2688)">modulator</text><rect x="1629.5" y="2836.5" width="631" height="111" stroke="#000000" stroke-width="9.16667" stroke-miterlimit="8" fill="none"/><text fill="#002060" font-family="Times New Roman,Times New Roman_MSFontService,sans-serif" font-weight="400" font-size="55" transform="matrix(1 0 0 1 1804.73 2912)">Equalization</text><path d="M1953.49 1643.25 1954.85 1719.76 1941.1 1720.01 1939.74 1643.49ZM1926.11 1650.61 1946 1609 1967.36 1649.88Z" fill="#FFC000"/><path d="M1953.88 1866.37 1953.88 1942.89 1940.13 1942.89 1940.13 1866.37ZM1926.38 1873.25 1947 1832 1967.63 1873.25Z" fill="#FFC000"/><path d="M1953.88 2089.38 1953.88 2165.89 1940.13 2165.89 1940.13 2089.38ZM1926.38 2096.25 1947 2055 1967.63 2096.25Z" fill="#FFC000"/><path d="M1953.88 2535.38 1953.88 2611.89 1940.13 2611.89 1940.13 2535.38ZM1926.38 2542.25 1947 2501 1967.63 2542.25Z" fill="#FFC000"/><path d="M6.875-2.20154e-05 6.87525 78.3252-6.87475 78.3252-6.875 2.20154e-05ZM20.6252 71.4501 0.000360892 112.7-20.6248 71.4503Z" fill="#FFC000" transform="matrix(1 0 0 -1 1945 2836.7)"/><path d="M1953.88 1197.37 1953.88 1273.89 1940.13 1273.89 1940.13 1197.37ZM1926.38 1204.25 1947 1163 1967.63 1204.25Z" fill="#FFC000"/><text fill="#002060" font-family="Times New Roman,Times New Roman_MSFontService,sans-serif" font-weight="400" font-size="50" transform="matrix(1 0 0 1 1633.84 1016)">MIB  (32 Bits)</text><text fill="#002060" font-family="Times New Roman,Times New Roman_MSFontService,sans-serif" font-weight="400" font-size="50" transform="matrix(1 0 0 1 1634.08 1685)">56 Bits</text><text fill="#002060" font-family="Times New Roman,Times New Roman_MSFontService,sans-serif" font-weight="400" font-size="50" transform="matrix(1 0 0 1 1635.25 1239)">32 Bits</text><text fill="#002060" font-family="Times New Roman,Times New Roman_MSFontService,sans-serif" font-weight="400" font-size="50" transform="matrix(1 0 0 1 1632.74 1907)">56 Bits</text><text fill="#002060" font-family="Times New Roman,Times New Roman_MSFontService,sans-serif" font-weight="400" font-size="50" transform="matrix(1 0 0 1 1632.6 2129)">512 Bits</text><text fill="#002060" font-family="Times New Roman,Times New Roman_MSFontService,sans-serif" font-weight="400" font-size="50" transform="matrix(1 0 0 1 1634.33 2352)">864 Bits</text><text fill="#002060" font-family="Times New Roman,Times New Roman_MSFontService,sans-serif" font-weight="400" font-size="50" transform="matrix(1 0 0 1 1635.57 2797)">432 symbols</text><rect x="1629.5" y="1052.5" width="631" height="111" stroke="#000000" stroke-width="9.16667" stroke-miterlimit="8" fill="none"/><text fill="#002060" font-family="Times New Roman,Times New Roman_MSFontService,sans-serif" font-weight="400" font-size="55" transform="matrix(1 0 0 1 1752.02 1127)">1</text><text fill="#002060" font-family="Times New Roman,Times New Roman_MSFontService,sans-serif" font-weight="400" font-size="37" transform="matrix(1 0 0 1 1779.52 1110)">st</text><text fill="#002060" font-family="Times New Roman,Times New Roman_MSFontService,sans-serif" font-weight="400" font-size="55" transform="matrix(1 0 0 1 1817.91 1127)">De</text><text fill="#002060" font-family="Times New Roman,Times New Roman_MSFontService,sans-serif" font-weight="400" font-size="55" transform="matrix(1 0 0 1 1882.07 1127)">-</text><text fill="#002060" font-family="Times New Roman,Times New Roman_MSFontService,sans-serif" font-weight="400" font-size="55" transform="matrix(1 0 0 1 1900.41 1127)">interleaver</text><path d="M7.48567 34.2472 8.84763 110.764-4.90019 111.008-6.26215 34.4919ZM-19.8876 41.6105 0 0 21.3558 40.8764Z" fill="#FFC000" transform="matrix(-1 0 0 1 1947.97 1386)"/><rect x="1629.5" y="829.5" width="631" height="111" stroke="#000000" stroke-width="9.16667" stroke-miterlimit="8" fill="none"/><text fill="#002060" font-family="Times New Roman,Times New Roman_MSFontService,sans-serif" font-weight="400" font-size="55" transform="matrix(1 0 0 1 1672.38 904)">Decoded PBCH Payload</text><path d="M1953.88 974.375 1953.88 1050.89 1940.13 1050.89 1940.13 974.375ZM1926.38 981.25 1947 940 1967.63 981.25Z" fill="#FFC000"/><rect x="1629.5" y="2390.5" width="631" height="111" stroke="#000000" stroke-width="9.16667" stroke-miterlimit="8" fill="none"/><text fill="#002060" font-family="Times New Roman,Times New Roman_MSFontService,sans-serif" font-weight="400" font-size="55" transform="matrix(1 0 0 1 1741.71 2465)">2</text><text fill="#002060" font-family="Times New Roman,Times New Roman_MSFontService,sans-serif" font-weight="400" font-size="37" transform="matrix(1 0 0 1 1769.21 2448)">nd</text><text fill="#002060" font-family="Times New Roman,Times New Roman_MSFontService,sans-serif" font-weight="400" font-size="55" transform="matrix(1 0 0 1 1819.62 2465)">De</text><text fill="#002060" font-family="Times New Roman,Times New Roman_MSFontService,sans-serif" font-weight="400" font-size="55" transform="matrix(1 0 0 1 1883.79 2465)">-</text><text fill="#002060" font-family="Times New Roman,Times New Roman_MSFontService,sans-serif" font-weight="400" font-size="55" transform="matrix(1 0 0 1 1902.12 2465)">scrambling</text><path d="M1953.88 2312.38 1953.88 2388.89 1940.13 2388.89 1940.13 2312.38ZM1926.38 2319.25 1947 2278 1967.63 2319.25Z" fill="#FFC000"/><text fill="#002060" font-family="Times New Roman,Times New Roman_MSFontService,sans-serif" font-weight="400" font-size="50" transform="matrix(1 0 0 1 1634.31 1461)">32 Bits</text><text fill="#002060" font-family="Times New Roman,Times New Roman_MSFontService,sans-serif" font-weight="400" font-size="50" transform="matrix(1 0 0 1 1634.17 2575)">864 Bits</text><path d="M2036.88 3176.37 2036.88 3226.81 2023.13 3226.81 2023.12 3176.37ZM2009.38 3183.25 2030 3142 2050.62 3183.25Z" fill="#FFC000"/><rect x="1782.5" y="3036.5" width="481" height="104" stroke="#000000" stroke-width="9.16667" stroke-miterlimit="8" fill="none"/><text fill="#002060" font-family="Times New Roman,Times New Roman_MSFontService,sans-serif" font-weight="400" font-size="50" transform="matrix(1 0 0 1 1823.35 3106)">Channel Estimation</text><rect x="1629.5" y="3228.5" width="631" height="111" stroke="#000000" stroke-width="9.16667" stroke-miterlimit="8" fill="none"/><text fill="#002060" font-family="Times New Roman,Times New Roman_MSFontService,sans-serif" font-weight="400" font-size="55" transform="matrix(1 0 0 1 1721.08 3304)">Estimated SSB Grid</text><path d="M2032.88 2982.38 2032.88 3032.81 2019.13 3032.81 2019.13 2982.38ZM2005.38 2989.25 2026 2948 2046.63 2989.25Z" fill="#FFC000"/><path d="M1754.88 2981.37 1754.88 3223.27 1741.13 3223.27 1741.12 2981.37ZM1727.38 2988.25 1748 2947 1768.62 2988.25Z" fill="#FFC000"/></g></svg>