<svg width="4400" height="1170" xmlns="http://www.w3.org/2000/svg" xmlns:xlink="http://www.w3.org/1999/xlink" xml:space="preserve" overflow="hidden"><defs><clipPath id="clip0"><rect x="0" y="1305" width="4400" height="1170"/></clipPath></defs><g clip-path="url(#clip0)" transform="matrix(1 0 0 1 0 -1305)"><rect x="379.5" y="1425.5" width="1796" height="929" stroke="#34497D" stroke-width="3.4375" stroke-linejoin="round" stroke-miterlimit="10" stroke-dasharray="3.4375 3.4375" fill="#E95C6C" fill-opacity="0.0196078"/><rect x="2475.5" y="1425.5" width="1582" height="929" stroke="#34497D" stroke-width="3.4375" stroke-linejoin="round" stroke-miterlimit="10" stroke-dasharray="3.4375 3.4375" fill="#E95C6C" fill-opacity="0.0196078"/><rect x="2517.5" y="1722.5" width="258" height="330" stroke="#002060" stroke-width="9.16667" stroke-miterlimit="8" fill="#FFFFFF"/><text fill="#FF5B60" font-family="Times New Roman,Times New Roman_MSFontService,sans-serif" font-weight="400" font-size="64" transform="matrix(1 0 0 1 2578.24 1911)">ADC</text><path d="M2461.46 1883.15 2517.85 1883.72 2517.76 1892.88 2461.37 1892.31ZM2465.86 1901.53 2438.5 1887.5 2466.14 1874.03Z" fill="#05D7A0"/><path d="M2858.5 1722.5 3188.5 1722.5 3188.5 2052.5 2858.5 2052.5Z" stroke="#002060" stroke-width="9.16667" stroke-miterlimit="8" fill="#FFFFFF" fill-rule="evenodd"/><text fill="#FF5B60" font-family="Times New Roman,Times New Roman_MSFontService,sans-serif" font-weight="400" font-size="64" transform="matrix(1 0 0 1 2944.11 1875)">Down </text><text fill="#FF5B60" font-family="Times New Roman,Times New Roman_MSFontService,sans-serif" font-weight="400" font-size="60" transform="matrix(1 0 0 1 2891.98 1948)">c</text><text fill="#FF5B60" font-family="Times New Roman,Times New Roman_MSFontService,sans-serif" font-weight="400" font-size="60" transform="matrix(1 0 0 1 2918.33 1948)">onversion</text><path d="M3270.5 1722.5 3600.5 1722.5 3600.5 2052.5 3270.5 2052.5Z" stroke="#002060" stroke-width="9.16667" stroke-miterlimit="8" fill="#FFFFFF" fill-rule="evenodd"/><text fill="#FF5B60" font-family="Times New Roman,Times New Roman_MSFontService,sans-serif" font-weight="400" font-size="64" transform="matrix(1 0 0 1 3376.03 1834)">Low </text><text fill="#FF5B60" font-family="Times New Roman,Times New Roman_MSFontService,sans-serif" font-weight="400" font-size="64" transform="matrix(1 0 0 1 3359.71 1911)">Noise </text><text fill="#FF5B60" font-family="Times New Roman,Times New Roman_MSFontService,sans-serif" font-weight="400" font-size="64" transform="matrix(1 0 0 1 3365.44 1988)">Filter</text><path d="M3682.5 1722.5 4012.5 1722.5 4012.5 2052.5 3682.5 2052.5Z" stroke="#002060" stroke-width="9.16667" stroke-miterlimit="8" fill="#FFFFFF" fill-rule="evenodd"/><text fill="#FF5B60" font-family="Times New Roman,Times New Roman_MSFontService,sans-serif" font-weight="400" font-size="64" transform="matrix(1 0 0 1 3743.22 1872)">Receive </text><text fill="#FF5B60" font-family="Times New Roman,Times New Roman_MSFontService,sans-serif" font-weight="400" font-size="64" transform="matrix(1 0 0 1 3777.6 1949)">Filter</text><path d="M0 0 157.814 0 157.814 110.652" stroke="#000000" stroke-width="11.4583" stroke-linejoin="round" stroke-miterlimit="10" fill="none" fill-rule="evenodd" transform="matrix(1 0 0 -1 4012.5 1888.15)"/><path d="M4140.22 1790 4150 1780.28C4145.11 1775.08 4141.97 1768.14 4141.97 1760.5 4141.97 1752.86 4145.11 1745.92 4150 1740.72L4140.22 1731C4132.54 1738.64 4128 1749.05 4128 1760.5 4128 1771.95 4132.54 1782.36 4140.22 1790Z" fill-rule="evenodd"/><path d="M4121.35 1809 4131 1799.37C4121 1789.39 4114.79 1775.64 4114.79 1760.5 4114.79 1745.37 4121 1731.61 4131 1721.63L4121.35 1712C4108.59 1724.38 4101 1741.58 4101 1760.5 4101 1779.42 4108.59 1796.62 4121.35 1809Z" fill-rule="evenodd"/><path d="M4111 1819.31C4096.15 1804.44 4086.82 1783.68 4086.82 1760.5 4086.82 1737.32 4096.15 1716.91 4111 1701.69L4101.33 1692C4083.71 1709.64 4073 1733.86 4073 1760.5 4073 1787.14 4083.71 1811.36 4101.33 1829L4111 1819.31Z" fill-rule="evenodd"/><path d="M4198.78 1790C4206.46 1782.36 4211 1771.95 4211 1760.5 4211 1749.05 4206.46 1738.64 4198.78 1731L4189 1740.72C4193.89 1745.58 4197.03 1752.52 4197.03 1760.5 4197.03 1768.48 4193.89 1775.08 4189 1780.28L4198.78 1790Z" fill-rule="evenodd"/><path d="M4209 1799.37 4218.33 1809C4230.67 1796.62 4238 1779.42 4238 1760.5 4238 1741.58 4230.67 1724.38 4218.33 1712L4209 1721.63C4218.67 1731.61 4224.67 1745.37 4224.67 1760.5 4224.67 1775.64 4218.67 1789.39 4209 1799.37Z" fill-rule="evenodd"/><path d="M4228 1819.31 4237.67 1829C4255.29 1811.36 4266 1787.14 4266 1760.5 4266 1733.86 4255.29 1709.64 4237.67 1692L4228 1701.69C4242.85 1716.56 4252.18 1737.32 4252.18 1760.5 4252.18 1783.68 4242.85 1804.09 4228 1819.31Z" fill-rule="evenodd"/><path d="M4153 1760.5C4153 1751.39 4160.39 1744 4169.5 1744 4178.61 1744 4186 1751.39 4186 1760.5 4186 1769.61 4178.61 1777 4169.5 1777 4160.39 1777 4153 1769.61 4153 1760.5Z" stroke="#000000" stroke-width="5.72917" stroke-linejoin="round" stroke-miterlimit="10" fill-rule="evenodd"/><text fill="#05D7A0" font-family="Times New Roman,Times New Roman_MSFontService,sans-serif" font-weight="400" font-size="64" transform="matrix(1 0 0 1 2509.77 2320)">Software Defined Radio</text><path d="M2798.42 1882.92 2857.66 1882.92 2857.66 1892.08 2798.42 1892.08ZM2803 1901.25 2775.5 1887.5 2803 1873.75Z" fill="#05D7A0"/><path d="M3211.42 1882.92 3270.66 1882.92 3270.66 1892.08 3211.42 1892.08ZM3216 1901.25 3188.5 1887.5 3216 1873.75Z" fill="#05D7A0"/><path d="M3623.42 1882.92 3682.66 1882.92 3682.66 1892.08 3623.42 1892.08ZM3628 1901.25 3600.5 1887.5 3628 1873.75Z" fill="#05D7A0"/><path d="M2210.5 1760.5C2210.5 1739.51 2227.51 1722.5 2248.5 1722.5L2400.5 1722.5C2421.49 1722.5 2438.5 1739.51 2438.5 1760.5L2438.5 2014.5C2438.5 2035.49 2421.49 2052.5 2400.5 2052.5L2248.5 2052.5C2227.51 2052.5 2210.5 2035.49 2210.5 2014.5Z" stroke="#34497D" stroke-width="9.16667" stroke-linejoin="round" stroke-miterlimit="10" fill="#FF5B60" fill-rule="evenodd"/><text fill="#FFFFFF" font-family="Times New Roman,Times New Roman_MSFontService,sans-serif" font-weight="400" font-size="83" transform="matrix(1 0 0 1 2257.25 1915)">API</text><path d="M22.9897-4.20144 84.2107-3.1828 84.0582 5.9826 22.8372 4.96395ZM27.2674 14.2056 0 0 27.7249-13.2906Z" fill="#05D7A0" transform="matrix(1 0 0 -1 2126.5 1888.9)"/><rect x="1630.5" y="1723.5" width="496" height="330" stroke="#FF5B60" stroke-width="9.16667" stroke-miterlimit="8" fill="#FFFFFF"/><text fill="#002060" font-family="Times New Roman,Times New Roman_MSFontService,sans-serif" font-weight="400" font-size="64" transform="matrix(1 0 0 1 1810.51 1873)">Time </text><text fill="#002060" font-family="Times New Roman,Times New Roman_MSFontService,sans-serif" font-weight="400" font-size="64" transform="matrix(1 0 0 1 1667.86 1950)">Synchronization</text><path d="M1238.5 1723.5 1568.5 1723.5 1568.5 2053.5 1238.5 2053.5Z" stroke="#FF5B60" stroke-width="9.16667" stroke-miterlimit="8" fill="#FFFFFF" fill-rule="evenodd"/><text fill="#002060" font-family="Times New Roman,Times New Roman_MSFontService,sans-serif" font-weight="400" font-size="64" transform="matrix(1 0 0 1 1283.52 1873)">Resource </text><text fill="#002060" font-family="Times New Roman,Times New Roman_MSFontService,sans-serif" font-weight="400" font-size="64" transform="matrix(1 0 0 1 1344.52 1950)">Grid</text><rect x="825.5" y="1723.5" width="351" height="330" stroke="#FF5B60" stroke-width="9.16667" stroke-miterlimit="8" fill="#FFFFFF"/><text fill="#002060" font-family="Times New Roman,Times New Roman_MSFontService,sans-serif" font-weight="400" font-size="64" transform="matrix(1 0 0 1 870.586 1873)">Parameter </text><text fill="#002060" font-family="Times New Roman,Times New Roman_MSFontService,sans-serif" font-weight="400" font-size="64" transform="matrix(1 0 0 1 861.717 1950)">Estimation</text><rect x="134.5" y="1723.5" width="200" height="330" stroke="#05D7A0" stroke-width="9.16667" stroke-miterlimit="8" fill="#FFFFFF"/><text fill="#002060" font-family="Times New Roman,Times New Roman_MSFontService,sans-serif" font-weight="400" font-size="64" transform="matrix(1 0 0 1 173.047 1834)">MIB</text><text fill="#002060" font-family="Times New Roman,Times New Roman_MSFontService,sans-serif" font-weight="400" font-size="64" transform="matrix(1 0 0 1 215.741 1911)">+</text><text fill="#002060" font-family="Times New Roman,Times New Roman_MSFontService,sans-serif" font-weight="400" font-size="64" transform="matrix(1 0 0 1 180.495 1988)">ATI</text><rect x="412.5" y="1724.5" width="351" height="330" stroke="#FF5B60" stroke-width="9.16667" stroke-miterlimit="8" fill="#FFFFFF"/><text fill="#002060" font-family="Times New Roman,Times New Roman_MSFontService,sans-serif" font-weight="400" font-size="64" transform="matrix(1 0 0 1 503.726 1874)">PBCH </text><text fill="#002060" font-family="Times New Roman,Times New Roman_MSFontService,sans-serif" font-weight="400" font-size="64" transform="matrix(1 0 0 1 462.751 1951)">Decoding</text><rect x="412.5" y="2095.5" width="351" height="137" stroke="#FF5B60" stroke-width="9.16667" stroke-miterlimit="8" fill="#FFFFFF"/><text fill="#002060" font-family="Times New Roman,Times New Roman_MSFontService,sans-serif" font-weight="400" font-size="64" transform="matrix(1 0 0 1 496.553 2187)">DMRS</text><path d="M1005.69 2053.5 1005.69 2164.09C1005.69 2166.62 1003.64 2168.67 1001.11 2168.67L786.416 2168.67 786.416 2159.5 1001.11 2159.5 996.525 2164.09 996.525 2053.5ZM791 2177.84 763.5 2164.09 791 2150.34Z" fill="#05D7A0"/><path d="M22.9821-4.24322 62.2829-3.66075 62.147 5.50491 22.8462 4.92244ZM27.2932 14.156 0 0 27.7007-13.341Z" fill="#05D7A0" transform="matrix(1 0 0 -1 763.5 1889.42)"/><path d="M1199.42 1883.92 1238.72 1883.92 1238.72 1893.08 1199.42 1893.08ZM1204 1902.25 1176.5 1888.5 1204 1874.75Z" fill="#05D7A0"/><path d="M1591.42 1883.92 1630.71 1883.92 1630.71 1893.08 1591.42 1893.08ZM1596 1902.25 1568.5 1888.5 1596 1874.75Z" fill="#05D7A0"/><path d="M357.469 1884.19 413.269 1884.84 413.161 1894.01 357.361 1893.35ZM361.837 1902.57 334.5 1888.5 362.159 1875.07Z" fill="#05D7A0"/><text fill="#05D7A0" font-family="Times New Roman,Times New Roman_MSFontService,sans-serif" font-weight="400" font-size="64" transform="matrix(1 0 0 1 1621.67 2322)">Baseband Processor</text><rect x="1630.5" y="1538.5" width="496" height="130" stroke="#FF5B60" stroke-width="9.16667" stroke-miterlimit="8" fill="#FFFFFF"/><text fill="#002060" font-family="Times New Roman,Times New Roman_MSFontService,sans-serif" font-weight="400" font-size="64" transform="matrix(1 0 0 1 1728.59 1626)">Fine</text><text fill="#002060" font-family="Times New Roman,Times New Roman_MSFontService,sans-serif" font-weight="400" font-size="64" transform="matrix(1 0 0 1 1842.6 1626)">-</text><text fill="#002060" font-family="Times New Roman,Times New Roman_MSFontService,sans-serif" font-weight="400" font-size="64" transform="matrix(1 0 0 1 1863.8 1626)">tuning</text><rect x="1630.5" y="2105.5" width="496" height="130" stroke="#FF5B60" stroke-width="9.16667" stroke-miterlimit="8" fill="#FFFFFF"/><text fill="#002060" font-family="Times New Roman,Times New Roman_MSFontService,sans-serif" font-weight="400" font-size="64" transform="matrix(1 0 0 1 1670.44 2193)">CFO Correction</text><path d="M1630.71 2174.64 1403.5 2174.64C1400.97 2174.64 1398.92 2172.58 1398.92 2170.05L1398.92 2076.42 1408.08 2076.42 1408.08 2170.05 1403.5 2165.47 1630.71 2165.47ZM1389.75 2081 1403.5 2053.5 1417.25 2081Z" fill="#05D7A0"/><path d="M2027.08 1691.42 2027.08 1723.93 2017.92 1723.94 2017.92 1691.42ZM2008.75 1696 2022.5 1668.5 2036.25 1696Z" fill="#05D7A0"/><path d="M4.58349 22.9166 4.58369 51.5924-4.58297 51.5925-4.58317 22.9167ZM-13.7498 27.5001 0 0 13.7502 27.4999Z" fill="#05D7A0" transform="matrix(1 0 0 -1 1878.5 2105.09)"/><path d="M1743.08 1666.5 1743.08 1699.02 1733.92 1699.02 1733.92 1666.5ZM1752.25 1694.43 1738.5 1721.93 1724.75 1694.43Z" fill="#05D7A0"/></g></svg>