<svg width="1804" height="2574" xmlns="http://www.w3.org/2000/svg" xmlns:xlink="http://www.w3.org/1999/xlink" xml:space="preserve" overflow="hidden"><defs><clipPath id="clip0"><rect x="2495" y="2" width="1804" height="2574"/></clipPath></defs><g clip-path="url(#clip0)" transform="translate(-2495 -2)"><rect x="2664.5" y="656.5" width="438" height="91.9998" stroke="#000000" stroke-width="9.16667" stroke-linejoin="round" stroke-miterlimit="10" fill="none"/><text fill="#002060" font-family="Times New Roman,Times New Roman_MSFontService,sans-serif" font-weight="400" font-size="46" transform="matrix(1 0 0 1 2742.06 719)">1</text><text fill="#002060" font-family="Times New Roman,Times New Roman_MSFontService,sans-serif" font-weight="400" font-size="31" transform="matrix(1 0 0 1 2764.97 705)">ST</text><text fill="#002060" font-family="Times New Roman,Times New Roman_MSFontService,sans-serif" font-weight="400" font-size="46" transform="matrix(1 0 0 1 2812.53 719)">Scrambling</text><rect x="2664.5" y="841.5" width="278" height="91.0001" stroke="#000000" stroke-width="9.16667" stroke-linejoin="round" stroke-miterlimit="10" fill="none"/><text fill="#002060" font-family="Times New Roman,Times New Roman_MSFontService,sans-serif" font-weight="400" font-size="46" transform="matrix(1 0 0 1 2729.41 903)">Payload</text><rect x="2942.5" y="841.5" width="160" height="91.0001" stroke="#000000" stroke-width="9.16667" stroke-linejoin="round" stroke-miterlimit="10" fill="#FF5A5F"/><text fill="#FFFFFF" font-family="Times New Roman,Times New Roman_MSFontService,sans-serif" font-weight="400" font-size="46" transform="matrix(1 0 0 1 2976.51 903)">CRC</text><rect x="2664.5" y="1025.5" width="438" height="92.0001" stroke="#000000" stroke-width="9.16667" stroke-linejoin="round" stroke-miterlimit="10" fill="none"/><text fill="#002060" font-family="Times New Roman,Times New Roman_MSFontService,sans-serif" font-weight="400" font-size="44" transform="matrix(1 0 0 1 2705.39 1087)">Input Bit </text><text fill="#002060" font-family="Times New Roman,Times New Roman_MSFontService,sans-serif" font-weight="400" font-size="44" transform="matrix(1 0 0 1 2872.11 1087)">Interleaver</text><rect x="2664.5" y="1210.5" width="438" height="91.0001" stroke="#000000" stroke-width="9.16667" stroke-linejoin="round" stroke-miterlimit="10" fill="none"/><text fill="#002060" font-family="Times New Roman,Times New Roman_MSFontService,sans-serif" font-weight="400" font-size="48" transform="matrix(1 0 0 1 2772.99 1273)">Polar coder</text><rect x="2664.5" y="1394.5" width="438" height="91.9998" stroke="#000000" stroke-width="9.16667" stroke-linejoin="round" stroke-miterlimit="10" fill="none"/><text fill="#002060" font-family="Times New Roman,Times New Roman_MSFontService,sans-serif" font-weight="400" font-size="46" transform="matrix(1 0 0 1 2749.79 1457)">Rate matching</text><rect x="2664.5" y="1763.5" width="438" height="92.0001" stroke="#000000" stroke-width="9.16667" stroke-linejoin="round" stroke-miterlimit="10" fill="none"/><text fill="#002060" font-family="Times New Roman,Times New Roman_MSFontService,sans-serif" font-weight="400" font-size="46" transform="matrix(1 0 0 1 2722 1826)">QPSK Modulator</text><rect x="2664.5" y="2137.5" width="438" height="91" stroke="#000000" stroke-width="9.16667" stroke-linejoin="round" stroke-miterlimit="10" fill="none"/><text fill="#002060" font-family="Times New Roman,Times New Roman_MSFontService,sans-serif" font-weight="400" font-size="46" transform="matrix(1 0 0 1 2708.83 2199)">Resource Mapping</text><path d="M2888.87 932.897 2889.73 990.277 2875.98 990.482 2875.13 933.103ZM2903.38 983.197 2883.37 1024.75 2862.13 983.813Z" fill="#FFC000"/><path d="M2889.88 1117 2889.88 1174.38 2876.13 1174.38 2876.12 1117ZM2903.63 1167.5 2883 1208.75 2862.38 1167.5Z" fill="#FFC000"/><path d="M2889.88 1302 2889.88 1359.38 2876.13 1359.38 2876.12 1302ZM2903.63 1352.5 2883 1393.75 2862.38 1352.5Z" fill="#FFC000"/><path d="M2889.88 1671 2889.88 1728.38 2876.13 1728.38 2876.12 1671ZM2903.63 1721.5 2883 1762.75 2862.38 1721.5Z" fill="#FFC000"/><path d="M2768.88 1855 2768.88 2096.11 2755.13 2096.11 2755.12 1855ZM2782.63 2089.24 2762 2130.49 2741.38 2089.24Z" fill="#FFC000"/><path d="M2889.88 564 2889.88 621.376 2876.13 621.376 2876.12 564ZM2903.63 614.501 2883 655.751 2862.38 614.501Z" fill="#FFC000"/><text fill="#002060" font-family="Times New Roman,Times New Roman_MSFontService,sans-serif" font-weight="400" font-size="28" transform="matrix(1 0 0 1 2679.68 437)">(32 Bits)</text><text fill="#002060" font-family="Times New Roman,Times New Roman_MSFontService,sans-serif" font-weight="400" font-size="28" transform="matrix(1 0 0 1 2666.1 990)">56 Bits</text><text fill="#002060" font-family="Times New Roman,Times New Roman_MSFontService,sans-serif" font-weight="400" font-size="28" transform="matrix(1 0 0 1 2942.39 807)">24 Bit CRC</text><text fill="#002060" font-family="Times New Roman,Times New Roman_MSFontService,sans-serif" font-weight="400" font-size="28" transform="matrix(1 0 0 1 2666.91 622)">32 Bits</text><text fill="#002060" font-family="Times New Roman,Times New Roman_MSFontService,sans-serif" font-weight="400" font-size="28" transform="matrix(1 0 0 1 2665.17 1175)">56 Bits</text><text fill="#002060" font-family="Times New Roman,Times New Roman_MSFontService,sans-serif" font-weight="400" font-size="28" transform="matrix(1 0 0 1 2665.07 1358)">512 Bits</text><text fill="#002060" font-family="Times New Roman,Times New Roman_MSFontService,sans-serif" font-weight="400" font-size="28" transform="matrix(1 0 0 1 2666.27 1543)">864 Bits</text><text fill="#002060" font-family="Times New Roman,Times New Roman_MSFontService,sans-serif" font-weight="400" font-size="28" transform="matrix(1 0 0 1 2667.13 1931)">432 symbols</text><rect x="2664.5" y="472.5" width="438" height="90.9997" stroke="#000000" stroke-width="9.16667" stroke-linejoin="round" stroke-miterlimit="10" fill="none"/><text fill="#002060" font-family="Times New Roman,Times New Roman_MSFontService,sans-serif" font-weight="400" font-size="46" transform="matrix(1 0 0 1 2717.71 534)">PBCH </text><text fill="#002060" font-family="Times New Roman,Times New Roman_MSFontService,sans-serif" font-weight="400" font-size="46" transform="matrix(1 0 0 1 2848.33 534)">Interleaver</text><path d="M6.87423-0.10264 7.73098 57.2769-6.01749 57.4822-6.87423 0.10264ZM21.3768 50.1974 1.36995 91.7508-19.8686 50.8133Z" fill="#FFC000" transform="matrix(-1 0 0 1 2883.37 748)"/><rect x="2664.5" y="287.5" width="438" height="92.0001" stroke="#000000" stroke-width="9.16667" stroke-linejoin="round" stroke-miterlimit="10" fill="none"/><text fill="#002060" font-family="Times New Roman,Times New Roman_MSFontService,sans-serif" font-weight="400" font-size="46" transform="matrix(1 0 0 1 2743.78 349)">PBCH Payload</text><path d="M2889.88 379 2889.88 436.376 2876.13 436.376 2876.12 379ZM2903.63 429.501 2883 470.751 2862.38 429.501Z" fill="#FFC000"/><rect x="2664.5" y="1579.5" width="438" height="92.0001" stroke="#000000" stroke-width="9.16667" stroke-linejoin="round" stroke-miterlimit="10" fill="none"/><text fill="#002060" font-family="Times New Roman,Times New Roman_MSFontService,sans-serif" font-weight="400" font-size="46" transform="matrix(1 0 0 1 2777.29 1641)">Scrambling</text><path d="M2889.88 1487 2889.88 1544.38 2876.13 1544.38 2876.12 1487ZM2903.63 1537.5 2883 1578.75 2862.38 1537.5Z" fill="#FFC000"/><text fill="#002060" font-family="Times New Roman,Times New Roman_MSFontService,sans-serif" font-weight="400" font-size="28" transform="matrix(1 0 0 1 2666.26 805)">32 Bits</text><text fill="#002060" font-family="Times New Roman,Times New Roman_MSFontService,sans-serif" font-weight="400" font-size="28" transform="matrix(1 0 0 1 2666.16 1727)">864 Bits</text><path d="M2991.88 2058 2991.88 2097.45 2978.13 2097.45 2978.13 2058ZM3005.63 2090.57 2985 2131.82 2964.38 2090.57Z" fill="#FFC000"/><rect x="2868.5" y="1934.5" width="234" height="124" stroke="#000000" stroke-width="9.16667" stroke-linejoin="round" stroke-miterlimit="10" fill="none"/><text fill="#002060" font-family="Times New Roman,Times New Roman_MSFontService,sans-serif" font-weight="400" font-size="41" transform="matrix(1 0 0 1 2926.38 1986)">DMRS </text><text fill="#002060" font-family="Times New Roman,Times New Roman_MSFontService,sans-serif" font-weight="400" font-size="41" transform="matrix(1 0 0 1 2902.31 2035)">Generator</text><text fill="#002060" font-family="Times New Roman,Times New Roman_MSFontService,sans-serif" font-weight="400" font-size="32" transform="matrix(1 0 0 1 3151.55 364)">TS 38.212 Clause 7.1.1</text><text fill="#002060" font-family="Times New Roman,Times New Roman_MSFontService,sans-serif" font-weight="400" font-size="32" transform="matrix(1 0 0 1 3151.55 547)">TS 38.212 Clause 7.1.1</text><text fill="#002060" font-family="Times New Roman,Times New Roman_MSFontService,sans-serif" font-weight="400" font-size="32" transform="matrix(1 0 0 1 3151.55 734)">TS 38.212 Clause 7.1.2</text><text fill="#002060" font-family="Times New Roman,Times New Roman_MSFontService,sans-serif" font-weight="400" font-size="32" transform="matrix(1 0 0 1 3151.55 915)">TS 38.212 Clause 7.1.3, 5.1</text><text fill="#002060" font-family="Times New Roman,Times New Roman_MSFontService,sans-serif" font-weight="400" font-size="32" transform="matrix(1 0 0 1 3151.55 1100)">TS 38.212 Clause 7.1.4, 5.3.1.1</text><text fill="#002060" font-family="Times New Roman,Times New Roman_MSFontService,sans-serif" font-weight="400" font-size="32" transform="matrix(1 0 0 1 3151.55 1285)">TS 38.212 Clause 7.1.1, 5.3.1.2</text><text fill="#002060" font-family="Times New Roman,Times New Roman_MSFontService,sans-serif" font-weight="400" font-size="32" transform="matrix(1 0 0 1 3151.55 1471)">TS 38.212 Clause 7.1.1, 5.4.1</text><text fill="#002060" font-family="Times New Roman,Times New Roman_MSFontService,sans-serif" font-weight="400" font-size="32" transform="matrix(1 0 0 1 3151.55 1654)">TS 38.211 Clause 7.3.3.1</text><text fill="#002060" font-family="Times New Roman,Times New Roman_MSFontService,sans-serif" font-weight="400" font-size="32" transform="matrix(1 0 0 1 3151.55 1839)">TS 38.211 Clause 7.3.3.2, 5.4</text><text fill="#002060" font-family="Times New Roman,Times New Roman_MSFontService,sans-serif" font-weight="400" font-size="32" transform="matrix(1 0 0 1 3151.55 2022)">TS 38.211 Clause 7.4.1.4</text><text fill="#002060" font-family="Times New Roman,Times New Roman_MSFontService,sans-serif" font-weight="400" font-size="32" transform="matrix(1 0 0 1 3151.55 2213)">TS 38.211 Clause 7.4.3.1</text><path d="M3023.5 427.5 3617.7 427.5" stroke="#4A66AC" stroke-width="3.4375" stroke-linecap="round" stroke-linejoin="round" stroke-miterlimit="10" stroke-dasharray="0 6.875" fill="none" fill-rule="evenodd"/><path d="M3023.5 609.5 3617.7 609.5" stroke="#4A66AC" stroke-width="3.4375" stroke-linecap="round" stroke-linejoin="round" stroke-miterlimit="10" stroke-dasharray="0 6.875" fill="none" fill-rule="evenodd"/><path d="M3023.5 797.5 3617.7 797.5" stroke="#4A66AC" stroke-width="3.4375" stroke-linecap="round" stroke-linejoin="round" stroke-miterlimit="10" stroke-dasharray="0 6.875" fill="none" fill-rule="evenodd"/><path d="M3023.5 980.5 3617.7 980.5" stroke="#4A66AC" stroke-width="3.4375" stroke-linecap="round" stroke-linejoin="round" stroke-miterlimit="10" stroke-dasharray="0 6.875" fill="none" fill-rule="evenodd"/><path d="M3023.5 1166.5 3617.7 1166.5" stroke="#4A66AC" stroke-width="3.4375" stroke-linecap="round" stroke-linejoin="round" stroke-miterlimit="10" stroke-dasharray="0 6.875" fill="none" fill-rule="evenodd"/><path d="M3023.5 1348.5 3617.7 1348.5" stroke="#4A66AC" stroke-width="3.4375" stroke-linecap="round" stroke-linejoin="round" stroke-miterlimit="10" stroke-dasharray="0 6.875" fill="none" fill-rule="evenodd"/><path d="M3023.5 1537.5 3617.7 1537.5" stroke="#4A66AC" stroke-width="3.4375" stroke-linecap="round" stroke-linejoin="round" stroke-miterlimit="10" stroke-dasharray="0 6.875" fill="none" fill-rule="evenodd"/><path d="M3023.5 1719.5 3617.7 1719.5" stroke="#4A66AC" stroke-width="3.4375" stroke-linecap="round" stroke-linejoin="round" stroke-miterlimit="10" stroke-dasharray="0 6.875" fill="none" fill-rule="evenodd"/><path d="M3023.5 1899.5 3617.7 1899.5" stroke="#4A66AC" stroke-width="3.4375" stroke-linecap="round" stroke-linejoin="round" stroke-miterlimit="10" stroke-dasharray="0 6.875" fill="none" fill-rule="evenodd"/><path d="M3023.5 2096.5 3617.7 2096.5" stroke="#4A66AC" stroke-width="3.4375" stroke-linecap="round" stroke-linejoin="round" stroke-miterlimit="10" stroke-dasharray="0 6.875" fill="none" fill-rule="evenodd"/><rect x="3669.5" y="657.5" width="454" height="91.9998" stroke="#000000" stroke-width="9.16667" stroke-linejoin="round" stroke-miterlimit="10" fill="none"/><text fill="#002060" font-family="Times New Roman,Times New Roman_MSFontService,sans-serif" font-weight="400" font-size="46" transform="matrix(1 0 0 1 3723.95 719)">1</text><text fill="#002060" font-family="Times New Roman,Times New Roman_MSFontService,sans-serif" font-weight="400" font-size="31" transform="matrix(1 0 0 1 3746.86 705)">ST</text><text fill="#002060" font-family="Times New Roman,Times New Roman_MSFontService,sans-serif" font-weight="400" font-size="46" transform="matrix(1 0 0 1 3794.41 719)">De</text><text fill="#002060" font-family="Times New Roman,Times New Roman_MSFontService,sans-serif" font-weight="400" font-size="46" transform="matrix(1 0 0 1 3848.27 719)">-</text><text fill="#002060" font-family="Times New Roman,Times New Roman_MSFontService,sans-serif" font-weight="400" font-size="46" transform="matrix(1 0 0 1 3863.74 719)">scrambling</text><rect x="3669.5" y="841.5" width="300" height="91.0001" stroke="#000000" stroke-width="9.16667" stroke-linejoin="round" stroke-miterlimit="10" fill="none"/><text fill="#002060" font-family="Times New Roman,Times New Roman_MSFontService,sans-serif" font-weight="400" font-size="41" transform="matrix(1 0 0 1 3702.42 902)">CRC Decoder</text><rect x="3979.5" y="841.5" width="144" height="91.0001" stroke="#000000" stroke-width="9.16667" stroke-linejoin="round" stroke-miterlimit="10" fill="#FF5A5F"/><text fill="#FFFFFF" font-family="Times New Roman,Times New Roman_MSFontService,sans-serif" font-weight="400" font-size="28" transform="matrix(1 0 0 1 4016.05 897)">Check</text><rect x="3669.5" y="1026.5" width="454" height="92.0001" stroke="#000000" stroke-width="9.16667" stroke-linejoin="round" stroke-miterlimit="10" fill="none"/><text fill="#002060" font-family="Times New Roman,Times New Roman_MSFontService,sans-serif" font-weight="400" font-size="37" transform="matrix(1 0 0 1 3720.22 1085)">Input Bit De</text><text fill="#002060" font-family="Times New Roman,Times New Roman_MSFontService,sans-serif" font-weight="400" font-size="37" transform="matrix(1 0 0 1 3903.55 1085)">-</text><text fill="#002060" font-family="Times New Roman,Times New Roman_MSFontService,sans-serif" font-weight="400" font-size="37" transform="matrix(1 0 0 1 3915.58 1085)">interleaver</text><rect x="3669.5" y="1211.5" width="454" height="92.0001" stroke="#000000" stroke-width="9.16667" stroke-linejoin="round" stroke-miterlimit="10" fill="none"/><text fill="#002060" font-family="Times New Roman,Times New Roman_MSFontService,sans-serif" font-weight="400" font-size="46" transform="matrix(1 0 0 1 3763.47 1273)">Polar Decoder</text><rect x="3669.5" y="1396.5" width="454" height="91.9998" stroke="#000000" stroke-width="9.16667" stroke-linejoin="round" stroke-miterlimit="10" fill="none"/><text fill="#002060" font-family="Times New Roman,Times New Roman_MSFontService,sans-serif" font-weight="400" font-size="46" transform="matrix(1 0 0 1 3768.06 1458)">Bits matching</text><rect x="3669.5" y="1765.5" width="454" height="92.0001" stroke="#000000" stroke-width="9.16667" stroke-linejoin="round" stroke-miterlimit="10" fill="none"/><text fill="#002060" font-family="Times New Roman,Times New Roman_MSFontService,sans-serif" font-weight="400" font-size="46" transform="matrix(1 0 0 1 3702.74 1828)">QPSK De</text><text fill="#002060" font-family="Times New Roman,Times New Roman_MSFontService,sans-serif" font-weight="400" font-size="46" transform="matrix(1 0 0 1 3884.93 1828)">-</text><text fill="#002060" font-family="Times New Roman,Times New Roman_MSFontService,sans-serif" font-weight="400" font-size="46" transform="matrix(1 0 0 1 3900.4 1828)">modulator</text><rect x="3669.5" y="1951.5" width="454" height="91.0001" stroke="#000000" stroke-width="9.16667" stroke-linejoin="round" stroke-miterlimit="10" fill="none"/><text fill="#002060" font-family="Times New Roman,Times New Roman_MSFontService,sans-serif" font-weight="400" font-size="46" transform="matrix(1 0 0 1 3779.8 2013)">Equalization</text><path d="M3904.41 968.264 3905.3 1025.77 3891.55 1025.98 3890.66 968.477ZM3877.02 975.564 3897 934 3918.26 974.926Z" fill="#FFC000"/><path d="M3903.88 1153.37 3903.88 1210.87 3890.13 1210.87 3890.13 1153.37ZM3876.38 1160.25 3897 1119 3917.63 1160.25Z" fill="#FFC000"/><path d="M3903.88 1337.38 3903.88 1394.87 3890.13 1394.87 3890.13 1337.38ZM3876.38 1344.25 3897 1303 3917.63 1344.25Z" fill="#FFC000"/><path d="M3903.88 1707.38 3903.88 1764.87 3890.13 1764.87 3890.13 1707.38ZM3876.38 1714.25 3897 1673 3917.63 1714.25Z" fill="#FFC000"/><path d="M6.875-2.65716e-05 6.87523 59.0005-6.87477 59.0005-6.875 2.65716e-05ZM20.6252 52.1254 0.000360892 93.3755-20.6248 52.1256Z" fill="#FFC000" transform="matrix(1 0 0 -1 3896 1950.38)"/><path d="M3903.88 598.375 3903.88 655.872 3890.13 655.873 3890.13 598.375ZM3876.38 605.25 3897 564 3917.63 605.25Z" fill="#FFC000"/><text fill="#002060" font-family="Times New Roman,Times New Roman_MSFontService,sans-serif" font-weight="400" font-size="28" transform="matrix(1 0 0 1 3685.8 437)">(32 Bits)</text><text fill="#002060" font-family="Times New Roman,Times New Roman_MSFontService,sans-serif" font-weight="400" font-size="28" transform="matrix(1 0 0 1 3672.22 991)">56 Bits</text><text fill="#002060" font-family="Times New Roman,Times New Roman_MSFontService,sans-serif" font-weight="400" font-size="28" transform="matrix(1 0 0 1 3673.07 622)">32 Bits</text><text fill="#002060" font-family="Times New Roman,Times New Roman_MSFontService,sans-serif" font-weight="400" font-size="28" transform="matrix(1 0 0 1 3671.26 1176)">56 Bits</text><text fill="#002060" font-family="Times New Roman,Times New Roman_MSFontService,sans-serif" font-weight="400" font-size="28" transform="matrix(1 0 0 1 3671.16 1359)">512 Bits</text><text fill="#002060" font-family="Times New Roman,Times New Roman_MSFontService,sans-serif" font-weight="400" font-size="28" transform="matrix(1 0 0 1 3672.4 1545)">864 Bits</text><text fill="#002060" font-family="Times New Roman,Times New Roman_MSFontService,sans-serif" font-weight="400" font-size="28" transform="matrix(1 0 0 1 3673.3 1913)">432 symbols</text><rect x="3669.5" y="472.5" width="454" height="91.9998" stroke="#000000" stroke-width="9.16667" stroke-linejoin="round" stroke-miterlimit="10" fill="none"/><text fill="#002060" font-family="Times New Roman,Times New Roman_MSFontService,sans-serif" font-weight="400" font-size="46" transform="matrix(1 0 0 1 3697.3 534)">PBCH De</text><text fill="#002060" font-family="Times New Roman,Times New Roman_MSFontService,sans-serif" font-weight="400" font-size="46" transform="matrix(1 0 0 1 3881.78 534)">-</text><text fill="#002060" font-family="Times New Roman,Times New Roman_MSFontService,sans-serif" font-weight="400" font-size="46" transform="matrix(1 0 0 1 3897.25 534)">interleaver</text><path d="M7.406 34.2645 8.29573 91.766-5.45262 91.9787-6.34235 34.4773ZM-19.9843 41.5642 0 0 21.2607 40.926Z" fill="#FFC000" transform="matrix(-1 0 0 1 3898.42 749)"/><rect x="3669.5" y="287.5" width="454" height="92.0001" stroke="#000000" stroke-width="9.16667" stroke-linejoin="round" stroke-miterlimit="10" fill="none"/><text fill="#002060" font-family="Times New Roman,Times New Roman_MSFontService,sans-serif" font-weight="400" font-size="41" transform="matrix(1 0 0 1 3691.86 348)">Decoded PBCH Payload</text><path d="M3903.88 413.375 3903.88 470.872 3890.13 470.873 3890.13 413.375ZM3876.38 420.25 3897 379 3917.63 420.25Z" fill="#FFC000"/><rect x="3669.5" y="1580.5" width="454" height="91.9998" stroke="#000000" stroke-width="9.16667" stroke-linejoin="round" stroke-miterlimit="10" fill="none"/><text fill="#002060" font-family="Times New Roman,Times New Roman_MSFontService,sans-serif" font-weight="400" font-size="46" transform="matrix(1 0 0 1 3759.18 1643)">De</text><text fill="#002060" font-family="Times New Roman,Times New Roman_MSFontService,sans-serif" font-weight="400" font-size="46" transform="matrix(1 0 0 1 3813.03 1643)">-</text><text fill="#002060" font-family="Times New Roman,Times New Roman_MSFontService,sans-serif" font-weight="400" font-size="46" transform="matrix(1 0 0 1 3828.5 1643)">scrambling</text><path d="M3903.88 1522.38 3903.88 1579.87 3890.13 1579.87 3890.13 1522.38ZM3876.38 1529.25 3897 1488 3917.63 1529.25Z" fill="#FFC000"/><text fill="#002060" font-family="Times New Roman,Times New Roman_MSFontService,sans-serif" font-weight="400" font-size="28" transform="matrix(1 0 0 1 3672.39 806)">32 Bits</text><text fill="#002060" font-family="Times New Roman,Times New Roman_MSFontService,sans-serif" font-weight="400" font-size="28" transform="matrix(1 0 0 1 3672.29 1729)">864 Bits</text><path d="M3958.88 2273.37 3958.88 2299.1 3945.13 2299.1 3945.13 2273.37ZM3931.38 2280.25 3952 2239 3972.63 2280.25Z" fill="#FFC000"/><rect x="3779.5" y="2114.5" width="346" height="125" stroke="#000000" stroke-width="9.16667" stroke-linejoin="round" stroke-miterlimit="10" fill="none"/><text fill="#002060" font-family="Times New Roman,Times New Roman_MSFontService,sans-serif" font-weight="400" font-size="46" transform="matrix(1 0 0 1 3875.48 2165)">Channel </text><text fill="#002060" font-family="Times New Roman,Times New Roman_MSFontService,sans-serif" font-weight="400" font-size="46" transform="matrix(1 0 0 1 3852.84 2220)">Estimation</text><rect x="3669.5" y="2299.5" width="454" height="92.0002" stroke="#000000" stroke-width="9.16667" stroke-linejoin="round" stroke-miterlimit="10" fill="none"/><text fill="#002060" font-family="Times New Roman,Times New Roman_MSFontService,sans-serif" font-weight="400" font-size="46" transform="matrix(1 0 0 1 3710.19 2362)">Estimated SSB Grid</text><path d="M3958.88 2076.37 3958.88 2113.23 3945.13 2113.23 3945.13 2076.38ZM3931.38 2083.25 3952 2042 3972.63 2083.25Z" fill="#FFC000"/><path d="M3760.88 2076.38 3760.88 2270.9 3747.13 2270.9 3747.12 2076.38ZM3733.38 2083.25 3754 2042 3774.62 2083.25Z" fill="#FFC000"/><rect x="2657" y="161" width="445" height="106" fill="#05D7A0"/><text fill="#FFFFFF" font-family="Times New Roman,Times New Roman_MSFontService,sans-serif" font-weight="400" font-size="60" transform="matrix(1 0 0 1 2732.6 236)">Base</text><text fill="#FFFFFF" font-family="Times New Roman,Times New Roman_MSFontService,sans-serif" font-weight="400" font-size="60" transform="matrix(1 0 0 1 2847.75 236)">-</text><text fill="#FFFFFF" font-family="Times New Roman,Times New Roman_MSFontService,sans-serif" font-weight="400" font-size="60" transform="matrix(1 0 0 1 2867.81 236)">station</text><rect x="3661" y="164" width="469" height="106" fill="#05D7A0"/><text fill="#FFFFFF" font-family="Times New Roman,Times New Roman_MSFontService,sans-serif" font-weight="400" font-size="60" transform="matrix(1 0 0 1 3701.31 239)">User Equipment</text></g></svg>