<svg width="4392" height="740" xmlns="http://www.w3.org/2000/svg" xmlns:xlink="http://www.w3.org/1999/xlink" xml:space="preserve" overflow="hidden"><defs><clipPath id="clip0"><rect x="0" y="945" width="4392" height="740"/></clipPath></defs><g clip-path="url(#clip0)" transform="matrix(1 0 0 1 0 -945)"><rect x="253.5" y="1198.5" width="442" height="234" stroke="#000000" stroke-width="9.16667" stroke-linejoin="round" stroke-miterlimit="10" fill="none"/><text fill="#002060" font-family="Times New Roman,Times New Roman_MSFontService,sans-serif" font-weight="400" font-size="64" transform="matrix(1 0 0 1 443.917 1300)">IE </text><text fill="#002060" font-family="Times New Roman,Times New Roman_MSFontService,sans-serif" font-weight="400" font-size="64" transform="matrix(1 0 0 1 306.417 1377)">Multiplexing</text><rect x="768.5" y="1198.5" width="441" height="234" stroke="#000000" stroke-width="9.16667" stroke-linejoin="round" stroke-miterlimit="10" fill="none"/><text fill="#002060" font-family="Times New Roman,Times New Roman_MSFontService,sans-serif" font-weight="400" font-size="64" transform="matrix(1 0 0 1 924.177 1300)">CRC </text><text fill="#002060" font-family="Times New Roman,Times New Roman_MSFontService,sans-serif" font-weight="400" font-size="64" transform="matrix(1 0 0 1 881.781 1377)">Encoder</text><rect x="1282.5" y="1198.5" width="442" height="234" stroke="#000000" stroke-width="9.16667" stroke-linejoin="round" stroke-miterlimit="10" fill="none"/><text fill="#002060" font-family="Times New Roman,Times New Roman_MSFontService,sans-serif" font-weight="400" font-size="64" transform="matrix(1 0 0 1 1428.5 1300)">RNTI </text><text fill="#002060" font-family="Times New Roman,Times New Roman_MSFontService,sans-serif" font-weight="400" font-size="64" transform="matrix(1 0 0 1 1390.69 1377)">Masking</text><rect x="1797.5" y="1198.5" width="442" height="234" stroke="#000000" stroke-width="9.16667" stroke-linejoin="round" stroke-miterlimit="10" fill="none"/><text fill="#002060" font-family="Times New Roman,Times New Roman_MSFontService,sans-serif" font-weight="400" font-size="64" transform="matrix(1 0 0 1 1950.3 1300)">Polar </text><text fill="#002060" font-family="Times New Roman,Times New Roman_MSFontService,sans-serif" font-weight="400" font-size="64" transform="matrix(1 0 0 1 1939.41 1377)">Coder</text><rect x="2312.5" y="1198.5" width="441" height="234" stroke="#000000" stroke-width="9.16667" stroke-linejoin="round" stroke-miterlimit="10" fill="none"/><text fill="#002060" font-family="Times New Roman,Times New Roman_MSFontService,sans-serif" font-weight="400" font-size="64" transform="matrix(1 0 0 1 2473.51 1300)">Rate </text><text fill="#002060" font-family="Times New Roman,Times New Roman_MSFontService,sans-serif" font-weight="400" font-size="64" transform="matrix(1 0 0 1 2413.08 1377)">matching</text><rect x="2826.5" y="1198.5" width="442" height="234" stroke="#000000" stroke-width="9.16667" stroke-linejoin="round" stroke-miterlimit="10" fill="none"/><text fill="#002060" font-family="Times New Roman,Times New Roman_MSFontService,sans-serif" font-weight="400" font-size="64" transform="matrix(1 0 0 1 2899.36 1339)">Scrambling</text><rect x="3341.5" y="1198.5" width="442" height="234" stroke="#000000" stroke-width="9.16667" stroke-linejoin="round" stroke-miterlimit="10" fill="none"/><text fill="#002060" font-family="Times New Roman,Times New Roman_MSFontService,sans-serif" font-weight="400" font-size="64" transform="matrix(1 0 0 1 3479.87 1300)">QPSK</text><text fill="#002060" font-family="Times New Roman,Times New Roman_MSFontService,sans-serif" font-weight="400" font-size="64" transform="matrix(1 0 0 1 3445.79 1377)">Mapping</text><rect x="3856.5" y="1198.5" width="441" height="234" stroke="#000000" stroke-width="9.16667" stroke-linejoin="round" stroke-miterlimit="10" fill="none"/><text fill="#002060" font-family="Times New Roman,Times New Roman_MSFontService,sans-serif" font-weight="400" font-size="64" transform="matrix(1 0 0 1 3956.7 1300)">Resource </text><text fill="#002060" font-family="Times New Roman,Times New Roman_MSFontService,sans-serif" font-weight="400" font-size="64" transform="matrix(1 0 0 1 3960.43 1377)">Mapping</text><rect x="2826.5" y="1056.5" width="957" height="111" stroke="#000000" stroke-width="9.16667" stroke-linejoin="round" stroke-miterlimit="10" fill="none"/><text fill="#002060" font-family="Times New Roman,Times New Roman_MSFontService,sans-serif" font-weight="400" font-size="64" transform="matrix(1 0 0 1 3020.32 1135)">CCE</text><text fill="#002060" font-family="Times New Roman,Times New Roman_MSFontService,sans-serif" font-weight="400" font-size="64" transform="matrix(1 0 0 1 3145.22 1135)">-</text><text fill="#002060" font-family="Times New Roman,Times New Roman_MSFontService,sans-serif" font-weight="400" font-size="64" transform="matrix(1 0 0 1 3166.41 1135)">2</text><text fill="#002060" font-family="Times New Roman,Times New Roman_MSFontService,sans-serif" font-weight="400" font-size="64" transform="matrix(1 0 0 1 3198.5 1135)">-</text><text fill="#002060" font-family="Times New Roman,Times New Roman_MSFontService,sans-serif" font-weight="400" font-size="64" transform="matrix(1 0 0 1 3219.69 1135)">REG mapping</text><rect x="2826.5" y="1463.5" width="957" height="111" stroke="#000000" stroke-width="9.16667" stroke-linejoin="round" stroke-miterlimit="10" fill="none"/><text fill="#002060" font-family="Times New Roman,Times New Roman_MSFontService,sans-serif" font-weight="400" font-size="64" transform="matrix(1 0 0 1 3062.72 1542)">DMRS Generation</text><path d="M3783.5 1106.92 4081.85 1106.92 4081.85 1175.19 4072.69 1175.19 4072.69 1111.5 4077.27 1116.08 3783.5 1116.08ZM4091.02 1170.61 4077.27 1198.11 4063.52 1170.61Z"/><path d="M0-4.58333 298.352-4.58333 298.352 63.6946 289.186 63.6946 289.186 0 293.769 4.58333 0 4.58333ZM307.519 59.1113 293.769 86.6113 280.019 59.1113Z" transform="matrix(1 0 0 -1 3783.5 1519.11)"/><path d="M163.5 1309.77 224.601 1309.77 224.601 1321.23 163.5 1321.23ZM218.872 1298.31 253.247 1315.5 218.872 1332.69Z"/><path d="M695.5 1309.77 739.757 1309.77 739.756 1321.23 695.5 1321.23ZM734.027 1298.31 768.402 1315.5 734.027 1332.69Z"/><path d="M1209.5 1309.77 1253.76 1309.77 1253.76 1321.23 1209.5 1321.23ZM1248.03 1298.31 1282.4 1315.5 1248.03 1332.69Z"/><path d="M1724.5 1309.77 1768.76 1309.77 1768.76 1321.23 1724.5 1321.23ZM1763.03 1298.31 1797.4 1315.5 1763.03 1332.69Z"/><path d="M2239.5 1309.77 2283.76 1309.77 2283.76 1321.23 2239.5 1321.23ZM2278.03 1298.31 2312.4 1315.5 2278.03 1332.69Z"/><path d="M2753.5 1309.77 2797.76 1309.77 2797.76 1321.23 2753.5 1321.23ZM2792.03 1298.31 2826.4 1315.5 2792.03 1332.69Z"/><path d="M3268.5 1309.77 3312.76 1309.77 3312.76 1321.23 3268.5 1321.23ZM3307.03 1298.31 3341.4 1315.5 3307.03 1332.69Z"/><path d="M3783.5 1309.77 3827.76 1309.77 3827.76 1321.23 3783.5 1321.23ZM3822.03 1298.31 3856.4 1315.5 3822.03 1332.69Z"/><path d="M4297.5 1309.77 4329.49 1309.77 4329.49 1321.23 4297.5 1321.23ZM4323.76 1298.31 4358.14 1315.5 4323.76 1332.69Z"/><text fill="#002060" font-family="Times New Roman,Times New Roman_MSFontService,sans-serif" font-weight="400" font-size="55" transform="matrix(1 0 0 1 33 1301)">DCI </text><text fill="#002060" font-family="Times New Roman,Times New Roman_MSFontService,sans-serif" font-weight="400" font-size="55" transform="matrix(1 0 0 1 33 1367)">payload</text></g></svg>