<svg width="2384" height="1366" xmlns="http://www.w3.org/2000/svg" xmlns:xlink="http://www.w3.org/1999/xlink" xml:space="preserve" overflow="hidden"><defs><clipPath id="clip0"><rect x="366" y="837" width="2384" height="1366"/></clipPath></defs><g clip-path="url(#clip0)" transform="translate(-366 -837)"><path d="M1510.16 937.758 2043.49 937.758 2043.49 1301 1510.16 1301Z" fill="#E95C6C" fill-rule="evenodd" fill-opacity="0.2"/><path d="M1510.16 1301 2043.49 1301 2043.49 1690.91 1510.16 1690.91Z" fill="#E95C6C" fill-rule="evenodd" fill-opacity="0.2"/><path d="M1510.16 1301 1510.16 1693.2" stroke="#000000" stroke-width="4.58333" stroke-linejoin="round" stroke-miterlimit="10" fill="none" fill-rule="evenodd"/><path d="M2043.49 935.467 2043.49 1693.2" stroke="#000000" stroke-width="4.58333" stroke-linejoin="round" stroke-miterlimit="10" fill="none" fill-rule="evenodd"/><path d="M1510.16 937.758 2045.78 937.758" stroke="#000000" stroke-width="4.58333" stroke-linejoin="round" stroke-miterlimit="10" fill="none" fill-rule="evenodd"/><path d="M1507.87 1690.91 2045.78 1690.91" stroke="#000000" stroke-width="4.58333" stroke-linejoin="round" stroke-miterlimit="10" fill="none" fill-rule="evenodd"/><path d="M917.207 937.401 1509.25 937.401 1509.25 1299.38 917.207 1299.38Z" fill="#E95C6C" fill-rule="evenodd" fill-opacity="0.2"/><path d="M917.207 935.109 917.207 1301.67" stroke="#000000" stroke-width="4.58333" stroke-linejoin="round" stroke-miterlimit="10" fill="none" fill-rule="evenodd"/><path d="M914.916 937.401 1509.25 937.401" stroke="#000000" stroke-width="4.58333" stroke-linejoin="round" stroke-miterlimit="10" fill="none" fill-rule="evenodd"/><path d="M914.916 1299.38 1509.25 1299.38" stroke="#000000" stroke-width="4.58333" stroke-linejoin="round" stroke-miterlimit="10" fill="none" fill-rule="evenodd"/><rect x="370.5" y="982.5" width="441" height="234" stroke="#000000" stroke-width="9.16667" stroke-linejoin="round" stroke-miterlimit="10" fill="none"/><text fill="#002060" font-family="Times New Roman,Times New Roman_MSFontService,sans-serif" font-weight="400" font-size="64" transform="matrix(1 0 0 1 560.388 1084)">IE </text><text fill="#002060" font-family="Times New Roman,Times New Roman_MSFontService,sans-serif" font-weight="400" font-size="64" transform="matrix(1 0 0 1 422.888 1161)">Multiplexing</text><rect x="370.5" y="1389.5" width="441" height="234" stroke="#000000" stroke-width="9.16667" stroke-linejoin="round" stroke-miterlimit="10" fill="none"/><text fill="#002060" font-family="Times New Roman,Times New Roman_MSFontService,sans-serif" font-weight="400" font-size="64" transform="matrix(1 0 0 1 526.013 1491)">CRC </text><text fill="#002060" font-family="Times New Roman,Times New Roman_MSFontService,sans-serif" font-weight="400" font-size="64" transform="matrix(1 0 0 1 483.617 1568)">Encoder</text><rect x="370.5" y="1796.5" width="441" height="234" stroke="#000000" stroke-width="9.16667" stroke-linejoin="round" stroke-miterlimit="10" fill="none"/><text fill="#002060" font-family="Times New Roman,Times New Roman_MSFontService,sans-serif" font-weight="400" font-size="64" transform="matrix(1 0 0 1 515.7 1898)">RNTI </text><text fill="#002060" font-family="Times New Roman,Times New Roman_MSFontService,sans-serif" font-weight="400" font-size="64" transform="matrix(1 0 0 1 477.888 1975)">Masking</text><rect x="963.5" y="1796.5" width="441" height="234" stroke="#000000" stroke-width="9.16667" stroke-linejoin="round" stroke-miterlimit="10" fill="none"/><text fill="#002060" font-family="Times New Roman,Times New Roman_MSFontService,sans-serif" font-weight="400" font-size="64" transform="matrix(1 0 0 1 1068.55 1898)">Input Bit</text><text fill="#002060" font-family="Times New Roman,Times New Roman_MSFontService,sans-serif" font-weight="400" font-size="64" transform="matrix(1 0 0 1 1044.48 1975)">Interleave</text><text fill="#002060" font-family="Times New Roman,Times New Roman_MSFontService,sans-serif" font-weight="400" font-size="64" transform="matrix(1 0 0 1 1301.15 1975)">r</text><rect x="963.5" y="1389.5" width="441" height="234" stroke="#000000" stroke-width="9.16667" stroke-linejoin="round" stroke-miterlimit="10" fill="none"/><text fill="#002060" font-family="Times New Roman,Times New Roman_MSFontService,sans-serif" font-weight="400" font-size="64" transform="matrix(1 0 0 1 1115.8 1491)">Polar</text><text fill="#002060" font-family="Times New Roman,Times New Roman_MSFontService,sans-serif" font-weight="400" font-size="64" transform="matrix(1 0 0 1 1076.57 1568)">Encoder</text><rect x="963.5" y="982.5" width="441" height="234" stroke="#000000" stroke-width="9.16667" stroke-linejoin="round" stroke-miterlimit="10" fill="none"/><text fill="#002060" font-family="Times New Roman,Times New Roman_MSFontService,sans-serif" font-weight="400" font-size="64" transform="matrix(1 0 0 1 1051.63 1084)">Sub</text><text fill="#002060" font-family="Times New Roman,Times New Roman_MSFontService,sans-serif" font-weight="400" font-size="64" transform="matrix(1 0 0 1 1151.32 1084)">-</text><text fill="#002060" font-family="Times New Roman,Times New Roman_MSFontService,sans-serif" font-weight="400" font-size="64" transform="matrix(1 0 0 1 1172.52 1084)">block </text><text fill="#002060" font-family="Times New Roman,Times New Roman_MSFontService,sans-serif" font-weight="400" font-size="64" transform="matrix(1 0 0 1 1044.48 1161)">Interleaver</text><rect x="1556.5" y="982.5" width="441" height="234" stroke="#000000" stroke-width="9.16667" stroke-linejoin="round" stroke-miterlimit="10" fill="none"/><text fill="#002060" font-family="Times New Roman,Times New Roman_MSFontService,sans-serif" font-weight="400" font-size="64" transform="matrix(1 0 0 1 1737.12 1084)">Bit </text><text fill="#002060" font-family="Times New Roman,Times New Roman_MSFontService,sans-serif" font-weight="400" font-size="64" transform="matrix(1 0 0 1 1656.91 1161)">Selection</text><rect x="1556.5" y="1808.5" width="441" height="234" stroke="#000000" stroke-width="9.16667" stroke-linejoin="round" stroke-miterlimit="10" fill="none"/><text fill="#002060" font-family="Times New Roman,Times New Roman_MSFontService,sans-serif" font-weight="400" font-size="64" transform="matrix(1 0 0 1 1628.56 1948)">Scrambling</text><rect x="1556.5" y="1395.5" width="441" height="234" stroke="#000000" stroke-width="9.16667" stroke-linejoin="round" stroke-miterlimit="10" fill="none"/><text fill="#002060" font-family="Times New Roman,Times New Roman_MSFontService,sans-serif" font-weight="400" font-size="64" transform="matrix(1 0 0 1 1669.22 1497)">Channel </text><text fill="#002060" font-family="Times New Roman,Times New Roman_MSFontService,sans-serif" font-weight="400" font-size="64" transform="matrix(1 0 0 1 1637.44 1574)">Interleave</text><text fill="#002060" font-family="Times New Roman,Times New Roman_MSFontService,sans-serif" font-weight="400" font-size="64" transform="matrix(1 0 0 1 1894.1 1574)">r</text><rect x="2303.5" y="1808.5" width="442" height="234" stroke="#000000" stroke-width="9.16667" stroke-linejoin="round" stroke-miterlimit="10" fill="none"/><text fill="#002060" font-family="Times New Roman,Times New Roman_MSFontService,sans-serif" font-weight="400" font-size="64" transform="matrix(1 0 0 1 2441.9 1910)">QPSK </text><text fill="#002060" font-family="Times New Roman,Times New Roman_MSFontService,sans-serif" font-weight="400" font-size="64" transform="matrix(1 0 0 1 2407.82 1987)">Mapping</text><rect x="2303.5" y="1395.5" width="442" height="234" stroke="#000000" stroke-width="9.16667" stroke-linejoin="round" stroke-miterlimit="10" fill="none"/><text fill="#002060" font-family="Times New Roman,Times New Roman_MSFontService,sans-serif" font-weight="400" font-size="64" transform="matrix(1 0 0 1 2404.1 1497)">Resource </text><text fill="#002060" font-family="Times New Roman,Times New Roman_MSFontService,sans-serif" font-weight="400" font-size="64" transform="matrix(1 0 0 1 2407.84 1574)">Mapping</text><rect x="2303.5" y="982.5" width="442" height="234" stroke="#000000" stroke-width="9.16667" stroke-linejoin="round" stroke-miterlimit="10" fill="none"/><text fill="#002060" font-family="Times New Roman,Times New Roman_MSFontService,sans-serif" font-weight="400" font-size="64" transform="matrix(1 0 0 1 2432.75 1084)">DMRS</text><text fill="#002060" font-family="Times New Roman,Times New Roman_MSFontService,sans-serif" font-weight="400" font-size="64" transform="matrix(1 0 0 1 2381.18 1161)">Generation</text><path d="M596.229 1216.5 596.23 1361.26 584.771 1361.26 584.771 1216.5ZM607.688 1355.53 590.5 1389.9 573.313 1355.53Z" fill="#4A66AC"/><path d="M596.229 1623.5 596.23 1768.26 584.771 1768.26 584.771 1623.5ZM607.688 1762.53 590.5 1796.9 573.313 1762.53Z" fill="#4A66AC"/><path d="M811.5 1907.77 934.073 1907.77 934.073 1919.23 811.5 1919.23ZM928.344 1896.31 962.719 1913.5 928.344 1930.69Z" fill="#4A66AC"/><path d="M5.72917-1.19237e-05 5.72947 144.758-5.72887 144.758-5.72917 1.19237e-05ZM17.1878 139.029 0.000360892 173.404-17.1872 139.029Z" fill="#4A66AC" transform="matrix(1 0 0 -1 1183.5 1796.9)"/><path d="M5.72917-1.19237e-05 5.72947 144.758-5.72887 144.758-5.72917 1.19237e-05ZM17.1878 139.029 0.000360892 173.404-17.1872 139.029Z" fill="#4A66AC" transform="matrix(1 0 0 -1 1183.5 1389.9)"/><path d="M1404.5 1093.77 1527.07 1093.77 1527.07 1105.23 1404.5 1105.23ZM1521.34 1082.31 1555.72 1099.5 1521.34 1116.69Z" fill="#4A66AC"/><path d="M1782.23 1216.5 1782.23 1366.98 1770.77 1366.98 1770.77 1216.5ZM1793.69 1361.25 1776.5 1395.62 1759.31 1361.25Z" fill="#4A66AC"/><path d="M1782.23 1629.5 1782.23 1779.98 1770.77 1779.98 1770.77 1629.5ZM1793.69 1774.25 1776.5 1808.62 1759.31 1774.25Z" fill="#4A66AC"/><path d="M1997.5 1919.77 2274.59 1919.77 2274.59 1931.23 1997.5 1931.23ZM2268.87 1908.31 2303.24 1925.5 2268.87 1942.69Z" fill="#4A66AC"/><path d="M5.72917-1.15431e-05 5.72947 150.476-5.72886 150.476-5.72917 1.15431e-05ZM17.1878 144.746 0.000360892 179.121-17.1872 144.746Z" fill="#4A66AC" transform="matrix(1 0 0 -1 2524.5 1808.62)"/><path d="M2530.23 1216.5 2530.23 1366.98 2518.77 1366.98 2518.77 1216.5ZM2541.69 1361.25 2524.5 1395.62 2507.31 1361.25Z" fill="#4A66AC"/><rect x="2069.5" y="982.5" width="147" height="641" stroke="#000000" stroke-width="9.16667" stroke-linejoin="round" stroke-miterlimit="10" fill="none"/><text fill="#002060" font-family="Times New Roman,Times New Roman_MSFontService,sans-serif" font-weight="400" font-size="64" transform="matrix(-1.83697e-16 -1 1 -1.83697e-16 2165.77 1587)">CCE</text><text fill="#002060" font-family="Times New Roman,Times New Roman_MSFontService,sans-serif" font-weight="400" font-size="64" transform="matrix(-1.83697e-16 -1 1 -1.83697e-16 2165.77 1462)">-</text><text fill="#002060" font-family="Times New Roman,Times New Roman_MSFontService,sans-serif" font-weight="400" font-size="64" transform="matrix(-1.83697e-16 -1 1 -1.83697e-16 2165.77 1441)">2</text><text fill="#002060" font-family="Times New Roman,Times New Roman_MSFontService,sans-serif" font-weight="400" font-size="64" transform="matrix(-1.83697e-16 -1 1 -1.83697e-16 2165.77 1408)">-</text><text fill="#002060" font-family="Times New Roman,Times New Roman_MSFontService,sans-serif" font-weight="400" font-size="64" transform="matrix(-1.83697e-16 -1 1 -1.83697e-16 2165.77 1387)">REG mapping</text><path d="M2216.5 1506.77 2275.04 1506.77 2275.04 1518.23 2216.5 1518.23ZM2269.31 1495.31 2303.68 1512.5 2269.31 1529.69Z" fill="#4A66AC"/><path d="M917.207 1331.21 1450.54 1331.21 1450.54 2084.36 917.207 2084.36Z" fill="#00B0F0" fill-rule="evenodd" fill-opacity="0.2"/><path d="M917.207 1328.91 917.207 2086.65" stroke="#000000" stroke-width="4.58333" stroke-linejoin="round" stroke-miterlimit="10" fill="none" fill-rule="evenodd"/><path d="M1450.54 1328.91 1450.54 2086.65" stroke="#000000" stroke-width="4.58333" stroke-linejoin="round" stroke-miterlimit="10" fill="none" fill-rule="evenodd"/><path d="M914.916 1331.21 1452.83 1331.21" stroke="#000000" stroke-width="4.58333" stroke-linejoin="round" stroke-miterlimit="10" fill="none" fill-rule="evenodd"/><path d="M914.916 2084.36 1452.83 2084.36" stroke="#000000" stroke-width="4.58333" stroke-linejoin="round" stroke-miterlimit="10" fill="none" fill-rule="evenodd"/><text fill="#002060" font-family="Times New Roman,Times New Roman_MSFontService,sans-serif" font-weight="400" font-size="55" transform="matrix(1 0 0 1 1716.62 907)">Rate matching</text><text fill="#002060" font-family="Times New Roman,Times New Roman_MSFontService,sans-serif" font-weight="400" font-size="55" transform="matrix(1 0 0 1 919.992 2156)">Polar Coder</text></g></svg>