<svg width="2619" height="1659" xmlns="http://www.w3.org/2000/svg" xmlns:xlink="http://www.w3.org/1999/xlink" xml:space="preserve" overflow="hidden"><defs><clipPath id="clip0"><rect x="1081" y="732" width="2619" height="1659"/></clipPath></defs><g clip-path="url(#clip0)" transform="translate(-1081 -732)"><path d="M1785.96 794.896C1784.06 794.896 1782.17 795.38 1780.27 796.346 1778.84 797.062 1777.01 798.495 1774.79 800.643L1774.79 830.077C1776.62 831.867 1778.5 833.219 1780.46 834.132 1782.41 835.045 1784.4 835.502 1786.45 835.502 1789.7 835.502 1792.74 833.711 1795.55 830.131 1798.36 826.55 1799.77 821.34 1799.77 814.501 1799.77 808.199 1798.36 803.356 1795.55 799.972 1792.74 796.588 1789.54 794.896 1785.96 794.896ZM1772.37 761.542 1774.79 761.542 1774.79 797.206C1779.55 790.581 1784.69 787.269 1790.2 787.269 1795.25 787.269 1799.66 789.427 1803.42 793.741 1807.18 798.056 1809.06 803.955 1809.06 811.439 1809.06 820.176 1806.16 827.212 1800.36 832.548 1795.38 837.131 1789.83 839.423 1783.71 839.423 1780.84 839.423 1777.93 838.903 1774.98 837.865 1772.02 836.827 1769.01 835.269 1765.93 833.192L1765.93 782.22C1765.93 776.634 1765.79 773.197 1765.52 771.908 1765.26 770.619 1764.84 769.742 1764.26 769.276 1763.69 768.811 1762.97 768.578 1762.11 768.578 1761.11 768.578 1759.86 768.864 1758.35 769.437L1757.6 767.557Z" fill-rule="evenodd"/><text fill="#000000" fill-opacity="0" font-family="Arial,Arial_MSFontService,sans-serif" font-size="77.8809" x="1757.6" y="829.687">b</text><path d="M1837.44 761.616C1833.77 761.616 1830.99 762.97 1829.1 765.678 1827.21 768.386 1826.27 772.319 1826.27 777.475 1826.27 787.839 1829.41 793.022 1835.68 793.022 1836.93 793.022 1838.18 792.794 1839.43 792.338 1840.68 791.882 1841.82 791.244 1842.83 790.424 1843.85 789.604 1844.67 788.621 1845.29 787.475 1845.92 786.329 1846.23 785.053 1846.23 783.647L1846.23 772.709C1846.23 770.522 1846.04 768.712 1845.66 767.28 1845.29 765.847 1844.73 764.714 1843.98 763.881 1843.24 763.048 1842.32 762.462 1841.23 762.123 1840.14 761.785 1838.87 761.616 1837.44 761.616ZM1837.44 757.748C1839.37 757.748 1841.16 757.963 1842.81 758.393 1844.47 758.823 1846.18 759.48 1847.95 760.366L1850.88 757.748 1853.96 758.451 1853.96 804.428C1853.96 805.912 1854.01 807.071 1854.1 807.905 1854.19 808.738 1854.41 809.389 1854.75 809.858 1855.08 810.326 1855.58 810.685 1856.23 810.932 1856.88 811.179 1857.75 811.459 1858.85 811.772L1858.85 814.35 1841.07 814.35 1841.07 811.772C1842.3 811.459 1843.26 811.186 1843.95 810.951 1844.64 810.717 1845.15 810.366 1845.49 809.897 1845.83 809.428 1846.04 808.771 1846.11 807.924 1846.19 807.078 1846.23 805.912 1846.23 804.428L1846.23 791.303C1844.98 792.579 1843.82 793.666 1842.75 794.565 1841.69 795.463 1840.64 796.192 1839.61 796.752 1838.58 797.312 1837.51 797.716 1836.41 797.963 1835.3 798.211 1834.08 798.334 1832.75 798.334 1830.44 798.334 1828.37 797.918 1826.54 797.084 1824.72 796.251 1823.17 795.007 1821.89 793.354 1820.62 791.7 1819.64 789.636 1818.96 787.162 1818.29 784.688 1817.95 781.824 1817.95 778.569 1817.95 775.027 1818.42 771.948 1819.37 769.33 1820.33 766.713 1821.65 764.545 1823.36 762.826 1825.06 761.108 1827.12 759.832 1829.51 758.998 1831.91 758.165 1834.55 757.748 1837.44 757.748Z" fill-rule="evenodd"/><text fill="#000000" fill-opacity="0" font-family="Arial,Arial_MSFontService,sans-serif" font-size="56.6016" x="1817.95" y="807.275">q</text><path d="M1819.71 961.203 1818.13 865.113 1831.87 864.886 1833.46 960.976ZM1847.1 953.875 1827.15 995.46 1805.85 954.556Z" fill="#E95C6C"/><rect x="1365" y="996" width="924" height="264" stroke="#E95C6C" stroke-width="5.72917" stroke-linejoin="round" stroke-miterlimit="10" fill="#E95C6C"/><text fill="#FFFFFF" font-family="Times New Roman,Times New Roman_MSFontService,sans-serif" font-weight="400" font-size="73" transform="matrix(1 0 0 1 1657.28 1111)">Scrambling</text><text fill="#FFFFFF" font-family="Times New Roman,Times New Roman_MSFontService,sans-serif" font-weight="400" font-size="73" transform="matrix(1 0 0 1 1536.39 1199)">(TS 38.211</text><text fill="#FFFFFF" font-family="Times New Roman,Times New Roman_MSFontService,sans-serif" font-weight="400" font-size="73" transform="matrix(1 0 0 1 1866.39 1199)">-</text><text fill="#FFFFFF" font-family="Times New Roman,Times New Roman_MSFontService,sans-serif" font-weight="400" font-size="73" transform="matrix(1 0 0 1 1891.03 1199)">7.3.1.1)</text><rect x="1365" y="1440" width="924" height="264" stroke="#E95C6C" stroke-width="5.72917" stroke-linejoin="round" stroke-miterlimit="10" fill="#E95C6C"/><text fill="#FFFFFF" font-family="Times New Roman,Times New Roman_MSFontService,sans-serif" font-weight="400" font-size="73" transform="matrix(1 0 0 1 1570.77 1555)">Symbol Mapping</text><text fill="#FFFFFF" font-family="Times New Roman,Times New Roman_MSFontService,sans-serif" font-weight="400" font-size="73" transform="matrix(1 0 0 1 1536.39 1643)">(TS 38.211</text><text fill="#FFFFFF" font-family="Times New Roman,Times New Roman_MSFontService,sans-serif" font-weight="400" font-size="73" transform="matrix(1 0 0 1 1866.39 1643)">-</text><text fill="#FFFFFF" font-family="Times New Roman,Times New Roman_MSFontService,sans-serif" font-weight="400" font-size="73" transform="matrix(1 0 0 1 1891.03 1643)">7.3.1.2)</text><path d="M1197 1121.12 1330.29 1121.13 1330.29 1134.88 1197 1134.87ZM1323.42 1107.38 1364.67 1128 1323.42 1148.63Z" fill="#00B050"/><text fill="#0070C0" font-family="Times New Roman,Times New Roman_MSFontService,sans-serif" font-weight="400" font-size="83" transform="matrix(1 0 0 1 1877.12 948)">G</text><text fill="#0070C0" font-family="Times New Roman,Times New Roman_MSFontService,sans-serif" font-weight="400" font-size="83" transform="matrix(1 0 0 1 1886.35 1377)">G</text><path d="M1796.46 903.802 1858.27 936.667" stroke="#0070C0" stroke-width="13.75" stroke-linejoin="round" stroke-miterlimit="10" fill="none" fill-rule="evenodd"/><rect x="2469" y="1001" width="924" height="264" stroke="#E95C6C" stroke-width="5.72917" stroke-linejoin="round" stroke-miterlimit="10" fill="#E95C6C"/><text fill="#FFFFFF" font-family="Times New Roman,Times New Roman_MSFontService,sans-serif" font-weight="400" font-size="73" transform="matrix(1 0 0 1 2654.55 1160)">DMRS Generation</text><path d="M6.92771 34.3644 7.14458 175.786-6.6054 175.807-6.82228 34.3855ZM-20.5617 41.2816 0 0 20.6882 41.2183Z" fill="#E95C6C" transform="matrix(1 0 0 -1 2930 1440.8)"/><path d="M6.87507 34.375 6.87536 180.364-6.87464 180.364-6.87493 34.375ZM-20.6249 41.25 0 0 20.6251 41.25Z" fill="#E95C6C" transform="matrix(1 0 0 -1 1827 1440.36)"/><path d="M1799.53 1323.01 1861.34 1355.88" stroke="#0070C0" stroke-width="13.75" stroke-linejoin="round" stroke-miterlimit="10" fill="none" fill-rule="evenodd"/><path d="M2434.18 2035.11 2288.99 2034.88 2289.01 2021.13 2434.21 2021.36ZM2427.35 2007.6 2468.57 2028.3 2427.29 2048.85Z" fill="#E95C6C"/><text font-family="Times New Roman,Times New Roman_MSFontService,sans-serif" font-weight="400" font-size="92" transform="matrix(1 0 0 1 2360.46 2117)">X</text><rect x="2468" y="1440" width="924" height="264" stroke="#E95C6C" stroke-width="5.72917" stroke-linejoin="round" stroke-miterlimit="10" fill="#E95C6C"/><text fill="#FFFFFF" font-family="Times New Roman,Times New Roman_MSFontService,sans-serif" font-weight="400" font-size="73" transform="matrix(1 0 0 1 2604.44 1599)">DMRS Resource Grid</text><text font-family="Times New Roman,Times New Roman_MSFontService,sans-serif" font-weight="400" font-size="83" transform="matrix(1 0 0 1 1131.11 1097)">seed</text><path d="M2355.5 2003 2306 2052.5" stroke="#0070C0" stroke-width="13.75" stroke-linejoin="round" stroke-miterlimit="10" fill="none" fill-rule="evenodd"/><path d="M6.875-0.00753452 7.04484 154.966-6.70515 154.981-6.875 0.00753452ZM20.7873 148.076 0.207513 189.349-20.4627 148.121Z" fill="#E95C6C" transform="matrix(-1 0 0 1 1827.21 1704)"/><path d="M7.00619 34.3485 7.59674 189.027-6.15317 189.079-6.74371 34.401ZM-20.4674 41.3284 0 0 20.7823 41.171Z" fill="#E95C6C" transform="matrix(1 0 0 -1 2930 1893.05)"/><rect x="1365" y="1893" width="923" height="270" stroke="#E95C6C" stroke-width="5.72917" stroke-linejoin="round" stroke-miterlimit="10" fill="#E95C6C"/><text fill="#FFFFFF" font-family="Times New Roman,Times New Roman_MSFontService,sans-serif" font-weight="400" font-size="73" transform="matrix(1 0 0 1 1599.2 2011)">Layer Mapping</text><text fill="#FFFFFF" font-family="Times New Roman,Times New Roman_MSFontService,sans-serif" font-weight="400" font-size="73" transform="matrix(1 0 0 1 1536.18 2099)">(TS 38.211</text><text fill="#FFFFFF" font-family="Times New Roman,Times New Roman_MSFontService,sans-serif" font-weight="400" font-size="73" transform="matrix(1 0 0 1 1866.18 2099)">-</text><text fill="#FFFFFF" font-family="Times New Roman,Times New Roman_MSFontService,sans-serif" font-weight="400" font-size="73" transform="matrix(1 0 0 1 1890.82 2099)">7.3.1.3)</text><text font-family="Times New Roman,Times New Roman_MSFontService,sans-serif" font-weight="400" font-size="64" transform="matrix(1 0 0 1 1499.1 2337)">number of layers, </text><path d="M1965.18 2294.43 1976.68 2294.43 2002.59 2326.22 2002.59 2301.78C2002.59 2299.17 2002.29 2297.55 2001.71 2296.9 2000.94 2296.03 1999.72 2295.59 1998.05 2295.59L1996.59 2295.59 1996.59 2294.43 2011.34 2294.43 2011.34 2295.59 2009.84 2295.59C2008.04 2295.59 2006.77 2296.13 2006.02 2297.22 2005.57 2297.88 2005.34 2299.4 2005.34 2301.78L2005.34 2337.5 2004.21 2337.5 1976.27 2303.37 1976.27 2329.47C1976.27 2332.07 1976.55 2333.69 1977.12 2334.34 1977.91 2335.22 1979.13 2335.65 1980.77 2335.65L1982.27 2335.65 1982.27 2336.81 1967.52 2336.81 1967.52 2335.65 1968.99 2335.65C1970.8 2335.65 1972.09 2335.11 1972.84 2334.03 1973.29 2333.36 1973.52 2331.84 1973.52 2329.47L1973.52 2300C1972.29 2298.56 1971.36 2297.61 1970.73 2297.15 1970.09 2296.69 1969.16 2296.27 1967.93 2295.87 1967.33 2295.68 1966.41 2295.59 1965.18 2295.59Z" fill-rule="evenodd"/><text fill="#000000" fill-opacity="0" font-family="Arial,Arial_MSFontService,sans-serif" font-size="43.0625" x="1965.18" y="2332.11">N</text><path d="M2013.71 2313.11 2032.9 2313.11 2032.9 2314.27C2030.65 2314.25 2029.07 2314.45 2028.16 2314.89 2027.26 2315.33 2026.64 2315.88 2026.3 2316.55 2025.97 2317.22 2025.8 2318.81 2025.8 2321.33L2025.8 2347.95C2025.8 2349.68 2025.97 2350.87 2026.3 2351.52 2026.55 2351.95 2026.94 2352.28 2027.46 2352.49 2027.98 2352.69 2029.61 2352.8 2032.34 2352.8L2035.43 2352.8C2038.68 2352.8 2040.96 2352.56 2042.27 2352.08 2043.59 2351.6 2044.78 2350.75 2045.87 2349.53 2046.95 2348.31 2048.03 2346.39 2049.12 2343.77L2050.15 2343.99 2046.52 2355.49 2013.71 2355.49 2013.71 2354.33 2015.3 2354.33C2017.1 2354.33 2018.38 2353.75 2019.15 2352.58 2019.59 2351.91 2019.8 2350.37 2019.8 2347.95L2019.8 2320.61C2019.8 2317.97 2019.51 2316.31 2018.93 2315.64 2018.12 2314.73 2016.91 2314.27 2015.3 2314.27L2013.71 2314.27Z" fill-rule="evenodd"/><text fill="#000000" fill-opacity="0" font-family="Arial,Arial_MSFontService,sans-serif" font-size="42.375" x="2013.71" y="2350.19">L</text><path d="M6.875-2.03839e-05 6.87526 87.3453-6.87474 87.3454-6.875 2.03839e-05ZM20.6252 80.4703 0.000360892 121.72-20.6248 80.4704Z" fill="#00B050" transform="matrix(1 0 0 -1 1827 2284.72)"/><rect x="2468.5" y="1893.5" width="923" height="271" stroke="#E95C6C" stroke-width="9.16667" stroke-linejoin="round" stroke-miterlimit="10" fill="#E95C6C"/><text fill="#FFFFFF" font-family="Times New Roman,Times New Roman_MSFontService,sans-serif" font-weight="400" font-size="73" transform="matrix(1 0 0 1 2651.27 2056)">Resource Mapping</text><path d="M2276.55 1931.43 2286.43 1931.43 2308.7 1958.74 2308.7 1937.74C2308.7 1935.5 2308.45 1934.11 2307.95 1933.55 2307.28 1932.8 2306.24 1932.42 2304.8 1932.42L2303.54 1932.42 2303.54 1931.43 2316.22 1931.43 2316.22 1932.42 2314.93 1932.42C2313.39 1932.42 2312.3 1932.89 2311.65 1933.82 2311.26 1934.39 2311.06 1935.7 2311.06 1937.74L2311.06 1968.44 2310.09 1968.44 2286.09 1939.11 2286.09 1961.53C2286.09 1963.77 2286.33 1965.17 2286.81 1965.72 2287.49 1966.48 2288.54 1966.85 2289.95 1966.85L2291.24 1966.85 2291.24 1967.85 2278.57 1967.85 2278.57 1966.85 2279.83 1966.85C2281.39 1966.85 2282.49 1966.39 2283.13 1965.46 2283.53 1964.88 2283.72 1963.58 2283.72 1961.53L2283.72 1936.21C2282.67 1934.97 2281.86 1934.16 2281.32 1933.77 2280.77 1933.37 2279.97 1933.01 2278.92 1932.66 2278.4 1932.5 2277.61 1932.42 2276.55 1932.42Z" fill-rule="evenodd"/><text fill="#000000" fill-opacity="0" font-family="Arial,Arial_MSFontService,sans-serif" font-size="37.0068" x="2276.55" y="1963.81">N</text><path d="M2317.91 1947.43 2334.4 1947.43 2334.4 1948.42C2332.47 1948.4 2331.11 1948.58 2330.33 1948.96 2329.55 1949.33 2329.02 1949.81 2328.73 1950.38 2328.45 1950.95 2328.3 1952.32 2328.3 1954.49L2328.3 1977.37C2328.3 1978.86 2328.45 1979.88 2328.73 1980.43 2328.95 1980.81 2329.28 1981.08 2329.73 1981.26 2330.17 1981.44 2331.57 1981.53 2333.92 1981.53L2336.57 1981.53C2339.37 1981.53 2341.33 1981.33 2342.46 1980.91 2343.58 1980.5 2344.61 1979.77 2345.54 1978.73 2346.47 1977.68 2347.41 1976.03 2348.34 1973.77L2349.22 1973.96 2346.11 1983.84 2317.91 1983.84 2317.91 1982.85 2319.28 1982.85C2320.82 1982.85 2321.92 1982.35 2322.58 1981.34 2322.96 1980.77 2323.15 1979.45 2323.15 1977.37L2323.15 1953.87C2323.15 1951.6 2322.9 1950.17 2322.39 1949.6 2321.7 1948.81 2320.66 1948.42 2319.28 1948.42L2317.91 1948.42Z" fill-rule="evenodd"/><text fill="#000000" fill-opacity="0" font-family="Arial,Arial_MSFontService,sans-serif" font-size="36.416" x="2317.91" y="1979.29">L</text><path d="M2372.69 1937.42 2384.86 1949.56 2397.02 1937.42 2399.55 1939.92 2387.51 1952.16 2399.57 1964.35 2396.89 1967.04 2384.86 1954.77 2372.45 1966.93 2369.95 1964.41 2382.22 1952.16 2370 1940.1Z" fill-rule="evenodd"/><text fill="#000000" fill-opacity="0" font-family="Arial,Arial_MSFontService,sans-serif" font-size="29.6216" x="2369.95" y="1963.34">×</text><path d="M2416.14 1931.43 2426.02 1931.43 2448.28 1958.74 2448.28 1937.74C2448.28 1935.5 2448.03 1934.11 2447.53 1933.55 2446.87 1932.8 2445.82 1932.42 2444.39 1932.42L2443.13 1932.42 2443.13 1931.43 2455.8 1931.43 2455.8 1932.42 2454.51 1932.42C2452.97 1932.42 2451.88 1932.89 2451.24 1933.82 2450.84 1934.39 2450.65 1935.7 2450.65 1937.74L2450.65 1968.44 2449.68 1968.44 2425.67 1939.11 2425.67 1961.53C2425.67 1963.77 2425.91 1965.17 2426.4 1965.72 2427.08 1966.48 2428.12 1966.85 2429.54 1966.85L2430.83 1966.85 2430.83 1967.85 2418.15 1967.85 2418.15 1966.85 2419.41 1966.85C2420.97 1966.85 2422.07 1966.39 2422.72 1965.46 2423.11 1964.88 2423.31 1963.58 2423.31 1961.53L2423.31 1936.21C2422.25 1934.97 2421.45 1934.16 2420.9 1933.77 2420.36 1933.37 2419.56 1933.01 2418.5 1932.66 2417.98 1932.5 2417.19 1932.42 2416.14 1932.42Z" fill-rule="evenodd"/><text fill="#000000" fill-opacity="0" font-family="Arial,Arial_MSFontService,sans-serif" font-size="37.0068" x="2416.14" y="1963.81">N</text><path d="M2466.55 1953.75C2467.51 1953.75 2468.68 1953.96 2470.06 1954.37 2470.98 1954.64 2471.58 1954.77 2471.89 1954.77 2472.18 1954.77 2472.4 1954.71 2472.56 1954.58 2472.72 1954.46 2472.91 1954.18 2473.12 1953.75L2474.01 1953.75 2474.01 1962.13 2473.12 1962.13C2472.44 1959.5 2471.57 1957.71 2470.51 1956.76 2469.44 1955.81 2468.08 1955.33 2466.44 1955.33 2465.18 1955.33 2464.17 1955.67 2463.4 1956.33 2462.63 1956.99 2462.25 1957.72 2462.25 1958.53 2462.25 1959.53 2462.53 1960.39 2463.11 1961.11 2463.66 1961.84 2464.79 1962.62 2466.49 1963.44L2470.41 1965.35C2474.05 1967.12 2475.86 1969.46 2475.86 1972.36 2475.86 1974.6 2475.02 1976.4 2473.33 1977.77 2471.63 1979.14 2469.74 1979.83 2467.65 1979.83 2466.14 1979.83 2464.42 1979.56 2462.49 1979.02 2461.9 1978.84 2461.42 1978.75 2461.04 1978.75 2460.63 1978.75 2460.31 1978.99 2460.07 1979.45L2459.19 1979.45 2459.19 1970.67 2460.07 1970.67C2460.57 1973.18 2461.53 1975.06 2462.95 1976.34 2464.36 1977.61 2465.95 1978.24 2467.7 1978.24 2468.94 1978.24 2469.94 1977.88 2470.72 1977.15 2471.5 1976.43 2471.89 1975.56 2471.89 1974.54 2471.89 1973.3 2471.46 1972.26 2470.59 1971.42 2469.72 1970.58 2467.99 1969.51 2465.39 1968.23 2462.79 1966.94 2461.09 1965.77 2460.29 1964.73 2459.48 1963.71 2459.08 1962.42 2459.08 1960.87 2459.08 1958.84 2459.77 1957.15 2461.16 1955.79 2462.55 1954.43 2464.34 1953.75 2466.55 1953.75Z" fill-rule="evenodd"/><text fill="#000000" fill-opacity="0" font-family="Arial,Arial_MSFontService,sans-serif" font-size="26.0767" x="2459.08" y="1976.57">s</text><path d="M1709.19 1325.7C1707.29 1325.7 1705.39 1326.18 1703.5 1327.15 1702.06 1327.87 1700.24 1329.3 1698.02 1331.45L1698.02 1360.88C1699.84 1362.67 1701.73 1364.02 1703.68 1364.94 1705.64 1365.85 1707.63 1366.31 1709.67 1366.31 1712.93 1366.31 1715.97 1364.52 1718.78 1360.94 1721.59 1357.35 1722.99 1352.14 1722.99 1345.31 1722.99 1339 1721.59 1334.16 1718.78 1330.78 1715.97 1327.39 1712.77 1325.7 1709.19 1325.7ZM1695.6 1292.35 1698.02 1292.35 1698.02 1328.01C1702.78 1321.39 1707.92 1318.07 1713.43 1318.07 1718.48 1318.07 1722.89 1320.23 1726.65 1324.55 1730.41 1328.86 1732.29 1334.76 1732.29 1342.24 1732.29 1350.98 1729.39 1358.02 1723.58 1363.35 1718.61 1367.94 1713.06 1370.23 1706.93 1370.23 1704.07 1370.23 1701.16 1369.71 1698.21 1368.67 1695.25 1367.63 1692.24 1366.07 1689.16 1364L1689.16 1313.02C1689.16 1307.44 1689.02 1304 1688.75 1302.71 1688.48 1301.42 1688.06 1300.55 1687.49 1300.08 1686.92 1299.62 1686.2 1299.38 1685.34 1299.38 1684.34 1299.38 1683.09 1299.67 1681.58 1300.24L1680.83 1298.36Z" fill-rule="evenodd"/><text fill="#000000" fill-opacity="0" font-family="Arial,Arial_MSFontService,sans-serif" font-size="77.8809" x="1680.83" y="1360.49">b</text><path d="M1726.31 1271.84 1730.13 1274.04C1728.44 1276.58 1726.84 1278.55 1725.32 1279.95 1723.8 1281.34 1722.34 1282.3 1720.94 1282.82 1719.54 1283.34 1717.95 1283.6 1716.16 1283.6 1714.98 1283.6 1713.94 1283.53 1713.05 1283.38 1712.15 1283.24 1711.27 1283.03 1710.41 1282.77 1709.55 1282.5 1708.21 1281.99 1706.39 1281.24 1705.2 1280.77 1704.26 1280.4 1703.57 1280.13 1702.87 1279.87 1702.14 1279.65 1701.39 1279.49 1700.64 1279.33 1699.85 1279.25 1699.03 1279.25 1697.85 1279.25 1696.87 1279.38 1696.1 1279.65 1695.33 1279.92 1694.55 1280.38 1693.76 1281.02 1692.98 1281.66 1691.96 1282.72 1690.7 1284.19L1687.1 1281.99C1689.22 1278.98 1690.94 1276.89 1692.29 1275.73 1693.63 1274.57 1695 1273.72 1696.4 1273.21 1697.79 1272.69 1699.46 1272.43 1701.39 1272.43 1702.46 1272.43 1703.43 1272.5 1704.29 1272.64 1705.15 1272.78 1705.95 1272.97 1706.68 1273.21 1707.41 1273.44 1708.68 1273.91 1710.47 1274.63 1711.72 1275.13 1712.73 1275.53 1713.5 1275.84 1714.27 1276.14 1715.05 1276.37 1715.84 1276.54 1716.63 1276.7 1717.54 1276.78 1718.58 1276.78 1719.97 1276.78 1721.23 1276.45 1722.34 1275.81 1723.45 1275.17 1724.77 1273.84 1726.31 1271.84Z" fill-rule="evenodd"/><text fill="#000000" fill-opacity="0" font-family="Arial,Arial_MSFontService,sans-serif" font-size="12.3535" x="1687.1" y="1282.65">෨</text><path d="M1760.67 1292.42C1757 1292.42 1754.22 1293.77 1752.33 1296.48 1750.44 1299.19 1749.5 1303.12 1749.5 1308.28 1749.5 1318.64 1752.64 1323.83 1758.91 1323.83 1760.16 1323.83 1761.41 1323.6 1762.66 1323.14 1763.91 1322.69 1765.04 1322.05 1766.06 1321.23 1767.08 1320.41 1767.9 1319.43 1768.52 1318.28 1769.15 1317.13 1769.46 1315.86 1769.46 1314.45L1769.46 1303.51C1769.46 1301.33 1769.27 1299.52 1768.89 1298.08 1768.51 1296.65 1767.95 1295.52 1767.21 1294.69 1766.47 1293.85 1765.55 1293.27 1764.46 1292.93 1763.36 1292.59 1762.1 1292.42 1760.67 1292.42ZM1760.67 1288.55C1762.6 1288.55 1764.39 1288.77 1766.04 1289.2 1767.69 1289.63 1769.41 1290.28 1771.18 1291.17L1774.11 1288.55 1777.19 1289.26 1777.19 1335.23C1777.19 1336.72 1777.24 1337.88 1777.33 1338.71 1777.42 1339.54 1777.64 1340.19 1777.97 1340.66 1778.31 1341.13 1778.81 1341.49 1779.46 1341.74 1780.11 1341.98 1780.98 1342.26 1782.08 1342.58L1782.08 1345.15 1764.3 1345.15 1764.3 1342.58C1765.53 1342.26 1766.48 1341.99 1767.17 1341.76 1767.86 1341.52 1768.38 1341.17 1768.72 1340.7 1769.05 1340.23 1769.26 1339.57 1769.34 1338.73 1769.42 1337.88 1769.46 1336.72 1769.46 1335.23L1769.46 1322.11C1768.21 1323.38 1767.05 1324.47 1765.98 1325.37 1764.91 1326.27 1763.87 1327 1762.84 1327.56 1761.81 1328.12 1760.74 1328.52 1759.63 1328.77 1758.53 1329.02 1757.31 1329.14 1755.98 1329.14 1753.66 1329.14 1751.59 1328.72 1749.77 1327.89 1747.95 1327.06 1746.4 1325.81 1745.12 1324.16 1743.85 1322.5 1742.87 1320.44 1742.19 1317.97 1741.52 1315.49 1741.18 1312.63 1741.18 1309.37 1741.18 1305.83 1741.65 1302.75 1742.6 1300.13 1743.55 1297.52 1744.88 1295.35 1746.59 1293.63 1748.29 1291.91 1750.34 1290.64 1752.74 1289.8 1755.14 1288.97 1757.78 1288.55 1760.67 1288.55Z" fill-rule="evenodd"/><text fill="#000000" fill-opacity="0" font-family="Arial,Arial_MSFontService,sans-serif" font-size="56.6016" x="1741.18" y="1338.08">q</text><path d="M1700 1772.51C1696.85 1772.51 1694.04 1773.93 1691.57 1776.75 1688.31 1780.48 1686.68 1785.92 1686.68 1793.08 1686.68 1800.32 1688.26 1805.86 1691.41 1809.71 1694.56 1813.56 1698.07 1815.48 1701.94 1815.48 1705.2 1815.48 1708.35 1813.85 1711.39 1810.59L1711.39 1785.24C1711.18 1782.81 1710.53 1780.59 1709.46 1778.58 1708.38 1776.58 1706.96 1775.06 1705.19 1774.04 1703.41 1773.02 1701.69 1772.51 1700 1772.51ZM1717.84 1743.51 1720.25 1743.51 1720.25 1800.39C1720.25 1806.15 1720.39 1809.67 1720.66 1810.94 1720.92 1812.21 1721.35 1813.1 1721.95 1813.6 1722.54 1814.1 1723.23 1814.35 1724.01 1814.35 1724.98 1814.35 1726.27 1814.05 1727.88 1813.44L1728.47 1815.32 1713.86 1821.39 1711.39 1821.39 1711.39 1814.35C1708.99 1816.86 1706.65 1818.66 1704.35 1819.75 1702.06 1820.84 1699.59 1821.39 1696.94 1821.39 1691.57 1821.39 1686.88 1819.14 1682.87 1814.65 1678.86 1810.15 1676.85 1804.38 1676.85 1797.33 1676.85 1790.27 1679.07 1783.82 1683.51 1777.96 1687.95 1772.11 1693.67 1769.18 1700.65 1769.18 1704.98 1769.18 1708.56 1770.56 1711.39 1773.32L1711.39 1764.24C1711.39 1758.62 1711.26 1755.16 1710.99 1753.87 1710.72 1752.58 1710.3 1751.71 1709.73 1751.24 1709.15 1750.78 1708.44 1750.54 1707.58 1750.54 1706.65 1750.54 1705.41 1750.83 1703.87 1751.4L1703.17 1749.52Z" fill-rule="evenodd"/><text fill="#000000" fill-opacity="0" font-family="Arial,Arial_MSFontService,sans-serif" font-size="77.8809" x="1676.85" y="1811.65">d</text><path d="M1752.77 1743.58C1749.1 1743.58 1746.32 1744.94 1744.43 1747.64 1742.54 1750.35 1741.6 1754.28 1741.6 1759.44 1741.6 1769.81 1744.74 1774.99 1751.01 1774.99 1752.26 1774.99 1753.51 1774.76 1754.76 1774.3 1756.01 1773.85 1757.15 1773.21 1758.16 1772.39 1759.18 1771.57 1760 1770.59 1760.62 1769.44 1761.25 1768.29 1761.56 1767.02 1761.56 1765.61L1761.56 1754.68C1761.56 1752.49 1761.37 1750.68 1761 1749.25 1760.62 1747.81 1760.06 1746.68 1759.32 1745.85 1758.57 1745.01 1757.66 1744.43 1756.56 1744.09 1755.47 1743.75 1754.2 1743.58 1752.77 1743.58ZM1752.77 1739.71C1754.7 1739.71 1756.49 1739.93 1758.14 1740.36 1759.8 1740.79 1761.51 1741.45 1763.28 1742.33L1766.21 1739.71 1769.3 1740.42 1769.3 1786.39C1769.3 1787.88 1769.34 1789.04 1769.43 1789.87 1769.52 1790.7 1769.74 1791.35 1770.08 1791.82 1770.42 1792.29 1770.91 1792.65 1771.56 1792.9 1772.21 1793.15 1773.09 1793.43 1774.18 1793.74L1774.18 1796.32 1756.41 1796.32 1756.41 1793.74C1757.63 1793.43 1758.59 1793.15 1759.28 1792.92 1759.97 1792.68 1760.48 1792.33 1760.82 1791.86 1761.16 1791.39 1761.37 1790.74 1761.44 1789.89 1761.52 1789.04 1761.56 1787.88 1761.56 1786.39L1761.56 1773.27C1760.31 1774.54 1759.15 1775.63 1758.09 1776.53 1757.02 1777.43 1755.97 1778.16 1754.94 1778.72 1753.91 1779.28 1752.84 1779.68 1751.74 1779.93 1750.63 1780.18 1749.41 1780.3 1748.09 1780.3 1745.77 1780.3 1743.7 1779.88 1741.87 1779.05 1740.05 1778.22 1738.5 1776.97 1737.23 1775.32 1735.95 1773.67 1734.97 1771.6 1734.3 1769.13 1733.62 1766.65 1733.28 1763.79 1733.28 1760.53 1733.28 1756.99 1733.76 1753.91 1734.71 1751.3 1735.66 1748.68 1736.98 1746.51 1738.69 1744.79 1740.4 1743.07 1742.45 1741.8 1744.84 1740.96 1747.24 1740.13 1749.88 1739.71 1752.77 1739.71Z" fill-rule="evenodd"/><text fill="#000000" fill-opacity="0" font-family="Arial,Arial_MSFontService,sans-serif" font-size="56.6016" x="1733.28" y="1789.24">q</text><path d="M1883.63 1762.59 1899.19 1762.59 1919.13 1805.59 1938.74 1762.59 1954.31 1762.59 1954.31 1764.09 1952.4 1764.09C1950.05 1764.09 1948.39 1764.79 1947.42 1766.19 1946.82 1767.06 1946.53 1769.03 1946.53 1772.11L1946.53 1808.02C1946.53 1811.39 1946.9 1813.5 1947.66 1814.34 1948.66 1815.47 1950.24 1816.04 1952.4 1816.04L1954.31 1816.04 1954.31 1817.54 1930.96 1817.54 1930.96 1816.04 1932.91 1816.04C1935.26 1816.04 1936.91 1815.34 1937.85 1813.93 1938.45 1813.07 1938.74 1811.1 1938.74 1808.02L1938.74 1771.3 1917.55 1817.54 1916.21 1817.54 1894.97 1771.3 1894.97 1808.02C1894.97 1811.39 1895.34 1813.5 1896.07 1814.34 1897.07 1815.47 1898.65 1816.04 1900.81 1816.04L1902.76 1816.04 1902.76 1817.54 1883.63 1817.54 1883.63 1816.04 1885.57 1816.04C1887.9 1816.04 1889.54 1815.34 1890.52 1813.93 1891.11 1813.07 1891.41 1811.1 1891.41 1808.02L1891.41 1772.11C1891.41 1769.68 1891.14 1767.92 1890.6 1766.84 1890.22 1766.06 1889.52 1765.4 1888.51 1764.88 1887.5 1764.35 1885.87 1764.09 1883.63 1764.09Z" fill="#0070C0" fill-rule="evenodd"/><text fill="#000000" fill-opacity="0" font-family="Arial,Arial_MSFontService,sans-serif" font-size="54.9551" x="1883.63" y="1810.67">M</text><path d="M2114.78 1811.75C2113.35 1811.75 2111.91 1812.12 2110.48 1812.85 2109.4 1813.39 2108.02 1814.47 2106.35 1816.09L2106.35 1838.3C2107.73 1839.65 2109.15 1840.67 2110.62 1841.36 2112.1 1842.05 2113.6 1842.39 2115.14 1842.39 2117.6 1842.39 2119.89 1841.04 2122.01 1838.34 2124.13 1835.64 2125.19 1831.71 2125.19 1826.55 2125.19 1821.79 2124.13 1818.14 2122.01 1815.58 2119.89 1813.03 2117.48 1811.75 2114.78 1811.75ZM1988.07 1807.09 2005.37 1807.09 2005.37 1808.59 2004.52 1808.59C2003.31 1808.59 2002.4 1808.86 2001.79 1809.38 2001.18 1809.91 2000.88 1810.56 2000.88 1811.35 2000.88 1812.4 2001.32 1813.86 2002.21 1815.73L2011.25 1834.45 2019.56 1813.94C2020.02 1812.83 2020.25 1811.74 2020.25 1810.66 2020.25 1810.17 2020.15 1809.81 2019.96 1809.56 2019.75 1809.27 2019.41 1809.03 2018.95 1808.86 2018.49 1808.68 2017.68 1808.59 2016.52 1808.59L2016.52 1807.09 2028.6 1807.09 2028.6 1808.59C2027.6 1808.7 2026.83 1808.92 2026.29 1809.24 2025.75 1809.56 2025.15 1810.17 2024.5 1811.06 2024.26 1811.44 2023.8 1812.48 2023.12 1814.19L2008.01 1851.23C2006.55 1854.82 2004.64 1857.54 2002.27 1859.37 1999.91 1861.21 1997.63 1862.13 1995.44 1862.13 1993.85 1862.13 1992.54 1861.67 1991.51 1860.75 1990.49 1859.83 1989.97 1858.78 1989.97 1857.59 1989.97 1856.46 1990.34 1855.54 1991.09 1854.85 1991.83 1854.17 1992.85 1853.82 1994.15 1853.82 1995.04 1853.82 1996.26 1854.12 1997.8 1854.71 1998.88 1855.12 1999.55 1855.32 1999.82 1855.32 2000.63 1855.32 2001.52 1854.9 2002.48 1854.06 2003.44 1853.23 2004.4 1851.61 2005.37 1849.2L2008.01 1842.76 1994.67 1814.75C1994.27 1813.91 1993.62 1812.87 1992.73 1811.63 1992.05 1810.69 1991.5 1810.05 1991.07 1809.73 1990.45 1809.29 1989.45 1808.92 1988.07 1808.59ZM2040.46 1806 2042.2 1806 2042.2 1813.9C2044.9 1811.2 2046.5 1809.65 2046.98 1809.24 2048.2 1808.21 2049.51 1807.42 2050.91 1806.85 2052.32 1806.28 2053.71 1806 2055.09 1806 2057.41 1806 2059.41 1806.67 2061.09 1808.02 2062.76 1809.38 2063.88 1811.33 2064.45 1813.9 2067.23 1810.66 2069.58 1808.53 2071.5 1807.52 2073.42 1806.51 2075.39 1806 2077.42 1806 2079.39 1806 2081.14 1806.51 2082.67 1807.52 2084.19 1808.53 2085.4 1810.19 2086.29 1812.48 2086.89 1814.05 2087.18 1816.51 2087.18 1819.86L2087.18 1835.83C2087.18 1838.15 2087.36 1839.74 2087.71 1840.61 2087.98 1841.2 2088.48 1841.71 2089.21 1842.13 2089.94 1842.55 2091.13 1842.76 2092.78 1842.76L2092.78 1844.22 2074.46 1844.22 2074.46 1842.76 2075.23 1842.76C2076.82 1842.76 2078.07 1842.45 2078.96 1841.82 2079.58 1841.39 2080.02 1840.7 2080.3 1839.76 2080.4 1839.3 2080.46 1837.99 2080.46 1835.83L2080.46 1819.86C2080.46 1816.83 2080.09 1814.7 2079.36 1813.46 2078.31 1811.73 2076.62 1810.86 2074.3 1810.86 2072.87 1810.86 2071.43 1811.22 2069.98 1811.94 2068.54 1812.65 2066.79 1813.98 2064.73 1815.93L2064.65 1816.37 2064.73 1818.12 2064.73 1835.83C2064.73 1838.37 2064.87 1839.95 2065.16 1840.57 2065.44 1841.19 2065.98 1841.71 2066.76 1842.13 2067.54 1842.55 2068.88 1842.76 2070.77 1842.76L2070.77 1844.22 2052.01 1844.22 2052.01 1842.76C2054.06 1842.76 2055.47 1842.51 2056.24 1842.03 2057.01 1841.54 2057.55 1840.81 2057.84 1839.84 2057.98 1839.38 2058.05 1838.04 2058.05 1835.83L2058.05 1819.86C2058.05 1816.83 2057.6 1814.66 2056.71 1813.33 2055.52 1811.6 2053.86 1810.74 2051.72 1810.74 2050.26 1810.74 2048.82 1811.13 2047.39 1811.92 2045.14 1813.1 2043.42 1814.44 2042.2 1815.93L2042.2 1835.83C2042.2 1838.26 2042.37 1839.84 2042.71 1840.57 2043.04 1841.3 2043.54 1841.84 2044.21 1842.21 2044.87 1842.57 2046.21 1842.76 2048.24 1842.76L2048.24 1844.22 2029.88 1844.22 2029.88 1842.76C2031.58 1842.76 2032.77 1842.57 2033.45 1842.21 2034.12 1841.84 2034.63 1841.26 2034.99 1840.47 2035.34 1839.67 2035.51 1838.12 2035.51 1835.83L2035.51 1821.64C2035.51 1817.56 2035.39 1814.93 2035.15 1813.74 2034.96 1812.85 2034.66 1812.23 2034.26 1811.9 2033.85 1811.56 2033.3 1811.39 2032.59 1811.39 2031.84 1811.39 2030.93 1811.59 2029.88 1812L2029.27 1810.54ZM1970.9 1806C1972.36 1806 1974.13 1806.31 1976.21 1806.93 1977.59 1807.34 1978.51 1807.54 1978.97 1807.54 1979.4 1807.54 1979.74 1807.44 1979.98 1807.25 1980.22 1807.07 1980.51 1806.65 1980.83 1806L1982.17 1806 1982.17 1818.64 1980.83 1818.64C1979.8 1814.67 1978.49 1811.97 1976.88 1810.54 1975.27 1809.11 1973.23 1808.39 1970.74 1808.39 1968.85 1808.39 1967.32 1808.89 1966.16 1809.89 1965 1810.89 1964.42 1812 1964.42 1813.21 1964.42 1814.73 1964.85 1816.02 1965.71 1817.1 1966.55 1818.21 1968.25 1819.39 1970.82 1820.63L1976.74 1823.51C1982.22 1826.18 1984.96 1829.71 1984.96 1834.08 1984.96 1837.46 1983.69 1840.18 1981.13 1842.25 1978.58 1844.32 1975.72 1845.35 1972.56 1845.35 1970.29 1845.35 1967.7 1844.95 1964.78 1844.13 1963.89 1843.86 1963.16 1843.73 1962.59 1843.73 1961.97 1843.73 1961.49 1844.08 1961.13 1844.78L1959.8 1844.78 1959.8 1831.53 1961.13 1831.53C1961.89 1835.31 1963.34 1838.16 1965.47 1840.08 1967.61 1842 1970 1842.96 1972.64 1842.96 1974.51 1842.96 1976.03 1842.41 1977.2 1841.32 1978.38 1840.22 1978.97 1838.91 1978.97 1837.37 1978.97 1835.5 1978.31 1833.94 1977 1832.67 1975.69 1831.4 1973.08 1829.79 1969.16 1827.84 1965.24 1825.9 1962.67 1824.14 1961.46 1822.57 1960.24 1821.03 1959.64 1819.09 1959.64 1816.74 1959.64 1813.69 1960.68 1811.13 1962.78 1809.08 1964.87 1807.03 1967.58 1806 1970.9 1806ZM2104.52 1786.59 2106.35 1786.59 2106.35 1813.5C2109.94 1808.5 2113.82 1806 2117.98 1806 2121.79 1806 2125.11 1807.63 2127.95 1810.88 2130.79 1814.14 2132.2 1818.59 2132.2 1824.24 2132.2 1830.83 2130.02 1836.14 2125.64 1840.16 2121.88 1843.62 2117.7 1845.35 2113.08 1845.35 2110.91 1845.35 2108.72 1844.96 2106.49 1844.18 2104.26 1843.39 2101.98 1842.22 2099.66 1840.65L2099.66 1802.19C2099.66 1797.97 2099.56 1795.38 2099.36 1794.41 2099.15 1793.44 2098.84 1792.77 2098.41 1792.42 2097.97 1792.07 2097.43 1791.9 2096.78 1791.9 2096.03 1791.9 2095.08 1792.11 2093.95 1792.54L2093.38 1791.12Z" fill="#0070C0" fill-rule="evenodd"/><text fill="#000000" fill-opacity="0" font-family="Arial,Arial_MSFontService,sans-serif" font-size="75.543" x="1959.64" y="1852.69">symb</text><path d="M34.375-6.87493 179.482-6.87464 179.482 6.87536 34.375 6.87507ZM41.25 20.6251 0 0 41.25-20.6249Z" fill="#E95C6C" transform="matrix(-1 0 0 1 3570.48 2029)"/><text font-family="Times New Roman,Times New Roman_MSFontService,sans-serif" font-weight="400" font-size="64" transform="matrix(1 0 0 1 3421.97 1990)">Resource</text><text font-family="Times New Roman,Times New Roman_MSFontService,sans-serif" font-weight="400" font-size="64" transform="matrix(1 0 0 1 3421.97 2105)">Grid</text></g></svg>