<svg width="3724" height="1694" xmlns="http://www.w3.org/2000/svg" xmlns:xlink="http://www.w3.org/1999/xlink" xml:space="preserve" overflow="hidden"><defs><clipPath id="clip0"><rect x="370" y="744" width="3724" height="1694"/></clipPath></defs><g clip-path="url(#clip0)" transform="translate(-370 -744)"><text font-family="Times New Roman,Times New Roman_MSFontService,sans-serif" font-weight="400" font-size="110" transform="matrix(1 0 0 1 1128.05 884)">a</text><rect x="2933" y="1083" width="792" height="264" stroke="#E95C6C" stroke-width="5.72917" stroke-linejoin="round" stroke-miterlimit="10" fill="#E95C6C"/><text fill="#FFFFFF" font-family="Times New Roman,Times New Roman_MSFontService,sans-serif" font-weight="400" font-size="73" transform="matrix(1 0 0 1 3137.77 1198)">Bit Selection</text><text fill="#FFFFFF" font-family="Times New Roman,Times New Roman_MSFontService,sans-serif" font-weight="400" font-size="73" transform="matrix(1 0 0 1 3038.36 1286)">(TS 38.212</text><text fill="#FFFFFF" font-family="Times New Roman,Times New Roman_MSFontService,sans-serif" font-weight="400" font-size="73" transform="matrix(1 0 0 1 3368.36 1286)">-</text><text fill="#FFFFFF" font-family="Times New Roman,Times New Roman_MSFontService,sans-serif" font-weight="400" font-size="73" transform="matrix(1 0 0 1 3392.99 1286)">5.4.1.2)</text><rect x="2933" y="1522" width="792" height="264" stroke="#AB414D" stroke-width="5.72917" stroke-linejoin="round" stroke-miterlimit="10" fill="#E95C6C"/><text fill="#FFFFFF" font-family="Times New Roman,Times New Roman_MSFontService,sans-serif" font-weight="400" font-size="73" transform="matrix(1 0 0 1 3115.13 1637)">Bit Interleaver</text><text fill="#FFFFFF" font-family="Times New Roman,Times New Roman_MSFontService,sans-serif" font-weight="400" font-size="73" transform="matrix(1 0 0 1 3038.36 1725)">(TS 38.212</text><text fill="#FFFFFF" font-family="Times New Roman,Times New Roman_MSFontService,sans-serif" font-weight="400" font-size="73" transform="matrix(1 0 0 1 3368.36 1725)">-</text><text fill="#FFFFFF" font-family="Times New Roman,Times New Roman_MSFontService,sans-serif" font-weight="400" font-size="73" transform="matrix(1 0 0 1 3392.99 1725)">5.4.1.3)</text><rect x="2933" y="1978" width="792" height="264" stroke="#AB414D" stroke-width="5.72917" stroke-linejoin="round" stroke-miterlimit="10" fill="#E95C6C"/><text fill="#FFFFFF" font-family="Times New Roman,Times New Roman_MSFontService,sans-serif" font-weight="400" font-size="73" transform="matrix(1 0 0 1 2960.73 2093)">Code</text><text fill="#FFFFFF" font-family="Times New Roman,Times New Roman_MSFontService,sans-serif" font-weight="400" font-size="73" transform="matrix(1 0 0 1 3115.41 2093)">-</text><text fill="#FFFFFF" font-family="Times New Roman,Times New Roman_MSFontService,sans-serif" font-weight="400" font-size="73" transform="matrix(1 0 0 1 3140.05 2093)">Block Concatenate</text><text fill="#FFFFFF" font-family="Times New Roman,Times New Roman_MSFontService,sans-serif" font-weight="400" font-size="73" transform="matrix(1 0 0 1 3093.37 2181)">(TS 38.212</text><text fill="#FFFFFF" font-family="Times New Roman,Times New Roman_MSFontService,sans-serif" font-weight="400" font-size="73" transform="matrix(1 0 0 1 3423.37 2181)">-</text><text fill="#FFFFFF" font-family="Times New Roman,Times New Roman_MSFontService,sans-serif" font-weight="400" font-size="73" transform="matrix(1 0 0 1 3448 2181)">5.5)</text><path d="M3335.87 1347 3335.88 1487.81 3322.12 1487.81 3322.12 1347ZM3349.62 1480.93 3329 1522.18 3308.38 1480.93Z" fill="#E95C6C"/><path d="M3335.87 1786 3335.88 1943.41 3322.12 1943.41 3322.12 1786ZM3349.62 1936.54 3329 1977.79 3308.38 1936.54Z" fill="#E95C6C"/><path d="M3759.37 1647.13 3890 1647.13 3890 1660.88 3759.37 1660.88ZM3766.25 1674.63 3725 1654 3766.25 1633.38Z" fill="#00B050"/><path d="M6.87508 34.375 6.87536 153.533-6.87464 153.533-6.87492 34.375ZM-20.6249 41.25 0 0 20.6251 41.25Z" fill="#E95C6C" transform="matrix(1 0 0 -1 3329 2395.53)"/><path d="M3936.68 1637.34 3953.79 1637.34 3953.79 1639.33C3952.6 1639.63 3951.74 1639.92 3951.21 1640.22 3950.69 1640.52 3950.27 1640.89 3949.96 1641.34 3949.65 1641.78 3949.42 1642.45 3949.27 1643.34 3949.12 1644.23 3949.04 1645.61 3949.04 1647.47L3949.04 1682.53C3949.04 1684.34 3949.1 1685.67 3949.23 1686.5 3949.35 1687.34 3949.55 1688 3949.83 1688.49 3950.12 1688.97 3950.54 1689.38 3951.09 1689.7 3951.64 1690.03 3952.54 1690.35 3953.79 1690.68L3953.79 1692.66 3936.68 1692.66 3936.68 1690.68C3938.36 1690.24 3939.48 1689.77 3940.05 1689.24 3940.61 1688.71 3940.99 1687.96 3941.16 1686.99 3941.34 1686.02 3941.43 1684.53 3941.43 1682.53L3941.43 1647.47C3941.43 1645.61 3941.36 1644.25 3941.22 1643.4 3941.09 1642.55 3940.86 1641.89 3940.55 1641.42 3940.24 1640.94 3939.83 1640.57 3939.32 1640.28 3938.8 1640 3937.93 1639.68 3936.68 1639.33Z" fill-rule="evenodd"/><text fill="#000000" fill-opacity="0" font-family="Arial,Arial_MSFontService,sans-serif" font-size="55.3198" x="3936.68" y="1685.75">I</text><path d="M3984.82 1668.85 3998.88 1668.85 3998.88 1670.82C3998 1671.05 3997.31 1671.25 3996.79 1671.4 3996.27 1671.55 3995.88 1671.78 3995.61 1672.11 3995.35 1672.44 3995.18 1672.93 3995.11 1673.57 3995.04 1674.22 3995 1675.17 3995 1676.45L3995 1706.17 4003.46 1706.17C4004.24 1706.17 4004.93 1706.15 4005.55 1706.11 4006.16 1706.07 4006.71 1705.96 4007.2 1705.78 4007.69 1705.6 4008.12 1705.32 4008.5 1704.93 4008.87 1704.55 4009.23 1704.02 4009.55 1703.34 4009.88 1702.67 4010.19 1701.81 4010.48 1700.78 4010.76 1699.75 4011.07 1698.49 4011.39 1697L4014.96 1697C4014.86 1699.06 4014.75 1701.15 4014.62 1703.25 4014.49 1705.36 4014.37 1707.44 4014.27 1709.51L3984.82 1709.51 3984.82 1707.6C3985.77 1707.3 3986.5 1707.06 3987.02 1706.87 3987.54 1706.68 3987.91 1706.41 3988.15 1706.07 3988.39 1705.72 3988.53 1705.23 3988.55 1704.61 3988.58 1703.98 3988.6 1703.08 3988.6 1701.91L3988.6 1676.45C3988.6 1675.23 3988.57 1674.32 3988.53 1673.69 3988.48 1673.06 3988.33 1672.59 3988.09 1672.26 3987.85 1671.93 3987.48 1671.68 3986.98 1671.52 3986.47 1671.35 3985.75 1671.11 3984.82 1670.82ZM3962.82 1668.85 3976.88 1668.85 3976.88 1670.82C3975.98 1671.11 3975.28 1671.34 3974.76 1671.5 3974.24 1671.66 3973.86 1671.89 3973.6 1672.2 3973.34 1672.51 3973.18 1672.98 3973.11 1673.62 3973.04 1674.25 3973 1675.19 3973 1676.45L3973 1701.91C3973 1703.08 3973.03 1703.99 3973.09 1704.62 3973.15 1705.26 3973.31 1705.75 3973.57 1706.1 3973.83 1706.44 3974.21 1706.72 3974.73 1706.92 3975.25 1707.11 3975.96 1707.34 3976.88 1707.6L3976.88 1709.51 3962.82 1709.51 3962.82 1707.6C3963.77 1707.3 3964.5 1707.06 3965.02 1706.87 3965.54 1706.68 3965.91 1706.41 3966.15 1706.07 3966.39 1705.72 3966.53 1705.23 3966.55 1704.61 3966.58 1703.98 3966.6 1703.08 3966.6 1701.91L3966.6 1676.45C3966.6 1675.23 3966.57 1674.32 3966.53 1673.69 3966.48 1673.06 3966.33 1672.59 3966.09 1672.26 3965.85 1671.93 3965.48 1671.68 3964.98 1671.52 3964.47 1671.35 3963.75 1671.11 3962.82 1670.82Z" fill-rule="evenodd"/><text fill="#000000" fill-opacity="0" font-family="Arial,Arial_MSFontService,sans-serif" font-size="40.6567" x="3962.82" y="1704.42">IL</text><text fill="#0070C0" font-family="Times New Roman,Times New Roman_MSFontService,sans-serif" font-weight="400" font-size="83" transform="matrix(1 0 0 1 3373.03 1423)">E</text><path d="M3295.39 1371.58 3357.2 1404.44" stroke="#0070C0" stroke-width="13.75" stroke-linejoin="round" stroke-miterlimit="10" fill="none" fill-rule="evenodd"/><text fill="#0070C0" font-family="Times New Roman,Times New Roman_MSFontService,sans-serif" font-weight="400" font-size="83" transform="matrix(1 0 0 1 3377.99 1912)">E</text><path d="M3299.19 1858.84 3361 1891.71" stroke="#0070C0" stroke-width="13.75" stroke-linejoin="round" stroke-miterlimit="10" fill="none" fill-rule="evenodd"/><text fill="#0070C0" font-family="Times New Roman,Times New Roman_MSFontService,sans-serif" font-weight="400" font-size="83" transform="matrix(1 0 0 1 3377.55 2319)">G</text><path d="M3298.74 2266.05 3360.55 2298.91" stroke="#0070C0" stroke-width="13.75" stroke-linejoin="round" stroke-miterlimit="10" fill="none" fill-rule="evenodd"/><text font-family="Times New Roman,Times New Roman_MSFontService,sans-serif" font-weight="400" font-size="110" transform="matrix(1 0 0 1 3210.02 1443)">e</text><text font-family="Times New Roman,Times New Roman_MSFontService,sans-serif" font-weight="400" font-size="110" transform="matrix(1 0 0 1 3233.25 1926)">f</text><text font-family="Times New Roman,Times New Roman_MSFontService,sans-serif" font-weight="400" font-size="110" transform="matrix(1 0 0 1 3184.57 2330)">g</text><rect x="2906.5" y="1054.5" width="844" height="765" stroke="#002060" stroke-width="6.875" stroke-linecap="square" stroke-miterlimit="8" fill="none"/><path d="M1145.78 1044 1145.12 911.034 1158.87 910.966 1159.53 1043.93ZM1173.24 1036.99 1152.82 1078.34 1131.99 1037.19Z" fill="#E95C6C"/><rect x="691" y="1078" width="924" height="264" stroke="#E95C6C" stroke-width="5.72917" stroke-linejoin="round" stroke-miterlimit="10" fill="#E95C6C"/><text fill="#FFFFFF" font-family="Times New Roman,Times New Roman_MSFontService,sans-serif" font-weight="400" font-size="73" transform="matrix(1 0 0 1 843.563 1193)">TB CRC Attachment</text><text fill="#FFFFFF" font-family="Times New Roman,Times New Roman_MSFontService,sans-serif" font-weight="400" font-size="73" transform="matrix(1 0 0 1 890.244 1281)">(TS 38.212</text><text fill="#FFFFFF" font-family="Times New Roman,Times New Roman_MSFontService,sans-serif" font-weight="400" font-size="73" transform="matrix(1 0 0 1 1220.24 1281)">-</text><text fill="#FFFFFF" font-family="Times New Roman,Times New Roman_MSFontService,sans-serif" font-weight="400" font-size="73" transform="matrix(1 0 0 1 1244.88 1281)">7.2.1)</text><rect x="691" y="1523" width="924" height="264" stroke="#E95C6C" stroke-width="5.72917" stroke-linejoin="round" stroke-miterlimit="10" fill="#E95C6C"/><text fill="#FFFFFF" font-family="Times New Roman,Times New Roman_MSFontService,sans-serif" font-weight="400" font-size="73" transform="matrix(1 0 0 1 779.683 1638)">Code block segmentation</text><text fill="#FFFFFF" font-family="Times New Roman,Times New Roman_MSFontService,sans-serif" font-weight="400" font-size="73" transform="matrix(1 0 0 1 890.256 1726)">(TS 38.212</text><text fill="#FFFFFF" font-family="Times New Roman,Times New Roman_MSFontService,sans-serif" font-weight="400" font-size="73" transform="matrix(1 0 0 1 1220.26 1726)">-</text><text fill="#FFFFFF" font-family="Times New Roman,Times New Roman_MSFontService,sans-serif" font-weight="400" font-size="73" transform="matrix(1 0 0 1 1244.89 1726)">5.2.1)</text><path d="M524 1203.12 657.293 1203.13 657.293 1216.88 524 1216.88ZM650.418 1189.38 691.668 1210 650.418 1230.63Z" fill="#00B050"/><text fill="#0070C0" font-family="Times New Roman,Times New Roman_MSFontService,sans-serif" font-weight="400" font-size="83" transform="matrix(1 0 0 1 1203.48 1030)">A</text><text font-family="Times New Roman,Times New Roman_MSFontService,sans-serif" font-weight="400" font-size="110" transform="matrix(1 0 0 1 1055.86 1493)">b</text><text fill="#0070C0" font-family="Times New Roman,Times New Roman_MSFontService,sans-serif" font-weight="400" font-size="83" transform="matrix(1 0 0 1 1196.65 1424)">B</text><path d="M1122.83 986.302 1184.64 1019.17" stroke="#0070C0" stroke-width="13.75" stroke-linejoin="round" stroke-miterlimit="10" fill="none" fill-rule="evenodd"/><path d="M2719 1208.13 2898.39 1208.13 2898.39 1221.88 2719 1221.88ZM2891.51 1194.38 2932.76 1215 2891.51 1235.63Z" fill="#E95C6C"/><rect x="1795" y="1083" width="924" height="264" stroke="#E95C6C" stroke-width="5.72917" stroke-linejoin="round" stroke-miterlimit="10" fill="#E95C6C"/><text fill="#FFFFFF" font-family="Times New Roman,Times New Roman_MSFontService,sans-serif" font-weight="400" font-size="73" transform="matrix(1 0 0 1 2032.21 1198)">LDPC Encoder</text><text fill="#FFFFFF" font-family="Times New Roman,Times New Roman_MSFontService,sans-serif" font-weight="400" font-size="73" transform="matrix(1 0 0 1 1994.1 1286)">(TS 38.212</text><text fill="#FFFFFF" font-family="Times New Roman,Times New Roman_MSFontService,sans-serif" font-weight="400" font-size="73" transform="matrix(1 0 0 1 2324.1 1286)">-</text><text fill="#FFFFFF" font-family="Times New Roman,Times New Roman_MSFontService,sans-serif" font-weight="400" font-size="73" transform="matrix(1 0 0 1 2348.73 1286)">5.3.1)</text><path d="M6.87499-0.0105429 7.09186 141.411-6.65812 141.432-6.87499 0.0105429ZM20.8313 134.515 0.269587 175.797-20.4186 134.578Z" fill="#E95C6C" transform="matrix(1 0 0 -1 2257 1522.8)"/><text fill="#0070C0" font-family="Times New Roman,Times New Roman_MSFontService,sans-serif" font-weight="400" font-size="83" transform="matrix(1 0 0 1 2308.63 1512)">K</text><path d="M2227.79 1458.99 2289.6 1491.85" stroke="#0070C0" stroke-width="13.75" stroke-linejoin="round" stroke-miterlimit="10" fill="none" fill-rule="evenodd"/><text font-family="Times New Roman,Times New Roman_MSFontService,sans-serif" font-weight="400" font-size="110" transform="matrix(1 0 0 1 2788.82 1143)">d</text><text fill="#0070C0" font-family="Times New Roman,Times New Roman_MSFontService,sans-serif" font-weight="400" font-size="83" transform="matrix(1 0 0 1 2769.36 1296)">N</text><path d="M2791.5 1190 2742 1239.5" stroke="#0070C0" stroke-width="13.75" stroke-linejoin="round" stroke-miterlimit="10" fill="none" fill-rule="evenodd"/><path d="M6.87507 34.375 6.87536 180.364-6.87464 180.364-6.87493 34.375ZM-20.6249 41.25 0 0 20.6251 41.25Z" fill="#E95C6C" transform="matrix(1 0 0 -1 1153 1522.36)"/><path d="M1122.54 1370.71 1184.35 1403.58" stroke="#0070C0" stroke-width="13.75" stroke-linejoin="round" stroke-miterlimit="10" fill="none" fill-rule="evenodd"/><path d="M1760.18 1662.11 1614.99 1661.88 1615.01 1648.13 1760.21 1648.36ZM1753.35 1634.6 1794.57 1655.3 1753.29 1675.85Z" fill="#E95C6C"/><path d="M1690.37 1708.21C1693.3 1708.21 1696.01 1708.38 1698.5 1708.72 1700.99 1709.06 1703.49 1709.61 1706 1710.36L1706 1721.58 1699.17 1721.58C1698.57 1719.26 1697.81 1717.42 1696.92 1716.08 1696.02 1714.74 1694.99 1713.8 1693.8 1713.26 1692.62 1712.72 1691.15 1712.45 1689.4 1712.45 1686.89 1712.45 1684.67 1713.26 1682.74 1714.87 1680.81 1716.48 1679.27 1718.93 1678.15 1722.23 1677.02 1725.52 1676.46 1729.55 1676.46 1734.31 1676.46 1737.36 1676.67 1740.14 1677.1 1742.66 1677.53 1745.19 1678.26 1747.35 1679.3 1749.14 1680.34 1750.93 1681.72 1752.32 1683.44 1753.33 1685.16 1754.33 1687.29 1754.83 1689.83 1754.83 1692.3 1754.83 1694.6 1754.35 1696.73 1753.38 1698.86 1752.41 1701.07 1750.71 1703.36 1748.28L1706.43 1751.82C1704.6 1753.83 1702.99 1755.38 1701.59 1756.47 1700.2 1757.56 1698.7 1758.47 1697.11 1759.21 1695.51 1759.94 1693.94 1760.48 1692.38 1760.82 1690.82 1761.16 1689.13 1761.33 1687.3 1761.33 1680.54 1761.33 1675.36 1759.08 1671.78 1754.59 1668.2 1750.09 1666.41 1743.6 1666.41 1735.12 1666.41 1729.82 1667.41 1725.12 1669.42 1721.02 1671.42 1716.92 1674.23 1713.76 1677.85 1711.54 1681.47 1709.32 1685.64 1708.21 1690.37 1708.21Z" fill-rule="evenodd"/><text fill="#000000" fill-opacity="0" font-family="Arial,Arial_MSFontService,sans-serif" font-size="53.1201" x="1666.41" y="1754.69">c</text><path d="M1740.41 1743.05C1742.02 1743.05 1743.56 1743.2 1745.02 1743.51L1745.02 1753.2 1740.02 1753.2C1739.73 1752.47 1739.43 1751.84 1739.12 1751.31 1738.81 1750.77 1738.45 1750.33 1738.04 1749.98 1737.64 1749.63 1737.17 1749.37 1736.64 1749.2 1736.1 1749.03 1735.47 1748.94 1734.74 1748.94 1733.99 1748.94 1733.13 1749.18 1732.18 1749.67 1731.23 1750.15 1730.34 1750.81 1729.51 1751.64 1728.68 1752.47 1727.98 1753.44 1727.42 1754.53 1726.86 1755.62 1726.58 1756.78 1726.58 1758.01L1726.58 1772.97C1726.58 1774.61 1726.65 1775.86 1726.79 1776.74 1726.94 1777.61 1727.2 1778.27 1727.59 1778.71 1727.98 1779.15 1728.52 1779.47 1729.2 1779.67 1729.87 1779.86 1730.76 1780.12 1731.85 1780.43L1731.85 1782.93 1714.23 1782.93 1714.23 1780.43C1715.25 1780.06 1716.06 1779.78 1716.68 1779.57 1717.29 1779.36 1717.76 1779.04 1718.08 1778.61 1718.41 1778.18 1718.62 1777.55 1718.71 1776.72 1718.8 1775.88 1718.84 1774.67 1718.84 1773.08L1718.84 1756.29C1718.84 1754.49 1718.84 1753.02 1718.82 1751.87 1718.81 1750.73 1718.66 1749.8 1718.36 1749.08 1718.06 1748.36 1717.55 1747.82 1716.83 1747.44 1716.12 1747.06 1715.06 1746.76 1713.65 1746.52L1713.65 1743.87 1723.88 1743.44 1726.66 1743.44 1726.11 1750.39C1726.19 1750.44 1726.25 1750.47 1726.31 1750.49 1726.36 1750.5 1726.42 1750.53 1726.5 1750.58 1727.75 1749.23 1728.9 1748.07 1729.96 1747.11 1731.01 1746.14 1732.08 1745.36 1733.16 1744.76 1734.24 1744.17 1735.36 1743.73 1736.52 1743.46 1737.68 1743.18 1738.97 1743.05 1740.41 1743.05Z" fill-rule="evenodd"/><text fill="#000000" fill-opacity="0" font-family="Arial,Arial_MSFontService,sans-serif" font-size="39.8828" x="1713.65" y="1777.94">r</text><path d="M1727.1 1678.78 1737.18 1678.78 1737.18 1681.82 1724.17 1713.11 1719.6 1711.74Z" fill-rule="evenodd"/><text fill="#000000" fill-opacity="0" font-family="Arial,Arial_MSFontService,sans-serif" font-size="34.3359" x="1719.6" y="1708.82">′</text><rect x="1795" y="1523" width="924" height="264" stroke="#E95C6C" stroke-width="5.72917" stroke-linejoin="round" stroke-miterlimit="10" fill="#E95C6C"/><text fill="#FFFFFF" font-family="Times New Roman,Times New Roman_MSFontService,sans-serif" font-weight="400" font-size="73" transform="matrix(1 0 0 1 1835.7 1594)">Code block CRC attachment </text><text fill="#FFFFFF" font-family="Times New Roman,Times New Roman_MSFontService,sans-serif" font-weight="400" font-size="73" transform="matrix(1 0 0 1 2084.64 1682)">+ Filler bits</text><text fill="#FFFFFF" font-family="Times New Roman,Times New Roman_MSFontService,sans-serif" font-weight="400" font-size="73" transform="matrix(1 0 0 1 1993.83 1770)">(TS 38.212</text><text fill="#FFFFFF" font-family="Times New Roman,Times New Roman_MSFontService,sans-serif" font-weight="400" font-size="73" transform="matrix(1 0 0 1 2323.83 1770)">-</text><text fill="#FFFFFF" font-family="Times New Roman,Times New Roman_MSFontService,sans-serif" font-weight="400" font-size="73" transform="matrix(1 0 0 1 2348.46 1770)">5.2.1)</text><path d="M407.504 1193.82 424.566 1193.82 424.566 1195.81C423.377 1196.13 422.533 1196.43 422.033 1196.68 421.533 1196.94 421.121 1197.28 420.797 1197.72 420.473 1198.15 420.229 1198.81 420.067 1199.7 419.905 1200.59 419.824 1202.01 419.824 1203.96L419.824 1245.42 430.442 1245.42C431.604 1245.42 432.577 1245.35 433.36 1245.21 434.144 1245.08 434.812 1244.87 435.366 1244.59 435.92 1244.3 436.42 1243.91 436.866 1243.41 437.312 1242.91 437.737 1242.26 438.142 1241.44 438.548 1240.63 438.933 1239.61 439.297 1238.38 439.662 1237.16 440.115 1235.31 440.655 1232.85L444.748 1232.85 443.938 1249.14 407.504 1249.14 407.504 1247.16C409.179 1246.73 410.3 1246.25 410.868 1245.72 411.435 1245.19 411.806 1244.44 411.982 1243.47 412.158 1242.5 412.245 1241.01 412.245 1239.01L412.245 1203.96C412.245 1202.09 412.178 1200.73 412.043 1199.88 411.908 1199.03 411.685 1198.37 411.374 1197.9 411.063 1197.43 410.651 1197.05 410.138 1196.76 409.625 1196.48 408.747 1196.16 407.504 1195.81Z" fill-rule="evenodd"/><text fill="#000000" fill-opacity="0" font-family="Arial,Arial_MSFontService,sans-serif" font-size="55.3198" x="407.504" y="1242.23">L</text><path d="M490.058 1239.69C489.045 1239.69 488.052 1239.88 487.079 1240.25 486.106 1240.63 485.238 1241.13 484.473 1241.74 483.709 1242.36 483.093 1243.06 482.626 1243.84 482.16 1244.63 481.926 1245.44 481.926 1246.27L481.926 1255C481.926 1256.67 482.065 1258.05 482.343 1259.15 482.621 1260.25 483.063 1261.14 483.669 1261.8 484.275 1262.47 485.049 1262.94 485.992 1263.22 486.935 1263.5 488.082 1263.64 489.432 1263.64 491.994 1263.64 493.935 1262.63 495.255 1260.61 496.576 1258.6 497.236 1255.62 497.236 1251.69 497.236 1243.69 494.843 1239.69 490.058 1239.69ZM454.22 1228.64 459.105 1228.64 459.105 1236.2 469.53 1236.2 469.53 1239.51 459.105 1239.51 459.105 1253.72C459.125 1255.54 459.234 1257.03 459.433 1258.17 459.631 1259.31 459.939 1260.2 460.356 1260.84 460.773 1261.47 461.289 1261.9 461.905 1262.13 462.521 1262.36 463.255 1262.47 464.109 1262.47 464.963 1262.47 465.802 1262.28 466.626 1261.89 467.45 1261.51 468.259 1260.98 469.053 1260.33 469.331 1260.69 469.59 1261.04 469.828 1261.4 470.066 1261.76 470.314 1262.12 470.572 1262.47 468.924 1263.88 467.395 1264.91 465.986 1265.56 464.576 1266.2 463.146 1266.52 461.697 1266.52 458.817 1266.52 456.678 1265.75 455.278 1264.2 453.878 1262.65 453.178 1260.23 453.178 1256.93L453.178 1239.51 448.442 1239.51 448.442 1237.69C449.078 1237.59 449.653 1237.44 450.17 1237.23 450.686 1237.02 451.143 1236.78 451.54 1236.5 451.897 1236.24 452.205 1235.94 452.463 1235.58 452.721 1235.22 452.95 1234.75 453.148 1234.18 453.347 1233.6 453.53 1232.87 453.699 1231.97 453.868 1231.08 454.042 1229.97 454.22 1228.64ZM479.812 1222.77 481.926 1222.77 481.926 1240.94 481.986 1240.94C483.038 1239.91 483.992 1239.05 484.845 1238.38 485.699 1237.7 486.518 1237.16 487.303 1236.75 488.087 1236.35 488.876 1236.06 489.671 1235.89 490.465 1235.72 491.329 1235.62 492.262 1235.58 493.989 1235.58 495.548 1235.91 496.938 1236.58 498.328 1237.24 499.515 1238.22 500.498 1239.51 501.48 1240.8 502.24 1242.39 502.776 1244.29 503.312 1246.19 503.58 1248.36 503.58 1250.8 503.58 1253.56 503.233 1255.93 502.538 1257.9 501.843 1259.88 500.88 1261.51 499.649 1262.79 498.418 1264.07 496.953 1265.01 495.255 1265.62 493.558 1266.22 491.706 1266.52 489.7 1266.52 487.993 1266.52 486.424 1266.38 484.994 1266.09 483.565 1265.8 482.135 1265.32 480.705 1264.65 479.931 1265.3 479.186 1265.93 478.471 1266.52 478.074 1266.43 477.672 1266.35 477.265 1266.29 476.858 1266.23 476.456 1266.15 476.059 1266.05L476.059 1233.11C476.059 1232.03 476.064 1231.1 476.074 1230.32 476.084 1229.54 476.059 1228.87 475.999 1228.31 475.94 1227.75 475.835 1227.29 475.686 1226.93 475.538 1226.56 475.304 1226.26 474.987 1226.02 474.669 1225.78 474.257 1225.58 473.75 1225.44 473.244 1225.29 472.604 1225.15 471.829 1225.03L471.829 1223.07Z" fill-rule="evenodd"/><text fill="#000000" fill-opacity="0" font-family="Arial,Arial_MSFontService,sans-serif" font-size="43.7544" x="448.442" y="1261.06">tb</text><path d="M1659.76 1542.94 1683.18 1542.94 1683.18 1544.44 1681.32 1544.44C1680.05 1544.44 1678.82 1544.75 1677.63 1545.37 1676.79 1545.8 1676.21 1546.45 1675.89 1547.31 1675.56 1548.18 1675.4 1549.96 1675.4 1552.66L1675.4 1569.48C1675.94 1568.97 1677.79 1567.25 1680.95 1564.34 1688.98 1556.99 1693.83 1552.08 1695.5 1549.62 1696.23 1548.54 1696.6 1547.6 1696.6 1546.79 1696.6 1546.17 1696.31 1545.62 1695.75 1545.15 1695.18 1544.67 1694.22 1544.44 1692.87 1544.44L1691.61 1544.44 1691.61 1542.94 1711.8 1542.94 1711.8 1544.44C1710.61 1544.46 1709.53 1544.63 1708.55 1544.92 1707.58 1545.22 1706.39 1545.79 1704.99 1546.65 1703.58 1547.5 1701.85 1548.87 1699.8 1550.76 1699.2 1551.3 1696.46 1554.07 1691.57 1559.07L1683.18 1567.42 1703.45 1587.56C1706.77 1590.88 1709.61 1593.14 1711.96 1594.35 1714.31 1595.55 1716.66 1596.23 1719.01 1596.39L1719.01 1597.89 1692.87 1597.89 1692.87 1596.39C1694.44 1596.39 1695.56 1596.13 1696.25 1595.6 1696.94 1595.08 1697.29 1594.49 1697.29 1593.84 1697.29 1593.19 1697.16 1592.61 1696.9 1592.1 1696.64 1591.58 1695.8 1590.62 1694.37 1589.22L1675.4 1570.46 1675.4 1588.17C1675.4 1590.95 1675.58 1592.79 1675.93 1593.68 1676.2 1594.35 1676.77 1594.93 1677.63 1595.42 1678.79 1596.07 1680.02 1596.39 1681.32 1596.39L1683.18 1596.39 1683.18 1597.89 1659.76 1597.89 1659.76 1596.39 1661.7 1596.39C1663.97 1596.39 1665.62 1595.73 1666.65 1594.41 1667.3 1593.54 1667.62 1591.46 1667.62 1588.17L1667.62 1552.66C1667.62 1549.88 1667.44 1548.03 1667.09 1547.11 1666.82 1546.46 1666.27 1545.9 1665.43 1545.41 1664.24 1544.76 1663 1544.44 1661.7 1544.44L1659.76 1544.44ZM1731.55 1541.68C1732.52 1541.68 1733.29 1541.95 1733.86 1542.49 1734.43 1543.03 1734.71 1543.72 1734.71 1544.56 1734.71 1545.18 1734.58 1545.86 1734.31 1546.59 1733.96 1547.64 1732.96 1549.91 1731.31 1553.39L1725.72 1565.35 1723.93 1565.35 1725.19 1553.35C1725.54 1549.92 1725.89 1547.61 1726.24 1546.42 1726.76 1544.75 1727.48 1543.54 1728.41 1542.8 1729.34 1542.05 1730.39 1541.68 1731.55 1541.68Z" fill="#0070C0" fill-rule="evenodd"/><text fill="#000000" fill-opacity="0" font-family="Arial,Arial_MSFontService,sans-serif" font-size="56.2114" x="1659.76" y="1590.87">K′</text><path d="M1681.5 1629 1632 1678.5" stroke="#0070C0" stroke-width="13.75" stroke-linejoin="round" stroke-miterlimit="10" fill="none" fill-rule="evenodd"/><path d="M915.875 1786 915.875 1941.37 902.125 1941.37 902.125 1786ZM929.625 1934.5 909 1975.75 888.375 1934.5Z" fill="#00B050"/><path d="M6.875-1.3076e-05 6.8753 155.372-6.8747 155.372-6.875 1.3076e-05ZM20.6253 148.497 0.000360892 189.747-20.6247 148.497Z" fill="#00B050" transform="matrix(1 0 0 -1 1358 1975.75)"/><path d="M6.87495-0.0262478 7.4655 154.652-6.2844 154.705-6.87495 0.0262478ZM21.1891 147.725 0.721785 189.053-20.0606 147.882Z" fill="#00B050" transform="matrix(1 0 0 -1 2256 1976.05)"/><text font-family="Times New Roman,Times New Roman_MSFontService,sans-serif" font-weight="400" font-size="83" transform="matrix(1 0 0 1 2276.94 1914)">L</text><rect x="691" y="1976" width="924" height="270" stroke="#E95C6C" stroke-width="5.72917" stroke-linejoin="round" stroke-miterlimit="10" fill="#E95C6C"/><text fill="#FFFFFF" font-family="Times New Roman,Times New Roman_MSFontService,sans-serif" font-weight="400" font-size="73" transform="matrix(1 0 0 1 748.824 2099)">LDPC parameters selection</text><text fill="#FFFFFF" font-family="Times New Roman,Times New Roman_MSFontService,sans-serif" font-weight="400" font-size="64" transform="matrix(1 0 0 1 923.564 2178)">(TS 38.212</text><text fill="#FFFFFF" font-family="Times New Roman,Times New Roman_MSFontService,sans-serif" font-weight="400" font-size="64" transform="matrix(1 0 0 1 1211.74 2178)">-</text><text fill="#FFFFFF" font-family="Times New Roman,Times New Roman_MSFontService,sans-serif" font-weight="400" font-size="64" transform="matrix(1 0 0 1 1232.94 2178)">7.2.2)</text><text font-family="Times New Roman,Times New Roman_MSFontService,sans-serif" font-weight="400" font-size="64" transform="matrix(1 0 0 1 1183.1 2352)">(</text><text font-family="Times New Roman,Times New Roman_MSFontService,sans-serif" font-weight="400" font-size="64" transform="matrix(1 0 0 1 1204.3 2352)">codeRate</text><text font-family="Times New Roman,Times New Roman_MSFontService,sans-serif" font-weight="400" font-size="64" transform="matrix(1 0 0 1 1443.78 2352)">, A)</text><path d="M1217.05 1873.5 1230.21 1873.5 1230.21 1875.04C1229.29 1875.26 1228.63 1875.49 1228.22 1875.72 1227.81 1875.95 1227.49 1876.24 1227.25 1876.58 1227.01 1876.93 1226.84 1877.44 1226.72 1878.13 1226.61 1878.82 1226.55 1879.88 1226.55 1881.32L1226.52 1892.79 1227.46 1892.79C1228.25 1892.79 1228.97 1892.66 1229.63 1892.41 1230.28 1892.16 1231.02 1891.69 1231.83 1891 1232.64 1890.32 1233.88 1889.04 1235.55 1887.16 1237.55 1884.93 1238.91 1883.32 1239.64 1882.32 1240.56 1881.13 1241.17 1880.13 1241.49 1879.32 1241.74 1878.71 1241.86 1878.13 1241.86 1877.57 1241.86 1876.73 1241.62 1876.12 1241.14 1875.74 1240.66 1875.35 1240.01 1875.12 1239.17 1875.04L1239.17 1873.5 1252.8 1873.5 1252.8 1875.04C1252.13 1875.18 1251.48 1875.44 1250.83 1875.8 1250.18 1876.17 1249.52 1876.67 1248.85 1877.3 1248.17 1877.94 1247.17 1878.98 1245.86 1880.44L1235.36 1892.25 1246.74 1908.79C1247.94 1910.54 1248.89 1911.76 1249.58 1912.46 1250.27 1913.15 1250.92 1913.67 1251.55 1913.99 1252.17 1914.31 1252.84 1914.52 1253.55 1914.63L1253.55 1916.16 1239.77 1916.16 1239.77 1914.63C1240.54 1914.57 1241.1 1914.42 1241.46 1914.19 1241.81 1913.96 1241.99 1913.62 1241.99 1913.16 1241.99 1912.79 1241.87 1912.33 1241.63 1911.8 1241.39 1911.27 1241.01 1910.63 1240.49 1909.88L1233.21 1899.04C1232.35 1897.74 1231.73 1896.89 1231.33 1896.47 1230.93 1896.06 1230.51 1895.75 1230.05 1895.55 1229.59 1895.35 1228.98 1895.25 1228.21 1895.25L1226.55 1895.25 1226.55 1908.35C1226.55 1909.74 1226.6 1910.76 1226.69 1911.41 1226.78 1912.06 1226.94 1912.57 1227.16 1912.94 1227.38 1913.32 1227.7 1913.63 1228.13 1913.88 1228.55 1914.13 1229.25 1914.38 1230.21 1914.63L1230.21 1916.16 1217.05 1916.16 1217.05 1914.63C1218.34 1914.3 1219.21 1913.93 1219.64 1913.52 1220.08 1913.11 1220.37 1912.54 1220.5 1911.79 1220.64 1911.04 1220.71 1909.89 1220.71 1908.35L1220.71 1881.32C1220.71 1879.88 1220.65 1878.83 1220.55 1878.18 1220.44 1877.52 1220.27 1877.01 1220.03 1876.64 1219.79 1876.28 1219.48 1875.99 1219.08 1875.77 1218.68 1875.55 1218.01 1875.31 1217.05 1875.04Z" fill-rule="evenodd"/><text fill="#000000" fill-opacity="0" font-family="Arial,Arial_MSFontService,sans-serif" font-size="42.6562" x="1217.05" y="1910.83">K</text><path d="M1294.54 1908.98C1293.76 1908.98 1293 1909.13 1292.25 1909.42 1291.5 1909.71 1290.83 1910.09 1290.24 1910.56 1289.65 1911.04 1289.18 1911.58 1288.82 1912.18 1288.46 1912.79 1288.28 1913.41 1288.28 1914.05L1288.28 1920.78C1288.28 1922.06 1288.39 1923.13 1288.6 1923.98 1288.81 1924.83 1289.15 1925.51 1289.62 1926.02 1290.09 1926.53 1290.68 1926.9 1291.41 1927.11 1292.14 1927.33 1293.02 1927.43 1294.06 1927.43 1296.04 1927.43 1297.53 1926.66 1298.55 1925.1 1299.57 1923.55 1300.07 1921.26 1300.07 1918.23 1300.07 1912.06 1298.23 1908.98 1294.54 1908.98ZM1270.1 1905.81C1270.85 1905.81 1271.55 1905.84 1272.21 1905.88 1272.87 1905.93 1273.49 1906 1274.09 1906.09 1274.69 1906.18 1275.27 1906.29 1275.84 1906.42 1276.4 1906.55 1276.96 1906.69 1277.51 1906.85L1277.51 1912.08 1274.14 1912.08C1273.77 1910.66 1273.24 1909.64 1272.55 1909.02 1271.87 1908.4 1270.91 1908.09 1269.69 1908.09 1268.8 1908.09 1267.99 1908.29 1267.26 1908.71 1266.54 1909.12 1265.92 1909.72 1265.41 1910.52 1264.89 1911.31 1264.49 1912.3 1264.21 1913.47 1263.93 1914.64 1263.79 1915.98 1263.79 1917.5 1263.79 1918.95 1263.9 1920.24 1264.12 1921.36 1264.34 1922.49 1264.7 1923.43 1265.19 1924.2 1265.68 1924.96 1266.31 1925.54 1267.08 1925.94 1267.85 1926.34 1268.78 1926.54 1269.87 1926.54 1271.02 1926.54 1272.1 1926.3 1273.12 1925.81 1274.13 1925.33 1275.19 1924.55 1276.29 1923.46 1276.52 1923.77 1276.77 1924.06 1277.04 1924.35 1277.31 1924.63 1277.56 1924.92 1277.79 1925.21 1277.01 1926.03 1276.26 1926.73 1275.54 1927.29 1274.82 1927.86 1274.1 1928.32 1273.37 1928.67 1272.64 1929.02 1271.89 1929.28 1271.11 1929.43 1270.33 1929.58 1269.49 1929.66 1268.58 1929.66 1265.45 1929.66 1263.04 1928.65 1261.37 1926.63 1259.69 1924.61 1258.85 1921.68 1258.85 1917.84 1258.85 1916.05 1259.12 1914.42 1259.67 1912.94 1260.21 1911.46 1260.98 1910.2 1261.96 1909.14 1262.95 1908.09 1264.14 1907.27 1265.52 1906.69 1266.9 1906.1 1268.43 1905.81 1270.1 1905.81ZM1286.65 1895.95 1288.28 1895.95 1288.28 1909.95 1288.32 1909.95C1289.14 1909.15 1289.87 1908.49 1290.53 1907.97 1291.19 1907.45 1291.82 1907.03 1292.42 1906.72 1293.03 1906.41 1293.63 1906.19 1294.25 1906.06 1294.86 1905.93 1295.52 1905.84 1296.24 1905.81 1297.57 1905.81 1298.77 1906.07 1299.85 1906.58 1300.92 1907.1 1301.83 1907.85 1302.59 1908.84 1303.35 1909.84 1303.93 1911.07 1304.34 1912.53 1304.76 1913.99 1304.96 1915.66 1304.96 1917.54 1304.96 1919.67 1304.7 1921.49 1304.16 1923.01 1303.62 1924.54 1302.88 1925.79 1301.93 1926.78 1300.99 1927.77 1299.86 1928.49 1298.55 1928.96 1297.24 1929.43 1295.81 1929.66 1294.27 1929.66 1292.95 1929.66 1291.74 1929.55 1290.64 1929.33 1289.54 1929.1 1288.44 1928.73 1287.34 1928.21 1286.74 1928.72 1286.17 1929.2 1285.62 1929.66 1285.31 1929.58 1285 1929.52 1284.69 1929.47 1284.37 1929.43 1284.06 1929.37 1283.76 1929.29L1283.76 1903.91C1283.76 1903.08 1283.76 1902.37 1283.77 1901.76 1283.78 1901.16 1283.76 1900.64 1283.71 1900.21 1283.67 1899.79 1283.59 1899.43 1283.47 1899.15 1283.36 1898.86 1283.18 1898.63 1282.93 1898.45 1282.69 1898.26 1282.37 1898.11 1281.98 1898 1281.59 1897.89 1281.1 1897.78 1280.5 1897.69L1280.5 1896.18Z" fill-rule="evenodd"/><text fill="#000000" fill-opacity="0" font-family="Arial,Arial_MSFontService,sans-serif" font-size="33.7124" x="1258.85" y="1925.44">cb</text><path d="M6.875-2.03839e-05 6.87526 87.3453-6.87474 87.3454-6.875 2.03839e-05ZM20.6252 80.4703 0.000360892 121.72-20.6248 80.4704Z" fill="#00B050" transform="matrix(1 0 0 -1 1153 2367.72)"/><rect x="1811" y="1989" width="890" height="55" stroke="#E95C6C" stroke-width="5.72917" stroke-linejoin="round" stroke-miterlimit="10" fill="#E95C6C"/><text fill="#FFFFFF" font-family="Times New Roman,Times New Roman_MSFontService,sans-serif" font-weight="400" font-size="55" transform="matrix(1 0 0 1 2025.31 2037)">Base</text><text fill="#FFFFFF" font-family="Times New Roman,Times New Roman_MSFontService,sans-serif" font-weight="400" font-size="55" transform="matrix(1 0 0 1 2132.45 2037)">-</text><text fill="#FFFFFF" font-family="Times New Roman,Times New Roman_MSFontService,sans-serif" font-weight="400" font-size="55" transform="matrix(1 0 0 1 2150.78 2037)">graph selection</text><rect x="1813" y="2054" width="890" height="54" stroke="#E95C6C" stroke-width="5.72917" stroke-linejoin="round" stroke-miterlimit="10" fill="#E95C6C"/><text fill="#FFFFFF" font-family="Times New Roman,Times New Roman_MSFontService,sans-serif" font-weight="400" font-size="55" transform="matrix(1 0 0 1 1933.07 2101)">Number of code blocks (</text><path d="M2484.02 2064.2 2495.33 2064.2 2495.33 2065.51C2494.54 2065.71 2493.97 2065.91 2493.62 2066.1 2493.28 2066.3 2493 2066.55 2492.79 2066.84 2492.59 2067.14 2492.43 2067.58 2492.34 2068.17 2492.24 2068.76 2492.19 2069.67 2492.19 2070.91L2492.16 2080.77 2492.97 2080.77C2493.65 2080.77 2494.27 2080.66 2494.83 2080.44 2495.4 2080.23 2496.03 2079.83 2496.73 2079.23 2497.42 2078.64 2498.49 2077.54 2499.92 2075.93 2501.64 2074.02 2502.81 2072.63 2503.44 2071.77 2504.23 2070.75 2504.76 2069.89 2505.02 2069.19 2505.24 2068.67 2505.35 2068.17 2505.35 2067.69 2505.35 2066.97 2505.14 2066.45 2504.73 2066.12 2504.32 2065.78 2503.75 2065.58 2503.04 2065.51L2503.04 2064.2 2514.75 2064.2 2514.75 2065.51C2514.17 2065.64 2513.61 2065.86 2513.05 2066.17 2512.5 2066.48 2511.93 2066.91 2511.35 2067.46 2510.77 2068 2509.91 2068.9 2508.78 2070.16L2499.76 2080.31 2509.54 2094.52C2510.57 2096.02 2511.39 2097.07 2511.98 2097.67 2512.57 2098.27 2513.13 2098.71 2513.67 2098.99 2514.21 2099.26 2514.78 2099.45 2515.39 2099.54L2515.39 2100.85 2503.55 2100.85 2503.55 2099.54C2504.21 2099.48 2504.69 2099.36 2505 2099.16 2505.3 2098.96 2505.45 2098.67 2505.45 2098.28 2505.45 2097.95 2505.35 2097.56 2505.15 2097.11 2504.94 2096.65 2504.61 2096.1 2504.17 2095.46L2497.91 2086.14C2497.17 2085.03 2496.64 2084.29 2496.3 2083.93 2495.96 2083.58 2495.59 2083.31 2495.2 2083.14 2494.8 2082.97 2494.27 2082.89 2493.61 2082.89L2492.19 2082.89 2492.19 2094.14C2492.19 2095.34 2492.23 2096.22 2492.31 2096.77 2492.39 2097.33 2492.52 2097.76 2492.71 2098.09 2492.9 2098.41 2493.18 2098.68 2493.54 2098.89 2493.91 2099.11 2494.51 2099.32 2495.33 2099.54L2495.33 2100.85 2484.02 2100.85 2484.02 2099.54C2485.13 2099.25 2485.88 2098.93 2486.25 2098.58 2486.63 2098.23 2486.87 2097.74 2486.99 2097.09 2487.11 2096.45 2487.17 2095.46 2487.17 2094.14L2487.17 2070.91C2487.17 2069.67 2487.12 2068.77 2487.03 2068.21 2486.94 2067.65 2486.79 2067.21 2486.59 2066.89 2486.38 2066.58 2486.11 2066.33 2485.77 2066.14 2485.43 2065.95 2484.85 2065.74 2484.02 2065.51Z" fill="#FFFFFF" fill-rule="evenodd"/><text fill="#000000" fill-opacity="0" font-family="Arial,Arial_MSFontService,sans-serif" font-size="36.6577" x="2484.02" y="2096.27">K</text><path d="M2550.64 2094.84C2549.98 2094.84 2549.33 2094.96 2548.69 2095.21 2548.05 2095.45 2547.48 2095.78 2546.98 2096.18 2546.48 2096.59 2546.08 2097.05 2545.77 2097.56 2545.46 2098.08 2545.31 2098.61 2545.31 2099.15L2545.31 2104.88C2545.31 2105.97 2545.4 2106.88 2545.58 2107.6 2545.77 2108.32 2546.06 2108.9 2546.45 2109.34 2546.85 2109.77 2547.36 2110.08 2547.98 2110.27 2548.6 2110.45 2549.35 2110.54 2550.23 2110.54 2551.91 2110.54 2553.19 2109.88 2554.05 2108.56 2554.92 2107.24 2555.35 2105.29 2555.35 2102.71 2555.35 2097.46 2553.78 2094.84 2550.64 2094.84ZM2529.41 2092.14C2530.05 2092.14 2530.65 2092.16 2531.21 2092.2 2531.77 2092.24 2532.3 2092.3 2532.81 2092.38 2533.32 2092.45 2533.81 2092.55 2534.3 2092.66 2534.78 2092.77 2535.25 2092.89 2535.72 2093.02L2535.72 2097.47 2532.85 2097.47C2532.54 2096.26 2532.09 2095.39 2531.5 2094.87 2530.92 2094.34 2530.1 2094.07 2529.06 2094.07 2528.31 2094.07 2527.62 2094.25 2527 2094.6 2526.38 2094.95 2525.85 2095.47 2525.42 2096.14 2524.98 2096.82 2524.64 2097.66 2524.4 2098.65 2524.16 2099.65 2524.04 2100.79 2524.04 2102.08 2524.04 2103.32 2524.14 2104.42 2524.32 2105.37 2524.51 2106.33 2524.82 2107.13 2525.23 2107.79 2525.65 2108.44 2526.19 2108.93 2526.84 2109.27 2527.5 2109.61 2528.29 2109.78 2529.22 2109.78 2530.19 2109.78 2531.11 2109.57 2531.98 2109.16 2532.85 2108.75 2533.75 2108.08 2534.69 2107.16 2534.88 2107.42 2535.09 2107.67 2535.32 2107.91 2535.55 2108.15 2535.76 2108.4 2535.96 2108.64 2535.29 2109.35 2534.65 2109.94 2534.04 2110.42 2533.43 2110.9 2532.81 2111.29 2532.2 2111.59 2531.58 2111.89 2530.94 2112.11 2530.27 2112.24 2529.61 2112.37 2528.89 2112.43 2528.12 2112.43 2525.45 2112.43 2523.41 2111.57 2521.98 2109.86 2520.56 2108.14 2519.84 2105.64 2519.84 2102.38 2519.84 2100.85 2520.07 2099.46 2520.54 2098.21 2521 2096.95 2521.65 2095.87 2522.49 2094.97 2523.33 2094.07 2524.34 2093.38 2525.52 2092.88 2526.69 2092.39 2527.99 2092.14 2529.41 2092.14ZM2543.92 2083.74 2545.31 2083.74 2545.31 2095.66 2545.35 2095.66C2546.04 2094.98 2546.67 2094.42 2547.23 2093.98 2547.78 2093.53 2548.32 2093.18 2548.84 2092.91 2549.35 2092.65 2549.87 2092.46 2550.39 2092.35 2550.91 2092.24 2551.48 2092.17 2552.09 2092.14 2553.22 2092.14 2554.24 2092.36 2555.15 2092.8 2556.07 2093.23 2556.84 2093.87 2557.49 2094.72 2558.13 2095.57 2558.63 2096.61 2558.98 2097.85 2559.33 2099.1 2559.51 2100.52 2559.51 2102.12 2559.51 2103.93 2559.28 2105.48 2558.83 2106.78 2558.37 2108.08 2557.74 2109.14 2556.93 2109.98 2556.12 2110.82 2555.16 2111.44 2554.05 2111.84 2552.94 2112.24 2551.72 2112.43 2550.41 2112.43 2549.29 2112.43 2548.26 2112.34 2547.32 2112.15 2546.39 2111.96 2545.45 2111.65 2544.51 2111.2 2544 2111.63 2543.51 2112.04 2543.05 2112.43 2542.78 2112.37 2542.52 2112.32 2542.25 2112.28 2541.99 2112.24 2541.72 2112.19 2541.46 2112.12L2541.46 2090.52C2541.46 2089.82 2541.47 2089.21 2541.47 2088.69 2541.48 2088.18 2541.46 2087.74 2541.42 2087.38 2541.39 2087.01 2541.32 2086.71 2541.22 2086.47 2541.12 2086.23 2540.97 2086.03 2540.76 2085.87 2540.55 2085.72 2540.28 2085.59 2539.95 2085.49 2539.62 2085.39 2539.2 2085.3 2538.69 2085.23L2538.69 2083.94Z" fill="#FFFFFF" fill-rule="evenodd"/><text fill="#000000" fill-opacity="0" font-family="Arial,Arial_MSFontService,sans-serif" font-size="28.6914" x="2519.84" y="2108.85">cb</text><text fill="#FFFFFF" font-family="Times New Roman,Times New Roman_MSFontService,sans-serif" font-weight="400" font-size="55" transform="matrix(1 0 0 1 2564.28 2101)">)</text><rect x="1811" y="2117" width="890" height="54" stroke="#E95C6C" stroke-width="5.72917" stroke-linejoin="round" stroke-miterlimit="10" fill="#E95C6C"/><text fill="#FFFFFF" font-family="Times New Roman,Times New Roman_MSFontService,sans-serif" font-weight="400" font-size="55" transform="matrix(1 0 0 1 1874.92 2164)">Number of bits per code block (K)</text><rect x="1811" y="2181" width="890" height="54" stroke="#E95C6C" stroke-width="5.72917" stroke-linejoin="round" stroke-miterlimit="10" fill="#E95C6C"/><text fill="#FFFFFF" font-family="Times New Roman,Times New Roman_MSFontService,sans-serif" font-weight="400" font-size="55" transform="matrix(1 0 0 1 2072.79 2228)">Lifting Size (</text><path d="M2370.2 2191.26 2394.42 2191.26 2394.42 2192.55 2376.05 2225.45 2385.75 2225.45C2386.95 2225.45 2387.84 2225.34 2388.42 2225.11 2389 2224.89 2389.48 2224.54 2389.86 2224.07 2390.23 2223.59 2390.57 2222.93 2390.88 2222.07 2391.18 2221.21 2391.55 2219.87 2391.98 2218.06L2394.61 2218.06 2394.61 2227.92 2369.8 2227.92 2369.8 2226.6 2388.19 2193.73 2378.44 2193.73C2377.75 2193.73 2377.2 2193.79 2376.79 2193.91 2376.39 2194.02 2376.03 2194.2 2375.71 2194.44 2375.38 2194.69 2375.07 2195.04 2374.75 2195.51 2374.44 2195.97 2374.13 2196.61 2373.81 2197.43 2373.5 2198.24 2373.17 2199.26 2372.83 2200.47L2370.2 2200.47Z" fill="#FFFFFF" fill-rule="evenodd"/><text fill="#000000" fill-opacity="0" font-family="Arial,Arial_MSFontService,sans-serif" font-size="36.6577" x="2369.8" y="2223.34">Z</text><path d="M2411.52 2219.21C2412.47 2219.21 2413.35 2219.26 2414.16 2219.36 2414.98 2219.47 2415.82 2219.63 2416.69 2219.85L2415.6 2224.64 2413.3 2224.64C2413.28 2223.96 2413.23 2223.4 2413.15 2222.95 2413.06 2222.5 2412.93 2222.14 2412.74 2221.88 2412.55 2221.62 2412.3 2221.44 2412 2221.33 2411.69 2221.22 2411.32 2221.15 2410.87 2221.14 2410.17 2221.14 2409.5 2221.3 2408.85 2221.61 2408.21 2221.92 2407.61 2222.36 2407.05 2222.91 2406.5 2223.46 2406 2224.11 2405.54 2224.85 2405.09 2225.59 2404.69 2226.4 2404.37 2227.25 2404.04 2228.11 2403.79 2229.01 2403.62 2229.94 2403.44 2230.87 2403.35 2231.8 2403.35 2232.72 2403.35 2234.1 2403.63 2235.16 2404.17 2235.88 2404.72 2236.6 2405.54 2236.96 2406.64 2236.96 2407.25 2236.96 2407.81 2236.91 2408.33 2236.8 2408.85 2236.69 2409.36 2236.5 2409.86 2236.24 2410.35 2235.98 2410.86 2235.64 2411.39 2235.21 2411.92 2234.79 2412.5 2234.27 2413.14 2233.64 2413.39 2233.9 2413.62 2234.16 2413.85 2234.41 2414.08 2234.67 2414.32 2234.92 2414.56 2235.18 2413.16 2236.64 2411.75 2237.73 2410.35 2238.44 2408.94 2239.15 2407.43 2239.5 2405.81 2239.5 2403.8 2239.5 2402.25 2238.91 2401.18 2237.73 2400.1 2236.55 2399.56 2234.87 2399.56 2232.68 2399.56 2231.46 2399.7 2230.28 2399.97 2229.14 2400.25 2228 2400.64 2226.93 2401.16 2225.93 2401.67 2224.92 2402.29 2224.01 2403 2223.19 2403.72 2222.37 2404.52 2221.67 2405.4 2221.07 2406.29 2220.48 2407.25 2220.02 2408.28 2219.7 2409.3 2219.37 2410.39 2219.21 2411.52 2219.21Z" fill="#FFFFFF" fill-rule="evenodd"/><text fill="#000000" fill-opacity="0" font-family="Arial,Arial_MSFontService,sans-serif" font-size="20.293" x="2399.56" y="2236.96">𝑐</text><text fill="#FFFFFF" font-family="Times New Roman,Times New Roman_MSFontService,sans-serif" font-weight="400" font-size="55" transform="matrix(1 0 0 1 2420.69 2228)">)</text><rect x="1794.5" y="1976.5" width="924" height="270" stroke="#E95C6C" stroke-width="9.16667" stroke-linejoin="round" stroke-miterlimit="10" fill="none"/><rect x="654.5" y="1953.5" width="2087" height="318" stroke="#E95C6C" stroke-width="9.16667" stroke-linejoin="round" stroke-miterlimit="10" fill="none"/><path d="M0.0376955-6.8749 180.63-5.8847 180.554 7.86509-0.0376955 6.8749ZM173.83-19.6722 214.966 1.17867 173.604 21.5772Z" fill="#00B050" transform="matrix(1 0 0 -1 2718 2111.18)"/><path d="M2776.98 2018.29 2794.04 2018.29 2794.04 2020.28C2792.85 2020.57 2791.99 2020.87 2791.46 2021.17 2790.94 2021.47 2790.52 2021.84 2790.21 2022.28 2789.9 2022.73 2789.67 2023.4 2789.52 2024.29 2789.37 2025.18 2789.3 2026.56 2789.3 2028.42L2789.26 2043.3 2790.47 2043.3C2791.5 2043.3 2792.44 2043.13 2793.29 2042.81 2794.14 2042.49 2795.09 2041.88 2796.15 2040.99 2797.2 2040.09 2798.81 2038.43 2800.97 2036 2803.56 2033.11 2805.33 2031.02 2806.28 2029.72 2807.47 2028.18 2808.26 2026.88 2808.67 2025.83 2808.99 2025.05 2809.15 2024.29 2809.15 2023.56 2809.15 2022.48 2808.84 2021.69 2808.22 2021.19 2807.6 2020.69 2806.75 2020.38 2805.67 2020.28L2805.67 2018.29 2823.34 2018.29 2823.34 2020.28C2822.47 2020.47 2821.62 2020.8 2820.79 2021.27 2819.95 2021.74 2819.09 2022.39 2818.21 2023.21 2817.33 2024.04 2816.04 2025.4 2814.34 2027.29L2800.72 2042.61 2815.48 2064.05C2817.04 2066.32 2818.27 2067.9 2819.16 2068.81 2820.06 2069.71 2820.91 2070.38 2821.72 2070.79 2822.53 2071.21 2823.39 2071.49 2824.31 2071.62L2824.31 2073.61 2806.44 2073.61 2806.44 2071.62C2807.44 2071.54 2808.17 2071.35 2808.63 2071.06 2809.09 2070.76 2809.32 2070.31 2809.32 2069.72 2809.32 2069.23 2809.16 2068.65 2808.85 2067.96 2808.54 2067.27 2808.05 2066.44 2807.37 2065.46L2797.93 2051.4C2796.82 2049.73 2796.01 2048.62 2795.5 2048.08 2794.98 2047.54 2794.43 2047.14 2793.83 2046.88 2793.24 2046.63 2792.44 2046.5 2791.44 2046.5L2789.3 2046.5 2789.3 2063.48C2789.3 2065.29 2789.36 2066.61 2789.48 2067.45 2789.6 2068.29 2789.8 2068.95 2790.09 2069.44 2790.37 2069.92 2790.79 2070.33 2791.34 2070.65 2791.9 2070.98 2792.79 2071.3 2794.04 2071.62L2794.04 2073.61 2776.98 2073.61 2776.98 2071.62C2778.65 2071.19 2779.77 2070.71 2780.34 2070.19 2780.91 2069.66 2781.28 2068.91 2781.45 2067.94 2781.63 2066.96 2781.72 2065.48 2781.72 2063.48L2781.72 2028.42C2781.72 2026.56 2781.65 2025.2 2781.51 2024.35 2781.38 2023.5 2781.16 2022.84 2780.85 2022.36 2780.54 2021.89 2780.12 2021.51 2779.61 2021.23 2779.1 2020.95 2778.22 2020.63 2776.98 2020.28Z" fill-rule="evenodd"/><text fill="#000000" fill-opacity="0" font-family="Arial,Arial_MSFontService,sans-serif" font-size="55.3198" x="2776.98" y="2066.7">K</text><path d="M2877.78 2064.15C2876.77 2064.15 2875.78 2064.34 2874.8 2064.72 2873.83 2065.1 2872.96 2065.59 2872.2 2066.21 2871.43 2066.82 2870.82 2067.52 2870.35 2068.31 2869.88 2069.09 2869.65 2069.9 2869.65 2070.74L2869.65 2079.46C2869.65 2081.13 2869.79 2082.52 2870.07 2083.62 2870.35 2084.72 2870.79 2085.6 2871.39 2086.27 2872 2086.93 2872.77 2087.41 2873.72 2087.68 2874.66 2087.96 2875.81 2088.1 2877.16 2088.1 2879.72 2088.1 2881.66 2087.09 2882.98 2085.08 2884.3 2083.06 2884.96 2080.09 2884.96 2076.16 2884.96 2068.16 2882.57 2064.15 2877.78 2064.15ZM2845.91 2060.04C2846.88 2060.04 2847.79 2060.07 2848.65 2060.13 2849.5 2060.19 2850.31 2060.28 2851.09 2060.4 2851.86 2060.52 2852.62 2060.66 2853.35 2060.83 2854.09 2061 2854.81 2061.19 2855.53 2061.38L2855.53 2068.18 2851.15 2068.18C2850.67 2066.33 2849.99 2065 2849.09 2064.2 2848.2 2063.39 2846.96 2062.99 2845.37 2062.99 2844.22 2062.99 2843.17 2063.26 2842.23 2063.8 2841.28 2064.33 2840.48 2065.12 2839.81 2066.15 2839.15 2067.18 2838.63 2068.46 2838.27 2069.98 2837.9 2071.5 2837.71 2073.24 2837.71 2075.2 2837.71 2077.09 2837.86 2078.76 2838.15 2080.22 2838.43 2081.68 2838.9 2082.91 2839.53 2083.9 2840.17 2084.89 2840.99 2085.65 2841.99 2086.17 2842.99 2086.68 2844.2 2086.94 2845.61 2086.94 2847.1 2086.94 2848.5 2086.63 2849.82 2086 2851.14 2085.38 2852.52 2084.36 2853.95 2082.95 2854.24 2083.35 2854.57 2083.73 2854.92 2084.1 2855.26 2084.46 2855.59 2084.83 2855.88 2085.21 2854.87 2086.28 2853.9 2087.19 2852.96 2087.92 2852.03 2088.66 2851.09 2089.25 2850.15 2089.71 2849.21 2090.17 2848.23 2090.49 2847.22 2090.69 2846.2 2090.89 2845.11 2090.99 2843.94 2090.99 2839.87 2090.99 2836.75 2089.68 2834.57 2087.06 2832.4 2084.44 2831.31 2080.64 2831.31 2075.65 2831.31 2073.33 2831.66 2071.21 2832.37 2069.29 2833.07 2067.38 2834.07 2065.73 2835.35 2064.36 2836.63 2062.99 2838.17 2061.93 2839.96 2061.18 2841.76 2060.42 2843.74 2060.04 2845.91 2060.04ZM2867.54 2047.24 2869.65 2047.24 2869.65 2065.41 2869.71 2065.41C2870.76 2064.37 2871.72 2063.52 2872.57 2062.84 2873.42 2062.17 2874.24 2061.63 2875.03 2061.22 2875.81 2060.81 2876.6 2060.53 2877.39 2060.36 2878.19 2060.19 2879.05 2060.08 2879.99 2060.04 2881.71 2060.04 2883.27 2060.38 2884.66 2061.04 2886.05 2061.71 2887.24 2062.68 2888.22 2063.98 2889.2 2065.27 2889.96 2066.86 2890.5 2068.76 2891.04 2070.65 2891.3 2072.82 2891.3 2075.26 2891.3 2078.02 2890.96 2080.39 2890.26 2082.37 2889.57 2084.34 2888.6 2085.97 2887.37 2087.25 2886.14 2088.53 2884.68 2089.48 2882.98 2090.08 2881.28 2090.69 2879.43 2090.99 2877.42 2090.99 2875.72 2090.99 2874.15 2090.85 2872.72 2090.56 2871.29 2090.27 2869.86 2089.79 2868.43 2089.11 2867.65 2089.77 2866.91 2090.39 2866.2 2090.99 2865.8 2090.89 2865.4 2090.81 2864.99 2090.75 2864.58 2090.69 2864.18 2090.61 2863.78 2090.51L2863.78 2057.57C2863.78 2056.5 2863.79 2055.57 2863.8 2054.79 2863.81 2054 2863.78 2053.33 2863.72 2052.78 2863.66 2052.22 2863.56 2051.76 2863.41 2051.39 2863.26 2051.02 2863.03 2050.72 2862.71 2050.48 2862.39 2050.24 2861.98 2050.05 2861.47 2049.9 2860.97 2049.75 2860.33 2049.62 2859.55 2049.5L2859.55 2047.53Z" fill-rule="evenodd"/><text fill="#000000" fill-opacity="0" font-family="Arial,Arial_MSFontService,sans-serif" font-size="43.7544" x="2831.31" y="2085.52">cb</text><path d="M2147.07 1415.2C2150 1415.2 2152.72 1415.37 2155.2 1415.71 2157.69 1416.05 2160.19 1416.59 2162.7 1417.34L2162.7 1428.57 2155.88 1428.57C2155.27 1426.24 2154.52 1424.41 2153.62 1423.06 2152.73 1421.72 2151.69 1420.78 2150.51 1420.24 2149.32 1419.71 2147.86 1419.44 2146.1 1419.44 2143.59 1419.44 2141.37 1420.24 2139.44 1421.86 2137.51 1423.47 2135.98 1425.92 2134.85 1429.21 2133.72 1432.51 2133.16 1436.54 2133.16 1441.3 2133.16 1444.34 2133.37 1447.13 2133.8 1449.65 2134.23 1452.18 2134.96 1454.33 2136 1456.12 2137.04 1457.91 2138.42 1459.31 2140.14 1460.31 2141.86 1461.32 2143.99 1461.82 2146.53 1461.82 2149 1461.82 2151.3 1461.33 2153.43 1460.37 2155.56 1459.4 2157.77 1457.7 2160.07 1455.26L2163.13 1458.81C2161.3 1460.81 2159.69 1462.36 2158.29 1463.45 2156.9 1464.55 2155.4 1465.46 2153.81 1466.19 2152.21 1466.93 2150.64 1467.46 2149.08 1467.81 2147.52 1468.15 2145.83 1468.32 2144.01 1468.32 2137.24 1468.32 2132.06 1466.07 2128.48 1461.57 2124.9 1457.08 2123.11 1450.59 2123.11 1442.1 2123.11 1436.81 2124.12 1432.11 2126.12 1428.01 2128.13 1423.91 2130.94 1420.75 2134.55 1418.53 2138.17 1416.31 2142.34 1415.2 2147.07 1415.2Z" fill-rule="evenodd"/><text fill="#000000" fill-opacity="0" font-family="Arial,Arial_MSFontService,sans-serif" font-size="53.1201" x="2123.11" y="1461.68">c</text><path d="M2197.11 1450.03C2198.72 1450.03 2200.26 1450.19 2201.72 1450.5L2201.72 1460.19 2196.72 1460.19C2196.43 1459.46 2196.13 1458.83 2195.82 1458.29 2195.51 1457.76 2195.15 1457.32 2194.74 1456.97 2194.34 1456.61 2193.87 1456.35 2193.34 1456.18 2192.8 1456.01 2192.17 1455.93 2191.44 1455.93 2190.69 1455.93 2189.84 1456.17 2188.89 1456.65 2187.94 1457.13 2187.04 1457.79 2186.21 1458.63 2185.38 1459.46 2184.68 1460.42 2184.12 1461.52 2183.56 1462.61 2183.28 1463.77 2183.28 1464.99L2183.28 1479.95C2183.28 1481.59 2183.35 1482.85 2183.49 1483.72 2183.64 1484.6 2183.91 1485.25 2184.3 1485.7 2184.69 1486.14 2185.22 1486.46 2185.9 1486.65 2186.57 1486.85 2187.46 1487.1 2188.55 1487.41L2188.55 1489.91 2170.94 1489.91 2170.94 1487.41C2171.95 1487.05 2172.77 1486.76 2173.38 1486.56 2173.99 1486.35 2174.46 1486.03 2174.78 1485.6 2175.11 1485.17 2175.32 1484.54 2175.41 1483.7 2175.5 1482.87 2175.55 1481.66 2175.55 1480.07L2175.55 1463.27C2175.55 1461.48 2175.54 1460.01 2175.53 1458.86 2175.51 1457.71 2175.36 1456.78 2175.06 1456.07 2174.76 1455.35 2174.25 1454.8 2173.53 1454.43 2172.82 1454.05 2171.76 1453.74 2170.35 1453.51L2170.35 1450.85 2180.58 1450.42 2183.36 1450.42 2182.81 1457.38C2182.89 1457.43 2182.95 1457.46 2183.01 1457.47 2183.06 1457.49 2183.12 1457.52 2183.2 1457.57 2184.45 1456.22 2185.6 1455.06 2186.66 1454.09 2187.71 1453.13 2188.78 1452.35 2189.86 1451.75 2190.94 1451.15 2192.06 1450.72 2193.22 1450.44 2194.38 1450.17 2195.68 1450.03 2197.11 1450.03Z" fill-rule="evenodd"/><text fill="#000000" fill-opacity="0" font-family="Arial,Arial_MSFontService,sans-serif" font-size="39.8828" x="2170.35" y="1484.93">r</text><text font-family="Times New Roman,Times New Roman_MSFontService,sans-serif" font-weight="400" font-size="83" transform="matrix(1 0 0 1 3113.59 977)">Rate</text><text font-family="Times New Roman,Times New Roman_MSFontService,sans-serif" font-weight="400" font-size="83" transform="matrix(1 0 0 1 3264.84 977)">-</text><text font-family="Times New Roman,Times New Roman_MSFontService,sans-serif" font-weight="400" font-size="83" transform="matrix(1 0 0 1 3292.34 977)">matcher</text></g></svg>