<svg width="4400" height="1161" xmlns="http://www.w3.org/2000/svg" xmlns:xlink="http://www.w3.org/1999/xlink" xml:space="preserve" overflow="hidden"><defs><clipPath id="clip0"><rect x="0" y="888" width="4400" height="1161"/></clipPath></defs><g clip-path="url(#clip0)" transform="matrix(1 0 0 1 0 -888)"><path d="M404.198 1140.5C404.198 1137.02 407.019 1134.2 410.5 1134.2L878.5 1134.2C881.981 1134.2 884.802 1137.02 884.802 1140.5L884.802 1264.5C884.802 1267.98 881.981 1270.8 878.5 1270.8L410.5 1270.8C407.019 1270.8 404.198 1267.98 404.198 1264.5ZM408.399 1264.5C408.399 1265.66 409.34 1266.6 410.5 1266.6L878.5 1266.6C879.66 1266.6 880.601 1265.66 880.601 1264.5L880.601 1140.5C880.601 1139.34 879.66 1138.4 878.5 1138.4L410.5 1138.4C409.34 1138.4 408.399 1139.34 408.399 1140.5ZM412.601 1142.6 876.399 1142.6 876.399 1262.4 412.601 1262.4ZM416.802 1258.2 872.198 1258.2 872.198 1146.8 416.802 1146.8Z" fill="#EC143C"/><path d="M2413.2 1139.5C2413.2 1136.02 2416.02 1133.2 2419.5 1133.2L2703.5 1133.2C2706.98 1133.2 2709.8 1136.02 2709.8 1139.5L2709.8 1263.5C2709.8 1266.98 2706.98 1269.8 2703.5 1269.8L2419.5 1269.8C2416.02 1269.8 2413.2 1266.98 2413.2 1263.5ZM2417.4 1263.5C2417.4 1264.66 2418.34 1265.6 2419.5 1265.6L2703.5 1265.6C2704.66 1265.6 2705.6 1264.66 2705.6 1263.5L2705.6 1139.5C2705.6 1138.34 2704.66 1137.4 2703.5 1137.4L2419.5 1137.4C2418.34 1137.4 2417.4 1138.34 2417.4 1139.5ZM2421.6 1141.6 2701.4 1141.6 2701.4 1261.4 2421.6 1261.4ZM2425.8 1257.2 2697.2 1257.2 2697.2 1145.8 2425.8 1145.8Z" fill="#EC143C"/><path d="M2958.2 1138.5C2958.2 1135.02 2961.02 1132.2 2964.5 1132.2L3295.5 1132.2C3298.98 1132.2 3301.8 1135.02 3301.8 1138.5L3301.8 1262.5C3301.8 1265.98 3298.98 1268.8 3295.5 1268.8L2964.5 1268.8C2961.02 1268.8 2958.2 1265.98 2958.2 1262.5ZM2962.4 1262.5C2962.4 1263.66 2963.34 1264.6 2964.5 1264.6L3295.5 1264.6C3296.66 1264.6 3297.6 1263.66 3297.6 1262.5L3297.6 1138.5C3297.6 1137.34 3296.66 1136.4 3295.5 1136.4L2964.5 1136.4C2963.34 1136.4 2962.4 1137.34 2962.4 1138.5ZM2966.6 1140.6 3293.4 1140.6 3293.4 1260.4 2966.6 1260.4ZM2970.8 1256.2 3289.2 1256.2 3289.2 1144.8 2970.8 1144.8Z" fill="#EC143C"/><path d="M3615.2 1142.5C3615.2 1139.02 3618.02 1136.2 3621.5 1136.2L3731.5 1136.2C3734.98 1136.2 3737.8 1139.02 3737.8 1142.5L3737.8 1266.5C3737.8 1269.98 3734.98 1272.8 3731.5 1272.8L3621.5 1272.8C3618.02 1272.8 3615.2 1269.98 3615.2 1266.5ZM3619.4 1266.5C3619.4 1267.66 3620.34 1268.6 3621.5 1268.6L3731.5 1268.6C3732.66 1268.6 3733.6 1267.66 3733.6 1266.5L3733.6 1142.5C3733.6 1141.34 3732.66 1140.4 3731.5 1140.4L3621.5 1140.4C3620.34 1140.4 3619.4 1141.34 3619.4 1142.5ZM3623.6 1144.6 3729.4 1144.6 3729.4 1264.4 3623.6 1264.4ZM3627.8 1260.2 3725.2 1260.2 3725.2 1148.8 3627.8 1148.8Z" fill="#EC143C"/><rect x="881.5" y="1355.5" width="1430" height="124" stroke="#EC143C" stroke-width="6.875" stroke-linejoin="round" stroke-miterlimit="10" fill="none"/><text font-family="Times New Roman,Times New Roman_MSFontService,sans-serif" font-weight="400" font-size="64" transform="matrix(1 0 0 1 932.286 1441)">To block pip from using cached package (Optional)</text><rect x="1206.5" y="1538.5" width="1105" height="124" stroke="#EC143C" stroke-width="6.875" stroke-linejoin="round" stroke-miterlimit="10" fill="none"/><text font-family="Times New Roman,Times New Roman_MSFontService,sans-serif" font-weight="400" font-size="64" transform="matrix(1 0 0 1 1248.42 1623)">Python version (</text><text font-family="Times New Roman,Times New Roman_MSFontService,sans-serif" font-weight="400" font-size="64" transform="matrix(1 0 0 1 1672.38 1623)">3.7.4/3.8/3.9/3.10/3.11</text><text font-family="Times New Roman,Times New Roman_MSFontService,sans-serif" font-weight="400" font-size="64" transform="matrix(1 0 0 1 2256.75 1623)">)</text><rect x="1439.5" y="1720.5" width="872" height="124" stroke="#EC143C" stroke-width="6.875" stroke-linejoin="round" stroke-miterlimit="10" fill="none"/><text font-family="Times New Roman,Times New Roman_MSFontService,sans-serif" font-weight="400" font-size="64" transform="matrix(1 0 0 1 1510.1 1806)">Toolkit Version (R23a.0.10)</text><path d="M0-5.15625 152.83-5.15625C155.677-5.15625 157.986-2.84772 157.986 0L157.986 211.622 147.673 211.622 147.673 0 152.83 5.15625 0 5.15625ZM168.298 206.466 152.83 237.404 137.361 206.466Z" fill="#05D7A0" transform="matrix(1.83697e-16 1 1 -1.83697e-16 644 1264)"/><path d="M2565.93 1263 2565.93 1782.28C2565.93 1785.13 2563.62 1787.44 2560.77 1787.44L2336.78 1787.44 2336.78 1777.12 2560.77 1777.12 2555.62 1782.28 2555.62 1263ZM2341.94 1797.75 2311 1782.28 2341.94 1766.81Z" fill="#05D7A0"/><path d="M3134.6 1262 3134.6 1599.63C3134.6 1602.48 3132.29 1604.79 3129.44 1604.79L2336.78 1604.79 2336.78 1594.47 3129.44 1594.47 3124.29 1599.63 3124.29 1262ZM2341.94 1615.1 2311 1599.63 2341.94 1584.16Z" fill="#05D7A0"/><path d="M3680.82 1266 3680.82 1276.31 3670.5 1276.31 3670.5 1266ZM3680.82 1286.62 3680.82 1296.94 3670.5 1296.94 3670.5 1286.62ZM3680.82 1307.25 3680.82 1317.56 3670.5 1317.56 3670.5 1307.25ZM3680.82 1327.88 3680.82 1338.19 3670.5 1338.19 3670.5 1327.88ZM3680.82 1348.5 3680.82 1358.81 3670.5 1358.81 3670.5 1348.5ZM3680.82 1369.12 3680.82 1379.44 3670.5 1379.44 3670.5 1369.12ZM3680.82 1389.75 3680.82 1400.06 3670.5 1400.06 3670.5 1389.75ZM3680.82 1410.38 3680.82 1420.69 3670.5 1420.69 3670.5 1410.38ZM3680.82 1431 3680.82 1441.31 3670.5 1441.31 3670.5 1431ZM3680.82 1451.62 3680.82 1461.94 3670.5 1461.94 3670.5 1451.62ZM3680.82 1472.25 3680.82 1482.56 3670.5 1482.56 3670.5 1472.25ZM3680.82 1492.88 3680.82 1503.19 3670.5 1503.19 3670.5 1492.88ZM3680.82 1513.5 3680.82 1523.81 3670.5 1523.81 3670.5 1513.5ZM3680.82 1534.12 3680.82 1544.44 3670.5 1544.44 3670.5 1534.12ZM3680.82 1554.75 3680.82 1565.06 3670.5 1565.06 3670.5 1554.75ZM3680.82 1575.38 3680.82 1585.69 3670.5 1585.69 3670.5 1575.38ZM3680.82 1596 3680.82 1606.31 3670.5 1606.31 3670.5 1596ZM3680.82 1616.62 3680.82 1626.94 3670.5 1626.94 3670.5 1616.62ZM3680.82 1637.25 3680.82 1647.56 3670.5 1647.56 3670.5 1637.25ZM3680.82 1657.88 3680.82 1668.19 3670.5 1668.19 3670.5 1657.88ZM3680.82 1678.5 3680.82 1688.81 3670.5 1688.81 3670.5 1678.5ZM3680.82 1699.12 3680.82 1709.44 3670.5 1709.44 3670.5 1699.12ZM3680.82 1719.75 3680.82 1730.06 3670.5 1730.06 3670.5 1719.75ZM3680.82 1740.38 3680.82 1750.69 3670.5 1750.69 3670.5 1740.38ZM3680.82 1761 3680.82 1771.31 3670.5 1771.31 3670.5 1761ZM3680.82 1781.62 3680.82 1781.81C3680.82 1784.66 3678.51 1786.97 3675.66 1786.97L3665.53 1786.97 3665.53 1776.65 3675.66 1776.65 3670.5 1781.81 3670.5 1781.62ZM3655.22 1786.97 3644.91 1786.97 3644.91 1776.65 3655.22 1776.65ZM3634.6 1786.97 3624.28 1786.97 3624.28 1776.65 3634.6 1776.65ZM3613.97 1786.97 3603.66 1786.97 3603.66 1776.65 3613.97 1776.65ZM3593.35 1786.97 3583.03 1786.97 3583.03 1776.65 3593.35 1776.65ZM3572.72 1786.97 3562.41 1786.97 3562.41 1776.65 3572.72 1776.65ZM3552.1 1786.97 3541.78 1786.97 3541.78 1776.65 3552.1 1776.65ZM3531.47 1786.97 3521.16 1786.97 3521.16 1776.65 3531.47 1776.65ZM3510.85 1786.97 3500.53 1786.97 3500.53 1776.65 3510.85 1776.65ZM3490.22 1786.97 3479.91 1786.97 3479.91 1776.65 3490.22 1776.65ZM3469.6 1786.97 3459.28 1786.97 3459.28 1776.65 3469.6 1776.65ZM3448.97 1786.97 3438.66 1786.97 3438.66 1776.65 3448.97 1776.65ZM3428.35 1786.97 3418.03 1786.97 3418.03 1776.65 3428.35 1776.65ZM3407.72 1786.97 3397.41 1786.97 3397.41 1776.65 3407.72 1776.65ZM3387.1 1786.97 3376.78 1786.97 3376.78 1776.65 3387.1 1776.65ZM3366.47 1786.97 3356.16 1786.97 3356.16 1776.65 3366.47 1776.65ZM3345.85 1786.97 3335.53 1786.97 3335.53 1776.65 3345.85 1776.65ZM3325.22 1786.97 3314.91 1786.97 3314.91 1776.65 3325.22 1776.65ZM3304.6 1786.97 3294.28 1786.97 3294.28 1776.65 3304.6 1776.65ZM3283.97 1786.97 3273.66 1786.97 3273.66 1776.65 3283.97 1776.65ZM3263.35 1786.97 3253.03 1786.97 3253.03 1776.65 3263.35 1776.65ZM3242.72 1786.97 3232.41 1786.97 3232.41 1776.65 3242.72 1776.65ZM3222.1 1786.97 3211.78 1786.97 3211.78 1776.65 3222.1 1776.65ZM3201.47 1786.97 3191.16 1786.97 3191.16 1776.65 3201.47 1776.65ZM3180.85 1786.97 3170.53 1786.97 3170.53 1776.65 3180.85 1776.65ZM3160.22 1786.97 3149.91 1786.97 3149.91 1776.65 3160.22 1776.65ZM3139.6 1786.97 3129.28 1786.97 3129.28 1776.65 3139.6 1776.65ZM3118.97 1786.97 3108.66 1786.97 3108.66 1776.65 3118.97 1776.65ZM3098.35 1786.97 3088.03 1786.97 3088.03 1776.65 3098.35 1776.65ZM3077.72 1786.97 3067.41 1786.97 3067.41 1776.65 3077.72 1776.65ZM3057.1 1786.97 3046.78 1786.97 3046.78 1776.65 3057.1 1776.65ZM3036.47 1786.97 3026.16 1786.97 3026.16 1776.65 3036.47 1776.65ZM3015.85 1786.97 3005.53 1786.97 3005.53 1776.65 3015.85 1776.65ZM2995.22 1786.97 2984.91 1786.97 2984.91 1776.65 2995.22 1776.65ZM2974.6 1786.97 2964.28 1786.97 2964.28 1776.65 2974.6 1776.65ZM2953.97 1786.97 2943.66 1786.97 2943.66 1776.65 2953.97 1776.65ZM2933.35 1786.97 2923.03 1786.97 2923.03 1776.65 2933.35 1776.65ZM2912.72 1786.97 2902.41 1786.97 2902.41 1776.65 2912.72 1776.65ZM2892.1 1786.97 2881.78 1786.97 2881.78 1776.65 2892.1 1776.65ZM2871.47 1786.97 2861.16 1786.97 2861.16 1776.65 2871.47 1776.65ZM2850.85 1786.97 2840.53 1786.97 2840.53 1776.65 2850.85 1776.65ZM2830.22 1786.97 2819.91 1786.97 2819.91 1776.65 2830.22 1776.65ZM2809.6 1786.97 2799.28 1786.97 2799.28 1776.65 2809.6 1776.65ZM2788.97 1786.97 2778.66 1786.97 2778.66 1776.65 2788.97 1776.65ZM2768.35 1786.97 2758.03 1786.97 2758.03 1776.65 2768.35 1776.65ZM2747.72 1786.97 2737.41 1786.97 2737.41 1776.65 2747.72 1776.65ZM2727.1 1786.97 2716.78 1786.97 2716.78 1776.65 2727.1 1776.65ZM2706.47 1786.97 2696.16 1786.97 2696.16 1776.65 2706.47 1776.65ZM2685.85 1786.97 2675.53 1786.97 2675.53 1776.65 2685.85 1776.65ZM2665.22 1786.97 2654.91 1786.97 2654.91 1776.65 2665.22 1776.65ZM2644.6 1786.97 2634.28 1786.97 2634.28 1776.65 2644.6 1776.65ZM2623.97 1786.97 2613.66 1786.97 2613.66 1776.65 2623.97 1776.65ZM2603.35 1786.97 2593.03 1786.97 2593.03 1776.65 2603.35 1776.65ZM2582.72 1786.97 2572.41 1786.97 2572.41 1776.65 2582.72 1776.65ZM2562.1 1786.97 2551.78 1786.97 2551.78 1776.65 2562.1 1776.65ZM2541.47 1786.97 2531.16 1786.97 2531.16 1776.65 2541.47 1776.65ZM2520.85 1786.97 2510.53 1786.97 2510.53 1776.65 2520.85 1776.65ZM2500.22 1786.97 2489.91 1786.97 2489.91 1776.65 2500.22 1776.65ZM2479.6 1786.97 2469.28 1786.97 2469.28 1776.65 2479.6 1776.65ZM2458.97 1786.97 2448.66 1786.97 2448.66 1776.65 2458.97 1776.65ZM2438.35 1786.97 2428.03 1786.97 2428.03 1776.65 2438.35 1776.65ZM2417.72 1786.97 2407.41 1786.97 2407.41 1776.65 2417.72 1776.65ZM2397.1 1786.97 2386.78 1786.97 2386.78 1776.65 2397.1 1776.65ZM2376.47 1786.97 2366.16 1786.97 2366.16 1776.65 2376.47 1776.65ZM2355.85 1786.97 2345.53 1786.97 2345.53 1776.65 2355.85 1776.65ZM2341.94 1797.28 2311 1781.81 2341.94 1766.34Z" fill="#EC143C"/><text font-family="Times New Roman,Times New Roman_MSFontService,sans-serif" font-weight="400" font-size="73" transform="matrix(1 0 0 1 104.838 1227)">pip install  </text><text fill="#FF5B60" font-family="Times New Roman,Times New Roman_MSFontService,sans-serif" font-weight="400" font-size="73" transform="matrix(1 0 0 1 434.265 1227)">--</text><text fill="#FF5B60" font-family="Times New Roman,Times New Roman_MSFontService,sans-serif" font-weight="400" font-size="73" transform="matrix(1 0 0 1 483.536 1227)">no</text><text fill="#FF5B60" font-family="Times New Roman,Times New Roman_MSFontService,sans-serif" font-weight="400" font-size="73" transform="matrix(1 0 0 1 556.869 1227)">-</text><text fill="#FF5B60" font-family="Times New Roman,Times New Roman_MSFontService,sans-serif" font-weight="400" font-size="73" transform="matrix(1 0 0 1 581.504 1227)">cache</text><text fill="#FF5B60" font-family="Times New Roman,Times New Roman_MSFontService,sans-serif" font-weight="400" font-size="73" transform="matrix(1 0 0 1 748.796 1227)">-</text><text fill="#FF5B60" font-family="Times New Roman,Times New Roman_MSFontService,sans-serif" font-weight="400" font-size="73" transform="matrix(1 0 0 1 773.432 1227)">dir</text><text font-family="Times New Roman,Times New Roman_MSFontService,sans-serif" font-weight="400" font-size="73" transform="matrix(1 0 0 1 892.025 1227)">https://github.com/GigayasaWireless/toolkit5G/raw/R23a.</text><text fill="#FF5B60" font-family="Times New Roman,Times New Roman_MSFontService,sans-serif" font-weight="400" font-size="73" transform="matrix(1 0 0 1 2608.48 1227)">a.b</text><text font-family="Times New Roman,Times New Roman_MSFontService,sans-serif" font-weight="400" font-size="73" transform="matrix(1 0 0 1 2696.14 1227)">/package/</text><text fill="#FF5B60" font-family="Times New Roman,Times New Roman_MSFontService,sans-serif" font-weight="400" font-size="73" transform="matrix(1 0 0 1 2978.01 1227)">python3_x</text><text font-family="Times New Roman,Times New Roman_MSFontService,sans-serif" font-weight="400" font-size="73" transform="matrix(1 0 0 1 3291.97 1227)">/toolkit5G</text><text font-family="Times New Roman,Times New Roman_MSFontService,sans-serif" font-weight="400" font-size="73" transform="matrix(1 0 0 1 3594.47 1227)">-</text><text fill="#FF5B60" font-family="Times New Roman,Times New Roman_MSFontService,sans-serif" font-weight="400" font-size="73" transform="matrix(1 0 0 1 3637.44 1227)">a.b</text><text font-family="Times New Roman,Times New Roman_MSFontService,sans-serif" font-weight="400" font-size="73" transform="matrix(1 0 0 1 3725.1 1227)">-</text><text font-family="Times New Roman,Times New Roman_MSFontService,sans-serif" font-weight="400" font-size="73" transform="matrix(1 0 0 1 3749.73 1227)">py3</text><text font-family="Times New Roman,Times New Roman_MSFontService,sans-serif" font-weight="400" font-size="73" transform="matrix(1 0 0 1 3859.73 1227)">-</text><text font-family="Times New Roman,Times New Roman_MSFontService,sans-serif" font-weight="400" font-size="73" transform="matrix(1 0 0 1 3884.37 1227)">none</text><text font-family="Times New Roman,Times New Roman_MSFontService,sans-serif" font-weight="400" font-size="73" transform="matrix(1 0 0 1 4027.03 1227)">-</text><text font-family="Times New Roman,Times New Roman_MSFontService,sans-serif" font-weight="400" font-size="73" transform="matrix(1 0 0 1 4051.66 1227)">any.whl</text></g></svg>