<svg width="3877" height="2116" xmlns="http://www.w3.org/2000/svg" xmlns:xlink="http://www.w3.org/1999/xlink" xml:space="preserve" overflow="hidden"><defs><clipPath id="clip0"><rect x="523" y="635" width="3877" height="2116"/></clipPath></defs><g clip-path="url(#clip0)" transform="translate(-523 -635)"><rect x="637.5" y="729.5" width="766" height="175" stroke="#FF5B60" stroke-width="11.4583" stroke-linejoin="round" stroke-miterlimit="10" fill="none"/><text fill="#002060" font-family="Tw Cen MT Condensed,Tw Cen MT Condensed_MSFontService,sans-serif" font-weight="400" font-stretch="condensed" font-size="83" transform="matrix(1 0 0 1 858.825 844)">Install </text><text fill="#002060" font-family="Tw Cen MT Condensed,Tw Cen MT Condensed_MSFontService,sans-serif" font-weight="400" font-stretch="condensed" font-size="83" transform="matrix(1 0 0 1 1028.98 844)">Conda</text><rect x="637.5" y="1582.5" width="766" height="176" stroke="#FF5B60" stroke-width="11.4583" stroke-linejoin="round" stroke-miterlimit="10" fill="none"/><text fill="#002060" font-family="Tw Cen MT Condensed,Tw Cen MT Condensed_MSFontService,sans-serif" font-weight="400" font-stretch="condensed" font-size="83" transform="matrix(1 0 0 1 810.987 1698)">Install 5G Toolkit</text><rect x="637.5" y="1883.5" width="766" height="174" stroke="#FF5B60" stroke-width="11.4583" stroke-linejoin="round" stroke-miterlimit="10" fill="none"/><text fill="#002060" font-family="Tw Cen MT Condensed,Tw Cen MT Condensed_MSFontService,sans-serif" font-weight="400" font-stretch="condensed" font-size="83" transform="matrix(1 0 0 1 798.095 1997)">Verify Installation</text><rect x="643.5" y="1029.5" width="767" height="429" stroke="#FF5B60" stroke-width="11.4583" stroke-linejoin="round" stroke-miterlimit="10" fill="none"/><rect x="668.5" y="1061.5" width="718" height="169" stroke="#05D7A0" stroke-width="9.16667" stroke-linejoin="round" stroke-miterlimit="10" stroke-dasharray="9.16667 9.16667" fill="none"/><text fill="#002060" font-family="Tw Cen MT Condensed,Tw Cen MT Condensed_MSFontService,sans-serif" font-weight="400" font-stretch="condensed" font-size="83" transform="matrix(1 0 0 1 861.89 1124)">Create </text><text fill="#002060" font-family="Tw Cen MT Condensed,Tw Cen MT Condensed_MSFontService,sans-serif" font-weight="400" font-stretch="condensed" font-size="83" transform="matrix(1 0 0 1 1039.49 1124)">Conda</text><text fill="#002060" font-family="Tw Cen MT Condensed,Tw Cen MT Condensed_MSFontService,sans-serif" font-weight="400" font-stretch="condensed" font-size="83" transform="matrix(1 0 0 1 871.057 1223)">Environment</text><rect x="668.5" y="1256.5" width="718" height="169" stroke="#05D7A0" stroke-width="9.16667" stroke-linejoin="round" stroke-miterlimit="10" stroke-dasharray="9.16667 9.16667" fill="none"/><text fill="#002060" font-family="Tw Cen MT Condensed,Tw Cen MT Condensed_MSFontService,sans-serif" font-weight="400" font-stretch="condensed" font-size="83" transform="matrix(1 0 0 1 856.161 1368)">Install Pytho</text><text fill="#002060" font-family="Tw Cen MT Condensed,Tw Cen MT Condensed_MSFontService,sans-serif" font-weight="400" font-stretch="condensed" font-size="83" transform="matrix(1 0 0 1 1166.68 1368)">n</text><rect x="643.5" y="2182.5" width="767" height="175" stroke="#FF5B60" stroke-width="11.4583" stroke-linejoin="round" stroke-miterlimit="10" fill="none"/><text fill="#002060" font-family="Tw Cen MT Condensed,Tw Cen MT Condensed_MSFontService,sans-serif" font-weight="400" font-stretch="condensed" font-size="83" transform="matrix(1 0 0 1 848.999 2297)">Install </text><text fill="#002060" font-family="Tw Cen MT Condensed,Tw Cen MT Condensed_MSFontService,sans-serif" font-weight="400" font-stretch="condensed" font-size="83" transform="matrix(1 0 0 1 1019.16 2297)">Jupyter</text><rect x="637.5" y="2482.5" width="766" height="175" stroke="#FF5B60" stroke-width="11.4583" stroke-linejoin="round" stroke-miterlimit="10" fill="none"/><text fill="#002060" font-family="Tw Cen MT Condensed,Tw Cen MT Condensed_MSFontService,sans-serif" font-weight="400" font-stretch="condensed" font-size="83" transform="matrix(1 0 0 1 847.652 2597)">Verify License</text><text font-family="Consolas,Consolas_MSFontService,sans-serif" font-weight="400" font-size="64" transform="matrix(1 0 0 1 1585.83 789)">wget</text><text fill="#9454C3" font-family="Consolas,Consolas_MSFontService,sans-serif" font-weight="400" font-size="64" text-decoration="underline" transform="matrix(1 0 0 1 1763.44 789)">https</text><text fill="#9454C3" font-family="Consolas,Consolas_MSFontService,sans-serif" font-weight="400" font-size="64" text-decoration="underline" transform="matrix(1 0 0 1 1941.04 789)">:</text><text fill="#9454C3" font-family="Consolas,Consolas_MSFontService,sans-serif" font-weight="400" font-size="64" text-decoration="underline" transform="matrix(1 0 0 1 1976.56 789)">//</text><text fill="#9454C3" font-family="Consolas,Consolas_MSFontService,sans-serif" font-weight="400" font-size="64" text-decoration="underline" transform="matrix(1 0 0 1 2047.6 789)">repo</text><text fill="#9454C3" font-family="Consolas,Consolas_MSFontService,sans-serif" font-weight="400" font-size="64" text-decoration="underline" transform="matrix(1 0 0 1 2189.69 789)">.</text><text fill="#9454C3" font-family="Consolas,Consolas_MSFontService,sans-serif" font-weight="400" font-size="64" text-decoration="underline" transform="matrix(1 0 0 1 2225.21 789)">anaconda</text><text fill="#9454C3" font-family="Consolas,Consolas_MSFontService,sans-serif" font-weight="400" font-size="64" text-decoration="underline" transform="matrix(1 0 0 1 2509.38 789)">.</text><text fill="#9454C3" font-family="Consolas,Consolas_MSFontService,sans-serif" font-weight="400" font-size="64" text-decoration="underline" transform="matrix(1 0 0 1 2544.9 789)">com</text><text fill="#9454C3" font-family="Consolas,Consolas_MSFontService,sans-serif" font-weight="400" font-size="64" text-decoration="underline" transform="matrix(1 0 0 1 2651.46 789)">/</text><text fill="#9454C3" font-family="Consolas,Consolas_MSFontService,sans-serif" font-weight="400" font-size="64" text-decoration="underline" transform="matrix(1 0 0 1 2686.98 789)">miniconda</text><text fill="#9454C3" font-family="Consolas,Consolas_MSFontService,sans-serif" font-weight="400" font-size="64" text-decoration="underline" transform="matrix(1 0 0 1 3006.67 789)">/</text><text fill="#9454C3" font-family="Consolas,Consolas_MSFontService,sans-serif" font-weight="400" font-size="64" text-decoration="underline" transform="matrix(1 0 0 1 3042.19 789)">Miniconda3</text><text fill="#9454C3" font-family="Consolas,Consolas_MSFontService,sans-serif" font-weight="400" font-size="64" text-decoration="underline" transform="matrix(1 0 0 1 3397.4 789)">-</text><text fill="#9454C3" font-family="Consolas,Consolas_MSFontService,sans-serif" font-weight="400" font-size="64" text-decoration="underline" transform="matrix(1 0 0 1 3432.92 789)">latest</text><text fill="#9454C3" font-family="Consolas,Consolas_MSFontService,sans-serif" font-weight="400" font-size="64" text-decoration="underline" transform="matrix(1 0 0 1 3646.04 789)">-</text><text fill="#9454C3" font-family="Consolas,Consolas_MSFontService,sans-serif" font-weight="400" font-size="64" text-decoration="underline" transform="matrix(1 0 0 1 3681.56 789)">Linux</text><text fill="#9454C3" font-family="Consolas,Consolas_MSFontService,sans-serif" font-weight="400" font-size="64" text-decoration="underline" transform="matrix(1 0 0 1 3859.17 789)">-</text><text fill="#9454C3" font-family="Consolas,Consolas_MSFontService,sans-serif" font-weight="400" font-size="64" text-decoration="underline" transform="matrix(1 0 0 1 3894.69 789)">x86_64</text><text fill="#9454C3" font-family="Consolas,Consolas_MSFontService,sans-serif" font-weight="400" font-size="64" text-decoration="underline" transform="matrix(1 0 0 1 4107.81 789)">.</text><text fill="#9454C3" font-family="Consolas,Consolas_MSFontService,sans-serif" font-weight="400" font-size="64" text-decoration="underline" transform="matrix(1 0 0 1 4143.33 789)">sh</text><text font-family="Consolas,Consolas_MSFontService,sans-serif" font-weight="400" font-size="64" transform="matrix(1 0 0 1 1585.83 889)">bash</text><text font-family="Consolas,Consolas_MSFontService,sans-serif" font-weight="400" font-size="64" transform="matrix(1 0 0 1 1763.44 889)">Miniconda3</text><text fill="#666666" font-family="Consolas,Consolas_MSFontService,sans-serif" font-weight="400" font-size="64" transform="matrix(1 0 0 1 2118.65 889)">-</text><text font-family="Consolas,Consolas_MSFontService,sans-serif" font-weight="400" font-size="64" transform="matrix(1 0 0 1 2154.17 889)">latest</text><text fill="#666666" font-family="Consolas,Consolas_MSFontService,sans-serif" font-weight="400" font-size="64" transform="matrix(1 0 0 1 2367.29 889)">-</text><text font-family="Consolas,Consolas_MSFontService,sans-serif" font-weight="400" font-size="64" transform="matrix(1 0 0 1 2402.81 889)">Linux</text><text fill="#666666" font-family="Consolas,Consolas_MSFontService,sans-serif" font-weight="400" font-size="64" transform="matrix(1 0 0 1 2580.42 889)">-</text><text font-family="Consolas,Consolas_MSFontService,sans-serif" font-weight="400" font-size="64" transform="matrix(1 0 0 1 2615.94 889)">x86_64</text><text fill="#666666" font-family="Consolas,Consolas_MSFontService,sans-serif" font-weight="400" font-size="64" transform="matrix(1 0 0 1 2829.06 889)">.</text><text font-family="Consolas,Consolas_MSFontService,sans-serif" font-weight="400" font-size="64" transform="matrix(1 0 0 1 2864.58 889)">sh</text><text font-family="Consolas,Consolas_MSFontService,sans-serif" font-weight="400" font-size="64" transform="matrix(1 0 0 1 1585.83 1205)">conda</text><text font-family="Consolas,Consolas_MSFontService,sans-serif" font-weight="400" font-size="64" transform="matrix(1 0 0 1 1798.96 1205)">create</text><text fill="#666666" font-family="Consolas,Consolas_MSFontService,sans-serif" font-weight="400" font-size="64" transform="matrix(1 0 0 1 2047.6 1205)">-</text><text font-family="Consolas,Consolas_MSFontService,sans-serif" font-weight="400" font-size="64" transform="matrix(1 0 0 1 2083.12 1205)">n</text><text font-family="Consolas,Consolas_MSFontService,sans-serif" font-weight="400" font-size="64" transform="matrix(1 0 0 1 2154.17 1205)">myenv</text><text font-family="Consolas,Consolas_MSFontService,sans-serif" font-weight="400" font-size="64" transform="matrix(1 0 0 1 2367.29 1205)">python</text><text fill="#666666" font-family="Consolas,Consolas_MSFontService,sans-serif" font-weight="400" font-size="64" transform="matrix(1 0 0 1 2580.42 1205)">==3.11</text><text font-family="Consolas,Consolas_MSFontService,sans-serif" font-weight="400" font-size="64" transform="matrix(1 0 0 1 1585.83 1282)">conda</text><text font-family="Consolas,Consolas_MSFontService,sans-serif" font-weight="400" font-size="64" transform="matrix(1 0 0 1 1798.96 1282)">activate</text><text font-family="Consolas,Consolas_MSFontService,sans-serif" font-weight="400" font-size="64" transform="matrix(1 0 0 1 2118.65 1282)">myenv</text><text font-family="Consolas,Consolas_MSFontService,sans-serif" font-weight="400" font-size="64" transform="matrix(1 0 0 1 1585.83 1606)">pip</text><text font-family="Consolas,Consolas_MSFontService,sans-serif" font-weight="400" font-size="64" transform="matrix(1 0 0 1 1727.92 1606)">install</text><text font-family="Consolas,Consolas_MSFontService,sans-serif" font-weight="400" font-size="64" transform="matrix(1 0 0 1 1585.83 1683)">https</text><text fill="#404040" font-family="Consolas,Consolas_MSFontService,sans-serif" font-weight="400" font-size="64" transform="matrix(1 0 0 1 1763.44 1683)">:</text><text fill="#666666" font-family="Consolas,Consolas_MSFontService,sans-serif" font-weight="400" font-size="64" transform="matrix(1 0 0 1 1798.96 1683)">//</text><text font-family="Consolas,Consolas_MSFontService,sans-serif" font-weight="400" font-size="64" transform="matrix(1 0 0 1 1870 1683)">github</text><text fill="#666666" font-family="Consolas,Consolas_MSFontService,sans-serif" font-weight="400" font-size="64" transform="matrix(1 0 0 1 2083.12 1683)">.</text><text font-family="Consolas,Consolas_MSFontService,sans-serif" font-weight="400" font-size="64" transform="matrix(1 0 0 1 2118.65 1683)">com</text><text fill="#666666" font-family="Consolas,Consolas_MSFontService,sans-serif" font-weight="400" font-size="64" transform="matrix(1 0 0 1 2225.21 1683)">/</text><text font-family="Consolas,Consolas_MSFontService,sans-serif" font-weight="400" font-size="64" transform="matrix(1 0 0 1 2260.73 1683)">GigayasaWireless</text><text fill="#666666" font-family="Consolas,Consolas_MSFontService,sans-serif" font-weight="400" font-size="64" transform="matrix(1 0 0 1 2829.06 1683)">/</text><text font-family="Consolas,Consolas_MSFontService,sans-serif" font-weight="400" font-size="64" transform="matrix(1 0 0 1 2864.58 1683)">toolkit5G</text><text fill="#666666" font-family="Consolas,Consolas_MSFontService,sans-serif" font-weight="400" font-size="64" transform="matrix(1 0 0 1 3184.27 1683)">/</text><text font-family="Consolas,Consolas_MSFontService,sans-serif" font-weight="400" font-size="64" transform="matrix(1 0 0 1 3219.79 1683)">raw</text><text fill="#666666" font-family="Consolas,Consolas_MSFontService,sans-serif" font-weight="400" font-size="64" transform="matrix(1 0 0 1 3326.35 1683)">/</text><text font-family="Consolas,Consolas_MSFontService,sans-serif" font-weight="400" font-size="64" transform="matrix(1 0 0 1 3361.87 1683)">R23a.0.10</text><text fill="#666666" font-family="Consolas,Consolas_MSFontService,sans-serif" font-weight="400" font-size="64" transform="matrix(1 0 0 1 3681.56 1683)">/</text><text font-family="Consolas,Consolas_MSFontService,sans-serif" font-weight="400" font-size="64" transform="matrix(1 0 0 1 3717.08 1683)">toolkit5G</text><text fill="#666666" font-family="Consolas,Consolas_MSFontService,sans-serif" font-weight="400" font-size="64" transform="matrix(1 0 0 1 4036.77 1683)">-</text><text fill="#666666" font-family="Consolas,Consolas_MSFontService,sans-serif" font-weight="400" font-size="64" transform="matrix(1 0 0 1 1585.83 1760)">0.10</text><text fill="#666666" font-family="Consolas,Consolas_MSFontService,sans-serif" font-weight="400" font-size="64" transform="matrix(1 0 0 1 1727.92 1760)">-</text><text font-family="Consolas,Consolas_MSFontService,sans-serif" font-weight="400" font-size="64" transform="matrix(1 0 0 1 1763.44 1760)">py3</text><text fill="#666666" font-family="Consolas,Consolas_MSFontService,sans-serif" font-weight="400" font-size="64" transform="matrix(1 0 0 1 1870 1760)">-</text><text font-family="Consolas,Consolas_MSFontService,sans-serif" font-weight="400" font-size="64" transform="matrix(1 0 0 1 1905.52 1760)">none</text><text fill="#666666" font-family="Consolas,Consolas_MSFontService,sans-serif" font-weight="400" font-size="64" transform="matrix(1 0 0 1 2047.6 1760)">-</text><text fill="#008000" font-family="Consolas,Consolas_MSFontService,sans-serif" font-weight="400" font-size="64" transform="matrix(1 0 0 1 2083.12 1760)">any</text><text fill="#666666" font-family="Consolas,Consolas_MSFontService,sans-serif" font-weight="400" font-size="64" transform="matrix(1 0 0 1 2189.69 1760)">.</text><text font-family="Consolas,Consolas_MSFontService,sans-serif" font-weight="400" font-size="64" transform="matrix(1 0 0 1 2225.21 1760)">whl</text><text font-family="Consolas,Consolas_MSFontService,sans-serif" font-weight="400" font-size="64" transform="matrix(1 0 0 1 1585.83 1984)">pip</text><text font-family="Consolas,Consolas_MSFontService,sans-serif" font-weight="400" font-size="64" transform="matrix(1 0 0 1 1727.92 1984)">show</text><text font-family="Consolas,Consolas_MSFontService,sans-serif" font-weight="400" font-size="64" transform="matrix(1 0 0 1 1905.52 1984)">toolkit5G</text><text font-family="Consolas,Consolas_MSFontService,sans-serif" font-weight="400" font-size="64" transform="matrix(1 0 0 1 1585.83 2292)">pip</text><text font-family="Consolas,Consolas_MSFontService,sans-serif" font-weight="400" font-size="64" transform="matrix(1 0 0 1 1727.92 2292)">install</text><text fill="#404040" font-family="Consolas,Consolas_MSFontService,sans-serif" font-weight="400" font-size="64" transform="matrix(1 0 0 1 2012.08 2292)">jupyte</text><text fill="#404040" font-family="Consolas,Consolas_MSFontService,sans-serif" font-weight="400" font-size="64" transform="matrix(1 0 0 1 2225.21 2292)">r</text><text font-family="Consolas,Consolas_MSFontService,sans-serif" font-weight="400" font-size="64" transform="matrix(1 0 0 1 1585.83 2537)">i</text><text font-family="Consolas,Consolas_MSFontService,sans-serif" font-weight="400" font-size="64" transform="matrix(1 0 0 1 1621.35 2537)">mport toolkit5G as </text><text font-family="Consolas,Consolas_MSFontService,sans-serif" font-weight="400" font-size="64" transform="matrix(1 0 0 1 2296.25 2537)">tk</text><text font-family="Consolas,Consolas_MSFontService,sans-serif" font-weight="400" font-size="64" transform="matrix(1 0 0 1 1585.83 2637)">tk</text><text font-family="Consolas,Consolas_MSFontService,sans-serif" font-weight="400" font-size="64" transform="matrix(1 0 0 1 1656.87 2637)">.__version__</text></g></svg>