<svg width="420" height="103" xmlns="http://www.w3.org/2000/svg" xmlns:xlink="http://www.w3.org/1999/xlink" xml:space="preserve" overflow="hidden"><defs><clipPath id="clip0"><rect x="671" y="93" width="420" height="103"/></clipPath><clipPath id="clip1"><rect x="687" y="101" width="219" height="73"/></clipPath><clipPath id="clip2"><rect x="687" y="101" width="219" height="73"/></clipPath><clipPath id="clip3"><rect x="687" y="88" width="219" height="99"/></clipPath></defs><g clip-path="url(#clip0)" transform="translate(-671 -93)"><g clip-path="url(#clip1)"><g clip-path="url(#clip2)"><g clip-path="url(#clip3)"><path d="M90.335 37.7364C90.5037 37.7576 90.6686 37.8034 90.824 37.8723 90.9762 37.9444 91.1166 38.0392 91.2406 38.153 91.4009 38.3061 91.5513 38.4694 91.6905 38.6421L104.222 54.4823C104.171 53.9782 104.137 53.4831 104.113 53.0091 104.089 52.5351 104.077 52.0823 104.077 51.6597L104.077 37.6851 109.472 37.6851 109.472 64.0644 106.284 64.0644C105.875 64.0761 105.469 64.0019 105.091 63.847 104.717 63.6623 104.394 63.3884 104.15 63.05L91.7086 47.3517C91.7478 47.8075 91.775 48.2573 91.7991 48.6981 91.8233 49.1389 91.8384 49.5525 91.8384 49.9389L91.8384 64.0795 86.4406 64.0795 86.4406 37.6851 89.6618 37.6851C89.887 37.6875 90.1119 37.7047 90.335 37.7364Z" fill="#4D77CF" transform="matrix(1.00035 0 0 1 687 88.4755)"/><path d="M118.341 45.2837 118.341 57.1964C118.341 58.1262 118.553 58.8447 118.975 59.3519 119.447 59.8787 120.135 60.1594 120.841 60.1126 121.439 60.1165 122.03 59.9867 122.571 59.7322 123.143 59.4551 123.671 59.0949 124.138 58.6635L124.138 45.2837 129.75 45.2837 129.75 64.0583 126.275 64.0583C125.65 64.1103 125.075 63.7172 124.895 63.1164L124.554 62.0296C124.201 62.3717 123.826 62.6905 123.431 62.9836 123.043 63.2659 122.628 63.5074 122.191 63.7051 121.73 63.9125 121.25 64.0725 120.757 64.1821 120.21 64.3011 119.652 64.3587 119.093 64.3542 118.16 64.3711 117.233 64.1891 116.376 63.8198 115.606 63.4787 114.922 62.9688 114.375 62.3285 113.818 61.6628 113.399 60.8933 113.143 60.0643 112.857 59.1378 112.716 58.1721 112.726 57.2024L112.726 45.2837Z" fill="#4D77CF" transform="matrix(1.00035 0 0 1 687 88.4755)"/><path d="M133.37 64.0644 133.37 45.2837 136.847 45.2837C137.157 45.2725 137.463 45.3547 137.726 45.5192 137.969 45.6892 138.146 45.9391 138.224 46.2256L138.526 47.24C138.831 46.9169 139.156 46.6141 139.501 46.3343 139.841 46.0614 140.208 45.8247 140.597 45.6279 141.452 45.1937 142.4 44.9731 143.359 44.9848 144.371 44.9453 145.366 45.2556 146.176 45.8633 146.939 46.4789 147.523 47.288 147.866 48.206 148.164 47.6502 148.553 47.1482 149.017 46.7207 149.455 46.3207 149.949 45.9862 150.484 45.7275 151.013 45.4727 151.572 45.284 152.147 45.166 152.723 45.0461 153.31 44.9854 153.898 44.9848 154.872 44.9679 155.842 45.1307 156.757 45.4648 157.554 45.7604 158.27 46.238 158.849 46.8596 159.431 47.508 159.866 48.2743 160.126 49.1057 160.43 50.0826 160.577 51.1015 160.561 52.1246L160.561 64.0553 154.946 64.0553 154.946 52.1336C154.946 50.1894 154.113 49.2183 152.449 49.2204 151.741 49.1977 151.056 49.47 150.556 49.9721 150.055 50.4693 149.805 51.1896 149.805 52.1336L149.805 64.0644 144.198 64.0644 144.198 52.1336C144.198 51.0589 143.987 50.3042 143.564 49.8694 143.142 49.4347 142.52 49.2204 141.699 49.2204 141.199 49.2192 140.705 49.336 140.259 49.5615 139.79 49.8048 139.359 50.1161 138.982 50.4853L138.982 64.0704Z" fill="#4D77CF" transform="matrix(1.00035 0 0 1 687 88.4755)"/><path d="M169.944 55.2461 169.944 64.0644 163.824 64.0644 163.824 37.6851 173.129 37.6851C174.75 37.6492 176.367 37.8702 177.92 38.3402 179.131 38.7109 180.252 39.3277 181.213 40.1516 182.06 40.8972 182.715 41.8352 183.124 42.8867 183.538 43.9729 183.742 45.127 183.728 46.289 183.743 47.5253 183.528 48.7537 183.094 49.9117 182.682 50.9946 182.018 51.9634 181.156 52.7374 180.196 53.5746 179.071 54.2001 177.853 54.5729 176.324 55.0469 174.729 55.2742 173.129 55.2461ZM169.944 50.6302 173.129 50.6302C174.723 50.6302 175.87 50.2528 176.57 49.4891 177.271 48.7253 177.621 47.6777 177.621 46.3041 177.628 45.7429 177.536 45.185 177.349 44.6558 177.176 44.1728 176.894 43.7359 176.525 43.3788 176.126 43.0056 175.65 42.7243 175.13 42.5546 174.484 42.346 173.808 42.244 173.129 42.2527L169.944 42.2527Z" fill="#4D77CF" transform="matrix(1.00035 0 0 1 687 88.4755)"/><path d="M194.602 68.9369C194.475 69.2578 194.267 69.5404 193.998 69.758 193.648 69.9612 193.243 70.0527 192.839 70.0207L188.628 70.0207 192.25 62.4191 184.758 45.2837 189.718 45.2837C190.08 45.2653 190.439 45.3719 190.732 45.5856 190.962 45.7631 191.138 46.0016 191.239 46.2739L194.315 54.3676C194.6 55.097 194.836 55.8442 195.022 56.6046 195.143 56.2182 195.275 55.8378 195.42 55.4665 195.565 55.0952 195.704 54.7118 195.837 54.3254L198.626 46.2679C198.732 45.9772 198.933 45.7314 199.197 45.5705 199.464 45.3894 199.78 45.2916 200.103 45.2898L204.631 45.2898Z" fill="#4D77CF" transform="matrix(1.00035 0 0 1 687 88.4755)"/><path d="M39.9644 29.1023 28.7552 23.4449 16.4501 29.5854 27.9642 35.3666 39.9644 29.1023Z" fill="#4DABCF" transform="matrix(1.00035 0 0 1 687 88.4755)"/><path d="M45.1056 31.6956 56.8582 37.6308 44.6648 43.7531 33.1326 37.9628 45.1056 31.6956Z" fill="#4DABCF" transform="matrix(1.00035 0 0 1 687 88.4755)"/><path d="M60.804 23.5294 72.8796 29.5854 62.0779 35.0073 50.3011 29.0661 60.804 23.5294Z" fill="#4DABCF" transform="matrix(1.00035 0 0 1 687 88.4755)"/><path d="M55.6054 20.9211 44.7343 15.4689 33.9809 20.8365 45.1841 26.4849 55.6054 20.9211Z" fill="#4DABCF" transform="matrix(1.00035 0 0 1 687 88.4755)"/><path d="M47.1071 67.7324 47.1071 82.5673 60.2756 75.9951 60.2636 61.1541 47.1071 67.7324Z" fill="#4DABCF" transform="matrix(1.00035 0 0 1 687 88.4755)"/><path d="M60.2575 55.9737 60.2424 41.2897 47.1071 47.8196 47.1071 62.5096 60.2575 55.9737Z" fill="#4DABCF" transform="matrix(1.00035 0 0 1 687 88.4755)"/><path d="M76.0676 53.2235 76.0676 68.1158 64.8342 73.7189 64.8251 58.896 76.0676 53.2235Z" fill="#4DABCF" transform="matrix(1.00035 0 0 1 687 88.4755)"/><path d="M76.0676 48.0158 76.0676 33.4224 64.8131 39.0164 64.8221 53.7306 76.0676 48.0158Z" fill="#4DABCF" transform="matrix(1.00035 0 0 1 687 88.4755)"/><path d="M42.458 47.8196 33.5884 43.3576 33.5884 62.6304C33.5884 62.6304 22.7385 39.5478 21.7362 37.4738 21.6064 37.2051 21.075 36.9123 20.9392 36.8398 18.9829 35.8194 13.2832 32.9333 13.2832 32.9333L13.2832 66.9957 21.1686 71.2222 21.1686 53.4106C21.1686 53.4106 31.9009 74.0359 32.0126 74.2623 32.1243 74.4887 33.196 76.6593 34.3492 77.4231 35.8798 78.4404 42.452 82.3922 42.452 82.3922Z" fill="#4D77CF" transform="matrix(1.00035 0 0 1 687 88.4755)"/></g></g></g><rect x="919" y="98" width="169" height="78" stroke="#4D77CF" stroke-width="5.72917" stroke-linejoin="round" stroke-miterlimit="10" fill="#4D77CF"/><text fill="#FFFFFF" font-family="Tw Cen MT Condensed,Tw Cen MT Condensed_MSFontService,sans-serif" font-weight="400" font-stretch="condensed" font-size="48" transform="matrix(1 0 0 1 956.614 153)">1.21+</text><rect x="674" y="98" width="245" height="78" stroke="#4D77CF" stroke-width="5.72917" stroke-linejoin="round" stroke-miterlimit="10" fill="none"/></g></svg>